<?xml version="1.0" encoding="utf-8"?>
<!-- Generator: Adobe Illustrator 25.2.3, SVG Export Plug-In . SVG Version: 6.00 Build 0)  -->
<svg version="1.1" id="Layer_1" xmlns="http://www.w3.org/2000/svg" xmlns:xlink="http://www.w3.org/1999/xlink" x="0px" y="0px"
	 viewBox="0 0 800 800" style="enable-background:new 0 0 800 800;" xml:space="preserve">
<style type="text/css">
	.st0{fill:#000105;}
	.st1{fill:#FFF243;}
</style>
<g>
	<g>
		<g>
			<path class="st0" d="M0,752l0.2-420.4L800,48l-0.2,420.4L0,752z"/>
		</g>
	</g>
	<g>
		<g>
			<polygon class="st1" points="57.4,374 57.4,669.1 165.4,630.7 165.4,335.7 			"/>
		</g>
		<g>
			<polygon class="st1" points="742.8,131.1 636.3,168.9 636.3,464 742.8,426.2 			"/>
		</g>
		<g>
			<polygon class="st1" points="368.3,263.7 261.6,301.5 261.6,406.5 368.3,541.8 			"/>
		</g>
		<g>
			<polygon class="st1" points="617.5,175.4 510.7,213.3 510.7,318.3 617.5,453.6 			"/>
		</g>
		<g>
			<polygon class="st1" points="184.1,513.7 252.3,599.9 359.6,561.8 184.1,340.5 			"/>
		</g>
		<g>
			<polygon class="st1" points="386.9,257 386.9,367.4 429,420 386.9,435.1 386.9,512.8 477,480.8 501.1,511.4 609.2,473.2 
				426.8,242.8 			"/>
		</g>
	</g>
</g>
</svg>
