<?xml version="1.0" encoding="utf-8"?>
<!-- Generator: Adobe Illustrator 22.0.1, SVG Export Plug-In . SVG Version: 6.00 Build 0)  -->
<svg version="1.1" id="Layer_1" xmlns="http://www.w3.org/2000/svg" xmlns:xlink="http://www.w3.org/1999/xlink" x="0px" y="0px"
	 viewBox="0 0 800 800" style="enable-background:new 0 0 800 800;" xml:space="preserve">
<style type="text/css">
	.st0{fill:#FF5900;}
</style>
<g>
	<g id="Logo">
		<path class="st0" d="M380.4,168.1c-35.5,0-68.7,2.2-102,4.4c-88.7,6.7-175.2,22.2-261.6,44.3l75.4,86.5
			c57.7-13.3,115.3-22.2,173-26.6c-26.6,106.4-86.5,199.6-173,263.9v122c146.3-82,248.3-226.2,279.4-392.5
			C378.2,236.9,380.4,201.4,380.4,168.1z"/>
		<path class="st0" d="M784,216.9c-86.5-22.2-173-37.7-261.6-44.3c-33.3-2.2-68.7-4.4-102-4.4c0,35.5,2.2,68.7,8.9,102
			c31,166.3,133,308.2,279.4,392.5v-122c-86.5-64.3-146.3-157.4-173-263.9c57.7,4.4,115.3,15.5,173,26.6L784,216.9z"/>
		<polygon class="st0" points="353.8,664.8 447,558.4 447,445.3 353.8,445.3 		"/>
	</g>
</g>
</svg>
