<?xml version="1.0" encoding="utf-8"?>
<!-- Generator: Adobe Illustrator 23.0.0, SVG Export Plug-In . SVG Version: 6.00 Build 0)  -->
<svg version="1.1" id="Layer_1" xmlns="http://www.w3.org/2000/svg" xmlns:xlink="http://www.w3.org/1999/xlink" x="0px" y="0px" height="800px" width="800px"
	 viewBox="0 0 772.4 772.4" style="enable-background:new 0 0 772.4 772.4;" xml:space="preserve">
<style type="text/css">
	.st0{fill:#FF0000;}
	.st1{fill:#FFFFFF;}
</style>
<g>
	<polygon class="st0" points="386.4,252.6 112.8,199.8 386.4,541.8 660.1,199.8 	"/>
	<g>
		<path class="st1" d="M238.3,397.1l-12.2-2.2c-0.3,0-0.5-0.1-0.8-0.1l-87-15.5c0,0,34.5,53.2,63.8,58.4c0.5,0.1,1,0.2,1.5,0.3
			l58.1,10.4C262,409.4,250.7,400.3,238.3,397.1z"/>
		<path class="st1" d="M248.3,301.7c0.3-38.9-11-48-23.5-51.2l-12.2-2.2c-0.3,0-0.5-0.1-0.8-0.1l-211-39.4c0,0,34.5,53.2,63.8,58.4
			c0.5,0.1,125,24.1,125.5,24.2L248.3,301.7z"/>
		<path class="st1" d="M546.8,394.9l-12.2,2.2c-12.4,3.2-23.8,12.3-23.5,51.2l58.1-10.4c0.5-0.1,1-0.2,1.5-0.3
			c29.2-5.2,63.8-58.4,63.8-58.4l-87,15.5C547.3,394.8,547,394.9,546.8,394.9z"/>
		<path class="st1" d="M560.9,248.2c-0.3,0-0.5,0.1-0.8,0.1l-12.2,2.2c-12.4,3.2-23.8,12.3-23.5,51.2l58.1-10.4
			c0.5-0.1,125-24.1,125.5-24.2c29.2-5.2,63.8-58.4,63.8-58.4L560.9,248.2z"/>
		<path class="st1" d="M507.7,257.4c0,0-42.8,5.8-50.7,8.7c-6.1,2.2-22.5,8.1-23.6,25.9c-1.1,17.9-2.7,50.3-2.7,50.3l-44.3,8.2
			l-44.3-8.2c0,0-1.6-32.4-2.7-50.3c-1.1-17.9-17.5-23.7-23.6-25.9c-7.9-2.8-50.7-8.7-50.7-8.7L271,328L68.8,292
			c0,0,34.5,53.2,63.8,58.4c0.6,0.1,1.3,0.2,1.9,0.3l140.5,25l8.4,101.6l78.2,95c0,0-10.2-125-11.7-140.4
			c-1.5-15.4-16.1-18.3-30.7-18.3v-31l67.2,14.3l67.2-14.3v31c-14.6,0-29.2,3-30.7,18.3s-11.7,140.4-11.7,140.4l78.2-95l8.4-101.6
			l140.5-25c0.6-0.1,1.2-0.2,1.9-0.3C669.5,345.2,704,292,704,292l-202.2,36L507.7,257.4z"/>
	</g>
</g>
</svg>
