<?xml version="1.0" encoding="utf-8"?>
<!-- Generator: Adobe Illustrator 23.0.4, SVG Export Plug-In . SVG Version: 6.00 Build 0)  -->
<svg version="1.1" id="Layer_1" xmlns="http://www.w3.org/2000/svg" xmlns:xlink="http://www.w3.org/1999/xlink" x="0px" y="0px"
	 viewBox="0 0 186.3 186.3" width="800px" height="800px" style="enable-background:new 0 0 186.3 186.3;" xml:space="preserve">
<style type="text/css">
	.st0{fill:#12233E;}
	.st1{fill:#FFFFFF;}
</style>
<g>
	<path id="base_4_" class="st0" d="M93.5,185.1c0,0-33.2-12.4-51.7-25.1c-27.9-19.3-29-46-29-99.4V28.9L93.5,1.1l80.7,27.8v31.7
		c0,53.4-1.1,80.1-29.1,99.4C126.7,172.8,93.5,185.1,93.5,185.1z"/>
</g>
<g id="new_1_">
	<g>
		<path class="st1" d="M43.6,111.4c-5.1,2.5-11.8,5.4-19.2,8.1c1.3,5.7,3.1,10.7,5.6,15.3c5.6-3.5,10.5-7.1,14.3-10.1
			C43.7,120,43.5,115.6,43.6,111.4z"/>
		<path class="st1" d="M56.1,69.8L56.1,69.8c-9.4-3.8-23.5-10.5-35.3-19.4v13c0,2.4,0,4.8,0,7.1c11,4.2,22.3,6.8,30.2,8.1
			C52.6,75.5,54.3,72.6,56.1,69.8z"/>
		<path class="st1" d="M69.4,54.9c-6.5-6.7-15.6-17.3-22.6-29l-18,6.2c10,12.6,24.1,23.6,33.4,29.8C64.5,59.3,66.9,57,69.4,54.9z"/>
		<path class="st1" d="M77.6,48.7L77.6,48.7c3.3-2.1,6.5-3.8,9.4-5.1c-2.7-7.3-5.9-17.8-7.9-29l-16,5.5
			C67.5,31.4,73.2,41.7,77.6,48.7z"/>
		<path class="st1" d="M47.2,88.5L47.2,88.5c-6.9,0.3-16.3,0.2-26.1-1c0.2,5.8,0.4,11.1,0.9,16c8.7-1,16.7-2.6,22.7-4.2l0,0
			C45.3,95.6,46.1,91.9,47.2,88.5z"/>
		<path class="st1" d="M46.9,139.4c-2,2.4-4.4,5.1-7.1,8c2.1,2,4.5,3.9,7.2,5.8c1.6,1.1,3.4,2.2,5.2,3.4
			C50,150.6,48.2,144.9,46.9,139.4z"/>
		<path class="st1" d="M123.7,73.3c1.6,1.3,5.8,0.1,5.8,0.1l-3-3.6l-6.5-4.3C120,65.5,122.1,72,123.7,73.3z"/>
		<polygon class="st1" points="144.9,109.4 141,106.3 143.2,111.7 149.5,111.2 		"/>
		<path class="st1" d="M98.1,11.3c-2.7,8.6-3.5,19.1-0.5,29.5l-0.1,0c0,0,0.1,0,0.1,0c1.1-1.1,9.4-9.8,16.8-17.9
			c0,0,9.8,11.2-3.9,22.8c0,0,24.4,17.1,26,17.8c0,0-1.3,5.3-0.1,9.8l19.2,37.2l-9.7,11.4l-14.2-8l6.9,11c0,0-7.8,1-10.1-0.2
			c-1.3-7-7.5-18.2-7.5-18.2l-14.5-5.9c0,0-6.3-7.8-5.9-19.1c0,0-7.2,29.6,12.2,37l27.2,34.6c25.2-17.4,26.2-41.6,26.2-89.8V34.8
			L98.1,11.3z"/>
	</g>
</g>
</svg>
