<?xml version="1.0" encoding="utf-8"?>
<!-- Generator: Adobe Illustrator 23.0.3, SVG Export Plug-In . SVG Version: 6.00 Build 0)  -->
<svg version="1.1" id="Layer_1" xmlns="http://www.w3.org/2000/svg" xmlns:xlink="http://www.w3.org/1999/xlink" x="0px" y="0px" height="800px" width="800px"
	 viewBox="0 0 113.4 113.4" style="enable-background:new 0 0 113.4 113.4;" xml:space="preserve">
<style type="text/css">
	.st0{fill-rule:evenodd;clip-rule:evenodd;fill:#FFFFFF;}
	.st1{fill-rule:evenodd;clip-rule:evenodd;}
</style>
<g>
	<path class="st0" d="M24.6,18.7c-1.3-1.5-2.2-3.2-2.9-5c-1-3-1.1-5.9,0-8.9c0.9-2.5,3.2-3.7,5.8-2.9c4.3,1.4,8.5,2.6,12.9,3.4
		c6.2,1.2,12.3,0.8,18.3-1.1C62.8,3,67,2.4,71.2,2.7c2.8,0.2,5.5,1,8.1,1.8C82,5.3,84.6,6,87.2,6.7C87.8,6.9,88.4,7,89,6.9
		c6-0.2,11.4,1.7,16.5,4.5c1.8,1,3.6,2.2,5.2,3.5c2.3,1.9,2.9,4.4,2.1,7.2c0,0.2-0.1,0.4,0,0.5c0.7,2.1,0.4,4.1-0.1,6.2
		c-0.6,2.7-1.6,5.3-3.4,7.6c-0.2,0.3-0.3,0.7-0.4,1c-1,2.8-2.6,5.2-5.4,6.5c-0.6,0.3-1.2,0.4-1.9,0.7c1.9,2.4,3,5.1,3.7,8.1
		c0.1,0.3,0.2,0.5,0.3,0.7c4.7,8,0,18.3-9.2,19.9c-3.9,0.7-7.5-0.2-10.7-2.7c-3.4-2.7-7.4-4.1-11.7-3.7c-6.8,0.5-13.6,5.1-14.7,13.2
		c-0.9,6.9,1.3,12.6,6.9,16.7c2.3,1.7,4.9,2.5,7.8,2.7c2,0.1,4,0,6.1-0.7c-0.2,0.8-0.3,1.4-0.5,2c-1.3,3.6-3.9,6.2-7.3,7.9
		c-3.3,1.7-6.9,2.4-10.6,2.6c-4.9,0.3-9.8-0.3-14.6-1.4c-0.2,0-0.5,0-0.6,0.2c-1.1,1.5-2.6,1.9-4.3,1.7c-4.6-0.6-9.1-1.8-13.3-3.9
		c-5.4-2.7-9.6-6.7-12.7-11.9c-0.3-0.4-0.5-0.7-1.1-0.6c-1.1,0.2-2.2-0.3-3-1.1c-3.1-2.8-5.3-6.3-6.9-10.1
		c-2.4-5.7-3.2-11.7-2.9-17.9c0-0.2,0.1-0.5,0.1-0.7c0.1-0.9,0.2-1.8-0.7-2.6c-1-1-1.2-2.5-1.3-3.8c-0.7-6.1,0.6-12,2.9-17.6
		c4.2-10,11.1-17.4,20.8-22.3c0.2-0.1,0.4-0.2,0.5-0.3C24.5,18.9,24.6,18.8,24.6,18.7z M109.3,20.7c0.2-1.4-0.1-2.1-1.1-3
		c-1.8-1.6-3.9-2.8-6.1-3.8c-4.1-2-8.4-3.3-13-3.2c-0.8,0-1.7-0.1-2.5-0.2c-3.2-0.5-6.1-1.6-9.2-2.6c-2.3-0.8-4.6-1.4-7.1-1.5
		c-3.4-0.1-6.8,0.4-10,1.4c-3.2,1-6.5,1.7-9.8,2c-4.2,0.3-8.4-0.1-12.5-1.1c-3.8-0.9-7.6-2-11.4-3.1c-0.9-0.2-1.1-0.2-1.4,0.7
		C25,7.2,24.8,8.1,24.8,9c0,6.6,5.9,11.7,12.4,10.8c0.4-0.1,0.8-0.1,1.3-0.2c-0.1,0.2-0.1,0.2-0.2,0.3c-0.2,0.1-0.3,0.3-0.5,0.3
		c-2.2,1.1-4.4,1.3-6.7,0.7c-0.7-0.2-1.4-0.2-2.2,0.1c-10.8,4.5-18.4,12-22.7,23c-1.6,4.2-2.5,8.5-2.4,13c0,1.2,0.3,2.3,0.5,3.6
		c0.9-2,1.6-3.8,2.4-5.5c0.9-1.7,2.7-4,3.6-4.6c-0.3,0.6-0.6,1.2-0.8,1.7C6,60.3,4.9,68.7,6.9,77.4c1.2,4.9,3.2,9.4,6.7,13.1
		c0.4,0.4,0.8,0.7,1.2,1.1c-1-3.8-1.2-7.5-0.3-11.3c0.9,4.7,2.3,9.3,4.9,13.5c2.5,4.2,5.9,7.5,10.2,9.9c3.8,2.1,11.6,4.5,13.7,4.1
		c-3.1-1.7-5.3-4.2-6.6-7.5c1.5,1.4,3.2,2.5,5.1,3.4c5.6,2.7,11.5,3.8,17.7,3.7c3.3,0,6.5-0.4,9.5-1.7c1.4-0.6,2.7-1.3,3.7-2.5
		c-8.5-1.5-14.2-6.2-16.7-14.3c-2.5-8.2-0.1-15.3,6.1-21.3c-6.9,0.8-12.9-1.3-18-5.8c-5.9-5.1-7.7-12.6-7.2-17.2
		c0.1,0.8,0.2,1.6,0.3,2.4c0.9,4.9,2.9,9.2,6.6,12.6c4.6,4.2,10,6,16.1,6c2.5,0,5-0.3,7.3-1.2c7.5-2.9,14.4-1.9,20.7,3.1
		c2.1,1.6,4.5,2.3,7.1,2c7-0.9,10.6-8.7,6.9-14.6c-0.3-0.4-0.4-0.9-0.5-1.4c-0.5-2.1-1.1-4-2.3-5.8c-0.1-0.2-0.3-0.4-0.6-0.7
		c-0.1,0.3-0.2,0.4-0.2,0.6c-0.3,1.8-0.6,3.6-0.9,5.4c-0.2,1,0.1,1.4,1.1,1.6c0.2,0,0.4,0.1,0.8,0.2c-1.7,0.7-2.3,0.3-2.5-1.2
		c0,0,0-0.1,0-0.1c-0.3-2.2-0.9-4.3-2.6-5.9c-0.2-0.2-0.5-0.3-0.7-0.4c-0.1,0.2-0.3,0.5-0.3,0.7c-0.2,1-0.2,2-0.5,2.9
		c-0.4,1.5-0.8,3-1.2,4.6c-0.8-0.2-1.5-0.4-2.2-0.5c-2.7-0.6-5.4-1.3-8.2-1.8c-1.9-0.4-3.9-0.6-5.8-1.1c-1.8-0.5-3.3-1.5-3.6-3.6
		c0-0.1,0-0.3,0-0.4c1.5,3.1,4.3,3.8,7.3,4.1c-0.5-0.5-1.1-0.8-1.6-1.3c-1.1-0.8-2-1.9-2.1-3.4c-0.1-1.9,0.1-3.8,1-5.6
		c1.4-3,3.6-5.1,6.3-6.9c0.2-0.1,0.3-0.3,0.5-0.4c0-0.1-0.1-0.1-0.1-0.2c-4.2,0.5-7.6,2.3-10.1,5.7c0.2-0.6,0.4-1.1,0.7-1.6
		c2.4-3.9,6-5.6,10.5-5.8c3-0.2,5.9,0.3,8.8,0.8c0.7,0.1,0.9,0.4,0.9,1c-0.1,2-0.1,4-0.2,5.9c0,0.2,0,0.5,0.2,0.7
		c0.1,0.1,0.4,0,0.6-0.1c1.4-0.6,2.6-1.4,3.4-2.7c0.8-1.2,1.5-2.5,2.3-3.9c0.7,0.1,1.5,0.1,2.3,0.2c0,0,0,0,0,0.1
		c-0.5,0.1-1,0.1-1.5,0.2c0,1.6,0,3.3,0,4.9c0,0.2,0,0.4,0.1,0.7c0.2,0,0.5-0.1,0.7-0.2c1.6-0.8,2.6-2.2,3.2-3.8
		c0.4-1.1,0.8-2.2,1.6-3.2c1.7-2.3,2.4-5,2.7-7.8c0.2-1.7-0.5-2.9-1.9-3.9c-0.6-0.4-1.2-0.8-1.7-1.2c-0.8-0.8-1.6-1.6-2.4-2.5
		c-0.1-0.1-0.1-0.3-0.1-0.5c0.2,0,0.4,0,0.5,0.1c0.3,0.1,0.6,0.3,0.8,0.5C106.1,19,107.6,19.8,109.3,20.7z"/>
	<path class="st1" d="M109.3,20.7c-1.6-0.9-3.2-1.7-4.7-2.6c-0.3-0.2-0.5-0.4-0.8-0.5c-0.1-0.1-0.3,0-0.5-0.1c0,0.2,0,0.4,0.1,0.5
		c0.8,0.8,1.6,1.7,2.4,2.5c0.5,0.5,1.1,0.8,1.7,1.2c1.4,0.9,2.1,2.2,1.9,3.9c-0.3,2.8-0.9,5.5-2.7,7.8c-0.8,1-1.2,2.1-1.6,3.2
		c-0.6,1.6-1.6,3-3.2,3.8c-0.2,0.1-0.5,0.1-0.7,0.2c0-0.2-0.1-0.4-0.1-0.7c0-1.6,0-3.2,0-4.9c0.5-0.1,1-0.1,1.5-0.2c0,0,0,0,0-0.1
		c-0.8-0.1-1.6-0.2-2.3-0.2c-0.8,1.3-1.5,2.7-2.3,3.9c-0.8,1.2-2,2.1-3.4,2.7c-0.2,0.1-0.5,0.2-0.6,0.1c-0.1-0.1-0.2-0.4-0.2-0.7
		c0.1-2,0.1-4,0.2-5.9c0-0.6-0.2-0.9-0.9-1c-2.9-0.5-5.8-0.9-8.8-0.8c-4.4,0.2-8.1,1.9-10.5,5.8c-0.3,0.5-0.5,1-0.7,1.6
		c2.6-3.4,6-5.3,10.1-5.7c0,0.1,0.1,0.1,0.1,0.2c-0.2,0.1-0.3,0.3-0.5,0.4c-2.7,1.8-4.9,3.9-6.3,6.9c-0.8,1.8-1.1,3.7-1,5.6
		c0.1,1.5,0.9,2.5,2.1,3.4c0.5,0.4,1.1,0.8,1.6,1.3c-3-0.4-5.8-1-7.3-4.1c0,0.1-0.1,0.3,0,0.4c0.3,2.1,1.7,3.1,3.6,3.6
		c1.9,0.5,3.9,0.7,5.8,1.1c2.7,0.6,5.4,1.2,8.2,1.8c0.7,0.2,1.3,0.3,2.2,0.5c0.4-1.6,0.9-3,1.2-4.6c0.2-1,0.3-2,0.5-2.9
		c0-0.3,0.2-0.5,0.3-0.7c0.2,0.1,0.5,0.2,0.7,0.4c1.7,1.6,2.3,3.7,2.6,5.9c0,0,0,0.1,0,0.1c0.1,1.5,0.8,1.9,2.5,1.2
		c-0.4-0.1-0.6-0.1-0.8-0.2c-1-0.2-1.2-0.6-1.1-1.6c0.3-1.8,0.6-3.6,0.9-5.4c0-0.1,0.1-0.3,0.2-0.6c0.2,0.3,0.4,0.5,0.6,0.7
		c1.2,1.8,1.8,3.8,2.3,5.8c0.1,0.5,0.3,1,0.5,1.4c3.7,5.9,0.1,13.7-6.9,14.6c-2.7,0.3-5-0.3-7.1-2c-6.3-4.9-13.2-5.9-20.7-3.1
		c-2.3,0.9-4.8,1.2-7.3,1.2c-6.1,0-11.6-1.8-16.1-6c-3.7-3.4-5.7-7.7-6.6-12.6c-0.1-0.8-0.2-1.6-0.3-2.4c-0.5,4.6,1.3,12,7.2,17.2
		c5.1,4.4,11,6.5,18,5.8c-6.1,6-8.6,13-6.1,21.3c2.5,8.2,8.2,12.9,16.7,14.3c-1.1,1.1-2.3,1.9-3.7,2.5c-3.1,1.3-6.3,1.7-9.5,1.7
		c-6.2,0-12.1-1.1-17.7-3.7c-1.9-0.9-3.6-2-5.1-3.4c1.3,3.2,3.5,5.8,6.6,7.5c-2,0.4-9.9-1.9-13.7-4.1c-4.3-2.4-7.6-5.8-10.2-9.9
		c-2.5-4.2-3.9-8.7-4.9-13.5c-0.9,3.8-0.7,7.5,0.3,11.3c-0.4-0.4-0.8-0.7-1.2-1.1c-3.5-3.7-5.6-8.2-6.7-13.1
		c-2-8.7-0.9-17.1,2.7-25.3c0.2-0.6,0.5-1.1,0.8-1.7c-0.9,0.6-2.7,2.9-3.6,4.6c-0.9,1.8-1.6,3.6-2.4,5.5c-0.2-1.3-0.4-2.4-0.5-3.6
		c-0.2-4.5,0.7-8.8,2.4-13c4.2-10.9,11.9-18.5,22.7-23c0.7-0.3,1.4-0.3,2.2-0.1c2.3,0.6,4.6,0.3,6.7-0.7c0.2-0.1,0.4-0.2,0.5-0.3
		c0,0,0.1-0.1,0.2-0.3c-0.5,0.1-0.9,0.1-1.3,0.2c-6.5,1-12.4-4.2-12.4-10.8c0-0.9,0.2-1.8,0.4-2.7c0.2-0.9,0.5-0.9,1.4-0.7
		c3.8,1.1,7.6,2.2,11.4,3.1c4.1,1,8.3,1.4,12.5,1.1c3.3-0.3,6.6-1,9.8-2c3.3-1,6.6-1.4,10-1.4c2.4,0,4.8,0.7,7.1,1.5
		c3,1,6,2.1,9.2,2.6c0.8,0.1,1.7,0.3,2.5,0.2c4.6-0.1,8.9,1.2,13,3.2c2.2,1,4.2,2.3,6.1,3.8C109.2,18.6,109.4,19.3,109.3,20.7z
		 M67.4,11c0.5-0.1,0.7-0.1,1-0.1c0.9,0,1.1,0.4,0.7,1.1c-0.4,0.7-0.4,1.5-0.1,2.3c0,0.1,0.3,0.3,0.5,0.3c1.6-0.1,3.1,0.3,4.6,0.8
		c0.5,0.2,0.8,0.1,1-0.4c0.6-1.4,0.6-1.5-0.7-2.4c-1.2-0.8-2.3-1.7-3.7-2C69.6,10.4,68.5,10.4,67.4,11z M75.5,15.9
		c1.7,0.3,3.1-0.4,4.5-1.3c-1-0.1-2-0.3-3-0.4C76.5,14.7,76,15.3,75.5,15.9z"/>
	<path class="st0" d="M67.4,11c1.1-0.7,2.2-0.6,3.2-0.4c1.4,0.3,2.6,1.2,3.7,2c1.2,0.9,1.2,0.9,0.7,2.4c-0.2,0.5-0.4,0.6-1,0.4
		c-1.5-0.5-3-0.9-4.6-0.8c-0.2,0-0.4-0.2-0.5-0.3c-0.2-0.8-0.3-1.5,0.1-2.3c0.4-0.8,0.2-1.1-0.7-1.1C68.1,10.9,67.9,11,67.4,11z"/>
	<path class="st0" d="M75.5,15.9c0.5-0.6,1-1.2,1.5-1.7c1,0.1,1.9,0.3,3,0.4C78.6,15.5,77.2,16.2,75.5,15.9z"/>
</g>
</svg>
