<?xml version="1.0" encoding="utf-8"?>
<!-- Generator: Adobe Illustrator 22.0.1, SVG Export Plug-In . SVG Version: 6.00 Build 0)  -->
<svg version="1.1" id="Layer_1" xmlns="http://www.w3.org/2000/svg" xmlns:xlink="http://www.w3.org/1999/xlink" x="0px" y="0px"
	 viewBox="0 0 800 800" style="enable-background:new 0 0 800 800;" xml:space="preserve">
<style type="text/css">
	.st0{fill:#EA0029;}
</style>
<path class="st0" d="M134.1,106.5v409.3c85.7,72,174.5,133.4,265.9,185.9c97.4-56,185.5-118.5,265.9-185.9V287.7
	c28.6,4.6,56.9,10,84.9,16.1v251.1C640.5,651.4,522.2,732.7,399.9,799C271.1,729.2,153.8,646.6,49.2,554.9V34.5
	c231.4-43.1,470.6-43,701.5,0V121C541.5,80.1,331.6,77.6,134.1,106.5"/>
<path class="st0" d="M558.3,587.3c-9.6-59.8-22.6-119.6-39.1-179.2c48.4-38.5,94.1-79.3,136.9-122c-59.8-9.4-120.7-15.5-182.5-18.2
	C452,210,427.3,153.9,399.9,100c-27.4,54-52,110-73.7,167.9c-61.8,2.7-122.7,8.8-182.5,18.2c42.9,42.7,88.6,83.5,136.9,122
	c-16.5,59.6-29.5,119.4-39.1,179.2c53.9-27.6,106.8-58.4,158.4-92.5C451.5,528.9,504.4,559.8,558.3,587.3"/>
</svg>
