<?xml version="1.0" encoding="utf-8"?>
<!-- Generator: Adobe Illustrator 23.0.0, SVG Export Plug-In . SVG Version: 6.00 Build 0)  -->
<svg version="1.1" id="Layer_1" xmlns="http://www.w3.org/2000/svg" xmlns:xlink="http://www.w3.org/1999/xlink" x="0px" y="0px" height="800px" width="800px"
	 viewBox="0 0 637.4 637.4" style="enable-background:new 0 0 637.4 637.4;" xml:space="preserve">
<style type="text/css">
	.st0{fill:#B3B4B4;}
	.st1{fill:#020202;}
	.st2{fill:#0E0C0D;}
	.st3{fill:#E3201D;}
	.st4{fill:#FCFCFC;}
</style>
<g>
	<path class="st0" d="M508.6,526.5c-0.5-1.4-0.3-2.4-0.3-3.4c0-12.2,0-24.5,0-36.7c0-0.8,0-1.6,0-2.4c0-0.9-0.5-1.3-1.3-1.3
		c-4.1,0-8.2,0-12.2,0c-1.1,0-1.5,1-2,1.7c-4.9,7.1-9.9,14.2-15.1,21.1c-6.7,8.8-13.8,17.4-21.1,25.8c-8.8,10.1-18.2,19.6-27.8,28.9
		c-8.3,8-16.9,15.6-25.8,22.9c-12.1,10-24.8,19.3-37.9,27.9c-12.9,8.5-26.3,16.3-40.3,23.1c-0.6,0.3-1.3,0.6-1.9,1
		c-2.6,1.5-5,1.3-7.8-0.1c-21.6-10.5-41.9-23.2-61.2-37.4c-10.6-7.8-20.8-16-30.7-24.7c-9.6-8.5-19-17.3-27.9-26.6
		c-13.3-14.1-26-28.7-37.4-44.4c-4.1-5.7-8.3-11.3-12.2-17.2c-1-1.5-2.1-2.3-3.9-2.2c-3.5,0.2-6.9,0-10.4,0.1
		c-2.5,0-2.6,0.1-2.6,2.5c0,3.4,0,6.7,0,10.1c0,9.2,0,18.4,0,27.5c0,1,0.2,2-0.2,3c-1.1,0.4-1.7-0.4-2.4-1
		C110,512,93.8,499.1,77.7,486.3c-7.3-5.8-14.5-11.5-21.8-17.2c-1.1-0.9-1.8-1.9-1.7-3.3c0.1-0.5,0-1,0-1.5c0-50.2,0-100.4,0-150.6
		c0-4.2-0.5-4,3.9-4c4.7,0,9.4,0,14.1,0c2.3,0,2.4-0.2,2-2.5c-1.7-8.7-2.8-17.4-4.1-26.2c-1.2-7.5-1.9-15.1-2.8-22.7
		c-0.4-3-0.6-6.1-0.8-9.1c-0.5-8.3-0.9-16.7-1.4-25C64.4,211,64.6,198,64.8,185c0.1-7,0.6-14,1.1-21c0.8-9.6,1.4-19.2,2.8-28.8
		c0.2-1.5,0.9-2.1,2.2-2.5c15.2-5.5,30.7-10.2,46.2-14.6c11.8-3.4,23.7-6.6,35.7-9.5c19.9-4.9,40-9.2,60.2-13
		c9.7-1.8,19.4-3.3,29.2-4.5c2.5-0.3,5-0.8,7.5-1.1c1.3-0.1,2-0.7,2.7-1.7c6.7-10.5,15.2-19.4,24.5-27.6c10.4-9.2,18-20.4,25.5-31.8
		c5.3-8.2,10.4-16.6,15.3-25c0.4-0.7,0.7-1.5,1.7-1.9c2,2.5,3.5,5.4,5.1,8.2c6.2,10.3,12.5,20.5,19.5,30.4
		c5.1,7.2,10.7,13.8,17.2,19.7c9.2,8.4,17.9,17.2,24.7,27.8c0.8,1.2,1.7,1.8,3.2,2c7.7,1.1,15.5,2.3,23.2,3.5
		c10.1,1.5,20.2,3.5,30.3,5.5c17.9,3.6,35.8,7.7,53.5,12.3c14.9,3.9,29.6,8,44.3,12.6c8.7,2.7,17.4,5.7,26.1,8.5
		c2.2,0.7,3,1.7,3.2,4.1c0.3,4.8,1.1,9.5,1.6,14.2c0.3,2.7,0.5,5.5,0.6,8.2c0.2,5,0.6,10,0.9,14.9c0.9,14.5,0.4,28.9,0.5,43.4
		c0.1,7.3-0.4,14.7-0.8,22c-0.5,9.1-1.3,18.2-2.4,27.3c-1.1,9.5-2.4,18.9-4,28.3c-0.7,4-1.3,8-2,12c-0.4,2.4-0.1,2.7,2.3,2.7
		c5.1,0,10.2,0,15.3,0c2.5,0,2.5,0.1,2.6,2.5c0,0.4,0,0.8,0,1.2c0,49.9,0,99.8,0,149.6c0,2.5-0.7,4-2.7,5.6
		c-16.8,13.1-33.4,26.4-50.1,39.6C524,514.2,516.4,520.3,508.6,526.5z M308.4,309.6c1.1,0.3,2.2,0.3,3.4,0c0.5,0.3,1,0.1,1.4,0
		l0.2,0.1l0.2-0.1c0.8,0.4,1.7,0.3,2.5,0c5.6,0.5,11.2,0.5,16.8,0c1.2,0.4,2.4,0.5,3.6,0c0.5,0.3,1,0.3,1.5,0
		c1.6,0.5,3.2,0.1,4.8,0.3c1.7,0.2,2.6-0.5,3.3-2c0.9-2.1,1.9-4.2,2.9-6.3c0.5,2.9-1.1,5.3-1.1,8.1c0.6,0.1,1,0.2,1.4,0.2
		c7.3,0,14.6,0,22,0c0.7,0,1.4,0,2.1-0.4c1.9,0.7,3.8,1.1,5.4-0.7c0.1,0.7,0.4,1.1,1.1,1c0.9,0,1.7,0.1,2.6-0.3
		c4.1,0.5,8.3,0.5,12.4,0c1,0.4,1.9,0.4,2.8,0c1.2,0.5,2.4,0.3,3.6,0.3c8.1,0.1,16.3,0.1,24.4,0.1c3.4,0,6.7,0,10.1,0.1
		c1.2-0.4,2.5,0.1,3.6-0.5c1,0.4,1.9,0.4,2.9,0c1.3,0.4,2.7,0.5,4-0.1c1.2,0.5,2.4,0.3,3.6,0.3c16.7,0,33.4,0,50.1,0
		c1.1,0,2.2,0.1,3.3,0.1c6.2,0,12.4,0,18.5,0c0.9,0,2.1,0.5,2.5-1c1,0.9,2.2,0.9,3.4,0.9c5.6,0,11.2,0,16.8,0c0.8,0,1.6,0.3,2.7-0.6
		c-21.6-25.2-43.1-50.3-64.6-75.4c1.7,6.2,4.4,11.9,6.4,18.3c-1-0.3-1.5-0.4-2-0.6c-12.1-4.3-24.2-8.6-36.3-12.9
		c-1.4-0.5-2.5-1.3-3.5-2.4c-5.4-5.9-10.8-11.7-16.1-17.6c-1.2-1.3-2.4-2-4.2-1.8c-4.2,0.3-8.3,0.5-12.5,0.7
		c-2.6,0.1-2.6,0.1-3.3-2.4c-2.5-8.8-4.9-17.7-7.5-26.4c-0.9-3-1.4-5.9-1.6-9c-1.1-15.7-3-31.2-6.3-46.6c-2.2-10.4-5-20.6-10.2-30
		c-4.8-8.6-10.5-16.5-16.9-23.9c-6.3-7.3-13-14.3-19.6-21.4c-11.7-12.6-21.9-26.3-29.1-42c-0.1-0.3-0.2-0.6-0.7-0.5
		c-0.7,0.2-0.7,0.9-0.9,1.4c-2.3,5.1-5.1,10-8.1,14.7c-6.6,10.6-14.7,20-23.2,29.2c-6.9,7.5-14,14.8-20.5,22.7
		c-10.6,12.9-18.6,27.2-22.4,43.7c-3.9,16.8-6.2,33.9-7.5,51c-0.2,2.5-0.1,5.2-0.8,7.6c-2.7,10.1-5.7,20.2-8.5,30.3
		c-0.4,1.4-1.1,1.9-2.6,1.8c-4.3-0.3-8.6-0.4-12.8-0.8c-1.9-0.2-3.2,0.4-4.5,1.8c-5.3,5.9-10.8,11.7-16.1,17.6
		c-1,1.1-2.1,1.9-3.5,2.4c-12,4.2-24,8.5-36,12.8c-0.6,0.2-1.2,0.8-2.2,0.1c2.3-5.8,4.5-11.6,6.8-17.4c-7.4,7.1-63.6,73.2-64.8,75.7
		c1,0,1.9,0,2.8,0c28.2,0,56.5,0,84.7,0c1,0,2,0.1,3-0.3c0.9,0.4,1.8,0.3,2.7,0.3c12.7,0,25.4,0,38.1,0c0.9,0,1.8,0.1,2.7-0.3
		c1.3,0.5,2.6,0.4,3.8,0c4.7,0.4,9.4,0.5,14,0c4,0.5,8,0.5,12.1,0c2.3,0.5,4.6,0.5,7,0c3.8,0.5,7.6,0.5,11.4,0
		c1.6,0.4,3.3,0.4,4.9,0c0.6,0.1,1.2,0.3,1.8,0.3c7.4,0,14.8,0,22.2,0c0.6,0,1.2,0,1.8-0.3c0.5,0.2,0.9,0.2,1.4,0
		C306.7,309.9,307.5,310.1,308.4,309.6z M458.2,482.6c-1.1-0.1-2.2-0.2-3.3-0.2c-90.4,0-180.8,0-271.2,0c-1.1,0-2.2,0.1-3.3,0.2
		c-7-0.3-14.1-0.2-21.5,0c0.8,1.2,1.3,2,1.9,2.7C168,496,176,506.1,184.3,516c13.3,15.9,27.7,30.7,43.1,44.6
		c13.8,12.4,28.3,24,43.6,34.6c14.4,10,29.4,19,45.1,26.9c2.1,1.1,3.7,1.2,5.9,0.1c17.1-8.6,33.5-18.6,49.1-29.7
		c18.1-12.8,35-27,51-42.4c11.8-11.3,22.9-23.3,33.3-35.8c8-9.6,15.6-19.4,22.6-29.7c0.4-0.6,1.1-1,0.8-2
		C471.9,482.6,465,482.6,458.2,482.6z M117.2,503.5c0-1.3,0-2.3,0-3.3c0-8.5,0-16.9,0-25.4c0-4,0-4,4.1-4c131.5,0,262.9,0,394.4,0
		c0.5,0,1,0,1.5,0c2.7,0,2.7,0,2.7,2.7c0,9.3,0,18.6,0,27.8c0,0.8-0.2,1.6,0.3,2.4c0.4-0.2,0.7-0.3,0.9-0.5
		c16.3-12.8,32.2-26.2,49.2-38.2c1.9-1.3,2.4-2.8,2.4-5.1c-0.1-45,0-90-0.1-134.9c0-3.9,0.5-3.5-3.3-3.5c-166.7,0-333.5,0-500.2,0
		c-0.6,0-1.2,0-1.8,0c-1,0-1.6,0.3-1.5,1.4c0,0.5,0,1,0,1.5c0,45.5,0,91,0,136.5c0,1.8,0.5,3,2,4.1c15.5,12.2,31,24.5,46.5,36.8
		C115,502.4,115.7,503.2,117.2,503.5z M243.7,102.7c-6.1,0.9-11.8,1.6-17.4,2.5c-14.4,2.3-28.6,5.4-42.9,8.2c-11.1,2.2-22,5-33,7.8
		C127.6,127,105,133.5,82.7,141c-2.3,0.8-3.2,2-3.4,4.3c-1.2,13.7-2.3,27.4-2.6,41.2c-0.2,9.7-0.1,19.4-0.1,29.1
		c0,10.6,0.7,21.2,1.5,31.8c1,13.7,2.6,27.4,4.7,41c0.7,4.2,1.3,8.3,2.1,13.1c3.8-4.1,7.2-7.8,10.6-11.6c3.4-3.7,6.8-7.3,10.2-11
		c3.5-3.7,6.9-7.5,10.4-11.2c3.4-3.7,6.8-7.3,10.2-11c3.5-3.7,6.9-7.5,10.4-11.2s6.9-7.5,10.4-11.2c3.4-3.7,6.8-7.3,10.2-11
		s6.7-7.5,10.3-10.9c0.2,0.1,0.3,0.2,0.5,0.4c-1.4,7.7-2.9,15.4-4.4,23.5c7-2.1,13.4-4.1,19.9-5.9c2.5-0.7,4.3-1.9,5.9-3.9
		c5.2-6.3,10.6-12.4,15.9-18.6c1.1-1.3,2.2-1.9,3.9-1.6c2.9,0.5,5.9,0.7,8.8,1.1c1.6,0.3,2.3-0.2,2.8-1.8c1.8-5.8,3.8-11.6,5.7-17.4
		c0.3-1,0.5-2,0.6-3c0.3-3.9,0.6-7.7,0.7-11.6c0.3-7.3,1.4-14.6,2.2-21.9c0.6-5.5,1.7-10.9,2.7-16.3c1.6-9.1,3.9-18.1,7.9-26.5
		C241.8,106.9,242.6,105.1,243.7,102.7z M470.2,212.4c0.2-0.1,0.4-0.2,0.7-0.4c13.7,14.6,27.2,29.4,40.8,44.1
		c13.7,14.8,27.4,29.6,41,44.4c0.5-0.4,0.7-0.7,0.8-1.2c0.5-3.1,0.9-6.2,1.4-9.4c1.9-12.2,3.4-24.4,4.5-36.7
		c1.2-13.7,2-27.5,2.2-41.2c0.3-22.3-0.6-44.6-2.8-66.9c-0.2-2.4-1-3.5-3.3-4.2c-15.3-5.1-30.6-9.7-46.2-14
		c-19.9-5.5-40-10.5-60.2-14.7c-13.7-2.8-27.3-5.7-41.1-7.6c-4.2-0.6-8.4-1.3-12.6-1.9c-0.3,1.2,0.5,1.9,0.8,2.7
		c1.1,2.5,2.4,5,3.4,7.5c3,7.5,4.7,15.3,6.2,23.3c2.5,13,3.9,26.2,4.8,39.4c0.2,3.9,0.1,7.8,1.1,11.5c1.6,6.3,4,12.4,6,18.6
		c0.4,1.2,1,1.6,2.2,1.4c2.9-0.4,5.9-0.6,8.8-1.2c2.1-0.4,3.4,0.3,4.7,1.9c5.4,6.4,10.9,12.7,16.3,19.1c1.2,1.5,2.7,2.4,4.5,2.9
		c6,1.7,11.9,3.5,17.9,5.3c0.8,0.2,1.6,0.7,2.7,0.3C473.1,227.7,471.7,220,470.2,212.4z"/>
	<path class="st1" d="M117.2,503.5c-1.5-0.4-2.2-1.1-2.9-1.7c-15.5-12.3-31-24.6-46.5-36.8c-1.4-1.1-2-2.3-2-4.1
		c0-45.5,0-91,0-136.5c0-0.5,0-1,0-1.5c-0.1-1.1,0.5-1.4,1.5-1.4c0.6,0,1.2,0,1.8,0c166.7,0,333.5,0,500.2,0c3.8,0,3.3-0.4,3.3,3.5
		c0,45,0,90,0.1,134.9c0,2.3-0.6,3.8-2.4,5.1c-17,12-32.9,25.3-49.2,38.2c-0.2,0.2-0.5,0.3-0.9,0.5c-0.5-0.8-0.3-1.6-0.3-2.4
		c0-9.3,0-18.6,0-27.8c0-2.6,0-2.6-2.7-2.7c-0.5,0-1,0-1.5,0c-131.5,0-262.9,0-394.4,0c-4.1,0-4.1,0-4.1,4c0,8.5,0,16.9,0,25.4
		C117.2,501.2,117.2,502.2,117.2,503.5z M374.9,457.6c-0.6-1.1-1.1-2-1.6-2.9c-7.3-12.6-14.6-25.2-21.9-37.8
		c-1.3-2.3-1.3-2.3,0.9-3.5c8.1-4.5,13.8-11.1,17.1-19.6c4.2-11,4.5-22.4,1-33.6c-3.8-12.3-12.1-20.5-24.4-24.5
		c-4.9-1.6-9.9-2.3-15-2.3c-17.4,0-34.9,0-52.3,0c-3.9,0-3.3-0.4-3.3,3.5c0,38.4,0,76.9,0,115.3c0,1.2,0,2.4,0,3.7
		c0,2.1,0.1,2.2,2.2,2.2c7.7,0,15.5,0,23.2,0c0.3,0,0.6,0,0.9,0c0.8,0,1.1-0.4,1.1-1.1c0-0.7,0-1.4,0-2.1c0-11.3,0-22.6,0-33.9
		c0-2.3,0-2.3,2.3-2.3c4.9,0,9.8,0.1,14.7-0.1c2-0.1,3,0.6,3.9,2.4c5.9,11.6,12,23.1,17.9,34.7c1,2,2.1,2.5,4.2,2.5
		c8.7-0.1,17.3,0,26-0.1C372.8,458,373.7,458.1,374.9,457.6z M559.9,333.4c-1.4,0-2.4,0-3.4,0c-24.6,0-49.2,0-73.7,0
		c-3.4,0-3.4,0-3.4,3.4c0,39.3,0,78.5,0,117.8c0,0.6,0,1.2,0,1.8c-0.1,1.2,0.5,1.7,1.6,1.5c0.7-0.1,1.4,0,2.1,0
		c14.8,0,29.6,0,44.4,0c1.5,0,3.3-0.7,4.4,0.4c0.9,0.9,0.3,2.7,0.3,4.1c0,4.9,0,9.8,0,14.7c0,0.6-0.4,1.4,0.4,1.9
		c0.1,0,0.2,0,0.3-0.1c8.6-6.8,17.3-13.7,25.9-20.5c0.9-0.7,1-1.4,1-2.4c0-7.1,0-14.3,0-21.4c0-1.4-0.4-2-1.9-2
		c-3.3,0.1-6.5,0-9.8,0c-13,0-25.9,0-38.9,0c-2.5,0-2.5,0-2.5-2.5c0-7,0-14.1,0-21.1c0-1.2,0.2-2,1.7-1.8c0.7,0.1,1.4,0,2.1,0
		c13.3,0,26.5,0,39.8,0c2.2,0,2.2,0,2.2-2.1c0-6.8,0-13.7,0-20.5c0-2.3,0-2.4-2.4-2.4c-9.5,0-19,0-28.5,0c-4.4,0-8.8,0-13.2,0
		c-1.2,0-1.9-0.1-1.8-1.6c0.1-6.9,0.1-13.9,0-20.8c0-1.2,0.5-1.6,1.6-1.5c0.6,0.1,1.2,0,1.8,0c15.4,0,30.8,0,46.2,0
		c1.1,0,2.2,0.3,3.3-0.3C559.9,350,559.9,341.8,559.9,333.4z M161.8,395.6C161.8,395.6,161.9,395.6,161.8,395.6
		c0,6.9-0.3,13.9,0.1,20.8c0.9,18.6,9.7,32.1,27.1,39.3c13.3,5.5,27,5.8,40.7,1.9c20.5-5.8,32.6-21.9,32.7-43
		c0.1-13.2,0.1-26.3,0-39.5c-0.2-18.3-10.9-33.5-27.9-40c-12.1-4.7-24.5-5-37-2.3c-21.8,4.6-35.5,21.6-35.6,43.8
		C161.8,383,161.8,389.3,161.8,395.6z M422.7,458c13.9,0,27.7,0,41.6,0c2.7,0,2.7,0,2.8-2.6c0-6.7,0-13.5,0-20.2c0-0.5,0-1,0-1.5
		c0-0.7-0.3-1.1-1.1-1.1c-0.8,0-1.6,0-2.4,0c-15.4,0-30.8,0-46.2,0c-0.9,0-2,0.5-2.5-0.4c-0.6-1,0.5-1.8,0.9-2.7
		c0.1-0.3,0.3-0.5,0.5-0.8c16.1-24,32.2-48.1,48.4-72.1c1.1-1.6,1.6-3.1,1.6-5.1c-0.1-4.9,0-9.8,0-14.7c0-3.9,0.5-3.4-3.3-3.4
		c-26.7,0-53.4,0-80.2,0c-0.4,0-0.8,0-1.2,0c-1.5-0.2-2.2,0.3-2.1,2c0.1,3.5,0,6.9,0,10.4c0,3.8,0,7.5,0,11.3c0,1.1,0.3,1.7,1.5,1.7
		c0.7,0,1.4,0,2.1,0c14.3,0,28.6,0,42.8,0c1.3,0,3.2-0.8,3.9,0.6c0.7,1.4-1,2.5-1.7,3.7c-16,23.9-32,47.8-48,71.6
		c-1.1,1.6-1.6,3.2-1.5,5.1c0.1,4.4,0,8.8,0,13.2c0,1.2,0,2.4,0,3.7c0,1,0.3,1.5,1.4,1.5c0.7,0,1.4,0,2.1,0
		C395.6,458,409.2,458,422.7,458z M105.1,479c0-1.2,0-2.2,0-3.2c0-9.9,0-19.8,0-29.7c0-10.5,0-21,0-31.5c0-3.4-0.5-3.2,3.3-3.2
		c5.1,0,10.2,0,15.3,0c7.1,0,14.3,0,21.4,0c2.5,0,2.5,0,2.5-2.6c0-6.8,0-13.7,0-20.5c0-2.3,0-2.4-2.3-2.4c-8,0-15.9,0-23.9,0
		c-4.8,0-9.6,0-14.4,0c-1.3,0-2-0.2-2-1.8c0.1-7.9,0.1-15.7,0-23.6c0-1.5,0.4-2.1,1.9-1.9c0.7,0.1,1.4,0,2.1,0c14.9,0,29.8,0,44.7,0
		c2.6,0,2.6,0,2.6-2.4c0-6.8,0-13.7,0-20.5c0-2.4,0-2.4-2.5-2.4c-24.6,0-49.2,0-73.7,0c-2.9,0-2.6,0-2.6,2.7c0,7,0,14.1,0,21.1
		c0,32.5,0,65.1-0.1,97.6c0,2.2,0.7,3.5,2.4,4.8c7.8,6.1,15.5,12.3,23.3,18.4C103.6,478.4,104,478.9,105.1,479z"/>
	<path class="st2" d="M182.1,309.6c-1,0.4-2,0.3-3,0.3c-28.2,0-56.5,0-84.7,0c-0.9,0-1.8,0-2.8,0c1.2-2.6,57.4-68.6,64.8-75.7
		c-2.3,5.8-4.5,11.7-6.8,17.4c0.9,0.7,1.5,0.1,2.2-0.1c12-4.3,24-8.5,36-12.8c1.4-0.5,2.5-1.3,3.5-2.4c5.4-5.9,10.8-11.6,16.1-17.6
		c1.3-1.5,2.6-2,4.5-1.8c4.3,0.4,8.6,0.5,12.8,0.8c1.5,0.1,2.2-0.4,2.6-1.8c2.8-10.1,5.8-20.2,8.5-30.3c0.7-2.4,0.6-5,0.8-7.6
		c1.4-17.2,3.6-34.2,7.5-51c3.8-16.5,11.8-30.7,22.4-43.7C273,75.4,280,68,287,60.6c8.5-9.1,16.6-18.5,23.2-29.2
		c3-4.8,5.7-9.6,8.1-14.7c0.2-0.5,0.2-1.2,0.9-1.4c0.5,0,0.6,0.3,0.7,0.5c7.2,15.8,17.4,29.4,29.1,42c6.6,7.1,13.3,14.1,19.6,21.4
		c6.4,7.4,12.1,15.3,16.9,23.9c5.2,9.4,8,19.6,10.2,30c3.3,15.4,5.2,30.9,6.3,46.6c0.2,3.1,0.7,6,1.6,9c2.6,8.8,5,17.6,7.5,26.4
		c0.7,2.5,0.7,2.5,3.3,2.4c4.2-0.2,8.4-0.4,12.5-0.7c1.8-0.2,3,0.5,4.2,1.8c5.3,5.9,10.8,11.7,16.1,17.6c1,1.1,2,1.9,3.5,2.4
		c12.1,4.2,24.2,8.6,36.3,12.9c0.5,0.2,1,0.3,2,0.6c-2-6.4-4.8-12.1-6.4-18.3c21.5,25.1,43.1,50.2,64.6,75.4c-1,0.9-1.9,0.6-2.7,0.6
		c-5.6,0-11.2,0-16.8,0c-1.2,0-2.4,0-3.4-0.9c-4.7-5.1-9.2-10.4-14.1-15.3c-0.1-0.1-0.2,0-0.3,0c-0.4,0.1,0.2,0.4-0.3,0.1
		c0.9,3.6,2.6,7,3,10.6c-2.6-3-5.2-6.1-7.2-9.5c-6.4-10.6-13.3-20.8-20.1-31c-0.5-0.8-0.9-1.8-1.9-2.3h0.1c0.2-0.6-0.1-1-0.7-1.2
		l0,0c0-0.4-0.1-0.7-0.6-0.7v0.1c0.1-0.6,0-1.1-0.7-1.1c-0.8-1.9-2.1-3-4.1-3.6c-3.3-1-6.5-2.2-9.8-3.5c-9.6-3.6-19.4-6.7-29.4-9.2
		c-2.4-0.6-2.5-0.5-2.1,1.8c1.6,9.8,2.3,19.6,2.6,29.5c0.3,11.9,0.5,23.8,0.8,35.8c-1.1,0.6-2.4,0-3.6,0.5
		c-0.4-4.6-0.5-9.1-0.7-13.7c-0.7-16.7-1.6-33.3-4.3-49.8c-0.8-5.2-2-10.4-3.7-15.4c-0.2-0.7-0.3-1.9-1.3-1.7
		c-2.5,0.5-5.1-0.1-7.4,1.2c-1.8-0.3-3.6,0-5.5,0.2c-1.2,0.2-1.8,0.5-1.5,2c1.2,7.1,2.3,14.3,3.1,21.4c1.2,10.2,1.1,20.4,0.1,31.2
		c-1.1-3.6-1.2-6.9-1.6-10.1c-1.4-10.2-3.3-20.3-6.3-30.1c-0.2-0.7-0.2-1.5-1.2-2.1c0,1,0,1.7,0.1,2.4c1.3,9.2,1.9,18.4,2.8,27.6
		c0.1,1.4,0.4,2.8-0.7,4.5c-0.8-3.8-1.6-7.3-2.4-11c-1.2,0.8-0.8,1.8-0.9,2.7c-0.4,5.4-1.1,10.7-2.2,16c-1.7,8.1-3.1,16.2-4.7,24.3
		c-0.9,0.4-1.9,0.4-2.8,0c1.2-4.9,2.3-9.8,3.5-14.7c-0.1-0.1-0.3-0.1-0.4-0.2c-2.1,3.9-4.3,7.9-6.4,11.8c-0.3-4.3-0.1-8.4-0.6-12.5
		c-3.1,5.1-6,10.2-8.4,15.5c-0.8,0.4-1.7,0.3-2.6,0.3c-0.7,0-1-0.4-1.1-1c3-5.7,6.2-11.3,9.1-17c3.4-6.7,5.6-13.8,6.4-21.2
		c0.4-3.5,0.9-6.9,1.3-10.4c1.4,4.9,1.5,9.8,1.6,14.8c0.2,4.9-0.8,9.7-0.9,14.9c1.3-1.8,1.7-3.5,2.2-5.1c2.4-7.5,3.3-15.3,4-23.1
		c1.1-13,0.7-25.8-4.7-38c-0.9-3.9-3-7.3-4.2-11.8c3.3,4.3,6,8.2,8.5,12.2c0.6,0.9,0.8,2.1,1.9,2.6c1.7,3.6,2.8,7.5,4.8,11
		c0.1,0.1,0.1,0.1,0.2,0.2s0.1,0.1,0.1,0.2c-0.1-0.1-0.3-0.2-0.4-0.3c0.5-1.4,0.2-2.8,0-4.2c-1.4-10.3-4.4-20.3-8-30
		c-1-5.1-3.3-9.7-5.1-14.9c-6.7,3.2-13.8,4.3-21,5.9c2,2.9,3.7,5.4,5.4,7.9c2.1,3.2,3.4,6.7,3.8,10.5c1.5,14.1,1.3,28.1-1,42
		c-1.1,6.4-2.5,12.8-3.7,19.2c0.9-0.3,1.1-1.1,1.5-1.8c1.5-2.8,3-5.5,4.4-8.4c4.3-8.8,7.1-18.2,9.8-27.6c0.4-1.4,0.7-2.7,1.6-3.9
		c-1.3,12.6-4.6,24.7-8.9,36.6c-4.8,13.4-9.4,26.8-14.1,40.2c-0.7,0.3-1.4,0.4-2.1,0.4c-7.3,0-14.6,0-22,0c-0.4,0-0.8-0.1-1.4-0.2
		c0-2.8,1.6-5.2,1.1-8.1c-1,2.1-2,4.1-2.9,6.3c-0.6,1.5-1.6,2.2-3.3,2c-1.6-0.2-3.2,0.2-4.8-0.3c3.3-5.8,5.7-11.8,5.7-18.7
		c0.3,2.3,0.5,4.7,0.8,7c1.9-3.8,4.1-7.4,4.3-11.7c0.1-2.3,0.6-4.6,0.9-6.9c0.8-5.6,1.2-11.1,0.2-16.7c-0.9-5.2-2.6-10-6-14.1
		c-2-2.4-4.5-4.2-7.7-5.3c-0.4,2.4,1.3,4.3,0.6,6.8c-3.1-1.9-6.1-3.7-9.6-4.1c-0.1-0.1-0.2-0.3-0.4-0.4c-0.3,0-0.3,0.1-0.1,0.2
		c0.2,0.1,0.4,0.1,0.6,0.1c0.8,2,3.1,2.9,4,4.9c0.8,1.7,2.2,2.3,3.9,2.4c1.4,0.1,2.8,0.6,4.2,0.2c1.1-0.3,1.6,0.2,2,1.2
		c3.1,7.2,3.8,14.8,3.5,22.5c0,0.5,0,1-0.5,1.5c-0.6-1.7-0.1-3.5-0.5-5.2c-0.4-1.6-0.6-3.3-1.9-5c-0.1,10.9-0.9,15-3.7,18.8
		c0-0.3-0.1-0.7-0.1-0.9c1.3-5.7,1-11.3,0-17c-0.8-4.6-0.7-4.6-5.2-5.3c-0.2,0-0.4,0.1-0.7,0.2c0.7,2.5,1.3,5.1,0,7.8
		c-0.4-1.8-0.7-3.5-1.2-5.1c-0.7-2.3-2-4-4.8-3.9c-0.4,0-0.8-0.1-1.2-0.1c-4.2-0.9-3.8-0.4-3.2,3.1c0.5,3.1,0,6-1.3,9.3
		c-0.6-9.1-1-10.4-3.6-12.6c-4.9,5.4-4.4,12.2-4.7,18.9c-0.9-2.6-1.6-5.1-2.2-7.6c-0.6-2.6-0.2-5.3,0-8.6c-1.7,1.6-2.1,3.1-2.4,4.5
		c-1.4,6.2-0.8,12.4,1.7,18.3s5.2,11.8,4.5,18.6c1.3-3.5,1.2-7.1,1.3-10.7c0.7,1,0.7,2.1,0.9,3.1c0.6,3.6,0.3,7.1-0.1,10.6
		c-0.8,0.4-1.7,0.4-2.5,0c0.1-0.3,0.1-0.6,0.2-0.9c0-0.2,0-0.5-0.1-0.6c-0.4-0.1-0.3,0.3-0.4,0.5c-0.1,0.3,0,0.6,0,0.9
		c-0.5,0.1-1,0.3-1.4,0c0.1-0.3,0.2-0.6,0.3-0.8c0.6-4.5-0.6-8.7-2.7-12.6c-2.8-5.3-5.7-10.6-6.9-16.6c-0.1-0.4-0.4-0.7-0.5-0.9
		c0,3.9,0.9,7.8,1.8,11.6c-0.2,0.1-0.3,0.3-0.5,0.4c-2-1.7-3.1-4-4.1-6.4c-1.7-4.1-2.4-8.4-2.5-12.8c0-1.8,0-3.7,0-5.5
		c-1.4,2.7-1.9,5.7-2.3,8.5c-0.6,5.1-1,10.2,0.5,15.2c1.7,5.8,3.8,11.6,7.8,16.4c0.8,1,1.3,2.3,1.9,3.5c-0.6,0.3-1.2,0.3-1.8,0.3
		c-7.4,0-14.8,0-22.2,0c-0.6,0-1.2-0.2-1.8-0.3c-2.7-11.1-5.4-22.2-8.1-33.3c-0.2,0-0.5,0.1-0.7,0.1c1.3,11.1,2.6,22.1,3.8,33.2
		c-3.8,0.5-7.6,0.5-11.4,0c-1.4-4.7-2.7-9.4-4.1-14.1c-0.2,0-0.4,0.1-0.6,0.1c0,2.6,0,5.1,0,7.7c-0.2,0-0.3,0-0.5,0.1
		c-1.9-6.3-3.8-12.6-5.6-18.9c-0.1,0-0.2,0.1-0.3,0.1c1.4,8.3,2.8,16.7,4.1,25c-4,0.5-8,0.5-12.1,0c-0.2-9.6-0.3-19.2-1-29.3
		c-1.5,7.9-2,15.4-4,22.6c-2.1-9.5-4.2-19.1-6.3-28.8c-0.3,0.4-0.5,0.6-0.6,0.7c-0.1,0.3-0.2,0.6-0.3,0.9
		c-1.4,5.4-2.9,10.7-2.3,16.5c0.6,5.8,0.3,11.6,0.4,17.4c-1.3,0.4-2.6,0.4-3.8,0c0.4-18,0.8-36,2.9-54c-2.2,6.7-3.4,13.7-6.3,20.5
		c-0.7-2.8,0.7-5.2,0.1-8.3c-2.7,5.5-5.2,10.5-7.7,15.4c-0.2-0.1-0.4-0.1-0.6-0.2c1.5-17.5,3.6-34.9,8-52.1
		c-2.8-0.3-5.3-0.6-7.8-0.9c-1.2-0.2-1.9,0.2-2.4,1.3c-0.6,1.3-1.3,2.5-2,3.8c-6.9,12.8-13.2,25.8-19.5,38.8
		c-0.8,1.5-0.5,2.4,0.9,3.2c1.6,1,3,2,4.6,3.1c2.1,1.5,2.1,1.5,0.8,3.8c-0.3,0.5-0.6,1.1-0.9,1.6
		C190.9,293.5,186.3,301.4,182.1,309.6z M371.8,99.5L371.8,99.5c0.2-0.7-0.1-1.1-0.9-1.3c-2.7-4.6-5.8-8.9-9.2-12.9
		c-6.1-7-12.1-14.1-18.4-20.9c-6.5-7-11.7-14.9-16.1-23.3c-1.8-3.3-3.4-6.7-5.1-10.1c0-0.4,0-0.7-0.5-0.7l0,0
		c0.1-0.6-0.1-1.2-0.7-1.5c-1.1,0.5-1,1.7-1.2,2.7c-2.8,9.7-5.7,19.4-9.9,28.6c-2.4,5.3-4.8,10.6-6.9,16c-3.5,9.3-7.2,18.6-10,28.2
		c-3.3,11.4-4.4,23.2-5,35c-0.3,6.6-0.2,13.3,0,19.9c0.1,2,0,2.1-2,2.1c-1.7,0-3.5-0.1-5.2-0.2c-10.8-0.9-21.5-1.5-32.2-3.4
		c-2-0.3-2-0.2-2.4,1.7c-0.9,4.9-1.1,9.9-1.7,14.9c-0.2,1.6,0.3,2.5,2,2.7c0.4,0,0.8,0.1,1.2,0.2c10.2,1.6,20.4,2.6,30.7,3.2
		c3.9,0.2,7.7,0.4,11.6,0.6c2.5,0.1,2.5,0.1,2.8,2.5c0.2,2.1,0.5,4.3,0.6,6.4c0.1,1.5,0.8,2.4,2.4,2.6c3.1,0.5,6.2,1.3,9.3,1.7
		c1.8,0.2,2.3,1,2.4,2.7c0.5,8.8,1.2,17.7,1.8,26.5c0.1,0.9-0.2,2,0.6,2.6c2.6,2.1,5.2,4,8.5,6c0-1.6,0-2.6,0-3.6
		c0-10.8,0-21.6,0-32.4c0-4.1,0-8.2,0-12.2c0-2.1,0.1-2.1,2.3-2.2c0.4,0,0.8,0,1.2,0c10.2,0.1,20.4-0.4,30.6-0.8
		c0.7,0,1.4,0,2.1-0.3c9.4-0.5,18.7-1.1,28-2.6c3.4,0,6.6-0.9,9.9-1.6c0.9-0.2,1.9-0.5,1.6-1.7c-0.6-2.8-0.2-5.7-1.1-8.4
		c-0.2-1.4-0.3-2.8-0.5-4.2c-0.2-1.5,0-3.4-0.8-4.4c-1.2-1.4-3,0-4.6,0.2c-8.4,1.3-16.8,2.1-25.2,2.8c-5.3,0.4-10.6,0.9-15.9,0.7
		c-4.4-0.2-4.5-0.1-4.4-4.4c0.6-18.5-1.5-36.8-5.6-54.8c0-1,0.1-2,0.1-3c2.9,6,5.1,12.2,7,18.6c2,6.4,3.4,13,3.5,19.8
		c0.1,4.8,0.3,9.6,0.4,14.4c0,2.3,0.1,2.3,2.4,2.4c7.1,0.1,14.3,0.2,21.4-0.7c5.8-0.7,11.5-1.8,17.1-3.1c2.2-0.5,2.3-0.7,2-2.9
		c-0.5-3.2-1.2-6.4-1.8-9.6c-2.5-12-6.5-23.5-13.3-33.9c-0.6-0.9-0.7-2.2-2.1-2.4h0.1c0.2-0.7,0-1.1-0.7-1.2v0.1
		C372.5,99.8,372.4,99.5,371.8,99.5z M307.6,256.8c-3,0.6-6,1.7-9.2,0.6c-4.2-1.4-4.2-1.1-5.6,2.9c-0.1,0.3-0.2,0.6,0.2,0.8
		c5.6,0.7,11.1-0.6,16.6-1.5c5-0.9,10-1.9,15.1-0.9c3.9,0.8,7.8,1.5,11.7,2.1c0.7,0.1,1.5,0.6,2.3-0.2c-0.3-1.2-0.6-2.4-0.9-3.6
		c-0.6-2.2-0.6-2.4-2.8-2c-2.6,0.5-4.8,0-7-1.2c-0.4-0.2-1-0.3-1.4-0.6c-1.7-1.1-3.4-1.1-5.2-0.2c-1.4,0.7-2.7,0.7-4.1,0
		c-2.6-1.4-5.2-1.3-7.8,0c-0.1,0-0.2,0-0.3,0.1c-2.2,1.4-4.1,0.8-6.1-0.6c-1.8-1.3-3.8-2.2-5.8-3.4c-0.4,0.9-0.7,1.6-1,2.2
		c-0.8,1.4-0.2,2.1,1.1,2.7c3.1,1.6,6.1,2.6,9.6,1.8C307.2,256.3,307.7,256.3,307.6,256.8z M237.8,283.8c-0.3,2,0.1,4,0.3,6
		c0.8-2.2,1.1-4.4,0.8-6.7c0.9-15.1,2.1-30.2,4.9-45.2c2.7-14,5.8-27.9,12.3-40.7c0.8-1.6,1.4-3.3,2.2-5c-1.5-0.8-3.1-0.7-4.6-1.2
		c-1.2-0.4-1.6,0.1-1.9,1.1c-1.9,5.4-3.3,10.9-4.7,16.4c-1.3-0.2-0.8-1.2-0.7-1.9c0.2-4.8,0.9-9.5,1.9-14.2c0.6-2.8,0.6-2.8-2.2-3.6
		c-0.2-0.1-0.4-0.1-0.6-0.1c-1.4-0.7-1.9,0-2.3,1.3c-3.2,11.6-7.5,22.8-11.2,34.3c-3.1,9.7-5.9,19.4-7.8,29.4
		c3.5-6.5,5.7-13.7,10.4-19.7c-0.1,11.5,0.2,22.9,1.5,34.3c0.4,3.3,0.1,6.7,1.3,9.9C237.3,280.1,237.3,282,237.8,283.8z
		 M337.6,229.3c0.6,1.1,1.3,1.9,2.6,2.6c4,1.8,7.3,4.5,9.2,8.6c1.2,2.6,2.2,5.3,2.9,8c1.5,6.1,1.2,12.3,0.9,18.6
		c-0.1,1.3-0.4,2.6,0,3.9c-0.3,2.7-0.5,5.4-0.8,8c0.5,0,0.6-0.3,0.7-0.6c5.3-11.2,10.5-22.5,14.4-34.3c0.6-1.7,0.8-3.6,0.9-5.4
		c0.2-3.1-0.6-6-2-9.4c1.3,1.1,2,1.8,2.8,2.4c0.3-0.3,0.6-0.4,0.7-0.7c3.1-5.6,6.2-11.2,9.4-16.8c0.7-1.3,0.6-2.5,0.1-3.8
		c-0.7-4.3-3-7.7-6-10.7c-1.9-1.9-2.2-1.8-4.2,0.1c-5.1,4.6-10.8,8-17.6,9.4c-1.5,0.3-3.1,0.5-5.2,0.8c2,2,4.3,2.8,6.6,4.6
		c-4.2-0.4-7.3-1.5-10.4-2.8s-5.9-3.1-9.2-4.8c-0.5,5.4-0.9,10.5-1.4,15.5c-0.2,1.5-0.5,3-0.5,4.5s-0.7,2.3-2,2.9
		c-3.3,1.5-6.5,3.2-9.7,4.9c-4.1-2.3-8.3-4.6-12.4-6.9c-0.8-0.5-1-1.2-1-2.1c-0.2-2.6-0.4-5.3-0.7-7.9c-0.4-4.6-0.9-9.2-1.3-14.4
		c-7.7,5.6-15.8,9-24.5,11.4c2.8-2.3,6.6-3.4,9.2-6.7c-10.8-1.4-18-7.7-23.8-16.1c-5.5,5.6-8.4,12.3-10.3,19.5
		c-0.4,1.4,0.3,2.3,1.1,3.3c4.4,5.8,8.7,11.6,13,17.4c0.5,0.6,0.7,1.5,1.7,1.7c1.5-0.7,2.4-2.2,4.4-3c-1,2.1-1.9,3.7-2.3,5.5
		c-0.3,1.6-0.5,3.2,0.5,4.7c2.8,4.3,6.7,7.3,10.7,10.4c0.3-1.5,0.5-2.7,0.7-3.9c1-5.1,3.2-9.7,7.2-13.2c2.5-2.1,4.9-4.2,6-7.4
		c0,0,0.2,0,0.4,0c0.4,0.8,0.4,1.7,0.3,2.6c-0.2,2.1,0.9,3.1,2.6,4c2,1.1,4.2,1.5,6.5,1.5c1.6,0,2.9,0.5,4.3,1.3
		c2.1,1.3,4,2.8,6.3,3.8c1,1.2,1.7-0.1,2.3-0.4c3.5-1.9,6.8-4.2,10.9-4.5c2.7-0.3,4.2-1.8,5.1-4.1
		C337.1,230.6,337.3,230,337.6,229.3z M302.3,200c-8-1.6-15.4-3-23.3-4.5c2,3.2,4.6,4.9,7.2,6.6c4.4,2.7,8.6,2.4,12.9-0.1
		C300.1,201.5,300.9,200.9,302.3,200z M336.1,202c6.3,5.7,17.5,2.1,22.2-4C350.8,199.4,343.6,200.7,336.1,202z M331.2,195.8
		c0,1.4-0.7,2.7-1,4c-1.6,7.6-2.5,15.2-3.7,22.9c-0.3,2.1-0.9,3.9-2.8,5.1c-1,0.6-2,1.4-2.6,2.5c0.7,0.4,1.2-0.2,1.6-0.5
		c5.2-3.1,5.2-3.2,5.8-9.2C329.3,212.3,330.7,204.1,331.2,195.8z M270,274.6c0-0.2,0-0.4,0-0.5h-0.1c0,0.2,0,0.4,0,0.5
		C270,274.6,270,274.6,270,274.6z M310.4,264.4l-0.1,0.2h0.2L310.4,264.4z"/>
	<path class="st2" d="M243.7,102.7c-1.1,2.3-1.9,4.2-2.8,6c-4.1,8.4-6.3,17.4-7.9,26.5c-1,5.4-2.1,10.8-2.7,16.3
		c-0.7,7.3-1.9,14.5-2.2,21.9c-0.2,3.9-0.5,7.7-0.7,11.6c-0.1,1-0.3,2-0.6,3c-1.9,5.8-3.9,11.6-5.7,17.4c-0.5,1.6-1.2,2-2.8,1.8
		c-2.9-0.5-5.9-0.6-8.8-1.1c-1.7-0.3-2.8,0.3-3.9,1.6c-5.3,6.2-10.7,12.3-15.9,18.6c-1.6,2-3.4,3.2-5.9,3.9
		c-6.5,1.8-12.9,3.8-19.9,5.9c1.5-8.1,3-15.8,4.4-23.5c-0.2-0.1-0.3-0.2-0.5-0.4c-3.6,3.4-6.9,7.2-10.3,10.9
		c-3.4,3.7-6.8,7.3-10.2,11c-3.5,3.7-6.9,7.5-10.4,11.2c-3.5,3.7-6.9,7.5-10.4,11.2c-3.4,3.7-6.8,7.3-10.2,11
		c-3.5,3.7-6.9,7.5-10.4,11.2c-3.4,3.7-6.8,7.3-10.2,11c-3.4,3.7-6.8,7.4-10.6,11.6c-0.8-4.7-1.5-8.9-2.1-13.1
		c-2.1-13.6-3.7-27.3-4.7-41c-0.8-10.6-1.5-21.2-1.5-31.8c0-9.7-0.1-19.4,0.1-29.1c0.2-13.8,1.4-27.5,2.6-41.2
		c0.2-2.3,1-3.5,3.4-4.3c22.3-7.6,44.9-14,67.7-19.8c10.9-2.8,21.9-5.6,33-7.8c14.3-2.9,28.5-5.9,42.9-8.2
		C231.9,104.3,237.6,103.6,243.7,102.7z M113.8,252.9c25.5-27.4,50.7-54.5,75.8-81.5c0.2,0.1,0.4,0.2,0.6,0.3
		c-1.9,8-3.8,15.9-5.8,23.9c-1.9,7.9-4.1,15.8-5.7,23.9c1.8,0,2.3-1.1,3-1.9c6.5-7.6,13.1-15.1,19.5-22.7c1.1-1.3,2.3-1.8,4-1.3
		c1.9,0.5,3.8,0.7,5.7,1.1c0.8,0.1,1.6,0.1,2-0.9c1-3.4,2.7-6.6,3-10.2c0.7-7.6,0.8-15.2,1.8-22.8c0.8-5.7,1-11.6,2.3-17.2
		c0.1-0.6,0.3-1.2-0.2-1.8c-0.2,0-0.5,0-0.8,0c-11.8,2-23.4,4.4-35.1,6.8c-13.6,2.8-26.9,6.5-40.3,10.1c-9.6,2.6-19.2,5.6-28.7,8.5
		c-1.5,0.5-2.4,1.1-2.4,2.9c0,3.7-0.4,7.3-0.5,11c-0.3,10.9-0.2,21.8-0.2,32.7c0,11.1,0.8,22.2,1.4,33.3
		C113.2,248.6,113.5,250.4,113.8,252.9z M93,275.6c3.2-3.5,5.9-6.5,8.7-9.4c1.2-1.2,1.4-2.5,1.3-4.1c-1.6-13.8-2.5-27.6-2.8-41.5
		c-0.4-19.7-0.3-39.4,1.2-59c0.2-2.4-0.3-2.4,2.6-3.3c12-3.7,23.9-7.4,36-10.7c19.1-5.3,38.4-10,57.9-13.8c4.4-0.8,8.7-1.8,13.1-2.7
		c-1-0.2-1.9-0.4-2.8-0.2c-10.9,1.5-21.8,2.9-32.7,4.5c-16.5,2.4-33,5.2-49.4,8.3c-11.1,2.1-22.2,4.3-33.3,6.6
		c-1.8,0.4-2.3,1.1-2.4,2.8c-0.8,10.6-1.6,21.2-1.8,31.8c-0.5,25-0.1,50,2.5,74.9C91.6,264.8,92,269.9,93,275.6z"/>
	<path class="st2" d="M470.2,212.4c1.4,7.6,2.9,15.3,4.4,23.1c-1,0.4-1.8-0.1-2.7-0.3c-6-1.7-11.9-3.6-17.9-5.3
		c-1.8-0.5-3.3-1.4-4.5-2.9c-5.4-6.4-10.9-12.7-16.3-19.1c-1.3-1.6-2.6-2.3-4.7-1.9c-2.9,0.5-5.9,0.7-8.8,1.2
		c-1.2,0.2-1.8-0.2-2.2-1.4c-2-6.2-4.4-12.3-6-18.6c-1-3.7-0.8-7.7-1.1-11.5c-0.8-13.2-2.3-26.4-4.8-39.4
		c-1.5-7.9-3.3-15.8-6.2-23.3c-1-2.6-2.3-5-3.4-7.5c-0.4-0.8-1.1-1.5-0.8-2.7c4.2,0.6,8.4,1.3,12.6,1.9c13.8,2,27.5,4.8,41.1,7.6
		c20.3,4.2,40.3,9.1,60.2,14.7c15.5,4.3,30.9,8.9,46.2,14c2.3,0.8,3.1,1.8,3.3,4.2c2.2,22.2,3.1,44.5,2.8,66.9
		c-0.2,13.8-0.9,27.5-2.2,41.2c-1.1,12.3-2.6,24.5-4.5,36.7c-0.5,3.1-0.9,6.2-1.4,9.4c-0.1,0.4-0.2,0.8-0.8,1.2
		c-13.7-14.8-27.3-29.6-41-44.4c-13.6-14.7-27.1-29.5-40.8-44.1C470.7,212.1,470.5,212.3,470.2,212.4z M433,131.4
		c-3-0.8-6.1-1-9.2-1c2.5,0.6,4.9,1.4,7.4,1.5c13.3,2.8,26.7,5.3,40,8.6c21.1,5.2,41.9,11.2,62.6,17.6c2.1,0.7,2.8,1.6,3,3.7
		c0.6,8.5,1,17.1,1.2,25.7c0.4,15.6,0.2,31.2-0.6,46.8c-0.5,9.4-1.3,18.7-2.2,28c-0.1,1.5,0.2,2.5,1.2,3.5c2.5,2.6,4.8,5.2,7.3,7.8
		c0.4,0.5,0.7,1.3,1.7,1.1c1.9-14.8,3.2-29.8,3.9-44.7c0.8-18,0.8-36.1,0-54.1c-0.4-7.8-0.8-15.7-1.6-23.5c-0.1-1.4-0.6-1.9-2-2.2
		c-16.8-3.6-33.7-6.8-50.7-9.7c-13.5-2.4-27.1-4.5-40.7-6.4C447.2,133.1,440.1,132.3,433,131.4z M459.9,219.3
		c-3.9-16-7.8-31.8-11.6-47.6c0.2-0.1,0.4-0.2,0.6-0.3c25,26.9,50,53.8,75,80.6c0.8-0.4,0.9-0.8,0.9-1.2c0.8-11.6,1.5-23.2,1.8-34.8
		c0.2-8.7,0.2-17.3,0-26c-0.2-6.8-0.2-13.7-0.9-20.5c-0.1-1.5-0.7-2.1-2-2.5c-4.9-1.4-9.7-3-14.6-4.4c-24.2-7.2-48.7-13.4-73.5-18.1
		c-5.6-1-11.2-2.1-16.9-3.1c0,0.9-0.1,1.5,0,2c1.9,11.4,3.1,22.8,3.6,34.3c0.2,5.2,1.2,10.3,3.1,15.2c0.5,1.4,1.2,2,2.7,1.7
		c1.6-0.4,3.3-0.4,4.8-0.9c2.2-0.8,3.5,0.1,4.9,1.8c6.4,7.6,13,15.2,19.5,22.8C457.8,218.7,458.3,219.6,459.9,219.3z"/>
	<path class="st2" d="M458.2,482.6c6.9,0,13.8,0,20.6,0c0.3,1-0.4,1.5-0.8,2c-7,10.3-14.6,20.1-22.6,29.7
		c-10.5,12.5-21.6,24.5-33.3,35.8c-16,15.4-32.9,29.6-51,42.4c-15.6,11.1-32,21.1-49.1,29.7c-2.2,1.1-3.8,1-5.9-0.1
		c-15.6-8-30.7-17-45.1-26.9c-15.3-10.6-29.8-22.1-43.6-34.6c-15.4-13.9-29.8-28.7-43.1-44.6c-8.3-9.9-16.3-20.1-23.7-30.7
		c-0.5-0.7-1-1.5-1.9-2.7c7.5-0.2,14.5-0.2,21.5,0c0,2.6,0,5.3,0,7.9c0,2.8,0.3,3.1,3.2,3.1c3.3,0,6.5,0,9.8,0c1,0,2.1-0.3,2.9,0.5
		c-2.3,0-4.7-0.1-7,0s-4.8-0.4-7.2,0.4c0.3,0.5,0.4,0.8,0.5,1c3.1,4.1,6.5,8.1,9.8,12.1c17.1,20.4,36,39,56.4,56.2
		c18.2,15.3,37.7,28.8,58.4,40.5c3.7,2.1,7.4,4.2,11.4,5.8c0.9,0.9,1.5,0,2.1-0.3c12.8-6.6,25.1-14,37-22s23.3-16.8,34.2-26.1
		c14.2-12,27.6-24.8,40.2-38.4c7.6-8.2,14.9-16.8,21.9-25.5c0.8-1,1.9-2,2.3-3.6c-5.2,0-10.2,0-15.2,0c0.9-0.8,1.9-0.5,2.9-0.5
		c3.3,0,6.5-0.1,9.8,0c3.8,0.2,4.6-0.9,4.5-4.3C458.1,487.1,458.2,484.9,458.2,482.6z"/>
	<path class="st1" d="M196.2,494.1c-0.9-0.8-1.9-0.5-2.9-0.5c-3.3,0-6.5,0-9.8,0c-2.9,0-3.2-0.2-3.2-3.1c0-2.6,0-5.3,0-7.9
		c1.1-0.1,2.2-0.2,3.3-0.2c90.4,0,180.8,0,271.2,0c1.1,0,2.2,0.1,3.3,0.2c0,2.2-0.1,4.5,0,6.7c0.2,3.4-0.7,4.5-4.5,4.3
		c-3.3-0.1-6.5-0.1-9.8,0c-1,0-2.1-0.3-2.9,0.5c0,0.2-0.2,0.3-0.4,0.3c-4.7-0.1-9.4-0.1-14.1-0.2c-0.5,0-1,0-1.5,0
		c-70.2,0-140.5,0-210.7,0c-0.9,0-1.8,0.1-2.7,0.1c-5,0-9.9,0.1-14.9,0.1C196.4,494.4,196.3,494.3,196.2,494.1z"/>
	<path class="st3" d="M439.2,309.6c-0.3-11.9-0.5-23.8-0.8-35.8c-0.2-9.9-1-19.7-2.6-29.5c-0.4-2.3-0.3-2.4,2.1-1.8
		c10,2.5,19.8,5.6,29.4,9.2c3.2,1.2,6.5,2.5,9.8,3.5c2,0.6,3.4,1.7,4.1,3.6c0.2,0.4,0.2,0.9,0.7,1.1v-0.1c0,0.4,0.1,0.8,0.6,0.7l0,0
		c-0.2,0.6-0.2,1.2,0.7,1.2h-0.1c-0.2,0.9,0.4,1.6,0.8,2.3c6.4,11.8,11.5,24.2,16.1,36.8c1.1,3,2.5,6,3.1,9.2
		c-1.1,0-2.2-0.1-3.3-0.1c-16.7,0-33.4,0-50.1,0c-1.2,0-2.5,0.2-3.6-0.3c0.5-6.7,1.1-13.4,1.6-20.1c-0.1,0-0.3,0-0.4-0.1
		c-1.7,6.7-3.5,13.5-5.2,20.2C441.1,310,440.2,310,439.2,309.6z"/>
	<path class="st3" d="M182.1,309.6c4.2-8.2,8.7-16.1,13.3-24.1c0.3-0.5,0.6-1.1,0.9-1.6c1.3-2.3,1.3-2.4-0.8-3.8
		c-1.5-1.1-3-2.1-4.6-3.1c-1.4-0.8-1.6-1.7-0.9-3.2c6.4-13,12.7-26,19.5-38.8c0.7-1.3,1.4-2.5,2-3.8c0.5-1.1,1.2-1.5,2.4-1.3
		c2.5,0.3,5,0.6,7.8,0.9c-4.4,17.2-6.5,34.6-8,52.1c0.2,0.1,0.4,0.1,0.6,0.2c2.5-5,4.9-9.9,7.7-15.4c0.6,3.1-0.8,5.5-0.1,8.3
		c2.9-6.8,4.1-13.8,6.3-20.5c-2.1,18-2.5,36-2.9,54c-0.9,0.4-1.8,0.3-2.7,0.3c-12.7,0-25.4,0-38.1,0
		C183.9,309.9,183,310,182.1,309.6z"/>
	<path class="st3" d="M327.2,245.8c3.5,0.4,6.4,2.2,9.6,4.1c0.7-2.5-1-4.3-0.6-6.8c3.1,1.1,5.6,2.8,7.7,5.3c3.4,4.1,5.2,8.9,6,14.1
		c0.9,5.6,0.5,11.1-0.2,16.7c-0.3,2.3-0.8,4.6-0.9,6.9c-0.3,4.3-2.4,7.9-4.3,11.7c-0.3-2.3-0.5-4.7-0.8-7c0,6.9-2.4,12.9-5.7,18.7
		c-0.5,0.3-1,0.2-1.5,0c-0.2-2.3-0.7-4.4-1.6-6.5c-2.1-4.8-2.6-9.8-1.6-15c0.3-1.7,1-3.4,0.5-5.8c-2.5,5.5-2.9,10.8-2.7,16.8
		c-1.8-2.4-1.9-4.6-2.2-7.5c-0.9,4.4-0.1,7.9,1.4,11.3c1,2.1,2.1,4.2,2.6,6.5c-5.6,0.5-11.2,0.5-16.8,0c0.5-3.5,0.8-7.1,0.1-10.6
		c-0.2-1.1-0.3-2.2-0.9-3.1c-0.1,3.6,0,7.2-1.3,10.7c0.6-6.7-2.1-12.6-4.5-18.6c-2.5-5.9-3-12-1.7-18.3c0.3-1.4,0.7-2.9,2.4-4.5
		c-0.2,3.3-0.6,6,0,8.6s1.2,5.1,2.2,7.6c0.3-6.6-0.2-13.4,4.7-18.9c2.7,2.2,3,3.5,3.6,12.6c1.3-3.3,1.8-6.2,1.3-9.3
		c-0.5-3.5-1-4,3.2-3.1c0.4,0.1,0.8,0.2,1.2,0.1c2.8-0.1,4,1.6,4.8,3.9c0.5,1.6,0.8,3.3,1.2,5.1c1.3-2.7,0.7-5.3,0-7.8
		c0.3-0.1,0.5-0.3,0.7-0.2c4.5,0.7,4.4,0.7,5.2,5.3c1,5.7,1.3,11.3,0,17c-0.1,0.3,0,0.6,0.1,0.9c2.8-3.8,3.7-7.9,3.7-18.8
		c1.3,1.7,1.4,3.4,1.9,5c0.5,1.7-0.1,3.4,0.5,5.2c0.5-0.5,0.4-1,0.5-1.5c0.3-7.7-0.5-15.3-3.5-22.5c-0.4-1.1-0.9-1.5-2-1.2
		c-1.4,0.4-2.8-0.1-4.2-0.2c-1.7-0.1-3.1-0.7-3.9-2.4C330.3,248.7,328.1,247.8,327.2,245.8L327.2,245.8z M324.6,302.7
		c-0.5-6.2,0.9-11.9,3-17.6c1.9-5.2,0.3-10.1-2.1-14.8c-0.1,1.5-0.1,3,0.2,4.5c0.6,4,0.5,7.9-1.1,11.7c-0.5,1.2-0.9,2.5-1.2,3.8
		C322.4,294.6,322.7,298.7,324.6,302.7z M334.3,281.3h-0.1v0.2L334.3,281.3z"/>
	<path class="st3" d="M397.4,309.6c1.6-8.1,3-16.2,4.7-24.3c1.1-5.3,1.8-10.6,2.2-16c0.1-0.8-0.3-1.8,0.9-2.7
		c0.8,3.7,1.5,7.1,2.4,11c1.1-1.6,0.8-3.1,0.7-4.5c-0.9-9.2-1.5-18.5-2.8-27.6c-0.1-0.7-0.1-1.4-0.1-2.4c0.9,0.6,1,1.5,1.2,2.1
		c3,9.9,4.9,19.9,6.3,30.1c0.4,3.2,0.5,6.4,1.6,10.1c1-10.8,1.1-21-0.1-31.2c-0.8-7.2-1.8-14.3-3.1-21.4c-0.3-1.4,0.3-1.8,1.5-2
		c1.8-0.2,3.6-0.5,5.5-0.2c0.4,1.6,0.8,3.2,1.1,4.7c1.4,7.2,3.1,14.3,3.3,21.7c0.3,13.1,0,26.2-1,39.3c-0.1,1.9,0,3.8,0,5.8
		c0.1,0,0.2,0,0.4,0.1c1.3-3.5,2.6-6.9,3.9-10.4c0.4,6.1,0,12.2-0.4,18.2c-8.1,0-16.3-0.1-24.4-0.1
		C399.9,309.8,398.6,310.1,397.4,309.6z"/>
	<path class="st4" d="M425.5,310c0.4-6,0.8-12.1,0.4-18.2c-1.3,3.5-2.6,6.9-3.9,10.4c-0.1,0-0.2,0-0.4-0.1c0-1.9-0.1-3.8,0-5.8
		c1-13.1,1.3-26.2,1-39.3c-0.2-7.4-1.9-14.5-3.3-21.7c-0.3-1.6-0.7-3.2-1.1-4.7c2.3-1.3,4.9-0.7,7.4-1.2c1.1-0.2,1.1,1,1.3,1.7
		c1.6,5,2.8,10.2,3.7,15.4c2.7,16.5,3.6,33.1,4.3,49.8c0.2,4.6,0.2,9.1,0.7,13.7C432.2,310,428.8,310,425.5,310z"/>
	<path class="st4" d="M397.5,223.8c5.3,12.2,5.8,25,4.7,38c-0.7,7.8-1.6,15.6-4,23.1c-0.5,1.6-0.9,3.3-2.2,5.1
		c0.1-5.2,1.1-10.1,0.9-14.9c-0.2-5-0.2-9.9-1.6-14.8c-0.4,3.5-0.9,6.9-1.3,10.4c-0.8,7.5-3,14.6-6.4,21.2c-2.9,5.7-6,11.3-9.1,17
		c-1.6,1.8-3.5,1.4-5.4,0.7c4.7-13.4,9.3-26.9,14.1-40.2c4.3-11.9,7.6-24,8.9-36.6C396.6,229.7,396.4,226.7,397.5,223.8z"/>
	<path class="st4" d="M503.2,310c-0.6-3.2-1.9-6.2-3.1-9.2c-4.7-12.6-9.7-25-16.1-36.8c-0.4-0.7-1-1.4-0.8-2.3
		c1,0.4,1.3,1.5,1.9,2.3c6.9,10.2,13.8,20.5,20.1,31c2,3.4,4.6,6.4,7.2,9.5c-0.4-3.7-2.1-7-3-10.6c0.5,0.2,0,0,0.3-0.1
		c0.1,0,0.2,0,0.3,0c4.9,4.9,9.4,10.1,14.1,15.3c-0.3,1.5-1.6,1-2.5,1C515.5,310,509.4,310,503.2,310z"/>
	<path class="st3" d="M229.5,309.6c-0.1-5.8,0.1-11.7-0.4-17.4c-0.6-5.8,1-11.1,2.3-16.5c0.1-0.3,0.2-0.6,0.3-0.9
		c0.1-0.2,0.2-0.3,0.6-0.7c2.1,9.7,4.2,19.3,6.3,28.8c2-7.3,2.4-14.7,4-22.6c0.7,10.2,0.8,19.7,1,29.3
		C238.8,310.1,234.2,310,229.5,309.6z"/>
	<path class="st3" d="M303.6,290.2c-0.9-3.9-1.7-7.8-1.8-11.6c0.1,0.2,0.5,0.5,0.5,0.9c1.2,6,4.1,11.3,6.9,16.6
		c2.1,4,3.3,8.1,2.7,12.6c0,0.3-0.2,0.6-0.3,0.8c-1.1,0.2-2.2,0.2-3.4,0c-0.3-2-0.9-3.9-2.4-5.6c0,2.1,0,3.9,0,5.7
		c-0.4,0.2-0.9,0.2-1.4,0c-0.6-1.2-1.1-2.5-1.9-3.5c-4-4.8-6.1-10.6-7.8-16.4c-1.5-4.9-1.1-10.1-0.5-15.2c0.3-2.9,0.8-5.8,2.3-8.5
		c0,1.8,0,3.7,0,5.5c0.1,4.4,0.7,8.7,2.5,12.8c1,2.3,2.1,4.6,4.1,6.4c0.2,0.3,0.4,0.6,0.8,0.4c-0.1,0.2,0,0.3,0.2,0.3
		c0,0,0-0.1,0-0.2c-0.1-0.1-0.2-0.1-0.2-0.1C304,290.8,303.9,290.5,303.6,290.2z"/>
	<path class="st3" d="M382.2,309.6c2.5-5.3,5.3-10.4,8.4-15.5c0.5,4.1,0.3,8.2,0.6,12.5c2.1-3.9,4.3-7.9,6.4-11.8
		c0.1,0.1,0.3,0.1,0.4,0.2c-1.2,4.9-2.3,9.8-3.5,14.7C390.5,310,386.3,310,382.2,309.6z"/>
	<path class="st3" d="M273.9,309.6c-1.3-11.1-2.6-22.1-3.8-33.2c0.2,0,0.5-0.1,0.7-0.1c2.7,11.1,5.4,22.2,8.1,33.3
		C277.2,310,275.6,310,273.9,309.6z"/>
	<path class="st3" d="M255.6,309.6c-1.4-8.3-2.8-16.7-4.1-25c0.1,0,0.2-0.1,0.3-0.1c1.9,6.3,3.8,12.6,5.6,18.9c0.2,0,0.3,0,0.5-0.1
		c0-2.6,0-5.1,0-7.7c0.2,0,0.4-0.1,0.6-0.1c1.4,4.7,2.7,9.4,4.1,14.1C260.2,310,257.9,310,255.6,309.6z"/>
	<path class="st2" d="M332.8,309.6c-0.5-2.3-1.6-4.4-2.6-6.5c-1.6-3.4-2.4-6.9-1.4-11.3c0.3,2.8,0.4,5,2.2,7.5
		c-0.2-6,0.2-11.3,2.7-16.8c0.5,2.4-0.2,4.1-0.5,5.8c-1,5.2-0.5,10.1,1.6,15c0.9,2.1,1.4,4.2,1.6,6.5C335.2,310,334,310,332.8,309.6
		z"/>
	<path class="st2" d="M442.1,309.6c1.7-6.7,3.5-13.5,5.2-20.2c0.1,0,0.3,0,0.4,0.1c-0.5,6.7-1.1,13.4-1.6,20.1
		C444.8,310.1,443.4,310,442.1,309.6z"/>
	<path class="st2" d="M305.9,309.6c0-1.8,0-3.6,0-5.7c1.5,1.7,2.2,3.6,2.4,5.6C307.5,310.1,306.7,309.9,305.9,309.6z"/>
	<path class="st3" d="M313.1,309.6c0-0.3,0-0.6,0-0.9c0-0.2-0.1-0.6,0.4-0.5c0.1,0,0.1,0.4,0.1,0.6c0,0.3-0.1,0.6-0.2,0.9l-0.2,0.1
		L313.1,309.6z"/>
	<path class="st4" d="M374.9,457.6c-1.2,0.5-2.1,0.3-3,0.3c-8.7,0-17.3-0.1-26,0.1c-2.1,0-3.2-0.5-4.2-2.5
		c-5.9-11.6-12-23.1-17.9-34.7c-0.9-1.8-1.9-2.5-3.9-2.4c-4.9,0.2-9.8,0-14.7,0.1c-2.3,0-2.3,0-2.3,2.3c0,11.3,0,22.6,0,33.9
		c0,0.7,0,1.4,0,2.1c0,0.7-0.4,1.1-1.1,1.1c-0.3,0-0.6,0-0.9,0c-7.7,0-15.5,0-23.2,0c-2.2,0-2.2-0.1-2.2-2.2c0-1.2,0-2.4,0-3.7
		c0-38.4,0-76.9,0-115.3c0-3.9-0.5-3.4,3.3-3.5c17.4,0,34.9,0,52.3,0c5.1,0,10.1,0.7,15,2.3c12.3,4,20.6,12.2,24.4,24.5
		c3.5,11.2,3.2,22.5-1,33.6c-3.3,8.6-9,15.2-17.1,19.6c-2.2,1.2-2.2,1.2-0.9,3.5c7.3,12.6,14.6,25.2,21.9,37.8
		C373.7,455.6,374.2,456.5,374.9,457.6z M359,399.8c-1.2-0.5-2.2-0.3-3.2-0.3c-23.8,0-47.5,0-71.3,0c-3.5,0-3.3-0.2-3.3,3.3
		c0,14.6,0,29.2,0,43.7c0,1.1,0.1,2.2,0,3.4c-0.1,1.5,0.4,2.2,2,2.2c4-0.1,8-0.1,11.9,0c1.5,0,2-0.6,1.9-2c-0.1-0.7,0-1.4,0-2.1
		c0-10.7,0-21.4,0-32.1c0-3.4,0-3.4,3.3-3.4c7.5,0,15.1,0.1,22.6-0.1c2,0,3.2,0.6,4.1,2.4c1.8,3.4,3.7,6.8,5.4,10.3
		c4.3,8.3,8.6,16.7,12.8,25c0.7,1.4,1.5,2.2,3.2,2.1c4.7-0.1,9.4,0,14.1-0.1c0.6,0,1.3,0.2,1.6-0.6c-0.1-0.3-0.2-0.7-0.4-1
		c-3.3-5.6-6.5-11.3-9.8-16.9c-3.8-6.6-7.9-13.1-11.3-19.9c-1.2-2.3-1.2-2.3,1.2-3.1c3.5-1.1,6.8-2.7,9.7-5.1
		C355.7,403.8,357.6,402.2,359,399.8z M302.8,375.9c0,5.1,0,10.2,0,15.3c0,1.3,0.2,2,1.8,2c8-0.1,16.1,0,24.1-0.1
		c1.3,0,2.6-0.2,3.9-0.5c5.7-1.3,9.6-4.6,11.5-10.3c1.1-3.4,1.2-6.8,0.6-10.3c-1.2-6.8-5.2-11.1-11.9-12.8c-1.5-0.4-3-0.5-4.5-0.5
		c-7.7-0.1-15.5,0-23.2,0c-2.2,0-2.2,0.1-2.2,2.2C302.8,365.9,302.8,370.9,302.8,375.9z"/>
	<path class="st4" d="M559.9,333.4c0,8.5,0,16.6,0,24.8c-1.1,0.6-2.2,0.3-3.3,0.3c-15.4,0-30.8,0-46.2,0c-0.6,0-1.2,0-1.8,0
		c-1.2-0.1-1.6,0.3-1.6,1.5c0,6.9,0.1,13.9,0,20.8c0,1.5,0.7,1.6,1.8,1.6c4.4,0,8.8,0,13.2,0c9.5,0,19,0,28.5,0c2.3,0,2.3,0,2.4,2.4
		c0,6.8,0,13.7,0,20.5c0,2.1,0,2.1-2.2,2.1c-13.3,0-26.5,0-39.8,0c-0.7,0-1.4,0.1-2.1,0c-1.4-0.2-1.7,0.6-1.7,1.8c0,7,0,14.1,0,21.1
		c0,2.5,0,2.5,2.5,2.5c13,0,25.9,0,38.9,0c3.3,0,6.5,0.1,9.8,0c1.5,0,1.9,0.5,1.9,2c-0.1,7.1,0,14.3,0,21.4c0,1-0.2,1.7-1,2.4
		c-8.7,6.8-17.3,13.6-25.9,20.5c-0.1,0.1-0.2,0.1-0.3,0.1c-0.9-0.4-0.4-1.3-0.4-1.9c0-4.9,0-9.8,0-14.7c0-1.4,0.6-3.2-0.3-4.1
		c-1-1.1-2.9-0.4-4.4-0.4c-14.8,0-29.6,0-44.4,0c-0.7,0-1.4-0.1-2.1,0c-1.2,0.1-1.7-0.3-1.6-1.5c0-0.6,0-1.2,0-1.8
		c0-39.3,0-78.5,0-117.8c0-3.4,0-3.4,3.4-3.4c24.6,0,49.2,0,73.7,0C557.6,333.4,558.6,333.4,559.9,333.4z M519.6,452.1
		c4.8,0,9.6,0,14.4,0c6,0,12,0,18,0c1.5,0,2.2-0.4,2.2-2.1c-0.1-3.2-0.1-6.3,0-9.5c0-1.5-0.6-2-2-1.9c-0.7,0.1-1.4,0-2.1,0
		c-15.4,0-30.8,0-46.2,0c-2.8,0-2.9,0-2.9-2.9c0-10.4,0-20.8,0-31.2c0-2.7,0-2.7,2.7-2.8c0.6,0,1.2,0,1.8,0c11.9,0,23.9,0,35.8,0
		c1.4,0,2.8-0.1,4.2-0.4c0.7-0.1,1.2-0.3,1.1-1.1c-0.1-0.8-0.8-0.8-1.4-0.8c-0.6,0-1.2,0-1.8,0c-18.2,0-36.5,0-54.7,0
		c-0.7,0-1.4,0-2.1,0c-1,0-1.5,0.5-1.5,1.5c0,0.5,0,1,0,1.5c0,15.5,0,31,0,46.5c0,3.1,0,3.1,3.3,3.1
		C498.8,452.1,509.2,452.1,519.6,452.1z"/>
	<path class="st4" d="M161.8,395.6c0-6.3,0-12.6,0-19c0.1-22.3,13.8-39.2,35.6-43.8c12.5-2.7,24.9-2.3,37,2.3
		c17.1,6.6,27.7,21.7,27.9,40c0.2,13.2,0.1,26.3,0,39.5c-0.1,21.2-12.2,37.3-32.7,43c-13.7,3.9-27.5,3.6-40.7-1.9
		c-17.4-7.2-26.2-20.7-27.1-39.3C161.6,409.5,161.9,402.6,161.8,395.6C161.9,395.6,161.8,395.6,161.8,395.6z M234.9,395.7
		C234.8,395.7,234.8,395.7,234.9,395.7c-0.1-6.5,0.1-13.1-0.1-19.6c-0.3-8.6-5.7-15.6-13.9-18.2c-5.9-1.9-11.9-1.9-17.7,0.2
		c-6.5,2.2-10.8,6.7-12.8,13.3c-0.7,2.5-0.9,5-0.9,7.6c0,6.8,0,13.7,0,20.5c0,5.2-0.1,10.4,0.1,15.6c0.3,8.8,5.7,15.7,14.1,18.4
		c5.6,1.8,11.3,1.8,16.9,0.1c6.8-2.1,11.4-6.6,13.5-13.4c0.8-2.5,0.9-5,0.9-7.6C234.9,406.9,234.9,401.3,234.9,395.7z M212,453.9
		c6.8,0.4,13.4-0.5,19.8-3c9.5-3.7,16.8-9.8,21.1-19.2c1.9-4.1,2.9-8.4,3.4-12.9c0.6-5.7,0.2-11.4,0.4-17.1c0.1-2.2-0.1-2.2-2.2-2.3
		c-3.8,0-7.5,0-11.3,0c-2.2,0-2.3,0.1-2.3,2.5s-0.1,4.9,0,7.3c0.1,4-0.2,7.9-1.2,11.8c-2.1,7.9-6.9,13.6-14.3,16.8
		c-7.7,3.3-15.6,3.5-23.6,1c-3.7-1.2-7.1-3-10-5.7c-5.7-5.2-7.8-12-8.3-19.4c-0.2-4.1-0.1-8.2,0-12.2c0-1.6-0.6-2.1-2.1-2.1
		c-3.8,0.1-7.5,0-11.3,0c-2.4,0-2.5,0.1-2.4,2.4c0.1,5.8-0.2,11.6,0.4,17.4c1.4,12.9,7.5,22.6,18.8,29
		C194.6,452.7,203.1,454.5,212,453.9z"/>
	<path class="st4" d="M422.7,458c-13.6,0-27.1,0-40.7,0c-0.7,0-1.4,0-2.1,0c-1.1,0.1-1.4-0.5-1.4-1.5c0-1.2,0-2.4,0-3.7
		c0-4.4,0.1-8.8,0-13.2c0-1.9,0.5-3.5,1.5-5.1c16-23.8,32-47.7,48-71.6c0.8-1.1,2.4-2.3,1.7-3.7c-0.7-1.4-2.6-0.6-3.9-0.6
		c-14.3-0.1-28.6,0-42.8,0c-0.7,0-1.4,0-2.1,0c-1.2,0.1-1.6-0.5-1.5-1.7c0-3.8,0-7.5,0-11.3c0-3.5,0.1-6.9,0-10.4
		c-0.1-1.7,0.6-2.2,2.1-2c0.4,0,0.8,0,1.2,0c26.7,0,53.4,0,80.2,0c3.9,0,3.3-0.5,3.3,3.4c0,4.9-0.1,9.8,0,14.7
		c0,1.9-0.5,3.5-1.6,5.1c-16.1,24-32.2,48.1-48.4,72.1c-0.2,0.3-0.4,0.5-0.5,0.8c-0.5,0.9-1.6,1.7-0.9,2.7c0.5,0.8,1.7,0.4,2.5,0.4
		c15.4,0,30.8,0,46.2,0c0.8,0,1.6,0,2.4,0s1.1,0.4,1.1,1.1c0,0.5,0,1,0,1.5c0,6.7,0,13.5,0,20.2c0,2.6,0,2.6-2.8,2.6
		C450.5,458,436.6,458,422.7,458z M428.8,399.5c-5.6,0-10.5,0.1-15.4,0c-2.1-0.1-3.3,0.7-4.4,2.4c-6.5,9.9-13.1,19.7-19.7,29.5
		c-1.7,2.5-4,4.9-4.8,7.7c-0.9,2.9-0.3,6.3-0.3,9.4c0,3.9-0.3,3.6,3.7,3.6c23.3,0,46.5,0,69.8,0c0.6,0,1.2,0,1.8,0
		c1.3,0.1,1.8-0.6,1.8-1.8c0-3.2,0-6.3,0-9.5c0-2.1-0.1-2.1-2.3-2.2c-0.7,0-1.4,0-2.1,0c-16.7,0-33.5,0-50.2,0
		c-1.1,0-2.2,0.2-3.7-0.5C411.5,425.2,420,412.6,428.8,399.5z"/>
	<path class="st4" d="M105.1,479c-1.1-0.1-1.5-0.7-2-1c-7.8-6.1-15.5-12.3-23.3-18.4c-1.7-1.3-2.4-2.6-2.4-4.8
		c0.1-32.5,0.1-65.1,0.1-97.6c0-7,0-14.1,0-21.1c0-2.8-0.3-2.7,2.6-2.7c24.6,0,49.2,0,73.7,0c2.5,0,2.5,0,2.5,2.4
		c0,6.8,0,13.7,0,20.5c0,2.4,0,2.4-2.6,2.4c-14.9,0-29.8,0-44.7,0c-0.7,0-1.4,0.1-2.1,0c-1.5-0.1-1.9,0.5-1.9,1.9
		c0.1,7.9,0.1,15.7,0,23.6c0,1.6,0.7,1.8,2,1.8c4.8-0.1,9.6,0,14.4,0c8,0,15.9,0,23.9,0c2.3,0,2.3,0,2.3,2.4c0,6.8,0,13.7,0,20.5
		c0,2.5,0,2.5-2.5,2.6c-7.1,0-14.3,0-21.4,0c-5.1,0-10.2,0-15.3,0c-3.8,0-3.3-0.2-3.3,3.2c0,10.5,0,21,0,31.5c0,9.9,0,19.8,0,29.7
		C105.1,476.9,105.1,477.9,105.1,479z M112.7,399.5c-8.7,0-17.3,0-26,0c-3.1,0-3.1,0-3.1,3.2c0,0.5,0,1,0,1.5c0,10.9,0,21.8,0,32.7
		c0,4.3,0,8.6,0,12.8c0,2.2,0.1,2.3,2.2,2.3c3.4,0,6.7,0,10.1,0c3.9,0,3.6,0.3,3.6-3.7c0-13.4,0-26.7,0-40.1c0-2.7,0-2.7,2.7-2.8
		c0.6,0,1.2,0,1.8,0c11.3,0,22.6,0,33.9,0c0.8,0,1.6,0,2.4,0s1.3-0.4,1.4-1.3c0-0.6,0-1.2,0-1.8c0-3,0-3-3.1-3
		C130,399.5,121.3,399.5,112.7,399.5z"/>
	<path class="st3" d="M373,101.4c1.3,0.2,1.5,1.5,2.1,2.4c6.7,10.4,10.7,21.9,13.3,33.9c0.7,3.2,1.3,6.4,1.8,9.6
		c0.4,2.2,0.2,2.4-2,2.9c-5.7,1.3-11.4,2.3-17.1,3.1c-7.1,0.9-14.2,0.9-21.4,0.7c-2.4,0-2.4-0.1-2.4-2.4c-0.1-4.8-0.3-9.6-0.4-14.4
		c-0.1-6.8-1.6-13.3-3.5-19.8c-1.9-6.3-4.1-12.6-7-18.5c-0.4-0.6-0.4-1.5-1.3-2.2c0.1,1.9-0.1,3.6,0.6,5.2c0.2,12.5,0.1,25-0.6,37.5
		c-0.5,9.7-1.4,19.3-3.5,28.7c-0.8,3.5-0.7,3.5,2.9,3.4c5.9-0.2,11.8-0.4,17.7-0.7c2.3-0.1,2.3-0.1,2.4,2.3c0.1,2.4-0.3,4.9,0.2,7.3
		c-0.7,0.4-1.4,0.3-2.1,0.3c-10.2,0.4-20.4,0.9-30.6,0.8c-0.4,0-0.8,0-1.2,0c-2.2,0.1-2.2,0.1-2.3,2.2c0,4.1,0,8.2,0,12.2
		c0,10.8,0,21.6,0,32.4c0,1,0,2,0,3.6c-3.3-2-5.9-3.9-8.5-6c-0.8-0.6-0.6-1.7-0.6-2.6c-0.6-8.8-1.3-17.7-1.8-26.5
		c-0.1-1.8-0.6-2.5-2.4-2.7c-3.1-0.4-6.2-1.2-9.3-1.7c-1.6-0.3-2.3-1.1-2.4-2.6c-0.2-2.1-0.4-4.3-0.6-6.4c-0.3-2.4-0.3-2.4-2.8-2.5
		c-3.9-0.1-7.7-0.3-11.6-0.6c-10.3-0.6-20.5-1.6-30.7-3.2c-0.4-0.1-0.8-0.2-1.2-0.2c-1.7-0.2-2.2-1.1-2-2.7c0.6-5,0.8-10,1.7-14.9
		c0.4-1.9,0.4-2,2.4-1.7c10.7,1.9,21.4,2.5,32.2,3.4c1.7,0.1,3.5,0.2,5.2,0.2c2,0,2,0,2-2.1c-0.2-6.6-0.3-13.3,0-19.9
		c0.6-11.8,1.6-23.6,5-35c2.8-9.6,6.5-18.9,10-28.2c2-5.4,4.5-10.7,6.9-16c4.2-9.2,7-18.9,9.9-28.6c0.3-0.9,0.1-2.1,1.2-2.7
		c0.1,0.5-0.2,1.3,0.7,1.5l0,0c0,0.2,0,0.4,0,0.6c0,0.3,0,0.6,0,0.9c3.2,13.8,6.9,27.4,13.2,40.2c2.8,5.7,5.3,11.7,8,17.5
		c7.8,17,11.1,35,11.7,53.6c0.1,2.2,0.1,2.2,2.4,2.4c7.6,0.5,15-0.5,22.5-1.7c3.6-0.6,3.6-0.6,3.4-4.3c-0.8-12.3-3.7-24.1-8.9-35.3
		C373.5,103.3,372.7,102.5,373,101.4z"/>
	<path class="st4" d="M373,101.4c-0.3,1.1,0.5,1.9,0.9,2.8c5.2,11.2,8.1,23,8.9,35.3c0.2,3.7,0.2,3.8-3.4,4.3
		c-7.4,1.2-14.9,2.2-22.5,1.7c-2.4-0.2-2.3-0.2-2.4-2.4c-0.6-18.6-3.9-36.6-11.7-53.6c-2.7-5.8-5.2-11.7-8-17.5
		c-6.3-12.8-10-26.4-13.2-40.2c-0.1-0.3,0-0.6,0-0.9l0.3,0.1h0.3c1.7,3.4,3.3,6.8,5.1,10.1c4.4,8.4,9.7,16.3,16.1,23.3
		c6.3,6.8,12.3,13.9,18.4,20.9c3.5,4,6.5,8.4,9.2,12.9c0.2,0.5,0.2,1.1,0.9,1.3l0,0c0,0.4,0,0.8,0.6,0.7v-0.1
		C372.1,100.9,372.3,101.3,373,101.4L373,101.4z"/>
	<path class="st0" d="M318.5,240.4c-2.3-1-4.2-2.5-6.3-3.8c-1.3-0.8-2.7-1.3-4.3-1.3c-2.3,0-4.4-0.4-6.5-1.5c-1.7-0.9-2.8-2-2.6-4
		c0.1-0.9,0-1.8-0.3-2.6c-0.3,0-0.4,0-0.4,0c-1.1,3.2-3.6,5.2-6,7.4c-4,3.5-6.2,8-7.2,13.2c-0.2,1.2-0.5,2.4-0.7,3.9
		c-4.1-3.1-8-6.2-10.7-10.4c-1-1.5-0.8-3.1-0.5-4.7c0.4-1.8,1.3-3.4,2.3-5.5c-2,0.8-3,2.3-4.4,3c-0.9-0.3-1.2-1.1-1.7-1.7
		c-4.4-5.8-8.7-11.6-13-17.4c-0.8-1-1.4-1.9-1.1-3.3c1.9-7.2,4.8-13.8,10.3-19.5c5.8,8.4,13,14.7,23.8,16.1
		c-2.7,3.3-6.4,4.4-9.2,6.7c8.6-2.4,16.8-5.8,24.5-11.4c0.5,5.2,0.9,9.8,1.3,14.4c0.2,2.6,0.5,5.3,0.7,7.9c0.1,0.9,0.2,1.6,1,2.1
		c4.1,2.3,8.3,4.6,12.4,6.9c-0.7,0.7-1.3,1.4-1.2,2.6C318.7,238.4,318.6,239.4,318.5,240.4z"/>
	<path class="st4" d="M354.8,180.5c-0.5-2.4-0.1-4.9-0.2-7.3c-0.1-2.4-0.1-2.4-2.4-2.3c-5.9,0.2-11.8,0.5-17.7,0.7
		c-3.7,0.1-3.7,0.1-2.9-3.4c2.2-9.5,3-19.1,3.5-28.7c0.7-12.5,0.8-25,0.6-37.5c0.2,0,0.4,0,0.6,0.1c4.2,18,6.2,36.3,5.6,54.8
		c-0.1,4.2,0,4.2,4.4,4.4c5.3,0.2,10.6-0.3,15.9-0.7c8.4-0.6,16.8-1.5,25.2-2.8c1.5-0.2,3.4-1.6,4.6-0.2c0.8,1,0.6,2.9,0.8,4.4
		c0.2,1.4,0.4,2.8,0.5,4.2c-2.8,1-5.7,1.2-8.6,1.7c-1.4,0.2-1.8,0.8-1.8,2.2c0.1,2.6,0,5.2-0.1,7.9
		C373.6,179.4,364.2,180,354.8,180.5z"/>
	<path class="st0" d="M397.5,223.8c-1.1,2.8-0.9,5.9-1.4,8.8c-0.9,1.2-1.2,2.5-1.6,3.9c-2.7,9.4-5.5,18.8-9.8,27.6
		c-1.4,2.8-2.9,5.6-4.4,8.4c-0.4,0.7-0.6,1.5-1.5,1.8c1.2-6.4,2.6-12.8,3.7-19.2c2.3-14,2.6-28,1-42c-0.4-3.8-1.7-7.3-3.8-10.5
		c-1.7-2.5-3.4-5-5.4-7.9c7.1-1.6,14.2-2.7,21-5.9c1.8,5.1,4.2,9.7,5.1,14.9c-2.8-1.3-4.6-4-7.7-5.6c0.1,1.4,0.7,2.2,1.2,3.1
		c3.8,7.4,7,15.1,9.5,23c0.3,0.8,1.4,1.7,0.2,2.7c-1.1-0.5-1.3-1.7-1.9-2.6c-2.5-4-5.2-7.9-8.5-12.2
		C394.5,216.5,396.6,219.9,397.5,223.8z"/>
	<path class="st0" d="M332.1,222.6c0.5-5,0.9-10.1,1.4-15.5c3.3,1.8,6.1,3.5,9.2,4.8s6.2,2.4,10.4,2.8c-2.4-1.8-4.6-2.6-6.6-4.6
		c2.1-0.3,3.6-0.5,5.2-0.8c6.8-1.3,12.5-4.7,17.6-9.4c2-1.9,2.3-1.9,4.2-0.1c3,2.9,5.3,6.4,6,10.7c-2.5,1.6-5,3.2-7.5,4.7
		c-6.4,3.9-13,7.1-20.5,8.2c-2.2,0.3-4.6,0.1-7.2,1.5c1.2,1.1,2.3,2,3.3,2.9c5.9,5.5,8.8,12.2,8.4,20.4c-0.3,7.2-1.1,14.4-1.9,21.5
		c-0.1,0.5-0.3,1-0.8,1.1c-0.4-1.3-0.1-2.6,0-3.9c0.3-6.2,0.6-12.4-0.9-18.6c-0.7-2.8-1.6-5.5-2.9-8c-1.9-4-5.2-6.8-9.2-8.6
		c-1.3-0.6-2-1.4-2.6-2.6c-0.2-1,0.5-2.3-0.7-3.1C335.2,225.1,334.1,223.3,332.1,222.6z"/>
	<path class="st4" d="M353.2,271c0.6-0.1,0.8-0.6,0.8-1.1c0.8-7.2,1.6-14.3,1.9-21.5c0.4-8.2-2.5-14.9-8.4-20.4
		c-1-1-2.1-1.9-3.3-2.9c2.6-1.3,5-1.1,7.2-1.5c7.5-1.1,14.2-4.3,20.5-8.2c2.5-1.5,5-3.1,7.5-4.7c0.5,1.3,0.6,2.5-0.1,3.8
		c-3.2,5.6-6.3,11.2-9.4,16.8c-0.1,0.2-0.4,0.4-0.7,0.7c-0.8-0.7-1.5-1.3-2.8-2.4c1.4,3.4,2.1,6.3,2,9.4c-0.1,1.8-0.3,3.6-0.9,5.4
		c-3.9,11.8-9.1,23.1-14.4,34.3c-0.1,0.2-0.2,0.6-0.7,0.6C352.7,276.4,352.9,273.7,353.2,271z"/>
	<path class="st0" d="M237.3,278.2c-1.2-3.2-0.9-6.6-1.3-9.9c-1.3-11.4-1.6-22.8-1.5-34.3c-4.7,5.9-6.9,13.1-10.4,19.7
		c1.9-10,4.7-19.7,7.8-29.4c3.7-11.4,8-22.7,11.2-34.3c0.4-1.3,0.8-2.1,2.3-1.3c0.2,0.1,0.4,0.1,0.6,0.1c2.8,0.7,2.8,0.7,2.2,3.6
		c-1,4.7-1.6,9.4-1.9,14.2c0,0.7-0.5,1.7,0.7,1.9c0.3,1.1-0.2,2.1-0.6,2.9c-1.8,3.8-2.4,7.9-3.5,11.9c-2.1,8.1-4.2,16.2-4.4,24.5
		c-0.3,8.8-1,17.7-0.7,26.5c0,0.8,0,1.6,0,2.4C237.9,277.5,237.8,277.9,237.3,278.2z"/>
	<path class="st4" d="M237.3,278.2c0.5-0.3,0.6-0.8,0.6-1.3c0-0.8,0-1.6,0-2.4c-0.3-8.9,0.4-17.7,0.7-26.5
		c0.2-8.3,2.3-16.5,4.4-24.5c1-4,1.6-8.1,3.5-11.9c0.4-0.9,0.9-1.9,0.6-2.9c1.4-5.5,2.8-11,4.7-16.4c0.4-1.1,0.7-1.6,1.9-1.1
		c1.4,0.5,3,0.4,4.6,1.2c-0.7,1.7-1.3,3.4-2.2,5c-6.5,12.9-9.6,26.7-12.3,40.7c-2.8,14.9-4,30-4.9,45.2c-0.4,0.2-0.8,0.4-1.1,0.7
		C237.3,282,237.3,280.1,237.3,278.2z"/>
	<path class="st4" d="M307,256.1c-3.5,0.9-6.6-0.2-9.6-1.8c-1.3-0.7-1.9-1.3-1.1-2.7c0.3-0.6,0.6-1.3,1-2.2c2,1.1,4,2.1,5.8,3.4
		c2,1.4,3.9,2,6.1,0.6c0.1-0.1,0.2-0.1,0.3-0.1c2.6-1.4,5.2-1.5,7.8,0c1.4,0.7,2.7,0.7,4.1,0c1.8-0.9,3.5-0.9,5.2,0.2
		c0.4,0.3,1,0.4,1.4,0.6c2.2,1.2,4.5,1.7,7,1.2c2.2-0.4,2.2-0.2,2.8,2c0.3,1.2,0.6,2.4,0.9,3.6c-0.7,0.8-1.5,0.3-2.3,0.2
		c-3.9-0.7-7.8-1.3-11.7-2.1c-5.1-1.1-10.1,0-15.1,0.9c-5.5,1-11,2.2-16.6,1.5c-0.4-0.2-0.3-0.5-0.2-0.8c1.4-4.1,1.4-4.3,5.6-2.9
		c3.3,1.1,6.2-0.1,9.2-0.6c1.2,0.2,2.2-0.5,3.3-0.9C309.5,255.5,308.2,255.2,307,256.1z"/>
	<path class="st4" d="M403.7,226.8c1.1-1,0-1.9-0.2-2.7c-2.6-7.9-5.8-15.6-9.5-23c-0.4-0.9-1.1-1.7-1.2-3.1c3,1.6,4.8,4.3,7.7,5.6
		c3.6,9.8,6.6,19.7,8,30c0.2,1.4,0.5,2.8,0,4.2l0.1-0.1C406.5,234.4,405.4,230.5,403.7,226.8z"/>
	<path class="st4" d="M332.1,222.6c2,0.7,3.1,2.5,4.8,3.7c1.2,0.8,0.5,2.1,0.7,3.1c-0.3,0.7-0.5,1.3-0.8,2c-0.9,2.3-2.5,3.9-5.1,4.1
		c-4.1,0.4-7.4,2.7-10.9,4.5c-0.6,0.3-1.3,1.6-2.3,0.4c0-1,0.2-2,0.1-3c-0.1-1.2,0.5-1.8,1.2-2.6c3.2-1.6,6.4-3.3,9.7-4.9
		c1.3-0.6,2-1.4,2-2.9C331.6,225.6,331.9,224.1,332.1,222.6z"/>
	<path class="st3" d="M382.9,177.9c0-2.6,0.2-5.2,0.1-7.9c0-1.3,0.3-1.9,1.8-2.2c2.9-0.5,5.8-0.7,8.6-1.7c0.9,2.7,0.5,5.7,1.1,8.4
		c0.3,1.2-0.7,1.6-1.6,1.7C389.5,177,386.2,177.9,382.9,177.9z"/>
	<path class="st4" d="M302.3,200c-1.4,0.9-2.3,1.5-3.1,2c-4.3,2.5-8.5,2.8-12.9,0.1c-2.7-1.7-5.2-3.4-7.2-6.6
		C286.9,197,294.3,198.5,302.3,200z"/>
	<path class="st4" d="M336.1,202c7.5-1.4,14.8-2.7,22.2-4C353.5,204.1,342.3,207.8,336.1,202z"/>
	<path class="st0" d="M331.2,195.8c-0.5,8.3-1.9,16.5-2.7,24.7c-0.6,6-0.5,6-5.8,9.2c-0.5,0.3-0.9,0.9-1.6,0.5
		c0.6-1.1,1.6-1.8,2.6-2.5c1.9-1.2,2.5-3,2.8-5.1c1.1-7.6,2.1-15.3,3.7-22.9C330.5,198.5,331.2,197.2,331.2,195.8z"/>
	<path class="st0" d="M237.8,283.8c0.4-0.2,0.8-0.4,1.1-0.7c0.3,2.3,0,4.5-0.8,6.7C237.9,287.8,237.5,285.8,237.8,283.8z"/>
	<path class="st0" d="M336.3,102c-0.2,0-0.4,0-0.6-0.1c-0.7-1.6-0.5-3.2-0.6-5.2c0.9,0.7,0.8,1.6,1.3,2.2
		C336.4,100,336.3,101,336.3,102z"/>
	<path class="st0" d="M307,256.1c1.2-0.9,2.6-0.6,3.9-0.2c-1.1,0.4-2.1,1.1-3.3,0.9C307.7,256.3,307.2,256.3,307,256.1z"/>
	<path class="st3" d="M270,274.6h-0.1c0-0.2,0-0.4,0-0.5h0.1C270,274.2,270,274.4,270,274.6z"/>
	<path class="st0" d="M321.7,30.4c-0.9-0.2-0.5-1-0.7-1.5C321.7,29.2,321.8,29.8,321.7,30.4z"/>
	<path class="st4" d="M408.5,237.9c0.1,0.1,0.3,0.2,0.4,0.3c0-0.1-0.1-0.1-0.1-0.2C408.7,238,408.6,237.9,408.5,237.9L408.5,237.9z"
		/>
	<path class="st3" d="M373,101.4c-0.8-0.1-0.9-0.6-0.7-1.2C373,100.4,373.2,100.8,373,101.4z"/>
	<path class="st3" d="M371.9,99.6c-0.7-0.2-0.7-0.8-0.9-1.3C371.7,98.4,372,98.8,371.9,99.6z"/>
	<path class="st0" d="M483.3,261.7c-0.9-0.1-0.8-0.6-0.7-1.2C483.2,260.7,483.5,261.1,483.3,261.7z"/>
	<path class="st3" d="M327.2,245.8c-0.2,0-0.4,0-0.6-0.1s-0.1-0.3,0.1-0.2C326.9,245.5,327,245.7,327.2,245.8L327.2,245.8z"/>
	<path class="st0" d="M482.1,259.9c-0.5-0.2-0.6-0.7-0.7-1.1C482,258.9,482.1,259.3,482.1,259.9z"/>
	<path class="st3" d="M372.4,100.3c-0.6,0.1-0.6-0.3-0.6-0.7C372.4,99.5,372.5,99.8,372.4,100.3z"/>
	<path class="st0" d="M322.2,31h-0.3l-0.3-0.1c0-0.2,0-0.4,0-0.6C322.2,30.4,322.2,30.7,322.2,31z"/>
	<polygon class="st3" points="310.4,264.4 310.4,264.6 310.3,264.6 	"/>
	<path class="st0" d="M482.7,260.5c-0.6,0.1-0.6-0.3-0.6-0.7C482.5,259.8,482.6,260.1,482.7,260.5z"/>
	<path class="st3" d="M113.8,252.9c-0.3-2.4-0.6-4.2-0.7-6c-0.6-11.1-1.4-22.2-1.4-33.3c0-10.9-0.1-21.8,0.2-32.7
		c0.1-3.7,0.5-7.3,0.5-11c0-1.8,0.9-2.4,2.4-2.9c9.6-2.9,19.1-5.8,28.7-8.5c13.4-3.7,26.7-7.3,40.3-10.1c11.7-2.4,23.3-4.9,35.1-6.8
		c0.3,0,0.6,0,0.8,0c0.5,0.6,0.4,1.2,0.2,1.8c-1.2,5.7-1.5,11.5-2.3,17.2c-1.1,7.6-1.2,15.2-1.8,22.8c-0.3,3.6-2,6.8-3,10.2
		c-0.3,1-1.1,1.1-2,0.9c-1.9-0.3-3.8-0.6-5.7-1.1c-1.7-0.4-2.8,0-4,1.3c-6.5,7.6-13,15.2-19.5,22.7c-0.7,0.8-1.2,2-3,1.9
		c1.6-8.1,3.8-16,5.7-23.9c1.9-8,3.9-15.9,5.8-23.9c-0.2-0.1-0.4-0.2-0.6-0.3C164.5,198.4,139.4,225.4,113.8,252.9z"/>
	<path class="st0" d="M93,275.6c-1-5.7-1.5-10.9-2-16c-2.6-24.9-3-49.9-2.5-74.9c0.2-10.6,1.1-21.2,1.8-31.8
		c0.1-1.7,0.6-2.4,2.4-2.8c11.1-2.3,22.2-4.5,33.3-6.6c16.4-3.1,32.9-5.9,49.4-8.3c10.9-1.6,21.8-3,32.7-4.5c0.9-0.1,1.8,0,2.8,0.2
		c-4.4,0.9-8.7,1.8-13.1,2.7c-19.5,3.8-38.8,8.5-57.9,13.8c-12.1,3.3-24,7.1-36,10.7c-2.9,0.9-2.4,0.9-2.6,3.3
		c-1.5,19.6-1.6,39.3-1.2,59c0.3,13.9,1.2,27.7,2.8,41.5c0.2,1.6,0,2.9-1.3,4.1C98.9,269.1,96.2,272.2,93,275.6z"/>
	<path class="st3" d="M459.9,219.3c-1.6,0.3-2.1-0.6-2.7-1.3c-6.5-7.6-13.1-15.1-19.5-22.8c-1.4-1.7-2.7-2.5-4.9-1.8
		c-1.5,0.5-3.2,0.6-4.8,0.9c-1.5,0.3-2.2-0.3-2.7-1.7c-1.9-4.9-2.9-9.9-3.1-15.2c-0.5-11.5-1.7-22.9-3.6-34.3c-0.1-0.6,0-1.2,0-2
		c5.8,1.1,11.4,2.1,16.9,3.1c24.8,4.7,49.3,10.9,73.5,18.1c4.9,1.4,9.7,3,14.6,4.4c1.3,0.4,1.9,1,2,2.5c0.6,6.8,0.7,13.6,0.9,20.5
		c0.3,8.7,0.2,17.3,0,26c-0.2,11.6-1,23.2-1.8,34.8c0,0.4-0.1,0.8-0.9,1.2c-24.9-26.8-50-53.7-75-80.6c-0.2,0.1-0.4,0.2-0.6,0.3
		C452.1,187.5,456,203.3,459.9,219.3z"/>
	<path class="st4" d="M433,131.4c7.1,0.9,14.2,1.7,21.2,2.7c13.6,1.9,27.2,4.1,40.7,6.4c17,3,33.9,6.2,50.7,9.7
		c1.4,0.3,1.8,0.8,2,2.2c0.8,7.8,1.2,15.7,1.6,23.5c0.9,18,0.9,36.1,0,54.1c-0.7,15-2,29.9-3.9,44.7c-1,0.3-1.3-0.6-1.7-1.1
		c-2.4-2.6-4.8-5.3-7.3-7.8c-1-1-1.4-2.1-1.2-3.5c0.9-9.3,1.7-18.7,2.2-28c0.9-15.6,1-31.2,0.6-46.8c-0.2-8.6-0.7-17.1-1.2-25.7
		c-0.1-2.1-0.9-3.1-3-3.7c-20.7-6.4-41.5-12.4-62.6-17.6c-13.2-3.3-26.6-5.8-40-8.6C431.7,131.3,432.5,131.7,433,131.4z"/>
	<path class="st0" d="M433,131.4c-0.5,0.3-1.3-0.1-1.8,0.6c-2.5-0.1-4.9-0.9-7.4-1.5C427,130.3,430,130.6,433,131.4z"/>
	<path class="st4" d="M440.6,494.4c0.2,0,0.3,0,0.4-0.3c5,0,10,0,15.2,0c-0.3,1.6-1.4,2.5-2.3,3.6c-7,8.7-14.2,17.3-21.9,25.5
		c-12.6,13.6-26,26.4-40.2,38.4c-11,9.3-22.3,18.1-34.2,26.1c-11.9,8-24.2,15.4-37,22c-0.6,0.3-1.3,1.2-2.1,0.3
		c0-4.3,0.1-8.6,0.1-12.9c10-5.5,19.8-11.3,29.3-17.5c12.3-8,23.9-17,35.1-26.5c15.4-13,29.9-27,43.4-42
		C431.4,505.7,436.3,500.3,440.6,494.4z"/>
	<path class="st0" d="M318.6,597.2c0,4.3-0.1,8.6-0.1,12.9c-4-1.6-7.7-3.7-11.4-5.8c-20.7-11.7-40.2-25.2-58.4-40.5
		c-20.4-17.1-39.3-35.7-56.4-56.2c-3.3-4-6.7-7.9-9.8-12.1c-0.2-0.2-0.3-0.5-0.5-1c2.4-0.8,4.8-0.3,7.2-0.4c2.3-0.1,4.7,0,7,0
		c0.1,0.2,0.2,0.3,0.4,0.3c3.6,4.8,7.6,9.3,11.6,13.8c13.4,15.3,28,29.5,43.5,42.9c13.9,12,28.4,23.2,44,32.8
		C303.2,588.5,310.8,593.1,318.6,597.2z"/>
	<path class="st3" d="M211.5,494.3c0.9,0,1.8-0.1,2.7-0.1c70.2,0,140.5,0,210.7,0c0.5,0,1,0,1.5,0c-0.1,0.8-0.7,1.2-1.1,1.8
		c-3,3.4-6,6.9-9.1,10.3c-16.7,17.9-34.6,34.6-53.8,49.7c-13.1,10.3-27.1,19.1-41.5,27.4c-1.3,0.7-2.3,0.8-3.6,0
		c-15.9-9.1-31.2-18.9-45.4-30.4c-18.1-14.6-35.1-30.4-50.8-47.6C217.8,501.8,214.4,498.3,211.5,494.3z M331.4,518.8L331.4,518.8
		c0,2.8-0.1,5.5,0.1,8.2c0.2,3,1.8,4.8,4.6,5.3c4.8,1,8-1.5,8.1-6.5c0.1-4.3,0-8.6,0-12.8c0-0.8,0-1.6-0.1-2.4
		c-0.6-3.8-2.9-5.5-6.9-5.3c-3.6,0.2-5.6,2.3-5.7,6.2C331.3,513.9,331.4,516.4,331.4,518.8z M359.1,519c0-2.4,0.1-4.9,0-7.3
		c-0.1-4.1-2.3-6.3-6.2-6.4c-4-0.1-6.4,2-6.6,6c-0.2,5.1-0.2,10.2,0,15.3c0.1,4,2.7,6.1,6.6,6c3.8-0.1,5.9-2.2,6.1-6.2
		C359.1,523.9,359.1,521.5,359.1,519z M286.1,524.2c-0.9,0-1.8,0-2.7,0c-0.6,0-0.9,0.3-1,0.9c-0.7,3.4,1.4,6.7,4.8,7.3
		c4.2,0.7,7.1-1.2,7.6-5c0.4-3-0.3-5.7-2.5-7.9c-1.2-1.2-2.5-2.4-3.7-3.7c-1.1-1.1-1.9-2.4-1.9-4c0-1.2,0.2-2.3,1.6-2.6
		c1.1-0.3,1.9,0.4,2.4,2.1c0.1,0.2,0,0.4,0.1,0.6c0.5,1.6,1.8,0.8,2.8,0.9c1.2,0.1,1.2-0.8,1.2-1.6c-0.1-3.5-2.3-5.7-5.7-5.9
		c-3.8-0.2-6.2,1.7-6.6,5.2c-0.4,3.1,0.5,5.8,2.7,8.1c1.2,1.2,2.5,2.4,3.7,3.6c1.2,1.2,1.8,2.7,1.6,4.4c-0.1,1.2-0.7,1.8-2,1.9
		c-1.1,0-1.8-0.5-2-1.5C286.3,526.3,286.2,525.4,286.1,524.2z M268.9,518.8c0,3.9,0,7.7,0,11.6c0,0.9-0.1,1.9,1.3,1.8
		c3-0.1,5.9,0,8.9,0c0.9,0,1.3-0.4,1.3-1.3c0-2.2,0.1-2.7-2.2-2.5c-0.4,0-0.8,0-1.2,0c-4.2-0.1-3.7,0.6-3.8-3.7c0-3.9,0-3.9,3.9-4.1
		c1.3,0,1.9-0.3,1.8-1.7c-0.1-1.2,0.1-2.2-1.7-2.2c-1.3,0.1-2.9,0.6-3.8-0.5c-0.8-1-0.2-2.6-0.3-3.9c0-0.5,0-1,0-1.5
		c-0.1-1.1,0.5-1.4,1.5-1.4c1.3,0,2.7-0.1,4,0s1.8-0.5,1.8-1.8c0-1.2,0.1-2.3-1.6-2.2c-2.6,0.1-5.3,0.1-7.9,0
		c-1.5-0.1-1.9,0.6-1.9,2C269,511.3,268.9,515,268.9,518.8z M320.4,514.4c0.1-1.1,0.1-2.1,0.2-3.1c0.2-1.2,0.8-2.1,2.2-2.1
		c1.4,0.1,1.8,1.1,1.9,2.3c0.2,2.3-0.4,4.5-1.9,6.3c-1.1,1.4-2.2,2.7-3.4,4c-2.4,2.6-3.2,5.6-2.9,9c0.1,1,0.3,1.5,1.4,1.5
		c3.1,0,6.1-0.1,9.2,0c1.5,0,1.6-0.8,1.6-1.9c0-1.2-0.2-2-1.6-1.9c-1.6,0.1-3.3,0-4.9,0c-1.4,0-1.5-0.7-1.2-1.8
		c0.3-1,0.9-1.8,1.6-2.6c1.2-1.4,2.4-2.8,3.6-4.2c2-2.5,3-5.3,2.8-8.5c-0.2-3.9-2.4-6.1-6.2-6.1c-3.9,0-6.1,2.1-6.2,6
		C316.7,514.3,315.8,515,320.4,514.4z M300.2,520.6c0,3.3,0,6.5,0,9.8c0,1.2,0.1,1.9,1.6,1.9c2.6,0,2.6,0.1,2.7-2.7
		c0-5.8,0-11.6,0-17.4c0-2.5,0-2.6,2.6-2.6c1.6,0,1.8-0.7,1.8-2c0-1.4-0.3-2.1-1.9-2c-3.2,0.1-6.3,0-9.5,0c-1.1,0-1.7,0.3-1.7,1.5
		c-0.1,2.1,0,2.3,2.3,2.5c2.1,0.1,2.1,0.1,2.1,2.3C300.2,514.7,300.2,517.7,300.2,520.6z M369.5,519.1c0-3.9,0-7.7,0-11.6
		c0-0.7,0.3-1.6-0.6-1.8c-1-0.2-2-0.4-2.6,0.9c-0.6,1.4-1.8,2.1-3.3,2.4c-1.2,0.2-0.8,1.2-0.8,1.9c-0.1,0.7,0.3,1.2,1.1,1.1
		c2.3-0.4,2.1,1.1,2.1,2.6c0,5.3,0.1,10.6-0.1,15.9c-0.1,2,1.1,1.7,2.3,1.8c1.4,0.1,2-0.2,2-1.8
		C369.4,526.7,369.5,522.9,369.5,519.1z"/>
	<path class="st2" d="M211.5,494.3c2.9,4,6.3,7.5,9.6,11.1c15.7,17.2,32.7,33,50.8,47.6c14.2,11.5,29.5,21.4,45.4,30.4
		c1.3,0.8,2.3,0.7,3.6,0c14.4-8.3,28.4-17.1,41.5-27.4c19.3-15.1,37.1-31.8,53.8-49.7c3.1-3.3,6.1-6.8,9.1-10.3c0.5-0.5,1-1,1.1-1.8
		c4.7,0.1,9.4,0.1,14.1,0.2c-4.4,5.9-9.3,11.3-14.2,16.7c-13.5,15-28,29-43.4,42c-11.2,9.5-22.8,18.5-35.1,26.5
		c-9.5,6.2-19.4,12-29.3,17.5c-7.9-4.1-15.4-8.7-23-13.3c-15.6-9.7-30.1-20.8-44-32.8c-15.4-13.3-30-27.5-43.5-42.9
		c-4-4.5-8-9-11.6-13.8C201.6,494.4,206.6,494.3,211.5,494.3z"/>
	<path class="st2" d="M324.6,302.7c-1.9-4-2.2-8.2-1.3-12.4c0.3-1.3,0.7-2.6,1.2-3.8c1.6-3.8,1.7-7.7,1.1-11.7
		c-0.2-1.5-0.3-3-0.2-4.5c2.4,4.7,4.1,9.7,2.1,14.8C325.5,290.9,324.1,296.6,324.6,302.7z"/>
	<polygon class="st2" points="334.3,281.3 334.2,281.6 334.2,281.3 	"/>
	<path class="st2" d="M304,291.1c-0.4,0.2-0.6-0.1-0.8-0.4c0.2-0.1,0.3-0.3,0.5-0.4C303.9,290.5,304,290.8,304,291.1L304,291.1z"/>
	<path class="st2" d="M303.9,291.1c0.1,0,0.2,0.1,0.2,0.1v0.2C303.9,291.4,303.9,291.3,303.9,291.1
		C304,291.1,303.9,291.1,303.9,291.1z"/>
	<path class="st0" d="M359,399.8c-1.3,2.4-3.3,4-5.2,5.6c-2.9,2.3-6.1,4-9.7,5.1c-2.4,0.8-2.4,0.8-1.2,3.1
		c3.5,6.8,7.5,13.3,11.3,19.9c3.2,5.6,6.5,11.3,9.8,16.9c0.2,0.3,0.3,0.7,0.4,1c-0.4,0.9-1.1,0.6-1.6,0.6c-4.7,0-9.4-0.1-14.1,0.1
		c-1.7,0-2.5-0.7-3.2-2.1c-4.2-8.4-8.5-16.7-12.8-25c-1.8-3.4-3.7-6.8-5.4-10.3c-0.9-1.7-2.1-2.4-4.1-2.4c-7.5,0.1-15.1,0-22.6,0.1
		c-3.3,0-3.3,0-3.3,3.4c0,10.7,0,21.4,0,32.1c0,0.7,0,1.4,0,2.1c0.1,1.4-0.5,2-1.9,2c-4-0.1-8-0.1-11.9,0c-1.7,0-2.1-0.7-2-2.2
		c0.1-1.1,0-2.2,0-3.4c0-14.6,0-29.2,0-43.7c0-3.5-0.1-3.3,3.3-3.3c23.8,0,47.5,0,71.3,0C356.8,399.5,357.8,399.3,359,399.8z"/>
	<path class="st1" d="M302.8,375.9c0-5,0-10,0-15c0-2.1,0-2.2,2.2-2.2c7.7,0,15.5,0,23.2,0c1.5,0,3.1,0.2,4.5,0.5
		c6.8,1.6,10.7,6,11.9,12.8c0.6,3.4,0.5,6.9-0.6,10.3c-1.8,5.6-5.8,9-11.5,10.3c-1.3,0.3-2.6,0.5-3.9,0.5c-8,0.1-16.1,0-24.1,0.1
		c-1.6,0-1.8-0.7-1.8-2C302.8,386.1,302.8,381,302.8,375.9z"/>
	<path class="st0" d="M519.6,452.1c-10.4,0-20.8,0-31.2,0c-3.2,0-3.3,0-3.3-3.1c0-15.5,0-31,0-46.5c0-0.5,0-1,0-1.5
		c0-1,0.4-1.5,1.5-1.5c0.7,0,1.4,0,2.1,0c18.2,0,36.5,0,54.7,0c0.6,0,1.2,0,1.8,0s1.3,0,1.4,0.8c0.1,0.8-0.5,1-1.1,1.1
		c-1.4,0.3-2.8,0.4-4.2,0.4c-11.9,0-23.9,0-35.8,0c-0.6,0-1.2,0-1.8,0c-2.7,0.1-2.7,0.1-2.7,2.8c0,10.4,0,20.8,0,31.2
		c0,2.8,0,2.9,2.9,2.9c15.4,0,30.8,0,46.2,0c0.7,0,1.4,0,2.1,0c1.4-0.1,2,0.5,2,1.9c-0.1,3.2-0.1,6.3,0,9.5c0,1.7-0.7,2.1-2.2,2.1
		c-6-0.1-12,0-18,0C529.2,452.1,524.4,452.1,519.6,452.1z"/>
	<path class="st1" d="M234.9,395.7c0,5.6,0,11.2,0,16.8c0,2.6-0.2,5.1-0.9,7.6c-2.1,6.8-6.7,11.3-13.5,13.4
		c-5.6,1.8-11.3,1.7-16.9-0.1c-8.4-2.7-13.8-9.6-14.1-18.4c-0.2-5.2-0.1-10.4-0.1-15.6c0-6.8,0-13.7,0-20.5c0-2.6,0.1-5.1,0.9-7.6
		c2-6.6,6.3-11.1,12.8-13.3c5.9-2,11.8-2,17.7-0.2c8.2,2.6,13.6,9.6,13.9,18.2C235,382.6,234.8,389.2,234.9,395.7
		C234.8,395.7,234.8,395.7,234.9,395.7z"/>
	<path class="st0" d="M212,453.9c-8.9,0.5-17.4-1.3-25.2-5.7c-11.2-6.4-17.4-16.1-18.8-29c-0.6-5.8-0.3-11.6-0.4-17.4
		c0-2.3,0.1-2.4,2.4-2.4c3.8,0,7.5,0,11.3,0c1.6,0,2.2,0.5,2.1,2.1c-0.1,4.1-0.2,8.2,0,12.2c0.4,7.4,2.6,14.2,8.3,19.4
		c2.9,2.7,6.2,4.5,10,5.7c8,2.5,15.9,2.3,23.6-1c7.4-3.2,12.3-8.9,14.3-16.8c1-3.9,1.4-7.8,1.2-11.8c-0.1-2.4,0-4.9,0-7.3
		s0.1-2.5,2.3-2.5c3.8,0,7.5,0,11.3,0c2.2,0,2.3,0.1,2.2,2.3c-0.1,5.7,0.2,11.4-0.4,17.1c-0.5,4.5-1.5,8.8-3.4,12.9
		c-4.3,9.4-11.6,15.5-21.1,19.2C225.4,453.4,218.8,454.3,212,453.9z"/>
	<path class="st0" d="M428.8,399.5c-8.8,13.1-17.3,25.7-25.9,38.6c1.5,0.7,2.6,0.5,3.7,0.5c16.7,0,33.5,0,50.2,0c0.7,0,1.4,0,2.1,0
		c2.2,0.1,2.3,0.1,2.3,2.2c0,3.2,0,6.3,0,9.5c0,1.3-0.4,1.9-1.8,1.8c-0.6,0-1.2,0-1.8,0c-23.3,0-46.5,0-69.8,0c-4,0-3.7,0.3-3.7-3.6
		c0-3.2-0.5-6.5,0.3-9.4c0.8-2.8,3.1-5.2,4.8-7.7c6.6-9.8,13.2-19.6,19.7-29.5c1.1-1.7,2.3-2.5,4.4-2.4
		C418.3,399.6,423.2,399.5,428.8,399.5z"/>
	<path class="st0" d="M112.7,399.5c8.7,0,17.3,0,26,0c3.1,0,3.1,0,3.1,3c0,0.6,0,1.2,0,1.8c0,0.9-0.5,1.3-1.4,1.3
		c-0.8,0-1.6,0-2.4,0c-11.3,0-22.6,0-33.9,0c-0.6,0-1.2,0-1.8,0c-2.6,0-2.7,0-2.7,2.8c0,13.4,0,26.7,0,40.1c0,4,0.3,3.7-3.6,3.7
		c-3.4,0-6.7,0-10.1,0c-2.1,0-2.2-0.1-2.2-2.3c0-4.3,0-8.6,0-12.8c0-10.9,0-21.8,0-32.7c0-0.5,0-1,0-1.5c0-3.2,0-3.2,3.1-3.2
		C95.4,399.5,104,399.5,112.7,399.5z"/>
	<path class="st4" d="M331.4,518.8c0-2.4-0.1-4.9,0-7.3c0.1-3.8,2.2-6,5.7-6.2c4-0.2,6.3,1.5,6.9,5.3c0.1,0.8,0.1,1.6,0.1,2.4
		c0,4.3,0.1,8.6,0,12.8c-0.2,5-3.3,7.4-8.1,6.5c-2.8-0.5-4.4-2.3-4.6-5.3C331.3,524.3,331.4,521.6,331.4,518.8L331.4,518.8z
		 M335.6,518.8L335.6,518.8c0,2.5-0.1,5.1,0,7.6c0.1,1.9,1.6,2.9,3.1,2c0.9-0.5,1.1-1.4,1.1-2.4c0-4.8,0.1-9.5,0-14.3
		c0-1.8-1-2.7-2.3-2.6c-1.5,0.2-1.9,1.2-1.9,2.6C335.6,514.1,335.6,516.4,335.6,518.8z"/>
	<path class="st4" d="M359.1,519c0,2.4,0.1,4.9,0,7.3c-0.1,3.9-2.3,6.1-6.1,6.2c-3.9,0.1-6.5-2-6.6-6c-0.2-5.1-0.2-10.2,0-15.3
		c0.1-4,2.6-6.1,6.6-6c3.9,0.1,6.1,2.3,6.2,6.4C359.1,514.1,359.1,516.6,359.1,519z M354.8,519L354.8,519c0-2.4,0-4.9,0-7.3
		c0-1.4-0.5-2.4-2-2.5c-1.2-0.1-2.2,0.8-2.2,2.4c-0.1,4.9-0.1,9.7,0,14.6c0,1.3,0.5,2.4,2.1,2.5c1.4,0.1,2.1-0.7,2.2-2.6
		C354.9,523.7,354.8,521.3,354.8,519z"/>
	<path class="st4" d="M286.1,524.2c0.1,1.1,0.2,2,0.4,2.9c0.2,1,1,1.5,2,1.5c1.2-0.1,1.8-0.7,2-1.9c0.2-1.7-0.4-3.2-1.6-4.4
		c-1.2-1.3-2.5-2.4-3.7-3.6c-2.2-2.2-3.1-4.9-2.7-8.1c0.4-3.5,2.8-5.4,6.6-5.2c3.4,0.2,5.6,2.4,5.7,5.9c0,0.9,0,1.8-1.2,1.6
		c-1-0.1-2.3,0.7-2.8-0.9c-0.1-0.2,0-0.4-0.1-0.6c-0.5-1.7-1.2-2.4-2.4-2.1c-1.3,0.3-1.6,1.4-1.6,2.6c0,1.6,0.8,2.9,1.9,4
		c1.2,1.2,2.5,2.4,3.7,3.7c2.1,2.2,2.8,4.9,2.5,7.9c-0.5,3.8-3.4,5.7-7.6,5c-3.4-0.6-5.5-3.9-4.8-7.3c0.1-0.6,0.4-0.9,1-0.9
		C284.3,524.2,285.2,524.2,286.1,524.2z"/>
	<path class="st4" d="M268.9,518.8c0-3.8,0-7.5,0-11.3c0-1.4,0.4-2,1.9-2c2.6,0.1,5.3,0.1,7.9,0c1.7,0,1.6,1.1,1.6,2.2
		c0.1,1.3-0.4,1.9-1.8,1.8c-1.3-0.1-2.6,0-4,0c-1,0-1.6,0.3-1.5,1.4c0,0.5,0,1,0,1.5c0.1,1.3-0.5,2.9,0.3,3.9
		c0.8,1.1,2.5,0.5,3.8,0.5c1.8-0.1,1.6,1,1.7,2.2c0.1,1.4-0.5,1.7-1.8,1.7c-3.9,0.1-4,0.2-3.9,4.1c0,4.3-0.4,3.7,3.8,3.7
		c0.4,0,0.8,0,1.2,0c2.3-0.2,2.2,0.3,2.2,2.5c0,0.9-0.3,1.3-1.3,1.3c-3,0-5.9,0-8.9,0c-1.4,0-1.3-0.9-1.3-1.8
		C268.9,526.6,268.9,522.7,268.9,518.8z"/>
	<path class="st4" d="M320.4,514.4c-4.6,0.6-3.8-0.1-3.7-3.1c0.1-3.9,2.3-6,6.2-6c3.8,0,5.9,2.2,6.2,6.1c0.2,3.2-0.9,6-2.8,8.5
		c-1.1,1.4-2.4,2.8-3.6,4.2c-0.7,0.8-1.3,1.6-1.6,2.6c-0.3,1-0.2,1.8,1.2,1.8c1.6,0,3.3,0.1,4.9,0c1.5-0.1,1.6,0.8,1.6,1.9
		c0,1.1-0.1,2-1.6,1.9c-3.1-0.1-6.1-0.1-9.2,0c-1.1,0-1.3-0.5-1.4-1.5c-0.3-3.4,0.5-6.5,2.9-9c1.2-1.3,2.3-2.6,3.4-4
		c1.4-1.8,2-4,1.9-6.3c-0.1-1.3-0.6-2.2-1.9-2.3c-1.4-0.1-2,0.8-2.2,2.1C320.5,512.2,320.5,513.3,320.4,514.4z"/>
	<path class="st4" d="M300.2,520.6c0-2.9,0-5.9,0-8.8c0-2.1,0-2.1-2.1-2.3c-2.2-0.1-2.3-0.3-2.3-2.5c0-1.2,0.6-1.5,1.7-1.5
		c3.2,0,6.3,0.1,9.5,0c1.5,0,1.9,0.6,1.9,2c0,1.3-0.2,2-1.8,2c-2.6,0-2.6,0.1-2.6,2.6c0,5.8,0,11.6,0,17.4c0,2.8,0,2.7-2.7,2.7
		c-1.5,0-1.6-0.7-1.6-1.9C300.2,527.1,300.2,523.9,300.2,520.6z"/>
	<path class="st4" d="M369.5,519.1c0,3.8-0.1,7.5,0,11.3c0,1.6-0.6,1.9-2,1.8c-1.2-0.1-2.4,0.2-2.3-1.8c0.1-5.3,0-10.6,0.1-15.9
		c0-1.5,0.1-2.9-2.1-2.6c-0.7,0.1-1.1-0.4-1.1-1.1c0.1-0.7-0.4-1.7,0.8-1.9c1.5-0.2,2.7-0.9,3.3-2.4c0.6-1.3,1.6-1.1,2.6-0.9
		c1,0.2,0.6,1.2,0.6,1.8C369.5,511.4,369.5,515.3,369.5,519.1z"/>
	<path class="st3" d="M335.6,518.8c0-2.3,0-4.7,0-7c0-1.4,0.4-2.4,1.9-2.6c1.3-0.1,2.3,0.8,2.3,2.6c0.1,4.8,0,9.5,0,14.3
		c0,0.9-0.3,1.8-1.1,2.4c-1.4,0.8-3-0.1-3.1-2C335.5,523.8,335.6,521.3,335.6,518.8L335.6,518.8z"/>
	<path class="st3" d="M354.8,519c0,2.3,0.1,4.7,0,7c-0.1,1.9-0.7,2.7-2.2,2.6c-1.6-0.1-2.1-1.1-2.1-2.5c0-4.9-0.1-9.7,0-14.6
		c0-1.6,1-2.5,2.2-2.4c1.5,0.1,2,1.1,2,2.5C354.8,514.1,354.8,516.6,354.8,519L354.8,519z"/>
</g>
</svg>
