<?xml version="1.0" encoding="utf-8"?>
<!-- Generator: Adobe Illustrator 22.1.0, SVG Export Plug-In . SVG Version: 6.00 Build 0)  -->
<svg version="1.1" id="Layer_1" xmlns="http://www.w3.org/2000/svg" xmlns:xlink="http://www.w3.org/1999/xlink" x="0px" y="0px" height="800px" width="800px"
	 viewBox="0 0 40 40" style="enable-background:new 0 0 40 40;" xml:space="preserve">
<style type="text/css">
	.st0{fill:#E43D30;}
</style>
<g>
	<g>
		<polygon class="st0" points="17,19.4 11.4,19.4 9.9,17.6 9.4,17 7,14.2 17,14.2 17,12.2 5.3,12.2 1.3,7.5 38.7,7.5 34.1,12.2 
			23,12.2 23,19.6 35.8,19.6 30.4,25.1 25.3,25.1 17,32.3 		"/>
		<path d="M16.5,33.4V19.9h-5.3l-1.7-2L9,17.4l-3.1-3.7h10.6v-1.1H5.1L0.2,7H40l-5.6,5.6H23.5v6.4H37l-6.4,6.5h-5.2L16.5,33.4z
			 M11.7,18.9h5.9v12.2l7.5-6.5h5.2l4.4-4.5H22.5v-8.4h11.4L37.5,8H2.4l3.1,3.6h12v3.1H8.1l1.7,2l0.5,0.5L11.7,18.9z"/>
	</g>
</g>
</svg>
