<?xml version="1.0" encoding="utf-8"?>
<!-- Generator: Adobe Illustrator 21.0.0, SVG Export Plug-In . SVG Version: 6.00 Build 0)  -->
<svg version="1.1" id="Layer_1" xmlns="http://www.w3.org/2000/svg" xmlns:xlink="http://www.w3.org/1999/xlink" x="0px" y="0px"
	 viewBox="0 0 492.1 492.1" style="enable-background:new 0 0 492.1 492.1;" xml:space="preserve">
<style type="text/css">
	.st0{fill:#080B0B;}
	.st1{fill:#FFFFFF;}
	.st2{fill:#141E1F;}
	.st3{fill:#FFCC25;}
	.st4{fill:#00011A;}
	.st5{fill:#F39A31;}
	.st6{fill:#283A3A;}
	.st7{fill:#F39A30;}
	.st8{fill:#000B1C;}
	.st9{fill:#000203;}
	.st10{fill:#070B0C;}
	.st11{fill:#0A0D0D;}
	.st12{fill:#A78F85;}
	.st13{fill:#AD948A;}
	.st14{fill:#9A8278;}
	.st15{fill:#13191A;}
	.st16{fill:#FF2360;}
	.st17{fill:#020505;}
	.st18{fill:#FFE926;}
	.st19{fill:#916328;}
	.st20{fill:#010405;}
	.st21{fill:#FFB734;}
	.st22{fill:#132525;}
	.st23{fill:#0B1F1F;}
	.st24{fill:#0C2020;}
	.st25{fill:#0D2121;}
	.st26{fill:#0A1F1F;}
	.st27{fill:#071D1D;}
	.st28{fill:#071C1C;}
	.st29{fill:#061B1B;}
	.st30{fill:#2A3C3C;}
	.st31{fill:#131D1F;}
	.st32{fill:#111B1C;}
	.st33{fill:#141D1F;}
	.st34{fill:#081D1D;}
	.st35{fill:#081C1C;}
	.st36{fill:#E0E0E0;}
	.st37{fill:#091E1E;}
	.st38{fill:#0D2020;}
	.st39{fill:#131D1E;}
	.st40{fill:#121D1F;}
	.st41{fill:#061C1B;}
	.st42{fill:#122525;}
	.st43{fill:#061919;}
	.st44{fill:#091D1D;}
	.st45{fill:#0F2222;}
	.st46{fill:#2B3E3E;}
	.st47{fill:#000303;}
</style>
<g>
	<g>
		<path class="st0" d="M191.3,470.182c-0.8,0-1.7,0-2.5,0c0.2-9.7,0.2-19.9,0-32l0.8-0.1c4.8-0.6,9.8-1.2,14.6-2.5l3.7-1h-3.8
			c-58.3,0.6-109.4,2.9-156.4,7.3c-2.4-1-4.7-2-7.1-3c-5.8-2.4-11.8-5-17.6-7.7c-5.4-5.9-10.8-12-16-18c-2.1-2.4-4.2-4.8-6.3-7.2
			c4.5-16.6,8.9-33.6,13.1-50l3.7-14.4c3.3-2.9,6.7-5.8,9.9-8.7c4.5-4,9.2-8.2,13.9-12.1c1.2-0.2,2.4-0.4,3.7-0.6
			c2-0.4,4.1-0.7,6.2-0.9l0.8-0.1l-0.5-0.7c-10.6-15.5-5.6-35.6-1.4-46.7c4.2,4.8,8.9,9.6,14.8,11.9l1.5,0.6l-0.9-1.3
			c-0.9-1.4-2.2-2.5-3.5-3.5c-0.9-0.8-1.9-1.6-2.7-2.5c-8.7-9-13.5-22.5-13.2-36.8c0.2-10.6,2.3-21.4,6.2-31.2
			c0.3,0.7,0.5,1.4,0.8,2.1c1.5,4.1,3,8.4,6.6,11.4l1.9,1.6l-1.2-2.2c-5.4-10.5-7.4-22.8-5.5-34.7c1.3-10,5.1-20.1,11.1-30.3
			l1.9,3.9l1.1,2.3l-0.2-2.6c-0.8-12.5,0.9-23.2,4.9-31.8c2.8-5.8,7.1-10.3,12.3-12.7c1.7,7.1,4,12.5,7.2,17l1.2,1.6l-0.3-2
			c-1.4-10.5-2.4-24.1,2.7-36.3c4.6-11.6,14.9-20.5,27.1-23.4c-0.1,0.7-0.2,1.4-0.2,2.1c-0.5,3.8-1,7.7,0.8,11.2l0.7,1.3l0.3-1.5
			c2.1-12.4,9.3-23.8,19.2-30.6c1.4-0.2,2.2-1.1,3.1-2c0.6-0.6,1.1-1.2,1.8-1.5c5.1-2.9,9.9-4.9,14.6-6.1
			c-3.3,10.8-3.2,22.2,0.1,32.2l0.3,0.9l0.6-0.8c8.5-11.2,21.3-18.7,34.9-20.6h0.2l0.1-0.2c5.7-9.7,11.3-19.5,16.8-29l3.7-6.5h16.4
			h33.1c4.9,8.3,9.7,16.7,14.4,24.9c2,3.5,4,7,6.1,10.5l0.1,0.2h0.2c13.5,1.9,26.2,9.4,35,20.6l0.6,0.7l0.3-0.9
			c3.3-10.1,3.3-21.4,0.1-32c15.5,4,28.4,14.3,34.7,27.7c1.1,1.8,1.7,3.8,2.3,5.8c0.6,2.1,1.3,4.3,2.5,6.2l0.7,1.1l0.2-1.3
			c0.7-4.5,0.6-8.8-0.2-12.5c11.4,2.8,21.4,10.9,26.2,21.4c4.9,10.5,6,23.7,3.3,38.3l-0.3,1.8l1.2-1.3c4.2-4.7,5.9-10.9,7.5-17
			c10.8,4.5,15.9,16.3,17.1,25.9c0.8,3.5,0.7,7.1,0.6,10.5c0,2.5-0.1,5,0.2,7.5l0.2,2.1l0.8-2c0.3-0.7,0.5-1.3,0.7-2
			c0.1-0.4,0.3-0.7,0.4-1.1c13.3,20,15.6,45.3,5.8,64.6l-1.3,2.5l2.1-1.9c3.5-3.3,5.2-7.8,6.6-12.1c0.1-0.6,0.3-1.1,0.7-1.5
			c6.3,18.3,7.7,33.8,4.2,47.4c-2.5,10.4-8.8,19.8-17.5,26.4l-1.3,1l1.6-0.1c1.4-0.1,2.6-0.4,3.6-1.1c4.5-2.8,8.4-6.8,11.6-10.4
			c4.1,11,9,30.9-1.3,46.9l-0.5,0.7l0.9,0.1c6.9,0.4,13.9,1.1,20.6,1.7c4.7,0.4,9.5,0.9,14.3,1.3c3.1,11.3,6.1,22.7,8.9,33.9
			c2.3,9,4.8,18.4,7.2,27.6c-1.4,0.9-2.8,1.7-4.2,2.6c-3.1,1.9-6.2,3.8-9.3,5.8l-0.3,0.2l0.1,0.4c1.6,5.9,3,12,4.4,17.9
			c1.5,6.5,3.1,13.2,4.9,19.7c-9.4,2.3-19,4.3-28.3,6.2c-6.2,1.3-12.5,2.6-18.8,4c-1.4,0.4-2.8,0.6-4.5,0.6l0,0
			c-1.7,0-3.4-0.2-5.1-0.4c-1.1-0.1-2.2-0.2-3.4-0.3c-39.7-2.5-70.2-3.9-99-4.7c-7.1-0.4-14.4-0.5-21.5-0.6
			c-7.4-0.1-15-0.2-22.5-0.7l-4.6-0.3l4.4,1.3c3.8,1.1,7.9,1.9,13.2,2.8c-0.2,10.3-0.2,20.7,0,30.9c-16.3-0.4-33.1-3.8-49.9-10.1
			c-0.5-0.2-1.1-0.3-1.6-0.3c-0.7,0-1.4,0.2-2,0.5C223.6,466.682,207.1,470.182,191.3,470.182z"/>
		<path class="st1" d="M237.3,22.482H254h16.1c4.8,8.2,9.6,16.6,14.3,24.7c2,3.5,4,7,6,10.5l0.2,0.4l0.5,0.1
			c13.3,1.9,26,9.4,34.7,20.4l1.2,1.5l0.6-1.8c3.2-9.9,3.4-21,0.3-31.5c15,4.1,27.4,14.2,33.5,27.2l0,0l0,0c1,1.7,1.6,3.6,2.2,5.6
			c0.6,2.2,1.3,4.4,2.5,6.3l1.4,2.2l0.4-2.6c0.6-4.3,0.6-8.3,0-11.9c10.9,2.9,20.5,10.8,25.1,20.9c4.8,10.4,6,23.5,3.3,38l-0.7,3.5
			l2.4-2.7c4.1-4.6,6-10.9,7.5-16.6c10.2,4.6,15.1,16,16.2,25.2l0,0l0,0c0.7,3.4,0.7,6.9,0.6,10.4c0,2.5-0.1,5,0.2,7.6l0.4,4.3
			l1.5-4c0.3-0.7,0.5-1.4,0.7-2v-0.1c12.7,19.8,14.8,44.4,5.3,63.3l-2.6,5l4.1-3.9c3.6-3.3,5.3-7.9,6.8-12.3v-0.1v-0.1
			c0-0.1,0-0.2,0.1-0.3c6,17.8,7.2,32.8,3.8,46.1c-2.5,10.3-8.7,19.6-17.3,26.1l-2.6,1.9l3.2-0.1c1.5-0.1,2.8-0.5,3.8-1.2
			c4.3-2.7,8-6.4,11.1-9.9c4,11,8.4,30.2-1.6,45.7l-0.9,1.4l1.7,0.1c6.9,0.4,13.9,1.1,20.6,1.7c4.6,0.4,9.3,0.9,13.9,1.2
			c3,11.1,6,22.5,8.8,33.5c2.3,8.9,4.7,18.2,7.1,27.2c-1.3,0.8-2.6,1.6-3.9,2.4c-3.1,1.9-6.2,3.8-9.3,5.8l-0.6,0.4l0.2,0.7
			c1.6,5.9,3,12,4.4,17.9c1.5,6.3,3.1,12.8,4.8,19.2c-9.2,2.2-18.7,4.2-27.8,6.1c-6.2,1.3-12.5,2.6-18.8,4l0,0l0,0
			c-1.3,0.4-2.7,0.5-4.4,0.5c-1.7,0-3.4-0.2-5.1-0.4c-1.1-0.1-2.2-0.2-3.4-0.3c-39.7-2.5-70.2-3.9-99-4.7
			c-7.2-0.4-14.5-0.5-21.5-0.6c-7.4-0.1-15-0.2-22.5-0.7l-9.2-0.6l8.8,2.5c3.7,1.1,7.7,1.9,12.8,2.7c-0.2,9.9-0.2,20,0,30
			c-16.1-0.5-32.7-3.8-49.2-10c-0.6-0.2-1.2-0.3-1.8-0.3c-0.7,0-1.5,0.2-2.2,0.5c-19.8,7.5-36.3,10.9-52,10.9c-0.7,0-1.3,0-2,0
			c0.1-9.4,0.1-19.3,0-31.1h0.3c4.8-0.6,9.8-1.2,14.7-2.5l7.4-2l-7.1,0.3c-58.2,0.6-109.4,2.9-156.3,7.3c-2.3-1-4.7-2-7-3
			c-5.8-2.4-11.7-4.9-17.4-7.7c-5.4-5.9-10.8-12-16-17.9c-2.1-2.3-4.1-4.6-6.2-7c4.4-16.6,8.8-33.4,13-49.7
			c1.2-4.7,2.5-9.5,3.7-14.2c3.3-2.8,6.6-5.8,9.8-8.6c4.5-4,9.1-8.1,13.8-12c1.2-0.2,2.4-0.4,3.5-0.6c2-0.4,4.1-0.7,6.1-0.9l1.7-0.2
			l-0.9-1.4c-10.2-15-5.7-34.3-1.6-45.5c4.1,4.7,8.7,9.2,14.5,11.4l2.9,1.1l-1.7-2.6c-1-1.5-2.3-2.6-3.6-3.6c-1-0.8-1.8-1.6-2.6-2.4
			l0,0l0,0c-8.6-8.9-13.4-22.2-13.1-36.5c0.2-10.1,2.1-20.3,5.7-29.8c0.1,0.3,0.2,0.6,0.3,0.9c1.5,4.2,3.1,8.5,6.7,11.6l3.9,3.2
			l-2.3-4.5c-5.4-10.3-7.3-22.4-5.4-34.2c1.3-9.6,4.8-19.5,10.6-29.3c0.1,0.2,0.2,0.5,0.3,0.7c0.4,0.9,0.9,1.8,1.1,2.4l2.2,4.6
			l-0.3-5.1c-0.8-12.4,0.8-23,4.9-31.5c2.6-5.5,6.6-9.8,11.5-12.2c1.7,6.9,4,12.2,7.1,16.5l2.3,3.2l-0.5-4
			c-1.4-10.4-2.4-24,2.7-36.1c4.4-11.2,14.3-19.9,26.1-22.9c-0.1,0.5-0.1,0.9-0.2,1.4c-0.5,3.9-1,7.8,0.9,11.5l1.4,2.7l0.5-3
			c2.1-12.2,9.1-23.5,18.9-30.2c1.5-0.3,2.4-1.3,3.2-2.1c0.5-0.6,1.1-1.1,1.7-1.4l0,0l0,0c4.7-2.7,9.2-4.6,13.6-5.8
			c-3,10.6-2.9,21.8,0.3,31.6l0.6,1.8l1.1-1.5c8.5-11.1,21.1-18.5,34.6-20.4l0.5-0.1l0.2-0.4c5.6-9.6,11.3-19.5,16.8-29l3.6-6.3
			C226.6,22.482,231.9,22.482,237.3,22.482 M237.3,21.482c-5.6,0-11.1,0-16.7,0c-6.9,11.9-13.7,23.9-20.7,35.8
			c-13.9,1.9-26.8,9.7-35.2,20.8c-3.5-10.5-3.2-22.2,0.2-32.7c-5.5,1.3-10.7,3.6-15.6,6.4c-1.9,0.9-2.6,3.2-4.9,3.5
			c-10.3,7-17.4,18.7-19.5,31c-2.1-4.2-0.8-9.2-0.4-13.7c-12.6,2.7-23.4,11.9-28.2,23.8c-4.9,11.5-4.4,24.4-2.8,36.6
			c-3.7-5.1-5.8-11.2-7.3-17.4c-5.9,2.5-10.4,7.4-13.1,13.1c-4.7,9.9-5.6,21.2-5,32c-0.6-1.2-1.7-3.5-2.3-4.7
			c-5.8,9.5-10.2,20.1-11.7,31.2c-1.9,11.8,0,24.2,5.5,34.8c-4.3-3.6-5.6-9.4-7.6-14.4c-4.3,10.2-6.6,21.4-6.8,32.5
			c-0.3,13.4,3.9,27.4,13.4,37.2c1.8,2.2,4.5,3.6,6.1,6c-6.2-2.4-10.9-7.5-15.2-12.4c-5.9,15.1-8.5,33.8,1.1,47.9
			c-3.4,0.3-6.7,1.1-10,1.6c-8.1,6.8-15.9,14.1-24,21c-5.2,21.5-10.8,43.2-16.6,64.7c7.5,8.5,15,17,22.6,25.4
			c8.1,3.9,16.6,7.3,24.9,10.9c52-4.8,104.3-6.8,156.5-7.3c-5.2,1.4-10.5,2-15.8,2.7c0.1,11,0.2,22,0,32.9c1,0,2,0,3,0
			c18,0,35.6-4.7,52.4-11c0.6-0.3,1.2-0.5,1.8-0.5c0.5,0,0.9,0.1,1.4,0.3c16.2,6.1,33.3,9.8,50.6,10.1c-0.2-10.6-0.2-21.2,0-31.9
			c-4.6-0.7-9.1-1.6-13.5-2.8c14.6,0.9,29.3,0.5,44,1.3c33,0.9,66,2.6,99,4.7c2.8,0.2,5.7,0.7,8.5,0.7c1.6,0,3.1-0.1,4.6-0.6
			c15.8-3.5,31.8-6.6,47.6-10.4c-3.5-12.6-6.1-25.4-9.5-38.1c4.6-2.9,9.2-5.7,13.8-8.6c-5.6-20.7-10.7-41.5-16.4-62.1
			c-11.8-0.9-23.5-2.3-35.3-3c9.3-14.4,7-32.9,1.1-48.1c-3.6,4.1-7.4,8.1-12,11c-1,0.7-2.2,1-3.3,1c8.7-6.5,15.1-16,17.7-26.7
			c4.1-16.1,1-32.9-4.4-48.3c-0.8,0.5-1.3,1.2-1.4,2.2c-1.4,4.3-3.1,8.7-6.5,11.9c10.6-21,6.6-47-6.4-66c-0.5,1.3-0.9,2.7-1.4,4
			c-0.6-6,0.5-12.1-0.8-18c-1.3-10.9-7.2-22.3-17.9-26.5c-1.6,6-3.3,12.6-7.6,17.3c2.4-12.8,2.2-26.6-3.4-38.6
			c-5.1-11-15.5-19.2-27.3-21.8c1,4.3,1,8.8,0.4,13.1c-2.3-3.6-2.5-8.2-4.7-12c-6.7-14.3-20.7-24.5-35.9-28.2
			c3.4,10.5,3.6,22.1,0.2,32.6c-8.7-11-21.4-18.8-35.4-20.8c-6.9-11.9-13.7-23.9-20.6-35.7C259.5,21.482,248.4,21.482,237.3,21.482
			L237.3,21.482z"/>
	</g>
	<g>
		<g>
			<path class="st1" d="M220.6,21.482c16.7,0,33.3,0,50,0c7,11.8,13.8,23.8,20.6,35.7c13.9,2,26.7,9.8,35.4,20.8
				c3.4-10.5,3.2-22.1-0.2-32.6c15.2,3.7,29.2,13.9,35.9,28.2c2.2,3.7,2.4,8.3,4.7,11.9c0.6-4.4,0.7-8.8-0.4-13.1
				c11.8,2.6,22.2,10.8,27.3,21.8c5.6,12,5.7,25.8,3.4,38.6c4.2-4.8,6-11.3,7.6-17.3c10.7,4.2,16.6,15.6,17.9,26.5
				c1.3,6,0.2,12.1,0.8,18c0.5-1.3,1-2.7,1.5-4c13,19,17,45,6.4,66c3.4-3.2,5.1-7.6,6.5-11.9c0.2-0.9,0.6-1.7,1.4-2.2
				c5.4,15.4,8.6,32.2,4.4,48.3c-2.6,10.6-9,20.1-17.7,26.7c1.2-0.1,2.3-0.4,3.3-1c4.6-2.9,8.4-6.9,12.1-11
				c5.9,15.2,8.2,33.7-1.1,48.1c11.8,0.7,23.5,2.1,35.3,3c5.6,20.7,10.8,41.5,16.4,62.1c-4.6,2.9-9.3,5.7-13.8,8.6
				c3.4,12.6,6,25.5,9.5,38.1c-15.8,3.8-31.8,6.8-47.6,10.4c-4.3,1.2-8.8,0.2-13.2-0.1c-33-2.1-66-3.8-99-4.7
				c-14.6-0.8-29.4-0.4-44-1.3c4.4,1.3,9,2.1,13.5,2.8c-0.2,10.6-0.2,21.2,0,31.9c-17.3-0.4-34.4-4.1-50.6-10.1
				c-1.1-0.4-2.2-0.3-3.2,0.2c-17.6,6.7-36.4,11.5-55.4,11c0.2-11,0.1-22,0-33c5.3-0.6,10.6-1.2,15.8-2.6
				c-52.2,0.5-104.5,2.5-156.5,7.3c-8.3-3.6-16.7-6.9-24.9-10.9c-7.7-8.6-15.1-17.1-22.7-25.6c5.8-21.5,11.3-43.2,16.9-64.8
				c8.1-7,15.9-14.2,24-21c3.3-0.5,6.6-1.3,10-1.6c-9.6-14.1-7-32.8-1.1-47.9c4.3,4.9,9,10,15.2,12.4c-1.6-2.4-4.2-3.8-6.1-6
				c-9.5-9.8-13.6-23.8-13.4-37.2c0.2-11.1,2.5-22.2,6.8-32.5c2,5,3.3,10.8,7.6,14.4c-5.6-10.6-7.4-23-5.5-34.8
				c1.5-11.1,5.8-21.7,11.7-31.2c0.6,1.2,1.7,3.6,2.3,4.7c-0.7-10.8,0.3-22.1,5-32c2.7-5.7,7.2-10.7,13.1-13.1
				c1.4,6.1,3.6,12.2,7.3,17.4c-1.6-12.1-2.1-25,2.8-36.5c4.7-12,15.6-21.1,28.2-23.9c-0.4,4.5-1.7,9.5,0.4,13.7
				c2.1-12.3,9.1-24,19.5-31c2.2-0.3,3-2.6,4.9-3.5c4.9-2.8,10.1-5.1,15.6-6.4c-3.4,10.5-3.7,22.2-0.2,32.7
				c8.5-11.1,21.4-18.9,35.2-20.8C206.9,45.382,213.8,33.382,220.6,21.482z M202.6,62.082c-16.9,1.8-31.8,13-39.5,28
				c-0.8,1.4-1.3,3.2-2.7,4.3c1.3-13.8-5.2-27.2-2.3-40.9c-13,5.6-24.2,16.8-27.5,30.8c-2.7,11,1.1,22.4,7.1,31.6
				c-2.3,2.6-3.9,5.7-6.1,8.3c-3.1-15.5-14.2-29.4-12.1-45.8c-3.9,1.4-7.1,4.2-9.9,7.2c-9.8,11.1-15.1,26.7-11.9,41.3
				c2.1,11,8.4,20.6,15.9,28.7c-1.2,2.4-2.2,4.9-3.5,7.3c-2.3-7.8-8.9-13-14.2-18.8c-5.9-6.1-10.5-13.6-12.5-21.9
				c-3.8,2.7-6.1,7.1-7.4,11.4c-3.7,8.9-4.4,18.9-3.1,28.4c2.3,15.7,13.2,29,26.5,37c-0.6,2.3-1,4.6-1.3,7
				c-3.4-3.7-7.4-6.7-11.3-9.9c-8.8-7.2-18.1-15.2-21.8-26.4c-1.5,1.6-2,3.8-2.8,5.8c-5.4,15-4.5,32.5,3.4,46.5
				c6.2,11.2,17.3,19,29.6,22.3c0.2,1.8,0.3,3.7-1.1,5.1c-5.3-3.6-11.7-5.2-17.4-8c-9.7-4.2-18.6-10.7-23.9-20.1
				c-0.6,3.2-1.8,6.4-1.9,9.7c-1.4,8.6-0.7,17.7,2.3,25.8c3.1,10.8,10.4,20.3,19.6,26.8c2.3,1.7,3.2,4.6,4.7,6.8c-2-0.2-4-0.7-6-0.5
				c-1.2-0.9-2.6-1.1-4-0.6l0.1-0.5c-6-1.3-11.8-4.1-16.2-8.5c-4.9,14.7-0.9,31.5,9.1,43.1c-5.9,0.5-11.7,1-17.6,1.5
				c-6.6,5.8-13.1,11.6-19.7,17.4c-1,0.9-2.1,1.9-2.2,3.3c-5.1,19.6-10.2,39.2-15.4,58.9c6.5,7,12.6,14.5,19.2,21.3
				c8.2,3.6,16.4,7.1,24.8,10.2c23.5-2,47-2.9,70.5-4.5l-0.6-0.3c6.9,0.4,14,0,20.9-0.6c0.7,0.1,2,0.2,2.7,0.3l-0.5-0.4
				c9.2-0.3,18.5-0.2,27.8-0.8c11.1-0.1,22.1-0.5,33.2-0.5c4,3.3,8.4,6.2,12.7,9.1c-0.7,0.1-2,0.5-2.7,0.6l0.1,0.2
				c-6.6,1-13.3,2.1-19.9,3c-0.3,7.1,0.2,14.2-0.2,21.2c5.2-0.2,10.4-0.7,15.5-2c11.5-1.7,22.6-5.5,33.4-9.7
				c15.5,6.3,31.9,10.7,48.7,11.7c-0.1-7.2,0.1-14.4-0.1-21.6c-7.6-0.7-15-2-22.5-3.5c4.2-3.1,8.7-5.9,12.8-9.2
				c11.1,0.1,22.3,0.4,33.4,0.5c9.2,0.7,18.5,0.4,27.7,1c0.6,0,1.8,0,2.3,0c6.8,0.6,13.7,0.7,20.5,0.8c7.7,1.1,15.5,0.6,23.2,1.4
				c15.1,0.8,30.1,1.7,45.2,2.9c2.5,0.5,4.9-0.4,7.4-0.9c13.2-2.9,26.5-5.6,39.7-8.5c-2.9-12.2-5.9-24.5-8.9-36.7
				c4.6-2.8,9.1-5.7,13.7-8.5c-4.9-18.3-9.4-36.6-14.5-54.8c-13.5-1.2-27.1-2.5-40.6-3.4c9.8-11.5,13.6-28.1,8.8-42.6
				c-7,7.1-17.2,9.3-26.8,10c1.7-2.5,2.8-5.8,5.6-7.4c9.7-6.3,16.7-16.4,20.1-27.3c3.6-11.3,3-23.5-0.3-34.8
				c-3.7,7.3-10.1,12.9-17.2,16.9c-8,4.8-17.1,7-25.1,11.8c-0.1-1.8-0.1-3.7,0-5.5c14.6-3.8,27.3-14.5,32.6-28.7
				c5.6-14.7,5.1-32-2.3-46c-2.3,7.4-7.4,13.5-12.8,18.8c-6.4,6.3-14.1,11.2-20.4,17.6c-0.3-2.3-0.6-4.7-1.2-6.9
				c8.9-5.6,16.9-13,21.7-22.5c6.3-12,6.9-26.5,3.1-39.4c-1.8-5.5-4.1-11.3-8.8-15c-2,8.4-6.6,15.9-12.6,22.1
				c-5.2,5.8-11.9,11-14.1,18.8c-1.4-2.4-2.2-5.1-3.4-7.5c7.5-7.9,13.7-17.5,15.8-28.3c2.9-13.4-1.2-27.7-9.4-38.5
				c-3.3-4.3-7.2-8.4-12.4-10.4c1,6.4-0.6,12.8-2.4,18.9c-2.3,6.2-4.9,12.3-7.3,18.5c-1.1,2.8-1.8,5.6-2.6,8.4
				c-1.9-2.8-3.8-5.7-5.9-8.4c6.2-9.5,9.9-21.4,6.8-32.6c-3.7-13.5-14.6-24.2-27.2-29.8c2.2,11-1.6,22-2.1,32.9
				c-0.9,1.9-0.9,4.6,0,6.5c0,0.6,0.1,1.8,0.1,2.4c-2.7-3.7-4.2-8-7.1-11.6c-8.2-11.9-21.6-20.2-36.1-21.5
				c-6.9-11.7-13.7-23.4-20.3-35.2c-14.9-0.2-29.9,0.1-44.8,0C216.1,38.582,209.4,50.382,202.6,62.082z"/>
		</g>
		<path class="st1" d="M155.5,132.182c1.5-2,3-3.9,4.5-5.9c1.4,0.9,2.8,1.8,4.1,2.7c-1,1.5-1.9,2.9-2.9,4.4
			C159.4,132.782,157.5,132.482,155.5,132.182z"/>
		<path class="st1" d="M326.7,129.182c1.5-0.9,3-1.9,4.5-2.9c1.5,2,3.1,3.9,4.6,5.9c-2.2,0.3-4.4,0.8-6.6,1.3
			C328.4,131.982,327.5,130.582,326.7,129.182z"/>
		<path class="st1" d="M138.3,160.682c2.2,0.7,4.3,1.4,6.4,2.1c-0.7,1.1-1.4,2.1-2.2,3.2c-2.2,0-4.5,0.1-6.7,0.1
			C136.7,164.282,137.5,162.482,138.3,160.682z"/>
		<path class="st1" d="M346,162.982c2.4-0.7,4.7-1.5,7-2.3c0.9,1.9,1.7,3.7,2.6,5.6c-2.5-0.2-5-0.3-7.5-0.3
			C347.4,164.982,346.7,163.982,346,162.982z"/>
		<path class="st1" d="M205.9,204.982c7.7-9,17.7-16.5,29.4-19c0.3,0.3,0.9,0.9,1.2,1.3c0.4,0.4,1.2,1.3,1.6,1.7
			c5.7-0.5,11.4-0.9,17.2-0.4c0.2,0.1,0.7,0.3,0.9,0.4c3.5,0.5,7-0.1,10.5-0.3c1.1,0.1,2.1,0.4,3.1,0.7h-1.2
			c-10,0.4-20.1-0.4-30,1.6c-8.2,1.4-16.2,3.9-23.4,7.9C211.7,200.582,209,203.082,205.9,204.982z"/>
		<path class="st1" d="M265.2,202.882c3.6,1.4,7.1,3.1,10.3,5.3c-3.9,11-14.6,18.1-25.4,21.1c-13.9,2.6-28.8,0.1-40.8-7.4
			c-1.2-0.9-2.6-2-3.2-3.4c7.1-7.2,16.2-12.8,26.2-15c0.6,3.8-1.1,7.3-2,11c-1.8,0.3-3,1.7-4.4,2.7c3.6,4,8.5,6.9,13.9,7.5
			c8.9,1.4,18.2-3.5,22.5-11.4C264.1,210.182,264.7,206.482,265.2,202.882z"/>
		<path class="st1" d="M215,233.882c6.7,0,13.9-0.3,19.9,3C228.1,237.882,221.1,236.982,215,233.882z"/>
		<g>
			<path class="st1" d="M272.9,328.782c16.2,0.4,32.5,0.7,48.7,1.1c1.9,0.1,3.8,0.2,5.7,0.4c0.2,2.9,0.5,5.8,0.9,8.6
				c0.2,1.9,0.3,3.8,0.5,5.7c0.4,4.4,0.9,8.9,1.3,13.3c-1.2,0-2.4,0-3.5,0c-4.8-0.1-9.6-0.3-14.4-0.3h-0.9c-0.4-3.1-0.5-6.3-0.6-9.5
				c-4.2-0.3-8.5-0.2-12.7-0.4c0.5,4.2,0.7,8.4,0.9,12.5c4.3,0.1,8.5,0.1,12.8,0.3c0.2,4.1,0.4,8.1,0.9,12.1
				c-4.3-0.1-8.6-0.1-13-0.3c0.3,4.2,0.4,8.3,0.7,12.5c4.4,0.3,8.8,0.2,13.2,0.4c-0.4-3.1-0.6-6.3-0.8-9.4c2.4,0.2,4.8,0.3,7.1,0.3
				c4,0,8,0.3,12.1,0.2c0.2,1.1,0.5,2.3,0.6,3.4c0.1,1.9,0.2,3.8,0.4,5.7c0.6,6.3,1.1,12.6,1.9,18.8c-20-0.7-40.1-1-60.1-1.4
				c0-6.1-0.1-12.3-0.5-18.4c2.2,0,4.4,0,6.7,0.1c-0.4-12.4-1.1-24.7-1.3-37.1c-2.2,0-4.3,0-6.5-0.2c0-6.2-0.2-12.4-0.4-18.6
				L272.9,328.782z M282.6,366.682c-0.1,6.9,0.3,13.7,0.6,20.6c-2.1,0-4.2-0.1-6.4-0.1c-0.1,4.4,0,8.9,0.1,13.3
				c18.2,0.5,36.5,1,54.8,1.3c-0.2-7.5-1.4-15-2-22.5c-4.7-0.8-9.4-0.5-14.1-0.6c0,3.1,0.1,6.1,0.2,9.2c-5.9-0.2-11.9-0.6-17.9-0.2
				c-0.6-5.8-0.7-11.7-1-17.5c4.3,0,8.6,0.6,12.9,0c-0.2-1-0.5-2-0.7-3.1C300.3,366.482,291.4,366.782,282.6,366.682z"/>
		</g>
		<g>
			<path class="st1" d="M215.8,341.982c3.9-4.6,8.4-9,13.1-13c12.5-0.3,25-0.1,37.5-0.1c0.2,8.2,0.1,16.4,0.5,24.7
				c-6.3,0.1-12.6,0.1-18.9,0c0.1-2.1,0.1-4.2,0.1-6.2c-4.6,0.1-9.3,0.1-13.9,0.1c0,2.3-0.1,4.6-0.2,6.9c11,3.3,21.9,6.7,32.9,9.9
				c0.1,0.6,0.2,1.8,0.2,2.4c0.3,8,0.2,16.1,0.5,24.2c-1.6,1.5-3.1,2.9-4.6,4.4c-2.9,2.6-5.7,5.2-8.5,7.9c-13.8,0-27.5,0.1-41.3,0.3
				c0.3-8.2,0.6-16.4,0.9-24.6c6.5-0.1,13-0.2,19.5-0.1c-0.1,2-0.2,4-0.3,6.1c4.9-0.1,9.7-0.1,14.6-0.1c0-2.2,0-4.5,0-6.7
				c-11.1-3.4-22.2-6.6-33.4-9.7C215,359.382,215.5,350.682,215.8,341.982z M219.6,366.382c0.8,0.5,1.6,1,2.5,1.4
				c9.4,2.5,18.9,5.1,28.2,8.2c0.9,3.5,0.2,7.2,0.3,10.8c-6.5,0.4-12.9,0.2-19.4,0.4c0-2.1,0-4.1-0.1-6.2c-4.8,0-9.5-0.2-14.3,0
				c-0.3,6.5-0.5,13.1-0.9,19.6c12.7-0.1,25.4,0.4,38.1-0.3c3.2-2.4,5.9-5.5,8.9-8.2c1-1.1,2.6-2.2,2.5-3.9
				c-0.1-7.2-0.6-14.4-0.7-21.7C249.6,366.382,234.6,366.382,219.6,366.382z"/>
		</g>
		<g>
			<path class="st1" d="M153.3,330.782c5.4-0.1,10.7-0.5,16-0.5c9.5-0.2,19.1-0.6,28.6-0.8c0.5,0.5,1.4,1.4,1.8,1.8
				c3.2,3.4,6.4,6.9,9.8,10.1c0,3.2-0.1,6.4-0.4,9.6c-0.2,1.9-0.3,3.8-0.4,5.8c-0.2,4.7-0.3,9.4-0.6,14.1c-0.2,2.3-0.4,4.6-0.4,6.9
				c-0.1,4.3-0.5,8.6-0.3,12.9c-4.5,4.5-9.7,8.4-14,13.1c-3.9,0-7.8,0.2-11.7,0.3c-3.1-0.1-6.1,0.1-9.2,0.3
				c-7.3,0.1-14.6,0.5-21.9,0.7c-2.4,0-4.9,0.1-7.3,0.3c0.7-6.2,1.5-12.4,2.2-18.6c2.2-0.1,4.4-0.2,6.6-0.3
				c1.2-12.5,2.8-24.9,4.1-37.4c-2.1,0.2-4.2,0.4-6.4,0.5c1-6.2,1.4-12.6,2.4-18.8H153.3z M174.8,348.682c-0.1,3.2-0.3,6.3-0.6,9.5
				l-0.4,0.3c0.1,0.5,0.2,1.4,0.2,1.9c-0.5,2.9-0.6,5.9-0.8,8.8l-0.5,0.3c0.1,0.5,0.2,1.4,0.2,1.9c-0.5,3-0.6,6-0.8,9.1l-0.3,0.3
				c-0.1,0.7-0.2,2-0.3,2.7c0,0.6-0.1,1.7-0.1,2.3c5.4-0.3,10.8-0.3,16.2-0.4c0.5-4.6,0.8-9.3,0.9-13.9c1-5.5,0.9-11.1,1.4-16.7
				c0.2-2.2,0.4-4.4,0.5-6.6C185.3,348.482,180.1,348.382,174.8,348.682z M191.8,366.882c-0.4,6.7-1.2,13.4-1.3,20.1
				c-7,1.5-14.4,0.9-21.5,1.1c0.4-7,1.3-13.9,1.8-20.8c-4.7,0-9.3,0-14,0.5c-1.1,6.9-1.7,13.8-2.4,20.7c-2.2,0.3-4.4,0.6-6.5,0.7
				c-0.7,4.3-1.2,8.6-1.7,13c5.2,0.5,10.5,0,15.8-0.1c9.3-0.8,18.7-0.5,28.1-0.8c3,0.3,4.9-2.5,6.9-4.2c2.5-2.5,5.5-4.4,7.6-7.2
				c0.9-7.6,0.8-15.3,1.4-23C201.2,366.382,196.5,366.682,191.8,366.882z"/>
		</g>
		<g>
			<path class="st1" d="M333.5,330.382c6.9,0.6,14,0.2,20.8,1.2c6.8,10.9,13.4,21.9,20.3,32.7c0.4-2.8-0.7-5.6-1-8.3
				c-1.1-8-2.5-15.9-3.5-23.9c8.1,0.6,16.2,1,24.3,1.5c1,6.2,2.2,12.4,3.3,18.6c-2.1-0.2-4.2-0.3-6.3-0.5c1,5.2,1.8,10.5,2.9,15.8
				c0.2,1.1,0.3,2.1,0.5,3.2c1,6.2,2.1,12.3,3.1,18.5c2.2,0.1,4.4,0.2,6.6,0.4c1,6.2,2.3,12.3,3.2,18.6c-7.5-0.5-15-1.1-22.4-1.3
				c-5.9-8.8-11.7-17.7-17.4-26.6c-1.5-2.3-2.7-4.9-4.6-6.9c1.9,10.8,2.9,21.7,4.7,32.5c-8.9-0.2-17.8-0.8-26.7-1
				c-0.5-4.3-0.7-8.7-1.5-13c-0.2-1.7-0.3-3.4-0.7-5.1c2.2-0.4,4.5-0.3,6.8-0.2c-1.5-12.4-2.8-24.8-4.3-37.2
				c-2.1-0.1-4.1-0.2-6.2-0.3C334.7,342.682,334.2,336.582,333.5,330.382z M346.3,368.382c0.7,6.8,1.5,13.6,2.4,20.3
				c-2.2,0.1-4.4,0.2-6.6,0.3c0.4,4.4,0.7,8.9,1.6,13.3c7.1,0,14.1,0.8,21.2,0.8c-1.1-9.9-2.9-19.8-3.8-29.8c1.5-0.5,3-1,4.6-1.4
				c6.3,10.2,12.9,20.2,19.4,30.2c0.8,0.9,1.4,2.4,2.9,2.3c5.6,0.4,11.2,0.9,16.9,0.8c-0.9-4.4-1.5-8.9-2.7-13.3
				c-2.1-0.2-4.2-0.4-6.2-0.7c-1.7-6.9-2.3-14-3.9-20.9C376.9,369.482,361.6,368.482,346.3,368.382z"/>
		</g>
		<g>
			<path class="st1" d="M112.5,332.882c4.3-0.2,8.6-0.5,12.9-0.7c2.8-0.1,5.7-0.3,8.5-0.4c3.5,4,7.1,8,10.7,12
				c-2.3,16.4-4.3,32.8-6.3,49.2c-4.9,4.3-9.7,8.7-14.7,12.8c-6.2,1.1-12.7,0.7-19,1.5c-3.8,0.2-7.6,0.4-11.3,0.6
				c-2.4-2.6-4.8-5.1-7.1-7.6c-1.2-1.4-2.5-2.8-3.7-4.1c3.5-16.5,6.1-33.2,9.8-49.6c4.1-4,8.5-7.7,12.7-11.7
				C106.7,332.582,109.9,333.282,112.5,332.882z M109.4,351.582c-0.4,1.2-0.5,2.5-0.3,3.7c-0.9,1.2-1.1,2.5-0.6,4l-0.5-0.1
				c-1.2,8.6-2.9,17.1-4.2,25.6c-0.2,1-0.4,3.1-0.6,4.1c3.5-0.3,7-0.4,10.4-0.7c2,0.3,4,0,5.9-0.2c1.7-12.4,3.7-24.8,5.6-37.2
				C119.9,350.782,114.7,351.282,109.4,351.582z M124.9,368.882c-1.2,7-2,14.1-3.2,21.1c-7,0.8-14.1,1-21.1,1.5
				c0.3-7.3,2.4-14.4,3.2-21.6c-4.7,0.1-9.3,0.2-13.9,0.9c-1.5,8.3-3.4,16.6-4.6,24.9c3,3.1,5.7,6.5,9,9.3c4.6,0.5,9.2-0.4,13.8-0.5
				c4.8-0.5,9.7,0,14.4-1c3.5-2.4,6.4-5.6,9.8-8.2c1.5-1.5,3.9-2.8,3.9-5.2c0.9-7.2,2.1-14.4,2.6-21.6
				C134.1,368.382,129.5,368.682,124.9,368.882z"/>
		</g>
		<g>
			<path class="st1" d="M400.5,333.882c1.4,0.1,2.8,0.2,4.2,0.3c3.8,0.2,7.6,0.5,11.4,0.8c0.6,0,1.8,0.1,2.4,0.2
				c3.3,0.3,6.6,0.6,9.9,0.8c1,0.1,2.1,0.2,3.1,0.3c2.7,0.3,5.3,0.5,8,0.6c5.3,0.7,10.6,1,15.9,1.5c1.6,0.2,3.2,0.3,4.9,0.4h1
				c2.5,9.4,4.8,18.8,7.5,28.2c-3.8-0.3-7.5-0.5-11.2-1c-1.4-0.2-2.8-0.3-4.2,0c-1.1-3.1-1.7-6.4-2.5-9.6c-2.1-0.3-4.2-0.5-6.4-0.6
				c2.1,8.2,3.9,16.5,5.9,24.7c1,4.2,2.1,8.5,2.9,12.8c2.1,0.2,4.2,0.5,6.3,0.4c1.9,6.2,3.1,12.6,4.8,18.9c-1.7-0.1-3.4-0.3-5.1-0.4
				c-2.7-0.2-5.3-0.5-8-0.6c-1.3-0.1-2.6-0.2-4-0.3c-3.3-0.3-6.7-0.5-10-0.8c-2.1-0.2-4.1-0.4-6.2-0.5c-1.2-6.2-2.6-12.4-3.8-18.6
				c2.2,0.1,4.4,0.3,6.5,0.4c-2.8-12.5-5.3-25-8.1-37.4c-2.1-0.2-4.2-0.4-6.3-0.5c0.7,3.1,1.3,6.2,2.1,9.3c-0.3,0-0.9,0-1.2,0
				c-3.6-0.2-7.2-0.4-10.8-0.6c-1.3-0.2-2.6-0.3-3.9-0.5C404,352.482,402.3,343.182,400.5,333.882z M436.9,393.982
				c-2.1,0-4.2,0-6.2,0c0.6,4.4,1.6,8.8,2.5,13.2c9.3,1.1,18.6,1.9,27.9,2.2c-1-4.4-2-8.8-3.1-13.1c-2.2-0.4-4.5-0.8-6.7-1.2
				c-1.7-7.1-3.2-14.2-5.1-21.2c-4.6-0.4-9.1-0.6-13.7-1.1C433.6,379.882,435.5,386.882,436.9,393.982z"/>
		</g>
		<g>
			<path class="st1" d="M69.6,335.882c3.3-0.2,6.5-0.5,9.8-0.7c3-0.2,6-0.4,9-0.7c-2.1,9.4-3.7,18.9-5.8,28.3
				c-1.7-0.2-3.3-0.1-5,0.1c-0.8,0.1-2.5,0.3-3.3,0.4c-3.2,0.2-6.4,0.4-9.6,0.6l-0.9,0.1c0.8-3.1,1.5-6.3,2.2-9.4
				c-5.3,0.4-10.5,0.9-15.8,1.4c-2.8,12.6-6,25-8.9,37.6c2.3-0.2,4.6-0.5,6.9-0.8c2.4-0.2,4.8-0.4,7.2-0.6c0.6,0,1.7-0.1,2.3-0.2
				c0.6-3.2,1.3-6.3,2.2-9.4c-3.3,0.3-6.6,0.6-9.9,0.9c1.2-4.5,2.3-9.1,3.2-13.7c9.6-0.8,19.1-1.6,28.7-2.2
				c-3.1,13.8-5.5,27.8-8.4,41.6c-4.3,0.3-8.6,0.6-12.9,1.1c-3.2,0.2-6.5,0.5-9.7,0.7c-6.7,0.5-13.5,0.9-20.2,1.8
				c-3.7-3.6-6.9-7.6-10.4-11.5c4.4-16.6,8.8-33.2,13-49.8c5.4-4.6,10.4-9.7,16.1-13.9c1.4-0.1,2.8-0.2,4.3-0.3
				c1.6-0.2,3.1-0.3,4.7-0.5c2.7-0.2,5.4-0.4,8.1-0.6C67.4,336.082,68.5,335.982,69.6,335.882z M55,372.982
				c-0.7,2.5-1.3,5.1-1.7,7.7c3.2-0.2,6.3-0.4,9.4-0.5c-0.9,4.6-2.1,9.2-3.1,13.9c-7.1,1.3-14.4,1.4-21.5,2
				c1.6-7.4,3.8-14.8,5.2-22.2c-4.5,0.4-9,0.8-13.5,1.1c-2.1,6.5-3.4,13.3-5.4,19.9c-0.5,2-1.3,4-1.3,6.1c2.4,3.3,5.3,6.2,8.1,9.2
				c13.3-0.9,26.6-2.3,39.9-3.1c2.7-11.8,5.1-23.7,7.1-35.7C70.5,371.782,62.7,372.382,55,372.982z"/>
		</g>
	</g>
	<g>
		<g>
			<path class="st2" d="M202.6,62.082c6.8-11.7,13.5-23.5,20.4-35.2c14.9,0.1,29.9-0.1,44.8,0c6.6,11.8,13.5,23.5,20.3,35.2
				c14.5,1.2,28,9.5,36.1,21.5c2.8,3.6,4.4,7.9,7.1,11.6c0-0.6-0.1-1.8-0.1-2.4c1.4-2,1.1-4.4,0-6.5c0.5-10.9,4.3-21.9,2.1-32.9
				c12.6,5.5,23.6,16.2,27.2,29.8c3.1,11.2-0.6,23.2-6.8,32.6c2.1,2.7,3.9,5.6,5.9,8.4c0.8-2.8,1.5-5.7,2.6-8.4c3,0.3,2.8-3.8,4-5.7
				c1.1-4.2,4.9-8.3,3.3-12.8c1.8-6.1,3.4-12.5,2.4-18.9c5.2,2,9.1,6.1,12.4,10.4c8.2,10.8,12.3,25.1,9.4,38.5
				c-2.1,10.8-8.3,20.4-15.8,28.3c1.2,2.5,2,5.1,3.4,7.5c2.2-7.8,8.9-13,14.1-18.8c6-6.1,10.7-13.7,12.6-22.1c4.7,3.7,7,9.4,8.8,15
				c3.8,12.9,3.2,27.4-3.1,39.4c-4.8,9.5-12.8,16.9-21.7,22.5c0.5,2.3,0.9,4.6,1.2,6.9c6.3-6.4,13.9-11.3,20.4-17.6
				c5.4-5.3,10.5-11.4,12.8-18.8c7.4,14,8,31.3,2.3,46c-5.3,14.2-18,24.9-32.6,28.7c-0.1,1.8-0.2,3.7,0,5.5c8-4.7,17.1-7,25.1-11.8
				c7.1-3.9,13.4-9.6,17.2-16.9c3.3,11.3,3.9,23.5,0.3,34.8c-3.4,11-10.4,21-20.1,27.3c-2.8,1.6-3.9,4.9-5.6,7.4
				c9.6-0.8,19.8-2.9,26.8-10c4.8,14.5,1.1,31.1-8.8,42.6c13.6,1,27.1,2.3,40.6,3.4c5.1,18.2,9.6,36.6,14.5,54.8
				c-4.6,2.8-9.2,5.7-13.7,8.5c3.1,12.2,6,24.5,8.9,36.7c-13.2,2.9-26.5,5.7-39.7,8.5c-2.4,0.5-4.9,1.3-7.4,0.9
				c-15-1.2-30.1-2.1-45.2-2.9c-7.7-0.8-15.5-0.3-23.2-1.4c0.6-0.3,1.8-0.9,2.4-1.2c-7.6-0.5-15.5-1.6-22.9,0.4c-0.6,0-1.8,0-2.3,0
				c0.7-0.6,1.4-1.2,2.1-1.8c-7.6-0.5-15.3-0.3-23-0.5c-2.4-0.2-4.6,0.5-6.8,1.3c-11.1-0.1-22.2-0.4-33.4-0.5
				c-4.1,3.3-8.5,6.1-12.8,9.2c7.4,1.5,14.9,2.8,22.5,3.5c0.1,7.2,0,14.4,0.1,21.6c-16.8-1-33.2-5.5-48.7-11.7
				c-10.8,4.2-21.9,8-33.4,9.7c-4.5-1.1-9,0-13.5,0.3c0.2-6.1-1-12.5,0.6-18.3c6.1-1.2,12.3-1.8,18.4-3c-0.2-0.3-0.6-1-0.8-1.3
				l-0.1-0.2c0.7-0.2,2-0.5,2.7-0.6c-4.3-2.9-8.7-5.8-12.7-9.1c-11.1,0-22.2,0.4-33.2,0.5c-4.8-1.7-9.8-1-14.8-1s-9.9,0.1-14.9,0.3
				c0.5,0.4,1.5,1.2,1.9,1.5l0.5,0.4c-0.7-0.1-2-0.2-2.7-0.3c-7.5-1.9-15.3-0.9-22.9-0.4c0.5,0.2,1.5,0.8,2,1l0.6,0.3
				c-23.5,1.6-47,2.5-70.5,4.5c-8.3-3.1-16.6-6.6-24.8-10.2c-6.7-6.9-12.7-14.3-19.2-21.3c5.2-19.6,10.3-39.2,15.4-58.9
				c0.2-1.4,1.2-2.4,2.2-3.3c6.6-5.8,13.2-11.6,19.7-17.4c5.9-0.5,11.7-1,17.6-1.5c-10-11.6-13.9-28.4-9.1-43.1
				c4.4,4.4,10.1,7.2,16.2,8.5l-0.1,0.5c-0.1,0.3-0.2,0.9-0.3,1.1c1.4,0.7,2.9,0,4.3-0.6c2-0.2,4,0.4,6,0.5
				c-1.6-2.3-2.5-5.1-4.7-6.8c-9.2-6.5-16.5-16.1-19.6-26.8c0.5-3,0-6-0.8-9c-1.4-5.5,0.2-11.4-1.6-16.9c0.1-3.3,1.3-6.5,1.9-9.7
				c5.3,9.3,14.2,15.8,23.9,20.1c5.7,2.8,12.1,4.4,17.4,8c1.4-1.4,1.2-3.3,1.1-5.1c-12.5-3.2-23.7-11.1-29.9-22.3
				c-7.9-14-8.8-31.5-3.4-46.5c0.8-2,1.3-4.2,2.8-5.8c3.6,11.2,12.9,19.2,21.8,26.4c3.9,3.1,7.9,6.2,11.3,9.9c0.3-2.4,0.7-4.7,1.3-7
				c-13.4-8-24.3-21.3-26.6-37c2-3.7,1.1-8,1.3-12c-0.1-5.5,2.4-10.8,1.8-16.3c1.3-4.3,3.7-8.7,7.4-11.4c1.9,8.3,6.6,15.8,12.5,21.9
				c5.2,5.8,11.9,11,14.2,18.8c1.3-2.4,2.3-4.9,3.5-7.3c-7.5-8.1-13.8-17.7-15.9-28.7c-3.1-14.7,2.1-30.3,11.9-41.3
				c2.7-3.1,6-5.8,9.9-7.2c-2.1,16.5,9,30.3,12.1,45.8c2.2-2.6,3.8-5.7,6.1-8.3c-6.1-9.2-9.8-20.7-7.1-31.6
				c3.3-14,14.5-25.2,27.5-30.8c-2.9,13.8,3.6,27.2,2.3,40.9c1.4-1.1,1.8-2.8,2.7-4.3C170.8,75.082,185.7,63.882,202.6,62.082z
				 M262.5,39.682c-25.7,44.6-51.5,89.2-77.2,133.8c-8.7,15.3-17.8,30.4-26.4,45.7c6.6-7.6,11.3-16.7,18.1-24.1
				c-3.9,8.1-8.1,15.9-11.9,24c4-4.4,6.9-9.6,10.6-14.3c3-3.9,5.3-8.3,8.9-11.8c-4,8.2-8.4,16.2-12.2,24.5c2.3-2.7,4.3-5.7,6.4-8.5
				l-0.6,0.8c1.6-0.4,3-0.2,3.4,1.7c-0.6,1.2-1.1,2.4-1.6,3.7c6.6-8.1,12.1-17.2,18.7-25.4c-2.2,5.8-5.7,11.1-8.2,16.7
				c6.9-5.3,10.6-13.4,14.9-20.7c9.5-16.5,19-33,28.6-49.5c0.7-1.2,1.3-2.5,1.8-3.8c6.3-10.1,12.3-20.6,18.1-31.1
				c3-4.5,5.7-9.3,8.2-14c0.7-5.5,0.2-11.1,1-16.6c2.4,6.9,3.3,14.2,4.1,21.4c0.3-0.4,1-1.1,1.4-1.5c0.8,3.4,0.7,7,2,10.2
				c25.5,44.2,51,88.3,76.5,132.5c8.2,14.2,16.4,28.5,24.6,42.8c-3.3-10.2-9-19.6-12.9-29.6c5.5,6.8,9.6,14.8,15,21.7
				c-3.8-9.9-9.1-19.2-12.8-29.1c5.4,7.2,9.5,15.4,15.3,22.3c-1.1-2.5-2.3-5-3.4-7.6l0.4,0.8c0.6-1.6,1.2-3.2,1.7-4.8
				c1,1.6,2.2,3,3.4,4.4c-4.3-9.8-8.9-19.4-13.2-29.2c4.2,4.5,6.7,10.4,10.7,15.1c-0.9-4.8-2.8-9.5-5.5-13.7
				c-13.1-22.6-26.1-45.2-39.1-67.7c-1.5-2.6-2.9-5.3-4.8-7.6c-3.6-7.4-8.1-14.4-12.1-21.6C297.1,99.682,280,69.582,262.5,39.682z
				 M339.6,66.782c0.9,7.8-0.1,15.6-1.5,23.2c-1.1,5.2-0.7,10.6-0.8,15.8c-4.6-3.3-8.3-7.7-12.5-11.5c-9.1-9.1-18-20.3-31.3-22.9
				c2.2,3.8,4.1,7.9,6.8,11.4c3.2,1.5,6.9,2.1,10,4c4.2,2.7,7.9,6,11.7,9.2c38.3,33.2,61.8,82.5,64.3,133.1
				c-0.2,3.9,2.1,7.3,4.4,10.1c0-2.5-0.1-5-0.1-7.6c5.3-2.5,10.9-4.7,15.5-8.5c9-7.1,13.9-18.1,15.8-29.2c-2.8,3.1-5.1,6.8-8.3,9.6
				c-4.9,4.6-10.8,7.9-15.9,12.2c-3,2.4-5.1,5.7-7.5,8.7c-1-12.2-3.2-24.4-6.3-36.3c4-2.3,8.1-4.6,11.2-8.1
				c8.8-9.4,11.9-22.7,12.7-35.2c-2.5,3.3-4,7.1-6.5,10.4c-4.6,6.7-10.5,12.3-14.7,19.2c-1.9,3-2.3,6.6-3.9,9.8
				c-4.1-14-9.9-27.5-17.1-40.2c4-5.9,8.8-11.4,11.4-18.1c3.3-8,3.4-17,0.7-25.2c-1.6,4-2.1,8.3-3.8,12.2c-2.2,5.6-5.9,10.4-7.9,16
				c-1.4,3.7-1.6,7.6-2.1,11.4c-2.8-3.4-4.8-7.2-7.3-10.8c-5-7.2-10.7-13.9-16.5-20.5c5.2-8.3,6.7-18.5,5.5-28.1
				C344.5,75.982,343.4,70.482,339.6,66.782z M146.5,77.782c-2.1,10.5-1,22.1,4.9,31.3c-6.7,7.5-13.1,15.3-18.7,23.7
				c-1.7,2.6-3.1,5.3-5.1,7.6c-0.5-4.7-0.9-9.5-3.1-13.7c-4.2-8.2-9.2-16.4-10-25.8c-0.9,0.4-1.4,1.2-1.5,2.2
				c-1.6,6.9-1.8,14.4,0.8,21.1c2.5,7.4,7.6,13.5,12.1,19.8c-7.4,12.6-12.6,26.4-17.4,40.2c-2.3-12.4-12.7-20.3-19.3-30.4
				c-2.2-2.9-3.3-6.4-5.7-9.2c1.2,11.8,3.5,24.3,11.3,33.7c3.4,4.3,8.2,7.1,12.9,9.8c-3.3,11.8-5.5,23.9-6.3,36.1
				c-2.3-2.2-3.9-5.1-6.3-7.3c-5.3-4.9-11.8-8.2-17-13.1c-3.2-2.8-5.4-6.4-8.4-9.4c1.9,11.2,7.2,22.4,16.4,29.3
				c4.3,3.4,9.4,5.5,14.5,7.6c0.1,2,0.2,4,0.3,6c2.7-2.8,4.3-6.5,4.2-10.4c3.2-53.8,30.3-105.9,73.3-138.5c3.1-2.3,6.7-3.6,10.3-4.9
				c2-0.5,2.8-2.6,3.8-4.1c1.4-2.7,3.4-5,4-8c-13.9,3.8-22.7,15.9-32.7,25.4c-3.5,3-6.5,6.7-10.3,9.4c0.8-7.8,0.1-15.6-1.4-23.2
				c-1.1-5.2-0.7-10.5-0.9-15.7C148.5,70.182,147.5,74.082,146.5,77.782z M225.2,79.282l0.5-1c-0.6,0.1-1.8,0.4-2.5,0.6
				c-0.2-0.5-0.6-1.7-0.8-2.2c0.6-1.2,1.1-2.4,1.5-3.6c-2.9,3.3-5.1,7.1-7.8,10.5c-1.2-2.2,0.1-4.4,0.8-6.5l-1.1-0.4
				c0.2-0.5,0.7-1.5,0.9-2.1c-6.8,8.1-12.2,17.2-18.8,25.5c2-5.9,5.7-11,8-16.8c-4.8,4.5-9.1,9.6-12.2,15.4
				c-11.7,20.3-23.4,40.6-35.1,60.8c-1.5,2.5-3,5-4.2,7.7c-9.6,15.8-18.7,32.1-28.1,48.1c-11.6,20.3-23.5,40.5-35,60.9
				c-0.4,0.7-1.3,2.1-1.7,2.7c-0.6,0.9-1.2,1.9-1.8,2.8c64-0.2,128,0,192-0.2c5.8-0.2,11.8,1.3,17.4-0.6c-2.7-0.7-5.6-1.5-8.4-0.9
				c-6.8-0.7-13.7-1.2-20.5-1.9c-0.2-0.2-0.6-0.7-0.8-1c7.8-0.8,15.6-0.8,23.4-1.4c-1.7-0.4-3.4-0.7-5.1-1c-0.1-0.4-0.4-1.1-0.5-1.5
				c-2.6-0.4-5.3-0.2-7.8-1.2c2.8-0.9,6.8,0.7,8.8-1.9c-0.5-0.2-1.4-0.5-1.9-0.7c0.4-0.3,1.1-1,1.5-1.4c-3-0.3-6-0.4-9-0.4
				c1.1-0.8,2.1-1.6,2.9-2.7c0.3,0,0.8-0.1,1-0.1c-10.4-2.1-21-1.9-31.4-3.9c6.2-0.5,12.3-0.7,18.5-1c-4.1-1.7-8.6-2.5-13-2.3
				c-28.5,0.2-57-0.3-85.4,0.2c-4.7-0.3-9.5-0.3-14.2-0.1c-5.1-0.1-10.3-0.4-15.4,0c-6.7,2.7-13,6-19.7,8.9
				c-1.2-0.3-2.4-0.6-3.6-0.9c3.6-4.4,8.3-7.6,11.6-12.2l-1.5,0.3c3.8-4.2,8.6-7.5,11.9-12.3c24.5-42.7,49.3-85.2,73.8-128h0.2
				c7.5-13.7,15.7-26.9,23.3-40.5c-5.8,6.9-10.3,14.9-16.1,21.8c3.4-7.9,7.8-15.3,11.3-23.2C228.8,74.082,227.1,76.782,225.2,79.282
				z M158.6,114.082c4,1.4,8.1,2.2,12.3,2.8c1.5-2.2,2.8-4.4,4-6.8c-3.8-1.2-7.9-2-11.8-1
				C161.1,110.182,159.9,112.282,158.6,114.082z M315.9,110.282c1.1,2.4,2.5,4.7,4.2,6.7c4.4-0.7,8.7-1.6,12.9-3
				c-1.5-1.8-2.9-3.9-5-5C323.9,108.082,319.8,108.882,315.9,110.282z M155.5,132.182c1.9,0.3,3.8,0.7,5.7,1.2
				c1-1.4,1.9-2.9,2.9-4.4c-1.4-0.9-2.8-1.8-4.1-2.7C158.6,128.282,157,130.182,155.5,132.182z M326.7,129.182
				c0.8,1.4,1.7,2.9,2.5,4.3c2.2-0.5,4.4-0.9,6.6-1.3c-1.5-2-3.1-3.9-4.6-5.9C329.7,127.282,328.2,128.182,326.7,129.182z
				 M280.5,130.882c4.7,10.4,9.4,20.8,14.3,31.1c-5.8-7.1-10.2-15.3-15.6-22.8c0.9,4.1,3.4,7.6,4.9,11.4c-0.8,0.8-1.7,1.6-2.5,2.5
				c-1.4-2.2-2.8-4.4-4.6-6.2c4.1,9.4,8.4,18.9,12.9,28.2c-0.2-0.1-0.7-0.3-1-0.3c-4.9-6.9-9-14.5-14.3-21c4.4,9.8,9,19.6,13.4,29.5
				c-4.2-4.7-6.6-10.7-10.9-15.3c1.8,8.6,7,15.8,11.2,23.3c10.1,17.6,20.2,35,30.3,52.6c0.8,1.4,1.7,2.7,2.6,4
				c5.1,9.6,10.6,19,16.2,28.2c2.8,5.3,4.8,11.5,10.1,14.8c4.3,3.1,8.3,6.7,12.9,9.4l3.3,3.1c-10.6-5-21.4-9.6-32-14.5
				c-2.3-1.2-5-0.7-7.5-0.8c-50.1,0-100.2,0-150.4,0c-12.8,0-25.6,0-38.4-0.1l1.1,0.9c5.3,0.9,10.7,0.9,16,1.7l0.8,0.9
				c-7.7,0.9-15.6,0.4-23.1,2c10.2,0.9,20.3,1.8,30.5,2.7l0.1,0.8c-8.5,0.8-17.1,0.8-25.6,1.5c2.8,0.4,5.6,0.9,8.4,1.2
				c-0.6,0.3-1.8,0.9-2.3,1.3c3.3,0.2,6.5,0.7,9.5,2.2c-3.1,0.3-6.3,0.5-9.4,1c10.2,1.8,20.7,1.6,30.9,3.4c-6,1.1-12.2,0.5-18.2,1.5
				c4.5,1.9,9.5,2.1,14.3,2.8c24.8-0.1,49.7,0.3,74.5-0.2c12.1,0.4,24.3,0.1,36.4,0.2c35.4,0,70.8,0.1,106.1-0.1
				c-10.4-17.2-20.1-34.8-30.3-52.1c-18-31.2-36-62.5-54.1-93.6C293.8,154.082,287.7,142.082,280.5,130.882z M137.4,143.482
				c-2.1,2-3.2,4.9-4.5,7.4c6.3,0.1,12.7,0.4,18.9-0.7c1.4-2.4,2.8-4.8,4.1-7.2C149.8,141.682,143.2,140.882,137.4,143.482z
				 M334.9,142.882c1.1,2.6,2.5,5,4.2,7.3c6.4,0.8,12.8,1,19.3,0.7c-1.3-3.1-2.5-7-6.1-8.1
				C346.6,140.882,340.5,141.982,334.9,142.882z M231.1,153.982c-7.6,13.3-15.4,26.6-23,39.9c5.7-5.8,12.3-10.8,20-13.8
				c10.1-4.4,21.6-4.3,32.1-1.4c6.3,1.7,11.6,5.5,16.9,9.1c-2.5-3.5-6.2-5.7-9.7-8.1c-6.8-4.3-14.5-7.4-22.6-7.3
				c5.7-4.2,13.4-5.1,20.3-4c-4.9-3.7-11-5.2-16.9-6.6c2.7-1.6,5.8-2.3,8.9-2.8C249.3,154.582,240,152.882,231.1,153.982z
				 M138.3,160.682c-0.8,1.8-1.6,3.6-2.4,5.4c2.2,0,4.5-0.1,6.7-0.1c0.7-1.1,1.4-2.1,2.2-3.2
				C142.6,161.982,140.4,161.282,138.3,160.682z M346,162.982c0.7,1,1.4,2,2.1,3c2.5,0,5,0.1,7.5,0.3c-0.9-1.9-1.8-3.7-2.6-5.6
				C350.7,161.482,348.3,162.182,346,162.982z M122.2,176.282c-1.5,2.4-2.1,5.2-2.9,7.8c4.8-0.4,9.8-0.6,14.3-2.5
				c2-2.7,3.4-5.7,4.9-8.7C132.9,172.682,126.9,173.182,122.2,176.282z M352,172.982c1.6,3,3.3,6,5.1,8.9c4.9,1.1,9.8,2.2,14.8,2.2
				c-0.9-2.6-1.2-5.7-3.1-7.8C364,172.982,357.7,172.682,352,172.982z M235.3,186.082c-11.7,2.4-21.8,10-29.4,19
				c3.1-1.9,5.9-4.4,9.1-6.1c7.3-4,15.3-6.5,23.4-7.9c1.2,1.4,2.9,1.7,4.6,1.2c7.2-1.4,14.7-0.7,22-1c1.5,0.1,2.7-0.4,3.5-1.8h1.2
				c-1-0.3-2-0.6-3.1-0.7C256.7,185.182,245.7,183.682,235.3,186.082z M265.2,202.882c-0.5,3.6-1.1,7.2-2.9,10.4
				c-4.2,7.9-13.6,12.8-22.5,11.4c-5.4-0.6-10.3-3.6-13.9-7.5c1.4-1,2.6-2.5,4.4-2.7c0.9-3.6,2.6-7.1,2-11
				c-9.9,2.2-19.1,7.7-26.2,15c0.6,1.4,2,2.5,3.2,3.4c2.9,4,7.4,6,11.5,8.4c-10.1-0.3-20.4-3.3-28.1-10c-1.8,4.4-3.3,9-3.1,13.7
				c0.3,6.6,4.1,12.7,9.5,16.4c-2.4-4-3.1-8.6-3.7-13.1c6.7,6.9,16.4,9.4,25.5,11.1c-3-2-6.5-3.1-9.5-5.1c-4.3-2.7-8.1-6.1-11.3-10
				c18.9,8,40.9,9,60.2,2.1c3.8-1.5,7.7-2.8,10.8-5.4c-11.2,4.1-23.5,5.1-35.3,3.3c1-1.2,2.7-1.1,4.1-1.4c3.5-0.4,6.9-1.5,10.2-2.8
				c10.8-3,21.5-10.1,25.4-21.1C272.3,206.082,268.9,204.282,265.2,202.882z M258.1,206.282c-1.2,3.1-2.8,6.1-5.4,8.2
				c0.6,0.8,1.3,1.7,2,2.5c2.7-2.8,4.8-6,5.8-9.8C259.9,206.982,258.7,206.482,258.1,206.282z M249.6,216.482
				c-0.9,0.5-1.9,1.1-2.8,1.6c0.5,0.8,0.9,1.6,1.4,2.4c1.2-0.4,2.4-0.8,3.6-1.3C251,218.282,250.3,217.382,249.6,216.482z
				 M233.7,218.882c1.2,0.6,2.3,1.1,3.5,1.6c0.2-1,0.4-2,0.6-3C236.1,215.682,234.9,217.882,233.7,218.882z M240.6,221.382
				c1.2,0,2.4,0,3.6-0.1c-0.1-0.8-0.4-2.3-0.6-3.1c-0.7,0-2,0-2.7,0C240.9,219.282,240.7,220.282,240.6,221.382z M420,251.182
				c-5.6,3.5-12.1,5.3-18.1,8c1.9,3.8,4.1,7.4,6.2,11.1c11.1-5.2,19.3-15.5,22.8-27.2C427.5,245.982,424,248.982,420,251.182z
				 M60.6,243.582c3.1,11.4,11.4,20.7,21.6,26.5c2.7-3.4,4.5-7.4,6.7-11.1c-5.3-2.4-10.9-4-15.9-6.9
				C68.4,249.982,64.8,246.382,60.6,243.582z M59.7,294.082c6.7,10.1,18.3,16.8,30.3,18.1c-2.3-4.3-4.8-8.6-7.3-12.8
				C74.8,298.782,67.1,296.882,59.7,294.082z M408.1,299.282c-2.8,4.2-5.4,8.5-7.6,13c12.5-1.1,24.1-8.1,31.5-18.2
				C424.2,296.782,416.3,299.082,408.1,299.282z M148.9,327.082c-1,4.3-1.2,8.8-1.9,13.1c-3.9-3.9-7.2-8.3-11.1-12.1
				c-4.9-0.8-9.9,0.4-14.9,0.4c-5.4,0.5-10.9,0.1-16.2,1.3c-5,3.6-9,8.4-13.8,12.2c0.5-4,1.5-7.9,2.1-11.8
				c-13.1,0.9-26.1,1.9-39.2,3c-2.9,0.4-6.4-0.2-8.7,2.1c-4.2,3.8-8.4,7.6-12.8,11.3c-1.4,1.2-3.1,2.5-3.4,4.5
				c-4.4,17-8.8,34.1-13.3,51.1c3.2,4.5,7.2,8.3,10.7,12.5c1,1,1.9,2.5,3.5,2.1c15.5-1.5,31.2-2.4,46.7-3.9c1.1-4.5,1.7-9.1,3-13.6
				c4.4,3.9,7.7,9,12.4,12.6c8.7-0.1,17.4-1.1,26.1-1.3c2.8-0.4,6.2,0.3,8.4-1.8c4.5-3.9,8.9-8,13.6-11.8c-0.3,4.2-0.9,8.3-1.3,12.4
				c17.7-0.5,35.5-1.5,53.2-1.6c1.2-0.1,2.6,0.1,3.6-0.9c4.7-4,9-8.3,13.7-12.3c0.3,4.2-0.1,8.4-0.1,12.6
				c15.6,0.1,31.2-0.1,46.7-0.3c5.2-3.7,9.1-8.9,14.1-12.8c0.5,4.3,0.4,8.6,0.8,13c24.4,0.4,48.7,0.8,73.1,1.8
				c9.6,0.2,19.1,1.1,28.6,1.1c-0.9-6.1-2-12.2-2.4-18.3c4.9,6,8.3,13,13,19.1c9.8,0.2,19.6,1.5,29.4,1.4c-1.2-7.6-2.9-15.2-4-22.9
				c-0.4-1.1-0.2-2.6-1.3-3.4c-2-0.4-4.1-0.6-6.1-0.9c-1.2-9.7-3.8-19.3-4.6-29c1.3,0.1,2.6,0.3,3.8,0.8c0.9,2.9,1.3,5.9,2,8.9
				c6.8,0.8,13.7,0.9,20.5,1.5c1.7-0.2,1.8,1.8,2.2,3c1.2,5.7,2.4,11.3,3.6,17c-2.2-0.2-4.4-0.4-6.6-0.2c1.7,7.7,3.3,15.4,4.9,23.2
				c0.5,1.2,0.4,3.5,2.2,3.5c11.9,0.8,23.8,1.8,35.7,2.9c1.5,0.1,3.1,0.1,4.6,0c-2.4-8.8-4-17.7-6.6-26.5c-2.1-0.4-4.5-0.2-6.5-1.2
				c-1.5-6.5-3.3-12.9-4.5-19.4c7.3,0.5,14.6,1.8,21.9,1.8c-3-12-6.3-24-9.3-36c-13.6-1.6-27.3-2.5-41-3.7
				c-19.4-1.3-38.9-3-58.3-3.6c0.8,5.8,2,11.5,2.5,17.4c-4.4-5.5-7.3-12-11.3-17.9c-29.2-1.6-58.4-2.2-87.6-2.5c-14,0-28-0.4-42,0.2
				c-5.1,4.2-9.5,9.3-14.3,13.8c-4.4-4.4-8.5-9.1-13-13.4C182.8,325.582,165.8,326.382,148.9,327.082z M172.9,414.882
				c-31.4,1.3-62.9,2.1-94.3,4.7c1.6,0.9,3.5,0.7,5.3,0.7c108.9-4.8,218.1-4.7,327,0c1.8,0.2,3.6,0,5.4-0.6
				c-8.8-1-17.6-1.4-26.4-1.8C317.7,413.882,245.3,412.782,172.9,414.882z M91.4,425.882c-5.8,1.1-11.7,0.2-17.4,1.8
				c8.7,0.4,17.3-1.2,26-1c52.9-3,106-3.4,159-3.6c45,0.5,90,1,135,3.6c9.3-0.2,18.6,1.4,27.9,1c-3.9-0.9-7.9-1.2-11.9-1.2
				c-19.9-1.9-40-2.7-60-3.8C263.9,418.482,177.5,419.782,91.4,425.882z M242.2,436.282c-13.9,5.2-28.5,8.4-43.2,10.2
				c-0.2,2.3-0.3,4.5-0.2,6.8c17.2-1.7,33.9-6.7,49.7-13.7c2.7-1.2,5.6-2.3,7.8-4.4C251.7,435.082,246.7,434.482,242.2,436.282z
				 M262.7,448.782c7.9,2,15.9,4,24.1,4.3c0-2.1-0.1-4.3-0.1-6.4c-3.5-0.6-7.1-1.2-10.6-1.8
				C271.2,443.482,266.6,446.282,262.7,448.782z"/>
		</g>
		<path class="st2" d="M179,352.382c2.4-0.1,4.8-0.2,7.2-0.3c-0.6,9.8-1.2,19.5-2.1,29.2c-2.7,0.2-5.4,0.2-8.1,0
			C177.1,371.682,177.2,361.882,179,352.382z"/>
		<path class="st2" d="M333.7,352.882c1.4,0.1,2.8,0.1,4.3,0.2c1.2,9.7,2.3,19.4,3.2,29.2c-1.5,0-2.9,0-4.4-0.1
			c-0.8-3.1-1.1-6.3-1.4-9.5c-6.4-0.5-12.8,0.1-19.2-0.7c-0.4-3.4-0.8-6.9-0.6-10.3c6.4-0.1,12.7,0.6,19,0.4
			C334.2,358.982,333.9,355.982,333.7,352.882z"/>
		<path class="st2" d="M113.1,355.282c2.4-0.2,4.8-0.3,7.2-0.4c-1.2,9.8-2.9,19.5-4.3,29.2c-2.6,0.2-5.3,0.3-7.9,0.2
			C109.7,374.582,111.1,364.882,113.1,355.282z"/>
		<path class="st2" d="M53.5,359.582c2.4-0.2,4.9-0.4,7.3-0.4c-0.5,2-0.6,4.2-1.8,5.9c-2.3,0.5-4.6,0.6-6.9,0.7
			C52.5,363.782,53,361.682,53.5,359.582z"/>
	</g>
	<g>
		<path class="st3" d="M262.5,39.682c17.5,29.9,34.6,60,52,89.9c4,7.2,8.5,14.2,12.1,21.6c0,4.1,2.3,7.7,4,11.3
			c7.1,15.2,14.5,30.4,21.4,45.8c0.8,1.9,1.9,3.9,1.2,6c-1.5,6.5-4.5,12.6-6,19.2c-25.5-44.2-51-88.3-76.5-132.5
			c-1.3-3.2-1.2-6.9-2-10.2c-1.6-11-3.3-21.9-4.9-32.9c-0.2,1.6-0.5,3.2-0.7,4.9c-1.9,4-3,8.2-3.9,12.6c-1.7,8.7-4.7,17.2-5.3,26.1
			c-5.7,10.5-11.7,21-18.1,31.1c-2.1,1.8-4.2,3.6-5.7,5.8c-6,8.3-12.3,16.4-18.1,24.9c-1.4,2-2.9,4.1-5.4,4.8
			c-7,2.4-14.1,4.3-21.4,5.6C211,128.882,236.9,84.282,262.5,39.682z"/>
		<path class="st3" d="M192.3,115.282c6.4-2.4,13.4-1.5,20.1-1.5c-24.5,42.7-49.2,85.3-73.8,128c-3.2,4.7-8,8.1-11.9,12.3
			c-6.7,6.4-13.6,12.7-20,19.4c2.3-1,4.5-2.1,6.7-3.2c4.8,0.5,9.2-1.7,13.7-3c9.4-3.1,19.1-5.3,28.3-9.2c4.7-0.2,9.5-0.2,14.2,0.1
			c22.8,2,45.6,3.1,68.5,4.4c2,0,3.6,1.3,4.9,2.5c4.7,4.4,8.4,9.8,12.1,15c-54.5,0.2-109,0.1-163.5,0.1c-0.1-1.2-0.1-2.4-0.2-3.7
			c11.5-20.4,23.4-40.5,35-60.9c9.4-16,18.4-32.3,28.1-48.1c1.9-1.7,3.8-3.4,5.2-5.6c9.6-14.4,19.2-28.8,28.8-43.1
			C189.5,117.282,190.6,115.782,192.3,115.282z"/>
		<path class="st3" d="M296.4,189.682c0.9-8.1,3-16.1,4.3-24.1c18.1,31.2,36,62.4,54.1,93.6c10.2,17.3,19.9,34.9,30.3,52.1
			c-35.4,0.1-70.8,0-106.1,0.1c-12.1-0.1-24.3,0.2-36.4-0.2c-13.4-2.4-27-2.5-40.5-3.4c-4.5-0.4-9.2,0.2-13.6-1.1
			c-6.4-4.9-10.5-12.2-14.7-19c50.1,0,100.2,0,150.4,0c2.5,0.1,5.2-0.4,7.5,0.8c10.7,4.9,21.4,9.5,32,14.5l-3.3-3.1
			c-3.1-4-6.4-7.8-9.9-11.4c-4.2-4.4-8-9.3-13.1-12.8c-5.7-9.2-11.2-18.6-16.2-28.2c-0.6-2.5-1-5.1-2-7.5
			c-6.7-15.1-13.9-30-21.5-44.7C296.7,193.682,296.1,191.682,296.4,189.682z"/>
	</g>
	<g>
		<path class="st4" d="M263.9,57.782c1.6,11,3.2,21.9,4.9,32.9c-0.3,0.4-1,1.1-1.4,1.5c-0.8-7.2-1.8-14.5-4.1-21.4
			c0.1-2.7,0-5.4-0.1-8.1C263.4,60.982,263.6,59.382,263.9,57.782z"/>
		<path class="st4" d="M106.7,273.382c6.4-6.7,13.3-12.9,20-19.4l1.5-0.3c-3.3,4.6-8,7.9-11.6,12.2c1.2,0.3,2.4,0.6,3.6,0.9
			c-2.3,1-4.6,2.2-6.9,3.3C111.2,271.182,109,272.282,106.7,273.382z"/>
		<path class="st4" d="M259.6,272.082c9-0.6,18-0.7,26.9-1.7c-2,2.6-6,1-8.8,1.9c2.5,1,5.2,0.9,7.8,1.2c0.1,0.4,0.4,1.1,0.5,1.5
			C277.2,274.082,268.3,273.582,259.6,272.082z"/>
		<path class="st4" d="M141,300.582c0.6-0.3,1.8-1,2.3-1.3c5.7,0.3,11.3,1.2,17,1.5c2,0.3,4,0.7,6,1.2c-5.3,0.3-10.6,0.5-15.9,0.7
			C147.5,301.282,144.3,300.782,141,300.582z"/>
		<path class="st4" d="M194.2,442.482c6.6-1,13.3-2,19.9-3c0.2,0.3,0.6,1,0.8,1.3c-6.1,1.2-12.3,1.8-18.4,3
			c-1.6,5.8-0.4,12.2-0.6,18.3c4.5-0.3,9-1.4,13.5-0.3c-5.1,1.3-10.3,1.8-15.5,2C194.4,456.682,193.9,449.582,194.2,442.482z"/>
	</g>
	<g>
		<path class="st5" d="M259.3,75.182c0.8-4.3,2-8.6,3.9-12.6c0.1,2.7,0.1,5.4,0.1,8.1c-0.8,5.5-0.3,11.1-1,16.6
			c-2.5,4.8-5.3,9.5-8.2,14C254.6,92.382,257.6,83.882,259.3,75.182z"/>
	</g>
	<g>
		<path class="st6" d="M339.6,66.782c3.8,3.7,4.9,9.2,5.8,14.2c1.2,9.6-0.2,19.8-5.5,28.1c5.8,6.6,11.5,13.2,16.5,20.5
			c2.5,3.6,4.6,7.4,7.3,10.8c0.5-3.8,0.8-7.7,2.1-11.4c2-5.6,5.8-10.5,7.9-16c1.7-3.9,2.2-8.3,3.8-12.2c2.7,8.2,2.6,17.2-0.7,25.2
			c-2.6,6.7-7.4,12.2-11.4,18.1c7.2,12.7,12.9,26.2,17.1,40.2c1.6-3.2,2-6.8,3.9-9.8c4.2-6.9,10.2-12.6,14.7-19.2
			c2.5-3.3,4-7.1,6.5-10.4c-0.9,12.5-3.9,25.8-12.7,35.2c-3.1,3.5-7.2,5.8-11.2,8.1c3.1,11.9,5.3,24,6.3,36.3c2.4-3,4.5-6.2,7.5-8.7
			c5.2-4.2,11.1-7.6,15.9-12.2c3.2-2.8,5.4-6.4,8.3-9.6c-1.9,11.1-6.9,22.1-15.8,29.2c-4.6,3.8-10.2,6-15.5,8.5
			c0.1,2.5,0.1,5,0.1,7.6c-2.4-2.9-4.7-6.2-4.4-10.1c-2.5-50.6-26-99.9-64.3-133.1c-3.8-3.2-7.5-6.5-11.7-9.2c-3.1-1.9-6.7-2.5-10-4
			c-2.7-3.5-4.6-7.5-6.8-11.4c13.3,2.6,22.2,13.8,31.3,22.9c4.2,3.8,7.9,8.2,12.5,11.5c0.1-5.3-0.2-10.6,0.8-15.8
			C339.5,82.382,340.5,74.582,339.6,66.782z"/>
		<path class="st6" d="M146.5,77.782c0.9-3.7,2-7.5,4.7-10.3c0.2,5.2-0.2,10.5,0.9,15.7c1.5,7.6,2.2,15.4,1.4,23.2
			c3.8-2.7,6.8-6.4,10.3-9.4c10-9.4,18.8-21.5,32.7-25.4c-0.6,3-2.7,5.4-4,8c-1,1.6-1.8,3.6-3.8,4.1c-3.6,1.3-7.2,2.5-10.3,4.9
			c-43.1,32.6-70.1,84.7-73.3,138.5c0.1,3.9-1.5,7.6-4.2,10.4c-0.2-2-0.2-4-0.3-6c-5.1-2.1-10.1-4.2-14.5-7.6
			c-9.3-6.9-14.6-18.1-16.4-29.3c3,3,5.2,6.6,8.4,9.4c5.2,4.9,11.7,8.2,17,13.1c2.4,2.2,3.9,5.1,6.3,7.3c0.8-12.2,3-24.3,6.3-36.1
			c-4.7-2.7-9.5-5.5-12.9-9.8c-7.8-9.4-10.1-21.9-11.3-33.7c2.4,2.7,3.6,6.3,5.7,9.2c6.5,10,17,18,19.3,30.4
			c4.8-13.8,9.9-27.6,17.4-40.2c-4.5-6.3-9.6-12.4-12.1-19.8c-2.6-6.7-2.4-14.2-0.8-21.1c0.1-1.1,0.6-1.8,1.5-2.2
			c0.8,9.4,5.8,17.6,10,25.8c2.2,4.2,2.7,9,3.1,13.7c2.1-2.3,3.5-5,5.1-7.6c5.6-8.4,11.9-16.2,18.7-23.7
			C145.5,99.882,144.4,88.282,146.5,77.782z"/>
		<path class="st6" d="M158.6,114.082c1.3-1.8,2.5-3.8,4.5-4.9c3.9-1,8-0.2,11.8,1c-1.2,2.3-2.6,4.6-4,6.8
			C166.7,116.282,162.5,115.382,158.6,114.082z"/>
		<path class="st6" d="M315.9,110.282c3.8-1.4,8-2.2,12-1.3c2.2,1.1,3.5,3.2,5,5c-4.2,1.4-8.5,2.3-12.9,3
			C318.4,114.982,317,112.782,315.9,110.282z"/>
		<path class="st6" d="M137.4,143.482c5.9-2.6,12.5-1.8,18.6-0.6c-1.3,2.4-2.7,4.8-4.1,7.2c-6.2,1.1-12.6,0.9-18.9,0.7
			C134.2,148.282,135.3,145.482,137.4,143.482z"/>
		<path class="st6" d="M334.9,142.882c5.7-0.9,11.7-2,17.4-0.1c3.6,1.1,4.8,5,6.1,8.1c-6.4,0.3-12.9,0.2-19.3-0.7
			C337.4,147.882,336,145.482,334.9,142.882z"/>
		<path class="st6" d="M122.2,176.282c4.7-3.1,10.7-3.6,16.2-3.4c-1.5,3-2.9,6-4.9,8.7c-4.5,1.9-9.5,2.1-14.3,2.5
			C120.1,181.482,120.7,178.682,122.2,176.282z"/>
		<path class="st6" d="M352,172.982c5.7-0.2,12,0,16.8,3.3c1.9,2.2,2.2,5.2,3.1,7.8c-5-0.1-9.9-1.2-14.8-2.2
			C355.4,178.882,353.7,175.982,352,172.982z"/>
		<path class="st6" d="M420,251.182c4-2.2,7.5-5.2,11-8.1c-3.5,11.7-11.7,22-22.8,27.2c-2.2-3.7-4.4-7.3-6.2-11.1
			C408,256.482,414.4,254.682,420,251.182z"/>
		<path class="st6" d="M60.6,243.582c4.2,2.8,7.8,6.3,12.4,8.5c5.1,2.9,10.7,4.5,15.9,6.9c-2.2,3.7-4.1,7.7-6.7,11.1
			C72.1,264.382,63.7,254.982,60.6,243.582z"/>
		<path class="st6" d="M59.7,294.082c7.4,2.8,15.1,4.7,23,5.3c2.5,4.2,5,8.4,7.3,12.8C78,310.882,66.4,304.182,59.7,294.082z"/>
		<path class="st6" d="M408.1,299.282c8.3-0.2,16.2-2.5,23.9-5.2c-7.4,10.1-19,17.1-31.5,18.2
			C402.7,307.782,405.3,303.482,408.1,299.282z"/>
		<g>
			<path class="st6" d="M148.9,327.082c16.9-0.7,33.9-1.5,50.8-1.6c4.4,4.4,8.6,9,13,13.4c4.9-4.5,9.2-9.6,14.3-13.8
				c14-0.5,28-0.2,42-0.2c29.2,0.3,58.4,0.9,87.6,2.5c3.9,5.9,6.9,12.4,11.3,17.9c-0.6-5.8-1.7-11.6-2.5-17.4
				c19.5,0.6,38.9,2.2,58.3,3.6c13.7,1.2,27.4,2.1,41,3.7c3.1,12,6.4,23.9,9.3,36c-7.3,0-14.6-1.3-21.9-1.8c1.2,6.5,3,12.9,4.5,19.4
				c2,1,4.3,0.8,6.5,1.2c2.5,8.7,4.2,17.7,6.6,26.5c-1.5,0.1-3.1,0.2-4.6,0c-11.9-1.1-23.8-2.1-35.7-2.9c-1.8,0-1.7-2.3-2.2-3.5
				c-1.5-7.7-3.1-15.5-4.9-23.2c2.2-0.2,4.4-0.1,6.6,0.2c-1.2-5.7-2.4-11.3-3.6-17c-0.4-1.2-0.4-3.1-2.2-3
				c-6.8-0.6-13.7-0.7-20.5-1.5c-0.7-3-1-6-2-8.9c-1.2-0.4-2.5-0.7-3.8-0.8c0.8,9.8,3.4,19.3,4.6,29c2,0.3,4.1,0.4,6.1,0.9
				c1.1,0.7,0.9,2.2,1.3,3.4c1.1,7.7,2.8,15.3,4,22.9c-9.8,0.1-19.6-1.2-29.4-1.4c-4.7-6.1-8.1-13.1-13-19.1
				c0.5,6.1,1.6,12.2,2.4,18.3c-9.6,0-19.1-0.9-28.6-1.1c-24.4-1-48.7-1.4-73.1-1.8c-0.4-4.3-0.3-8.7-0.8-13
				c-5,3.9-8.9,9.2-14.1,12.8c-15.6,0.1-31.2,0.3-46.7,0.3c0.1-4.2,0.4-8.4,0.1-12.6c-4.7,4-9,8.3-13.7,12.3c-0.9,1-2.3,0.8-3.6,0.9
				c-17.8,0.1-35.5,1.1-53.2,1.6c0.4-4.1,1-8.3,1.3-12.4c-4.6,3.8-9,7.9-13.6,11.8c-2.2,2.2-5.6,1.5-8.4,1.8
				c-8.7,0.2-17.4,1.2-26.1,1.3c-4.7-3.5-8-8.6-12.4-12.6c-1.2,4.5-1.9,9.1-3,13.6c-15.5,1.5-31.2,2.4-46.7,3.9
				c-1.6,0.4-2.6-1.1-3.5-2.1c-3.5-4.2-7.5-8-10.7-12.5c4.5-17,9-34,13.3-51.1c0.3-2,2-3.2,3.4-4.5c4.3-3.7,8.5-7.5,12.8-11.3
				c2.3-2.3,5.8-1.8,8.7-2.1c13-1.1,26.1-2.1,39.2-3c-0.6,4-1.6,7.9-2.1,11.8c4.8-3.9,8.8-8.6,13.8-12.2c5.3-1.2,10.8-0.8,16.2-1.3
				c5,0,10-1.1,14.9-0.4c3.9,3.8,7.2,8.3,11.1,12.1C147.7,335.882,147.9,331.382,148.9,327.082z M271.9,327.482l1,1.3h-0.4
				c0.1,6.2,0.4,12.4,0.4,18.6c2.2,0.1,4.3,0.1,6.5,0.2c0.2,12.4,0.9,24.8,1.3,37.1c-2.2-0.1-4.5-0.1-6.7-0.1
				c0.5,6.1,0.5,12.3,0.5,18.4c20,0.4,40.1,0.7,60.1,1.4c-0.8-6.2-1.3-12.5-1.9-18.8c1.8-0.6,1.9-5.6-0.4-5.7
				c-0.2-1.2-0.4-2.3-0.6-3.4l0.6-1.3c-4.2,0-8.8-1-12.7,1.1c-2.4,0-4.8-0.1-7.1-0.3c0.2,3.2,0.4,6.3,0.8,9.4
				c-4.4-0.1-8.8-0.1-13.2-0.4c-0.4-4.2-0.4-8.3-0.7-12.5c4.3,0.2,8.6,0.2,13,0.3c-0.6-4-0.8-8.1-0.9-12.1
				c-4.2-0.2-8.5-0.2-12.8-0.3c-0.2-4.2-0.3-8.4-0.9-12.5c4.2,0.1,8.5,0.1,12.7,0.4c0.1,3.1,0.2,6.3,0.6,9.5h0.9l-0.9,1.4
				c5.1-0.1,10.6,1.2,15.4-1.1c1.2,0,2.4,0,3.5,0c-0.4-4.4-0.8-8.9-1.3-13.3c1.8-0.6,1.9-5.6-0.5-5.7c-0.4-2.9-0.8-5.7-0.9-8.6
				c-1.9-0.1-3.8-0.3-5.7-0.4c0.6-0.3,2-0.9,2.6-1.1c-7.3-1.4-14.9-0.7-22.3-0.9C291.9,328.682,281.9,326.482,271.9,327.482z
				 M151.9,329.382c0.4,0.4,1.1,1.1,1.4,1.4h-0.9c-1,6.2-1.4,12.5-2.4,18.8c2.1-0.1,4.2-0.3,6.4-0.5c-1.4,12.5-2.9,24.9-4.1,37.4
				c-2.2,0.1-4.4,0.2-6.6,0.3c-0.7,6.2-1.5,12.4-2.2,18.6c2.4-0.2,4.9-0.3,7.3-0.3c2.1,1.5,4.8,1.2,7.2,1.3c5.8,0,11.5-0.1,17.3-0.6
				c-0.6-0.3-1.9-1-2.6-1.4c3.1-0.2,6.1-0.4,9.2-0.3c4.2,1,9.3,1.9,13.2-0.2l-1.5-0.1c4.3-4.7,9.5-8.6,14-13.1l1.2,0.9
				c0.1-4.5,1.4-9.7-0.9-13.8c0-2.3,0.2-4.6,0.4-6.9c0.4,0.4,1.1,1.3,1.5,1.7c0.1-5.2,1.4-10.9-0.9-15.8c0.1-1.9,0.2-3.8,0.4-5.8
				c0.4,0,1.1,0.1,1.4,0.1c-0.1-3.9,1.7-8.9-1.7-11.9c-3.2-3.2-6.1-6.9-9.7-9.7l0.5,1.8c-0.4-0.4-1.4-1.4-1.8-1.8
				c-9.5,0.2-19.1,0.6-28.6,0.8C163.9,327.982,157.6,329.182,151.9,329.382z M215.8,341.982c-0.3,8.7-0.8,17.4-1,26.1
				c11.2,3.1,22.3,6.3,33.4,9.7c0,2.2-0.1,4.5,0,6.7c-4.9,0-9.7,0-14.6,0.1c0.1-2,0.2-4.1,0.3-6.1c-6.5-0.2-13,0-19.5,0.1
				c-0.4,8.2-0.7,16.4-0.9,24.6c13.8-0.2,27.5-0.3,41.3-0.3c2.8-2.7,5.6-5.3,8.5-7.9c3.4,0.2,6.4-3.6,6-6.9
				c-0.1-7.7,0.2-15.5-0.4-23.2c-0.4,0.4-1.1,1.2-1.4,1.6c-0.1-0.6-0.2-1.8-0.2-2.4c-11-3.2-22-6.6-32.9-9.9
				c0.2-2.3,0.2-4.6,0.2-6.9c4.6,0.1,9.3,0,13.9-0.1c0,2.1-0.1,4.1-0.1,6.2c6.3,0.1,12.6,0.2,18.9,0c-0.4-8.2-0.4-16.4-0.5-24.7
				c-12.5,0.1-25-0.2-37.5,0.1C224.2,332.882,219.7,337.282,215.8,341.982z M110.7,331.482c0.4,0.4,1.3,1.1,1.8,1.4
				c-2.6,0.4-5.8-0.3-7.6,2c-4.2,3.9-8.6,7.7-12.7,11.7c-3.7,16.4-6.3,33.1-9.8,49.6c1.2,1.4,2.5,2.7,3.7,4.1c0.4,3.6,3.8,6,6.4,8.1
				c4.8,0.9,9.7,0.4,14.6,0.1c-0.6-0.3-1.9-0.9-2.5-1.2c6.3-0.8,12.8-0.4,19-1.5c5-4.1,9.8-8.5,14.7-12.8c2-16.4,4-32.9,6.3-49.2
				c-3.6-4-7.1-8-10.7-12c-2.8,0.1-5.7,0.3-8.5,0.4C120.9,329.882,115.6,331.282,110.7,331.482z M333.5,330.382
				c0.7,6.2,1.2,12.3,2,18.5c2.1,0.1,4.1,0.2,6.2,0.3c1.5,12.4,2.7,24.8,4.3,37.2c-2.3-0.1-4.6-0.2-6.8,0.2c-1.4,0.3-0.9,2.6-1,3.7
				c-0.3,0.9,0.9,3.1,1.7,1.5c0.7,4.3,0.9,8.7,1.5,13c8.9,0.2,17.8,0.8,26.7,1c-1.8-10.8-2.8-21.7-4.7-32.5c1.9,2,3.1,4.5,4.6,6.9
				c5.7,8.9,11.5,17.8,17.4,26.6c7.5,0.3,15,0.9,22.4,1.3c-0.9-6.2-2.2-12.4-3.2-18.6c-2.2-0.2-4.4-0.3-6.6-0.4
				c-1-6.2-2.1-12.3-3.1-18.5c2.2,0.1,1.3-5.6-0.5-3.2c-1-5.2-1.8-10.5-2.9-15.8c2.1,0.1,4.2,0.3,6.3,0.5
				c-1.1-6.2-2.3-12.4-3.3-18.6c-8.1-0.5-16.2-0.9-24.3-1.5c0.9,8,2.4,15.9,3.5,23.9c0.3,2.8,1.3,5.5,1,8.3
				c-6.9-10.8-13.6-21.8-20.3-32.7C347.4,330.582,340.4,330.982,333.5,330.382z M404.7,334.182c-1.4-0.1-2.8-0.2-4.2-0.3
				c1.8,9.3,3.5,18.6,5.3,27.9c1.3,0.2,2.6,0.4,3.9,0.5l-0.9,1.4c3.8,0.2,8.3,1.5,11.7-0.8c0.3,0,0.9,0,1.2,0
				c-0.8-3.1-1.4-6.2-2.1-9.3c2.1,0.1,4.2,0.3,6.3,0.5c2.8,12.5,5.2,25,8.1,37.4c-2.2-0.1-4.4-0.3-6.5-0.4
				c1.2,6.2,2.6,12.4,3.8,18.6c2.1,0.2,4.1,0.3,6.2,0.5c-0.6,0.4-1.8,1.1-2.4,1.5c4.1,0.1,8.7,1.7,12.4-0.7c1.3,0.1,2.6,0.2,4,0.3
				c-0.6,0.3-1.9,0.8-2.6,1.1c3.4,0.6,7.5,1.8,10.6-0.5c1.7,0.1,3.4,0.2,5.1,0.4c-1.8-6.3-2.9-12.7-4.8-18.9l0.8-1.2
				c-1.9-0.3-3.9-0.5-5.8-0.7c-1.1-4.3-2-8.6-3-12.9c-0.3,0.4-1,1.2-1.3,1.6c-2.1-8.2-3.8-16.5-5.9-24.7c2.1,0.1,4.3,0.3,6.4,0.6
				c0.8,3.2,1.5,6.5,2.5,9.6c0,1.9,4.2,1.9,4.2,0c3.7,0.5,7.5,0.7,11.2,1c-2.6-9.4-4.9-18.8-7.5-28.2h-1c0.1-2.2-4.6-2.3-4.9-0.4
				c-5.3-0.5-10.6-0.8-15.9-1.5c0.6-0.3,1.9-0.8,2.6-1.1c-3.4-0.4-7.6-1.9-10.6,0.5c-1-0.1-2.1-0.2-3.1-0.3c0.4-0.4,1.2-1.1,1.6-1.5
				c-3.8-0.2-8.1-1.5-11.5,0.7c-0.6,0-1.8-0.1-2.4-0.2l0.9-1.3C413,333.282,408.3,331.782,404.7,334.182z M67.9,334.482
				c0.4,0.4,1.3,1.1,1.7,1.5c-1.1,0.1-2.2,0.2-3.3,0.3c-2.7-2.5-7-0.7-10.4-0.8c0.6,0.3,1.7,1,2.3,1.4c-1.6,0.1-3.1,0.3-4.7,0.5
				c0-2-6.3-1.6-4.3,0.3c-5.6,4.2-10.7,9.3-16.1,13.9c-4.2,16.6-8.6,33.2-13,49.8c3.4,3.8,6.7,7.9,10.4,11.5
				c6.7-0.9,13.5-1.3,20.2-1.8c3.2,2.5,7.7,0.8,11.5,0.8c-0.4-0.4-1.3-1.1-1.7-1.5c4.3-0.4,8.6-0.7,12.9-1.1
				c2.9-13.9,5.3-27.8,8.4-41.6c-9.6,0.6-19.1,1.4-28.7,2.2c-0.9,4.6-2,9.2-3.2,13.7c3.3-0.3,6.6-0.6,9.9-0.9
				c-0.9,3.1-1.6,6.2-2.2,9.4c-0.6,0-1.7,0.1-2.3,0.2c-3-2.4-7.1-0.9-10.5-0.7c1.1,0.5,2.2,0.9,3.3,1.3c-2.3,0.2-4.6,0.5-6.9,0.8
				c2.9-12.5,6.1-25,8.9-37.6c5.3-0.5,10.5-1,15.8-1.4c-0.7,3.1-1.5,6.3-2.2,9.4l0.9-0.1c3,2.3,7.2,1,10.6,0.7l-1-1.3
				c0.8-0.1,2.5-0.3,3.3-0.4c0.3,1.8,4.8,2,5-0.1c2.1-9.4,3.7-18.9,5.8-28.3c-3,0.3-6,0.5-9,0.7
				C76.1,332.682,71.6,334.382,67.9,334.482z M271.3,351.482c-1.1,1.7-0.2,4-0.4,5.9c-3.4,0.5-6.8,0-10.2,0.4
				c3.2,1.6,6.8,2.4,10.2,3.4c0.6,6.5,0.3,13,0.6,19.5c1.6,0,3.3,0,5,0c-0.3-9.7-0.9-19.4-1-29.1
				C274.1,351.482,272.7,351.382,271.3,351.482z M302.2,352.182c0,1.3,0,2.6,0.1,3.9c1.5,0.2,3,0.3,4.6,0.3
				c-0.1-1.4-0.1-2.9-0.2-4.3C305.2,352.082,303.7,352.082,302.2,352.182z M147.4,353.482c-1.5,9.7-2.6,19.4-3.9,29.1
				c1.6,0.1,3.2,0.1,4.8,0.1c1.3-9.7,2.4-19.4,3.3-29.1C150.2,353.482,148.8,353.482,147.4,353.482z M333.7,352.882
				c0.1,3.1,0.4,6.1,0.9,9.2c-6.4,0.1-12.7-0.5-19-0.4c-0.1,3.5,0.3,6.9,0.6,10.3c6.4,0.8,12.8,0.2,19.2,0.7
				c0.3,3.2,0.6,6.4,1.4,9.5c1.5,0,2.9,0,4.4,0.1c-0.9-9.8-2.1-19.5-3.2-29.2C336.6,352.982,335.1,352.982,333.7,352.882z
				 M53.5,359.582c-0.5,2.1-1,4.1-1.5,6.2c2.3-0.1,4.7-0.2,6.9-0.7c1.2-1.7,1.3-3.9,1.8-5.9C58.4,359.282,56,359.382,53.5,359.582z
				 M212.1,371.882c-0.1,0.6-0.2,1.8-0.3,2.4c2.8,0.1,5.7,0.3,8.5,0.2C218.2,372.382,214.9,372.082,212.1,371.882z M303.7,376.782
				c0.1,1.5,0.2,2.9,0.3,4.4c1.7-0.1,3.3-0.1,5-0.1c-0.4-1.4,0.2-3.1-0.9-4.2C306.6,376.782,305.1,376.682,303.7,376.782z"/>
		</g>
		<g>
			<path class="st6" d="M109.4,351.582c5.2-0.3,10.4-0.7,15.7-0.8c-1.8,12.4-3.9,24.8-5.6,37.2c-2,0.2-3.9,0.5-5.9,0.2
				c-2.7-0.6-5.4-1.1-8.1-1.4c-0.4-0.5-1.3-1.5-1.7-2c1.4-8.6,3-17.1,4.2-25.6l0.5,0.1c0.3,0.1,0.8,0.2,1.1,0.3
				c0.6-1.4,0-2.9-0.5-4.2C108.9,354.082,109,352.782,109.4,351.582z M113.1,355.282c-2,9.6-3.4,19.4-5,29c2.6,0.1,5.3,0,7.9-0.2
				c1.4-9.7,3.1-19.4,4.3-29.2C117.8,354.982,115.4,355.082,113.1,355.282z"/>
		</g>
		<path class="st6" d="M242.2,436.282c4.5-1.8,9.4-1.2,14.2-1.1c-2.2,2.1-5.1,3.2-7.8,4.4c-15.7,7-32.5,11.9-49.7,13.7
			c-0.1-2.3,0-4.5,0.2-6.8C213.8,444.682,228.4,441.482,242.2,436.282z"/>
		<path class="st6" d="M262.7,448.782c3.9-2.5,8.6-5.3,13.4-3.9c3.5,0.6,7.1,1.2,10.6,1.8c0.1,2.1,0.1,4.3,0.1,6.4
			C278.6,452.782,270.6,450.782,262.7,448.782z"/>
	</g>
	<g>
		<path class="st7" d="M225.2,79.282c1.9-2.5,3.6-5.3,5.9-7.5c-3.6,7.8-7.9,15.3-11.3,23.2c5.8-6.9,10.3-14.9,16.1-21.8
			c-7.6,13.6-15.8,26.8-23.3,40.5h-0.2c-6.7,0.1-13.7-0.9-20.1,1.5c-1.7,0.5-2.8,2-3.8,3.4c-9.6,14.4-19.2,28.8-28.8,43.1
			c-1.4,2.2-3.3,3.9-5.2,5.6c1.2-2.7,2.7-5.2,4.2-7.7c11.7-20.3,23.4-40.6,35.1-60.8c3.1-5.8,7.4-10.9,12.2-15.4
			c-2.3,5.8-5.9,10.9-8,16.8c6.6-8.3,12-17.4,18.8-25.5c-0.2,0.5-0.7,1.5-0.9,2.1c-3.6,7.5-7.6,14.7-10.9,22.2
			c3.9-5,7.3-10.3,11.1-15.4c2.7-3.5,4.9-7.3,7.8-10.5c-0.4,1.2-0.9,2.4-1.5,3.6c-3.5,6.8-6.9,13.7-10.3,20.5
			C216.9,91.582,220.8,85.282,225.2,79.282z"/>
		<path class="st7" d="M280.5,130.882c7.2,11.3,13.4,23.2,20.2,34.7c-1.2,8.1-3.3,16-4.3,24.1c-0.3,2,0.2,4,1.2,5.7
			c7.6,14.7,14.7,29.6,21.5,44.7c1,2.4,1.5,5,2,7.5c-0.9-1.3-1.8-2.6-2.6-4c-10.1-17.6-20.2-35-30.3-52.6
			c-4.2-7.5-9.5-14.7-11.2-23.3c4.3,4.6,6.7,10.7,10.9,15.3c-4.3-9.9-9-19.6-13.4-29.5c5.4,6.6,9.5,14.1,14.3,21
			c0.2,0.1,0.7,0.2,1,0.3c-4.4-9.3-8.7-18.7-12.9-28.2c1.8,1.9,3.2,4,4.6,6.2c3.6,5.1,6.6,10.6,10.5,15.4c-2.5-6-5.5-11.8-8-17.8
			c-1.5-3.9-3.9-7.4-4.9-11.4c5.4,7.4,9.8,15.6,15.6,22.8C289.9,151.582,285.1,141.282,280.5,130.882z"/>
		<path class="st7" d="M230.2,138.282c1.6-2.3,3.6-4.1,5.7-5.8c-0.6,1.3-1.1,2.6-1.8,3.8c-9.6,16.5-19.1,33-28.6,49.5
			c-4.3,7.3-8,15.4-14.9,20.7c2.5-5.7,5.9-10.9,8.2-16.7c-6.6,8.1-12.1,17.2-18.7,25.4c0.5-1.2,1-2.5,1.6-3.7
			c3.3-6.8,6.8-13.5,10.2-20.3c-4.7,5.6-8.6,11.9-13,17.8c-2.1,2.9-4.1,5.8-6.4,8.5c3.8-8.3,8.1-16.3,12.2-24.5
			c-3.6,3.4-5.9,7.9-8.9,11.8c-3.6,4.7-6.6,9.9-10.6,14.3c3.8-8.1,8-15.9,11.9-24c-6.8,7.4-11.4,16.6-18.1,24.1
			c8.6-15.3,17.7-30.4,26.4-45.7c7.3-1.3,14.4-3.2,21.4-5.6c2.4-0.7,4-2.8,5.4-4.8C218,154.682,224.3,146.582,230.2,138.282z"/>
		<path class="st7" d="M326.6,151.082c1.9,2.4,3.2,5,4.8,7.6c13,22.6,26,45.2,39.1,67.7c2.6,4.2,4.5,8.8,5.5,13.7
			c-4-4.7-6.4-10.6-10.7-15.1c4.3,9.8,8.9,19.4,13.2,29.2c-1.2-1.4-2.4-2.9-3.4-4.4c-4-5.9-7.6-12.2-12-17.8
			c3.2,7.3,6.6,14.6,10,21.9c1.1,2.5,2.3,5,3.4,7.6c-5.8-6.9-10-15-15.3-22.3c3.6,9.9,9,19.2,12.8,29.1c-5.4-6.9-9.5-14.8-15-21.7
			c3.9,10,9.6,19.4,12.9,29.6c-8.1-14.3-16.3-28.6-24.6-42.8c1.5-6.6,4.4-12.7,6-19.2c0.7-2.1-0.5-4.1-1.2-6
			c-6.9-15.4-14.2-30.5-21.4-45.8C328.9,158.782,326.6,155.282,326.6,151.082z"/>
		<path class="st7" d="M120.3,266.882c6.6-2.8,13-6.2,19.7-8.9c5.1-0.4,10.3-0.1,15.4,0c-9.2,3.8-18.9,6-28.3,9.2
			c-4.5,1.3-8.9,3.5-13.7,3C115.7,268.982,118,267.882,120.3,266.882z"/>
		<path class="st7" d="M169.6,258.082c28.5-0.5,56.9,0,85.4-0.2c4.4-0.1,8.9,0.6,13,2.3c-6.2,0.3-12.3,0.5-18.5,1
			c10.4,2,21.1,1.8,31.4,3.9c-0.3,0-0.8,0.1-1,0.1c-8.4,0.7-16.9,0.4-25.3,1.8c10,0.9,19.9,2,29.9,2.7c0.5,0.2,1.4,0.5,1.9,0.7
			c-8.9,1-17.9,1.1-26.9,1.7c8.7,1.5,17.6,1.9,26.4,3c1.7,0.3,3.4,0.6,5.1,1c-7.8,0.7-15.6,0.6-23.4,1.4c0.2,0.2,0.6,0.7,0.8,1
			c6.8,0.6,13.7,1.2,20.5,1.9c-1.9,0.5-3.9,0.9-5.9,0.9c-8.9-0.1-17.9-0.1-26.8,0c-0.3-0.3-0.8-0.9-1.1-1.2
			c-3.7-5.2-7.4-10.6-12.1-15c-1.4-1.3-3-2.5-4.9-2.5C215.2,261.182,192.4,260.082,169.6,258.082z"/>
		<path class="st7" d="M337.3,275.782c5.1,3.4,8.9,8.4,13.1,12.8c3.5,3.6,6.8,7.5,9.9,11.4c-4.6-2.7-8.6-6.2-12.9-9.4
			C342.1,287.382,340.1,281.082,337.3,275.782z"/>
		<path class="st7" d="M135.2,287.682c12.8,0.1,25.6,0.1,38.4,0.1c4.1,6.8,8.2,14.1,14.7,19c4.4,1.2,9.1,0.6,13.6,1.1
			c13.5,0.9,27.2,1,40.5,3.4c-24.8,0.4-49.7,0.1-74.5,0.2c-4.8-0.6-9.8-0.9-14.3-2.8c6-1,12.2-0.4,18.2-1.5
			c-10.2-1.8-20.7-1.6-30.9-3.4c3.1-0.5,6.3-0.8,9.4-1c5.3-0.3,10.6-0.4,15.9-0.7c-2-0.4-4-0.8-6-1.2c0.4-0.3,1.2-1,1.6-1.3
			c-2.8-0.2-5.6-0.4-8.4-0.8c2.3-0.9,4.8-1,7.3-1c0-0.3-0.1-0.9-0.2-1.2l-0.1-0.8c-10.2-0.9-20.4-1.8-30.5-2.7
			c7.6-1.6,15.4-1.1,23.1-2l-0.8-0.9c-5.3-0.9-10.7-0.8-16-1.7L135.2,287.682z"/>
	</g>
	<g>
		<path class="st8" d="M215.9,76.782l1.1,0.4c-0.7,2.1-2,4.3-0.8,6.5c-3.8,5.1-7.2,10.4-11.1,15.4
			C208.3,91.382,212.3,84.182,215.9,76.782z"/>
		<path class="st8" d="M212.1,97.182c3.5-6.8,6.9-13.7,10.3-20.5c0.2,0.5,0.6,1.7,0.8,2.2c0.6-0.1,1.9-0.4,2.5-0.6l-0.5,1
			C220.8,85.282,216.9,91.582,212.1,97.182z"/>
		<path class="st8" d="M281.5,153.082c0.8-0.8,1.7-1.7,2.5-2.5c2.5,6,5.5,11.8,8,17.8C288.1,163.582,285.1,158.182,281.5,153.082z"
			/>
		<path class="st8" d="M191.9,191.082c-3.3,6.8-6.8,13.5-10.2,20.3c-0.4-1.9-1.8-2.1-3.4-1.7l0.6-0.8
			C183.2,202.982,187.1,196.682,191.9,191.082z"/>
		<path class="st8" d="M363.1,231.882c4.4,5.7,8,11.9,12,17.8c-0.5,1.6-1.1,3.2-1.7,4.8l-0.4-0.8
			C369.7,246.482,366.3,239.182,363.1,231.882z"/>
		<path class="st8" d="M254.6,266.982c8.4-1.4,16.9-1.1,25.3-1.8c-0.7,1.1-1.8,2-2.9,2.7c3,0,6,0.1,9,0.4c-0.4,0.3-1.1,1-1.5,1.4
			C274.5,268.982,264.6,267.982,254.6,266.982z"/>
		<path class="st8" d="M199.3,329.382c3.6,2.8,6.5,6.4,9.7,9.7c3.4,3,1.6,8,1.7,11.9c-0.4,0-1.1-0.1-1.4-0.1
			c0.3-3.2,0.4-6.4,0.4-9.6c-3.4-3.2-6.6-6.7-9.8-10.1L199.3,329.382z"/>
		<path class="st8" d="M174.8,348.682c5.2-0.3,10.5-0.2,15.7-0.6c-0.1,2.2-0.2,4.4-0.5,6.6c-0.4-1.6-0.8-3.3-1.3-4.9
			c-4.3-0.3-8.6,0-12.9,0.5c0,2.2,0,4.5-0.1,6.8c-0.4,0.3-1.1,0.9-1.5,1.2C174.5,354.982,174.7,351.882,174.8,348.682z"/>
		<path class="st8" d="M86.1,400.282c2.4,2.5,4.8,5,7.1,7.6c3.8-0.2,7.5-0.4,11.3-0.6c0.6,0.3,1.9,0.9,2.5,1.2
			c-4.8,0.3-9.8,0.8-14.6-0.1C89.9,406.282,86.5,403.882,86.1,400.282z"/>
		<path class="st8" d="M181.7,403.982c3.9-0.1,7.8-0.2,11.7-0.3l1.5,0.1C191,405.882,185.9,404.982,181.7,403.982z"/>
	</g>
	<g>
		<path class="st9" d="M331.1,86.382c1.1,2,1.5,4.4,0,6.5C330.3,90.882,330.2,88.282,331.1,86.382z"/>
		<path class="st9" d="M117.8,430.582c7.6-0.5,15.5-1.5,22.9,0.4c-6.9,0.6-14,1-20.9,0.6C119.3,431.382,118.3,430.882,117.8,430.582
			z"/>
	</g>
	<g>
		<path class="st10" d="M369.4,97.282c1.6,4.5-2.2,8.6-3.3,12.8c-1.2,1.9-1,6-4,5.7C364.5,109.582,367.1,103.482,369.4,97.282z"/>
	</g>
	<g>
		<path class="st11" d="M73,162.082c-1.4-9.5-0.7-19.5,3.1-28.4c0.6,5.6-1.9,10.8-1.8,16.3C74.1,154.082,75,158.382,73,162.082z"/>
	</g>
	<g>
		<path class="st12" d="M231.1,153.982c8.9-1.1,18.2,0.6,26,5c-3.1,0.5-6.2,1.2-8.9,2.8c5.8,1.4,12,2.9,16.9,6.6
			c-6.9-1-14.6-0.2-20.3,4c8.1-0.1,15.9,3.1,22.6,7.3c3.5,2.3,7.2,4.6,9.7,8.1c-5.3-3.6-10.6-7.4-16.9-9.1c-10.5-2.9-22-3-32.1,1.4
			c-7.7,3-14.3,8-20,13.8C215.7,180.582,223.5,167.382,231.1,153.982z"/>
		<g>
			<path class="st12" d="M189.8,234.082c-0.2-4.8,1.3-9.4,3.1-13.7c7.7,6.7,18,9.6,28.1,10c-4.1-2.4-8.7-4.4-11.5-8.4
				c12,7.5,26.9,9.9,40.8,7.4c-3.3,1.3-6.7,2.4-10.2,2.8c-1.4,0.3-3.1,0.2-4.1,1.4c11.8,1.8,24,0.8,35.3-3.3
				c-3.1,2.7-7.1,4-10.8,5.4c-19.4,7-41.3,5.9-60.2-2.1c3.2,3.9,7.1,7.3,11.3,10c3,1.9,6.5,3,9.5,5.1c-9.1-1.8-18.8-4.2-25.5-11.1
				c0.6,4.5,1.3,9.1,3.7,13.1C193.9,246.782,190.1,240.582,189.8,234.082z M215,233.882c6.1,3.1,13.2,4,19.9,3
				C228.9,233.482,221.6,233.782,215,233.882z"/>
		</g>
	</g>
	<g>
		<path class="st13" d="M235.3,186.082c10.4-2.4,21.4-0.9,31.3,2.7c-3.5,0.2-7,0.8-10.5,0.3c-0.2-0.1-0.7-0.3-0.9-0.4
			c-5.8-3-12.5-0.9-18.7-1.3C236.2,186.982,235.6,186.382,235.3,186.082z"/>
	</g>
	<g>
		<path class="st14" d="M236.5,187.282c6.2,0.4,13-1.7,18.7,1.3c-5.7-0.4-11.5-0.1-17.2,0.4
			C237.7,188.582,236.9,187.782,236.5,187.282z"/>
	</g>
	<g>
		<path class="st15" d="M238.4,190.982c9.9-2,20-1.2,30-1.6c-0.8,1.3-2,1.9-3.5,1.8c-7.3,0.2-14.7-0.4-22,1
			C241.3,192.682,239.6,192.382,238.4,190.982z"/>
	</g>
	<g>
		<path class="st16" d="M258.1,206.282c0.6,0.2,1.8,0.7,2.4,1c-0.9,3.8-3.1,7-5.8,9.8c-0.7-0.8-1.3-1.7-2-2.5
			C255.3,212.382,256.9,209.382,258.1,206.282z"/>
		<path class="st16" d="M249.6,216.482c0.7,0.9,1.4,1.9,2.1,2.8c-1.2,0.4-2.4,0.8-3.6,1.3c-0.5-0.8-0.9-1.6-1.4-2.4
			C247.7,217.482,248.6,216.982,249.6,216.482z"/>
		<path class="st16" d="M233.7,218.882c1.2-1,2.4-3.2,4-1.4c-0.2,1-0.3,2-0.6,3C236,219.882,234.8,219.382,233.7,218.882z"/>
		<path class="st16" d="M240.6,221.382c0.1-1.1,0.2-2.1,0.4-3.2c0.7,0,2,0,2.7,0c0.1,0.8,0.4,2.3,0.6,3.1
			C243,221.382,241.8,221.382,240.6,221.382z"/>
	</g>
	<g>
		<path class="st17" d="M51.2,231.282c1.8,5.5,0.2,11.3,1.6,16.9c0.7,2.9,1.3,5.9,0.8,9C50.4,248.882,49.7,239.882,51.2,231.282z"/>
	</g>
	<g>
		<path class="st18" d="M91.4,276.382c0,1.2,0.1,2.4,0.2,3.7c54.5,0,109,0.2,163.5-0.1c0.3,0.3,0.9,0.9,1.1,1.2
			c-55.9,0-111.8,0-167.6,0c0.3-0.5,0.9-1.5,1.2-2C90.2,278.482,91,277.082,91.4,276.382z"/>
	</g>
	<g>
		<path class="st19" d="M88,281.882c0.6-0.9,1.2-1.9,1.8-2.8c-0.3,0.5-0.9,1.5-1.2,2c55.9,0,111.8,0,167.6,0c8.9,0,17.9,0,26.8,0
			c2,0,4-0.4,5.9-0.9c2.8-0.6,5.7,0.2,8.4,0.9c-5.6,1.9-11.6,0.4-17.4,0.6C216,281.982,152,281.682,88,281.882z"/>
	</g>
	<g>
		<path class="st20" d="M67.5,290.782c0.1-0.3,0.2-0.9,0.3-1.1c1.4-0.5,2.8-0.3,4,0.6C70.5,290.782,69,291.482,67.5,290.782z"/>
	</g>
	<g>
		<path class="st21" d="M135,298.082c8.5-0.7,17.1-0.7,25.6-1.5c0,0.3,0.1,0.9,0.2,1.2c-2.5,0.1-5,0.1-7.3,1
			c2.8,0.4,5.6,0.6,8.4,0.8c-0.4,0.3-1.2,1-1.6,1.3c-5.7-0.3-11.3-1.3-17-1.5C140.6,298.982,137.8,298.482,135,298.082z"/>
	</g>
	<g>
		<path class="st22" d="M271.9,327.482c10-1,20,1.2,30,0.4c7.4,0.2,15-0.5,22.3,0.9c-0.6,0.3-2,0.9-2.6,1.1
			c-16.2-0.4-32.5-0.8-48.7-1.1L271.9,327.482z"/>
	</g>
	<g>
		<path class="st23" d="M151.9,329.382c5.8-0.2,12-1.4,17.5,0.9c-5.4,0.1-10.7,0.5-16,0.5
			C152.9,330.382,152.2,329.682,151.9,329.382z"/>
		<path class="st23" d="M319.6,376.282c3.9-2.1,8.5-1.1,12.7-1.1l-0.6,1.3C327.7,376.582,323.7,376.282,319.6,376.282z"/>
	</g>
	<g>
		<path class="st24" d="M110.7,331.482c4.8-0.2,10.2-1.6,14.7,0.7c-4.3,0.2-8.6,0.5-12.9,0.7
			C112.1,332.582,111.2,331.882,110.7,331.482z"/>
		<path class="st24" d="M453.3,365.882c1.4-0.2,2.8-0.2,4.2,0C457.5,367.682,453.3,367.682,453.3,365.882z"/>
		<path class="st24" d="M44.9,391.482c3.4-0.2,7.5-1.6,10.5,0.7c-2.4,0.2-4.8,0.4-7.2,0.6C47,392.382,45.9,391.982,44.9,391.482z"/>
		<path class="st24" d="M448.8,412.482c0.6-0.3,1.9-0.8,2.6-1.1c2.7,0.2,5.3,0.4,8,0.6C456.2,414.182,452.2,413.082,448.8,412.482z"
			/>
	</g>
	<g>
		<path class="st25" d="M404.7,334.182c3.5-2.4,8.3-0.9,12.3-0.6l-0.9,1.3C412.3,334.682,408.5,334.382,404.7,334.182z"/>
		<path class="st25" d="M67.9,334.482c3.8,0,8.2-1.8,11.5,0.8c-3.2,0.2-6.5,0.5-9.8,0.7C69.2,335.582,68.3,334.782,67.9,334.482z"/>
		<path class="st25" d="M418.6,335.082c3.5-2.2,7.7-0.9,11.5-0.7c-0.4,0.4-1.2,1.1-1.6,1.5
			C425.2,335.682,421.9,335.482,418.6,335.082z"/>
		<path class="st25" d="M77.5,362.882c1.7-0.2,3.3-0.3,5-0.1C82.2,364.882,77.8,364.682,77.5,362.882z"/>
		<path class="st25" d="M150.6,404.982c7.3-0.2,14.6-0.6,21.9-0.7c0.6,0.3,1.9,1,2.6,1.4c-5.7,0.5-11.5,0.6-17.3,0.6
			C155.4,406.182,152.8,406.382,150.6,404.982z"/>
		<path class="st25" d="M50.7,410.982c3.2-0.2,6.5-0.5,9.7-0.7c0.4,0.4,1.3,1.1,1.7,1.5C58.4,411.682,53.9,413.482,50.7,410.982z"/>
	</g>
	<g>
		<path class="st26" d="M55.9,335.482c3.3,0,7.7-1.8,10.4,0.8c-2.7,0.3-5.4,0.4-8.1,0.6C57.6,336.482,56.5,335.782,55.9,335.482z"/>
		<path class="st26" d="M431.6,336.182c3-2.4,7.1-0.9,10.6-0.5c-0.7,0.3-1.9,0.8-2.6,1.1C437,336.682,434.3,336.482,431.6,336.182z"
			/>
	</g>
	<g>
		<path class="st27" d="M49.2,337.682c-2.1-2,4.3-2.4,4.3-0.3C52.1,337.482,50.7,337.582,49.2,337.682z"/>
	</g>
	<g>
		<path class="st28" d="M455.5,338.282c0.2-1.9,4.9-1.8,4.9,0.4C458.7,338.682,457.1,338.482,455.5,338.282z"/>
		<path class="st28" d="M208.8,356.682c2.3,4.9,1,10.6,0.9,15.8c-0.4-0.4-1.1-1.3-1.5-1.7
			C208.5,366.082,208.7,361.382,208.8,356.682z"/>
		<path class="st28" d="M312,357.582c4.8,0,9.6,0.2,14.4,0.3c-4.8,2.3-10.3,1-15.4,1.1L312,357.582z"/>
		<path class="st28" d="M174.1,360.382c0.7,2.5,1.3,5,1.1,7.6c-0.5,0.3-1.4,0.9-1.8,1.2C173.5,366.182,173.6,363.282,174.1,360.382z
			"/>
		<path class="st28" d="M173.1,371.382c0.7,2.9,2.5,7-0.8,9.1C172.4,377.382,172.6,374.382,173.1,371.382z"/>
	</g>
	<g>
		<path class="st29" d="M328.3,338.882c2.4,0.1,2.3,5.1,0.5,5.7C328.6,342.682,328.5,340.782,328.3,338.882z"/>
		<path class="st29" d="M332.3,379.882c2.3,0.1,2.2,5.1,0.4,5.7C332.5,383.682,332.5,381.782,332.3,379.882z"/>
	</g>
	<g>
		<g>
			<path class="st30" d="M175.9,350.282c4.3-0.5,8.6-0.8,12.9-0.5c0.4,1.6,0.9,3.2,1.3,4.9c-0.4,5.6-0.3,11.2-1.4,16.7
				c-0.3-0.6-0.9-1.9-1.2-2.5c-0.9,4.6-0.4,9.4-0.9,14c-0.7,1.2-2.2,0.9-3.4,1.1c-3.8,0.1-7.6-0.2-11.4-0.6c0.1-0.7,0.2-2,0.3-2.7
				l0.3-0.3c3.2-2.1,1.4-6.1,0.8-9.1c-0.1-0.5-0.2-1.4-0.2-1.9l0.5-0.3c0.5-0.3,1.4-0.9,1.8-1.2c0.2-2.6-0.4-5.1-1.1-7.6
				c-0.1-0.5-0.2-1.4-0.2-1.9l0.4-0.3c0.4-0.3,1.1-0.9,1.5-1.2C175.9,354.782,175.9,352.482,175.9,350.282z M179,352.382
				c-1.8,9.5-2,19.3-3,29c2.7,0.1,5.4,0.1,8.1,0c0.8-9.7,1.5-19.5,2.1-29.2C183.9,352.182,181.4,352.282,179,352.382z"/>
		</g>
	</g>
	<g>
		<path class="st31" d="M271.3,351.482c1.4-0.1,2.8,0,4.2,0c0.1,9.7,0.7,19.4,1,29.1c-1.7,0-3.3,0-5,0c-0.3-6.5,0-13-0.6-19.5
			c-3.4-1-7-1.8-10.2-3.4c3.4-0.3,6.8,0.1,10.2-0.4C271.1,355.482,270.3,353.182,271.3,351.482z"/>
	</g>
	<g>
		<path class="st32" d="M302.2,352.182c1.5,0,3,0,4.5,0c0,1.4,0.1,2.8,0.2,4.3c-1.5-0.1-3-0.2-4.6-0.3
			C302.3,354.782,302.3,353.482,302.2,352.182z"/>
	</g>
	<g>
		<path class="st33" d="M147.4,353.482c1.4,0,2.8,0,4.2,0c-0.9,9.7-2,19.4-3.3,29.1c-1.6,0-3.2,0-4.8-0.1
			C144.9,372.882,146,363.082,147.4,353.482z"/>
	</g>
	<g>
		<path class="st34" d="M109.2,355.282c0.6,1.3,1.2,2.8,0.5,4.2c-0.3-0.1-0.8-0.2-1.1-0.3C108,357.782,108.2,356.482,109.2,355.282z
			"/>
		<path class="st34" d="M409.7,362.282c3.6,0.2,7.2,0.4,10.8,0.6c-3.4,2.4-7.9,1-11.7,0.8L409.7,362.282z"/>
		<path class="st34" d="M64.6,363.982c3.2-0.2,6.4-0.4,9.6-0.6l1,1.3C71.7,364.982,67.6,366.282,64.6,363.982z"/>
	</g>
	<g>
		<path class="st35" d="M267.3,366.482c0.3-0.4,1.1-1.2,1.4-1.6c0.6,7.7,0.3,15.5,0.4,23.2c0.4,3.3-2.6,7.1-6,6.9
			c1.6-1.5,3.1-2.9,4.6-4.4C267.5,382.582,267.5,374.582,267.3,366.482z"/>
	</g>
	<g>
		<path class="st36" d="M191.8,366.882c4.7-0.2,9.4-0.5,14.1-0.1c-0.6,7.6-0.5,15.3-1.4,23c-2.2,2.8-5.2,4.7-7.6,7.2
			c-2.1,1.7-3.9,4.5-6.9,4.2c-9.4,0.3-18.7,0-28.1,0.8c-5.2,0.1-10.5,0.6-15.8,0.1c0.5-4.3,0.9-8.7,1.7-13c2.2-0.2,4.4-0.4,6.5-0.7
			c0.7-6.9,1.4-13.8,2.4-20.7c4.6-0.5,9.3-0.5,14-0.5c-0.5,6.9-1.4,13.8-1.8,20.8c7.1-0.2,14.5,0.4,21.5-1.1
			C190.6,380.282,191.4,373.582,191.8,366.882z"/>
		<path class="st36" d="M219.6,366.382c15,0,30,0,45,0.1c0.1,7.2,0.6,14.4,0.7,21.7c0.2,1.7-1.4,2.8-2.5,3.9c-3,2.7-5.7,5.7-8.9,8.2
			c-12.7,0.7-25.4,0.2-38.1,0.3c0.5-6.5,0.7-13.1,0.9-19.6c4.8-0.2,9.5,0,14.3,0c0,2.1,0,4.1,0.1,6.2c6.5-0.2,13,0,19.4-0.4
			c-0.1-3.6,0.6-7.3-0.3-10.8c-9.3-3-18.7-5.7-28.2-8.2C221.2,367.382,220.4,366.882,219.6,366.382z"/>
		<path class="st36" d="M282.6,366.682c8.8,0.1,17.7-0.2,26.5,0.4c0.2,1,0.5,2,0.7,3.1c-4.3,0.5-8.6-0.1-12.9,0
			c0.2,5.8,0.3,11.7,1,17.5c5.9-0.3,11.9,0.1,17.9,0.2c-0.1-3.1-0.2-6.1-0.2-9.2c4.7,0.1,9.5-0.2,14.1,0.6c0.6,7.5,1.8,15,2,22.5
			c-18.3-0.4-36.5-0.8-54.8-1.3c-0.2-4.4-0.3-8.8-0.1-13.3c2.1,0,4.2,0.1,6.4,0.1C282.9,380.382,282.5,373.482,282.6,366.682z"/>
		<path class="st36" d="M124.9,368.882c4.6-0.3,9.2-0.5,13.9-0.4c-0.6,7.2-1.7,14.4-2.6,21.6c-0.1,2.4-2.4,3.7-3.9,5.2
			c-3.4,2.6-6.2,5.8-9.8,8.2c-4.7,1-9.6,0.6-14.4,1c-4.6,0.1-9.2,1-13.8,0.5c-3.2-2.8-6-6.2-9-9.3c1.2-8.4,3.1-16.6,4.6-24.9
			c4.6-0.6,9.3-0.8,13.9-0.9c-0.9,7.2-2.9,14.3-3.2,21.6c7-0.4,14.1-0.7,21.1-1.5C122.8,382.982,123.7,375.982,124.9,368.882z"/>
		<path class="st36" d="M346.3,368.382c15.3,0.1,30.5,1.1,45.8,1.9c1.6,6.9,2.2,14,3.9,20.9c2.1,0.3,4.2,0.5,6.2,0.7
			c1.1,4.4,1.8,8.9,2.7,13.3c-5.6,0.1-11.3-0.4-16.9-0.8c-1.5,0.1-2.1-1.4-2.9-2.3c-6.5-10-13.1-20-19.4-30.1
			c-1.5,0.4-3.1,0.8-4.6,1.4c1,10,2.7,19.8,3.8,29.8c-7.1,0-14.1-0.8-21.2-0.8c-0.9-4.4-1.2-8.8-1.6-13.3c2.2-0.1,4.4-0.2,6.6-0.3
			C347.8,381.982,347,375.182,346.3,368.382z"/>
		<path class="st36" d="M55,372.982c7.7-0.6,15.4-1.2,23.2-1.6c-2,12-4.4,23.9-7.1,35.7c-13.3,0.8-26.6,2.1-39.9,3.1
			c-2.8-3-5.7-5.9-8.1-9.2c0-2.1,0.8-4.1,1.3-6.1c1.9-6.6,3.3-13.3,5.4-19.9c4.5-0.3,9-0.7,13.5-1.1c-1.4,7.5-3.6,14.8-5.2,22.2
			c7.2-0.6,14.4-0.7,21.5-2c1-4.6,2.1-9.2,3.1-13.9c-3.1,0.2-6.3,0.4-9.4,0.5C53.7,378.082,54.3,375.482,55,372.982z"/>
		<path class="st36" d="M436.9,393.982c-1.3-7.1-3.2-14.1-4.4-21.2c4.5,0.5,9.1,0.7,13.7,1.1c1.9,7,3.4,14.1,5.1,21.2
			c2.2,0.4,4.5,0.8,6.7,1.2c1.1,4.4,2.1,8.8,3.1,13.1c-9.3-0.4-18.7-1.1-27.9-2.2c-0.9-4.4-1.9-8.8-2.5-13.2
			C432.7,393.982,434.8,393.982,436.9,393.982z"/>
	</g>
	<g>
		<path class="st37" d="M394.3,367.382c1.8-2.4,2.7,3.3,0.5,3.2C394.6,369.582,394.5,368.482,394.3,367.382z"/>
	</g>
	<g>
		<path class="st38" d="M186.6,382.882c0.5-4.7,0.1-9.4,0.9-14c0.3,0.6,0.9,1.9,1.2,2.5c0,4.6-0.3,9.3-0.9,13.9
			c-5.4,0.1-10.8,0.1-16.2,0.4c0-0.6,0.1-1.7,0.1-2.3c3.8,0.4,7.6,0.7,11.4,0.6C184.4,383.882,185.9,384.082,186.6,382.882z"/>
	</g>
	<g>
		<path class="st39" d="M212.1,371.882c2.8,0.2,6.1,0.5,8.2,2.6c-2.8,0.1-5.7-0.1-8.5-0.2
			C211.9,373.682,212.1,372.482,212.1,371.882z"/>
	</g>
	<g>
		<path class="st40" d="M303.7,376.782c1.5,0,2.9,0,4.4,0.1c1.1,1,0.6,2.8,0.9,4.2c-1.7,0-3.3,0.1-5,0.1
			C303.9,379.682,303.8,378.182,303.7,376.782z"/>
	</g>
	<g>
		<path class="st41" d="M207.8,377.682c2.3,4.1,1,9.3,0.9,13.8l-1.2-0.9C207.4,386.282,207.7,381.982,207.8,377.682z"/>
	</g>
	<g>
		<path class="st42" d="M450.4,380.282c0.3-0.4,1-1.2,1.3-1.6c1,4.3,1.9,8.7,3,12.9c1.9,0.2,3.9,0.5,5.8,0.7l-0.8,1.2
			c-2.1,0-4.2-0.2-6.3-0.4C452.4,388.782,451.3,384.482,450.4,380.282z"/>
	</g>
	<g>
		<path class="st43" d="M103.8,384.782c0.4,0.5,1.3,1.5,1.7,2c2.7,0.3,5.5,0.8,8.1,1.4c-3.5,0.3-7,0.4-10.4,0.7
			C103.4,387.782,103.7,385.782,103.8,384.782z"/>
	</g>
	<g>
		<path class="st44" d="M338.1,390.182c0.1-1.1-0.4-3.3,1-3.7c0.3,1.7,0.5,3.4,0.7,5.1C339,393.282,337.8,391.082,338.1,390.182z"/>
	</g>
	<g>
		<path class="st45" d="M435,411.682c0.6-0.4,1.8-1.1,2.4-1.5c3.3,0.3,6.7,0.5,10,0.8C443.7,413.382,439.1,411.782,435,411.682z"/>
	</g>
	<g>
		<path class="st46" d="M172.9,414.882c72.3-2.1,144.8-1,217,2.9c8.8,0.4,17.7,0.8,26.4,1.8c-1.7,0.6-3.6,0.8-5.4,0.6
			c-108.9-4.6-218.1-4.8-327,0c-1.8,0-3.7,0.2-5.3-0.7C110,416.982,141.5,416.182,172.9,414.882z"/>
		<path class="st46" d="M91.4,425.882c86-6.1,172.4-7.4,258.6-3.2c20,1.1,40,1.9,60,3.8c4,0,8,0.3,11.9,1.2
			c-9.3,0.4-18.6-1.2-27.9-1c-44.9-2.6-90-3.1-135-3.6c-53,0.2-106.1,0.7-159,3.6c-8.7-0.2-17.3,1.4-26,1
			C79.7,426.082,85.7,426.982,91.4,425.882z"/>
	</g>
	<g>
		<path class="st47" d="M141.1,429.382c5-0.2,9.9-0.3,14.9-0.3c4.9,0,10-0.7,14.8,1c-9.2,0.6-18.5,0.6-27.8,0.8
			C142.5,430.482,141.6,429.682,141.1,429.382z"/>
		<path class="st47" d="M345.2,431.082c7.5-2,15.3-0.9,22.9-0.4c-0.6,0.3-1.8,0.9-2.4,1.2C358.9,431.682,352,431.682,345.2,431.082z
			"/>
	</g>
	<g>
		<path class="st0" d="M315.2,430.082c2.2-0.8,4.5-1.5,6.8-1.3c7.6,0.2,15.3,0,23,0.5c-0.7,0.6-1.4,1.2-2.1,1.8
			C333.6,430.482,324.4,430.782,315.2,430.082z"/>
	</g>
</g>
</svg>
