<?xml version="1.0" encoding="utf-8"?>
<!-- Generator: Adobe Illustrator 24.0.1, SVG Export Plug-In . SVG Version: 6.00 Build 0)  -->
<svg version="1.1" id="Layer_1" xmlns="http://www.w3.org/2000/svg" xmlns:xlink="http://www.w3.org/1999/xlink" x="0px" y="0px"
	 viewBox="0 0 800 800" style="enable-background:new 0 0 800 800;" xml:space="preserve">
<style type="text/css">
	.st0{fill:#FFFFFF;}
	.st1{fill:#003699;}
	.st2{fill:url(#SVGID_1_);}
	.st3{fill:url(#SVGID_2_);}
	.st4{fill:url(#SVGID_3_);}
	.st5{fill:url(#SVGID_4_);}
	.st6{fill:url(#SVGID_5_);}
	.st7{fill:#80CCFF;}
	.st8{fill:url(#SVGID_6_);}
	.st9{fill:url(#SVGID_7_);}
	.st10{fill:url(#SVGID_8_);}
	.st11{fill:url(#SVGID_9_);}
	.st12{fill:url(#SVGID_10_);}
	.st13{fill:url(#SVGID_11_);}
	.st14{fill:url(#SVGID_12_);}
	.st15{fill:url(#SVGID_13_);}
	.st16{fill:url(#SVGID_14_);}
	.st17{fill:url(#SVGID_15_);}
	.st18{fill:url(#SVGID_16_);}
	.st19{fill:url(#SVGID_17_);}
	.st20{fill:url(#SVGID_18_);}
	.st21{fill:url(#SVGID_19_);}
	.st22{fill:url(#SVGID_20_);}
	.st23{fill:url(#SVGID_21_);}
	.st24{fill:url(#SVGID_22_);}
</style>
<g>
	<path class="st0" d="M376.8108521,136.5264587c59.469635,0,98.093811,36.9446259,98.093811,36.9446259
		s2.967926,24.5482483,6.1268311,56.2588501l25.5765076,35.4618683
		c40.6643372-21.7366638,64.3935852-33.1855469,114.264801-63.6322174c0-0.0000763,0.0002441-0.0000763,0.0004883-0.0001984
		c-0.0475464,3.5098724-0.1528931,7.0077972-0.3132935,10.4931946c-0.0438232,0.9473419-0.1240234,1.8864594-0.1757812,2.8319244
		c-0.1389771,2.5327148-0.2749634,5.0661774-0.4716797,7.5852509c-0.0944214,1.2111206-0.2316284,2.4117279-0.3391724,3.619751
		c-0.1997681,2.2419586-0.3865356,4.4872131-0.6306152,6.7179718c-0.1486206,1.3558807-0.3414307,2.7001801-0.5060425,4.0518951
		c-0.2520142,2.0703735-0.4871216,4.14505-0.7764893,6.2053223c-0.2072144,1.4762421-0.4594727,2.9395752-0.6856079,4.4107056
		c-0.295105,1.9207001-0.5708008,3.846756-0.8972778,5.7582397c-0.2634888,1.5437317-0.5720215,3.073822-0.8556519,4.6113586
		c-0.3372192,1.8264465-0.6539917,3.6594849-1.0188599,5.4774475c-0.3095093,1.5427856-0.6621704,3.0713806-0.991394,4.6077576
		c-0.3852539,1.7969971-0.7510986,3.6002197-1.1624756,5.3881226c-0.3601074,1.5661316-0.762085,3.1174316-1.142334,4.6765442
		c-0.4251099,1.7431335-0.8310547,3.4932556-1.2803345,5.2275391c-0.4138794,1.5973206-0.8676147,3.178833-1.3014526,4.7685547
		c-0.1374512,0.5031433-0.2729492,1.0071106-0.4124146,1.509552l76.2462769-0.0134583
		c16.994812,0,31.9830933,0.9804688,43.2954102,13.0318909c11.7784424,12.5453186,11.5961304,29.6192017,11.3204956,55.4631042
		l-0.0787354,7.4079895l-0.3399048,23.8334351l-0.2719727,21.5147095l-31.4915161-33.1418762l-2.2973633,3.1429749
		l-10.3646851,14.1783142l77.4902344,87.6271362l11.9968262,13.5663147h-18.1099854H489.918396
		c-0.5792847,0.6660461-1.1593933,1.339447-1.7380371,2.0001526c-0.1307373,0.1491699-0.2617493,0.3027039-0.3924866,0.4517517
		c-1.7880859,2.0383606-3.5719299,4.0474854-5.3519287,6.0336914c-0.0780945,0.0870361-0.1564026,0.1768188-0.2344666,0.263855
		c-1.839386,2.0505676-3.672699,4.0717468-5.4997559,6.0656738c-0.0169373,0.0185547-0.0342407,0.0378418-0.051178,0.0562744
		c-46.0526123,50.2480164-87.5992737,82.3075867-97.0330505,88.7836609
		c-0.0514221,0.0354004-0.1129456,0.0789795-0.1624756,0.112854c-0.2666016,0.1818848-0.4844055,0.3255005-0.6947021,0.4630737
		c-0.0860291,0.0563965-0.1878967,0.1252441-0.2644653,0.1743164c-0.1521606,0.0971069-0.2586365,0.1593628-0.3724365,0.2269897
		c-0.0820618,0.0488281-0.1791992,0.1096191-0.2410889,0.1430664c-0.0733337,0.0396118-0.1043396,0.0473633-0.1488037,0.0650024
		c-0.0362244,0.0145874-0.1038208,0.0527954-0.120636,0.0527954c-0.0069885,0-0.0125732-0.0012207-0.0162048-0.0038452
		c-0.0036011,0.0026245-0.0089722,0.0038452-0.0161743,0.0038452c-0.0171814,0-0.0859375-0.0386963-0.1231689-0.0536499
		c-0.0437012-0.0177002-0.0725708-0.024292-0.1434326-0.0623779c-0.0784302-0.0422363-0.1999817-0.1175537-0.3111572-0.1848145
		c-0.0906677-0.0548706-0.1640015-0.0964966-0.276062-0.1679688c-0.1578979-0.1004639-0.3612366-0.2366943-0.5613403-0.3699341
		c-0.1154175-0.0769653-0.2120667-0.1393433-0.3411865-0.2272339c-0.255127-0.1734619-0.5573425-0.3846436-0.865387-0.6003418
		c-0.1175537-0.0823975-0.2174072-0.1505127-0.3425598-0.2390747c-0.3643494-0.2576294-0.776001-0.5539551-1.2034912-0.8630371
		c-0.1051941-0.0760498-0.1957397-0.1400757-0.3046875-0.2193604c-0.4754028-0.3455811-0.9977722-0.7305908-1.5432739-1.1350098
		c-0.0899048-0.0665894-0.1682434-0.1236572-0.2600098-0.1918945c-0.594696-0.4421387-1.2352295-0.9238892-1.9067383-1.432312
		c-0.0597839-0.0453491-0.1121826-0.0842896-0.1725769-0.130127c-0.7115173-0.5395508-1.4672241-1.1182861-2.2598877-1.7297974
		c-0.0328979-0.0254517-0.0622864-0.0476074-0.0952759-0.0731201c-0.8211975-0.6339111-1.6847229-1.3067017-2.5888672-2.0164185
		c-0.0101929-0.0081177-0.0195312-0.0151978-0.0297546-0.0233154c-0.9091187-0.7138672-1.8591919-1.4661865-2.8484802-2.2555542
		c-0.0104675-0.0083008-0.02005-0.0159302-0.0306396-0.024231c-1.9843445-1.5835571-4.1254272-3.3180542-6.4103394-5.1990356
		c-0.0204163-0.0169678-0.0396118-0.0324097-0.0601501-0.0493164c-1.1252747-0.9266968-2.2860413-1.8901978-3.4787903-2.8873291
		c-0.0307617-0.0258179-0.0596619-0.0495605-0.0905457-0.0753784c-1.2093201-1.0112915-2.4523926-2.0592651-3.7274475-3.1420898
		c-0.0127258-0.0108032-0.0247803-0.0209351-0.0376282-0.0317383c-1.2719421-1.0803223-2.5756531-2.1966553-3.9095154-3.3470459
		c-0.0212708-0.0183105-0.0414429-0.0355225-0.0627441-0.053833c-1.2886353-1.1116943-2.6075439-2.2590942-3.950592-3.4353027
		c-0.0762024-0.0667725-0.1491699-0.1296387-0.2255249-0.1966553c-1.3234863-1.1600952-2.6756592-2.3555298-4.0487061-3.5770264
		c-0.0968933-0.0861816-0.1896362-0.1674805-0.2866516-0.2539062c-1.3684692-1.218811-2.7637024-2.47229-4.1779785-3.7509766
		c-0.1070862-0.0967407-0.2102966-0.1887817-0.3177795-0.2860107c-1.385498-1.2541504-2.7958069-2.5426025-4.222168-3.8532715
		c-0.1475525-0.135437-0.2903748-0.2648315-0.4382935-0.4009399c-1.3947449-1.2836304-2.8123779-2.6011963-4.243103-3.9376221
		c-0.1874084-0.1751099-0.3698425-0.3428345-0.5578613-0.5187988c-1.408905-1.3188477-2.8392639-2.6711426-4.2801819-4.0402222
		c-0.2171631-0.2063599-0.4292297-0.404541-0.6471252-0.6121216c-1.4298706-1.3617554-2.8789978-2.7564697-4.3374939-4.166687
		c-0.2370911-0.2293701-0.4691772-0.4500122-0.7070312-0.680481c-1.4411621-1.3969727-2.8999023-2.8265381-4.3662415-4.2698364
		c-0.2649536-0.2607422-0.5250854-0.5126953-0.7909241-0.7750244c-1.4436951-1.4251099-2.9031677-2.882019-4.3686218-4.3510742
		c-0.2971191-0.2978516-0.5893555-0.5861206-0.8873291-0.8856812c-1.4282227-1.4362183-2.8702698-2.9040527-4.3166809-4.3812256
		c-0.3460388-0.3533325-0.6873474-0.6962891-1.0342407-1.0518799c-1.4266357-1.4625244-2.8653259-2.9557495-4.307251-4.4571533
		c-0.3704224-0.3856812-0.7366333-0.7608032-1.1079407-1.1490479c-1.4451904-1.5110474-2.9007874-3.0526123-4.3591614-4.6019897
		c-0.3735657-0.3967285-0.7433777-0.7830811-1.1176758-1.182312c-1.4200134-1.5150146-2.8483582-3.0600586-4.278595-4.6106567
		c-0.4246216-0.4605103-0.8459778-0.9096069-1.2714539-1.3730774c-1.3951111-1.5198669-2.7966919-3.0692749-4.1994019-4.6223755
		c-0.4624634-0.512146-0.9224243-1.0128479-1.3856506-1.5284729c-1.375061-1.5308228-2.7546997-3.0904236-4.1350098-4.6525269
		c-0.4949646-0.5600891-0.987793-1.1084595-1.4832458-1.6725159c-0.8189697-0.9322815-1.639801-1.8840942-2.4599915-2.8272095
		c-87.579361,0.007843-199.1716309,0.0262756-212.0679016,0.0700989h-0.1179199
		c-0.6285706,0.0021362-1.4893684,0.005249-1.6806297,0.0424805c-0.0291367,0.0123291-0.7347832,0.3233643-2.5427971,2.225647
		l-4.2368698,4.4584961l-17.5375862,18.4537964l-14.029892,14.7628174l-0.0458231-20.3661499l-0.0572786-25.4577332
		l-0.0138216-6.1495972c-0.0682364-29.7203674-0.0993662-43.2849426,4.6306009-53.9157104
		c8.3589382-18.7871399,26.1262608-18.8797607,39.0994873-18.9473877c4.7713089-0.0249023,9.7528038-0.0407104,14.779995-0.0495605
		c-9.9992218-7.6389771-19.5526695-14.6720276-28.5552444-21.0203552l-1.4820213-1.0438538
		c-17.0215797-11.9938965-26.3978367-18.6008606-27.6203613-38.0962524
		c-0.7039042-11.2268372-0.8956633-18.8409119-0.6408978-25.4598389
		c1.016695-26.432251,22.5714989-36.0267944,36.8117027-36.0267944h4.1136017l93.2174225-0.0003662
		c-0.171463-0.6173706-0.3379517-1.2362976-0.5063019-1.8547668c-0.4109039-1.5092163-0.842865-3.0103149-1.2357178-4.5264587
		c-0.4606018-1.7779846-0.877243-3.5715637-1.3124237-5.3587036c-0.3690796-1.5154724-0.7600708-3.0231323-1.1104584-4.5451965
		c-0.4156494-1.8061218-0.7853394-3.627655-1.1740875-5.442627c-0.3252411-1.5188904-0.6740265-3.0296631-0.9800873-4.554718
		c-0.3669586-1.8280029-0.6856079-3.6711731-1.0245361-5.5080261c-0.281662-1.5268555-0.587738-3.0459137-0.8495941-4.5786133
		c-0.3225098-1.8882599-0.594574-3.7910919-0.8864441-5.6882019c-0.2301178-1.4949036-0.4861298-2.9821472-0.6969452-4.4825439
		c-0.2781677-1.9815216-0.5029297-3.9773102-0.7468567-5.9680481c-0.1752014-1.4302216-0.3781586-2.8529816-0.5353088-4.2878723
		c-0.2303619-2.103302-0.4040527-4.2211761-0.5949402-6.3346405c-0.1205444-1.3352661-0.270462-2.6630096-0.375061-4.0021515
		c-0.187149-2.39711-0.3139038-4.8084106-0.448761-7.2177887c-0.0596466-1.0670013-0.1489258-2.1269684-0.1982269-3.1961975
		c-0.1606293-3.4844818-0.2657318-6.9814606-0.3132935-10.4905853
		c48.3179779,27.3830872,92.2242584,51.5224152,116.2954559,64.6639709l22.5738678-25.1784668
		c2.1994934-22.6549988,4.1033936-39.6745758,5.3843079-50.4946289l1.7148743-17.0791779
		C280.2886963,173.4710846,317.3413391,136.5264587,376.8108521,136.5264587 M376.8108521,130.4061127
		c-61.2945557,0-99.2575684,37.1494751-100.8435669,38.7309875l-1.5497742,1.5451508l-0.2185059,2.1773987l-1.7092896,17.0228729
		c-1.1898804,10.0553894-3.0426025,26.5298309-5.1970215,48.5711975l-17.9973145,20.0739594
		c-23.4697723-12.8327637-65.8289185-36.1506348-111.957489-62.2930145l-9.2818604-5.2601776l0.1444397,10.6677704
		c0.047821,3.5357056,0.1552734,7.1322479,0.3191376,10.6894989c0.0303802,0.6582642,0.0743408,1.3130493,0.1189117,1.9678192
		c0.0291443,0.4289703,0.0584106,0.8578186,0.0824432,1.2880859l0.0478058,0.858429
		c0.1177979,2.1209412,0.2397003,4.3140869,0.4099121,6.494278c0.0667419,0.8542023,0.1505432,1.7039185,0.234726,2.5535126
		c0.0503082,0.5070953,0.1006165,1.0140686,0.1464386,1.5222931l0.1312408,1.4726257
		c0.1469269,1.6624451,0.2943573,3.3247681,0.4754028,4.9784393c0.102356,0.9347076,0.2230225,1.864975,0.3440552,2.7951355
		c0.0679779,0.5232239,0.1360931,1.0463867,0.2003479,1.5705566l0.1886444,1.5618286
		c0.1806793,1.5069885,0.3617249,3.0137329,0.5721588,4.512619c0.1395874,0.9934082,0.2976074,1.9806061,0.4561157,2.9677277
		c0.0852966,0.531311,0.1705933,1.0627594,0.2525177,1.5951385l0.2419434,1.5929718
		c0.2111816,1.4008942,0.4228668,2.8016052,0.6608276,4.1947784c0.1755676,1.0274658,0.369812,2.0490723,0.5644379,3.0706482
		l0.299469,1.5881042l0.2928619,1.607605c0.2415771,1.334137,0.4833832,2.6679993,0.7496033,3.9944153
		c0.2044678,1.0181274,0.4268494,2.0302734,0.6496124,3.042511l0.3464203,1.5887756l0.335083,1.5805359
		c0.2784119,1.3203735,0.5570831,2.6407166,0.8591766,3.9532776c0.2355804,1.0233459,0.4883575,2.0395508,0.7415009,3.0557251
		l0.3868866,1.565033l0.379776,1.5733643c0.2081909,0.8668823,0.4165192,1.7337952,0.6315613,2.5982666l-85.2276764,0.0003052
		h-4.1136017c-9.6015091,0-19.4914055,3.4259949-27.1337395,9.3995972
		c-6.8401833,5.3464661-15.1328793,15.3271179-15.7938232,32.5122681c-0.2631083,6.8358154-0.069108,14.6349792,0.6483688,26.078064
		c1.4063134,22.4250183,12.8624058,30.4973145,30.203373,42.7163086l1.4832687,1.0447388
		c4.4615021,3.1462097,9.084259,6.4801941,13.8337746,9.9768066c-13.0991135,0.2120361-32.0950623,2.0269165-41.2256432,22.5487061
		c-5.2615366,11.8250427-5.2294111,25.7992859-5.1591825,56.4170532l0.0138216,6.1498413l0.0572786,25.4577026l0.0458231,20.3661499
		l0.0342426,15.2745972l10.5224514-11.0720825l14.0300159-14.7628174l17.5374622-18.4537659l4.2371216-4.4585266
		c0.1282539-0.1349792,0.246048-0.2562561,0.3540039-0.3653259c14.5630798-0.0420837,120.6541138-0.0603943,208.8280487-0.0684814
		c0.2176514,0.2497864,0.4351807,0.4985657,0.65271,0.7460938c0,0,4.2770996,4.8324585,5.6631165,6.3754883
		c0,0,4.223175,4.6678162,5.629364,6.1996765c0,0,4.1622925,4.5037231,5.5932617,6.0303955l0.6466064,0.6845093l0.4801636,0.5076904
		c1.4694214,1.5609131,5.5097046,5.7955933,5.5097046,5.7955933c1.4523621,1.5123901,4.9353943,5.0970459,4.9353943,5.0970459
		l0.4467773,0.4539795c1.4576111,1.4887085,2.9108887,2.9677734,4.3500671,4.4150391l0.5041809,0.50354l0.3892517,0.3884277
		c1.4771423,1.480896,2.9478455,2.9488525,4.4025879,4.3847656l0.4550171,0.4460449l0.3434143,0.3363037
		c1.4764099,1.453125,2.9463501,2.8936768,4.3986206,4.3015137l0.3917236,0.3771362l0.319397,0.307312
		c1.4711914,1.4224243,2.9315491,2.8279419,4.3725891,4.2001343l0.3771667,0.3571777l0.2754517,0.2603149
		c1.4515076,1.3792114,2.8929443,2.7419434,4.3128357,4.0710449l0.322998,0.3004761l0.239563,0.2227173
		c1.441803,1.3468018,2.8705444,2.6746826,4.2760925,3.9683228l0.2545166,0.2328491l0.190033,0.1737061
		c1.4350586,1.3187866,2.8568115,2.6174927,4.2532959,3.8817139l0.1856689,0.1671143l0.1359558,0.1223145
		c1.4246216,1.288147,2.8311768,2.5517578,4.2107239,3.7804565l0.1632385,0.1445923l0.1253967,0.1109619
		c1.3851624,1.2324829,2.7485046,2.4376831,4.0829773,3.6074219l0.1390686,0.1212769l0.0869141,0.0755615
		c1.3566589,1.1881714,2.6870117,2.3457031,3.9868469,3.4671021c1.4093018,1.2149658,2.7246094,2.3413696,4.0081482,3.4313965
		c1.3249817,1.125,2.579895,2.1830444,3.8006592,3.2039795l0.0914001,0.0760498
		c1.2045898,1.0071411,2.3770752,1.9802246,3.5135498,2.9161377c2.3717041,1.9522095,4.5370789,3.7064209,6.5438232,5.3077393
		c1.0333862,0.8242798,1.9957886,1.5866089,2.916748,2.3096924c0.9483337,0.7442627,1.8249207,1.4273682,2.658844,2.0708618
		l0.0966187,0.0743408c0.8067627,0.6223145,1.5758972,1.2113037,2.2998657,1.7603149l0.1089478,0.0821533
		c0.7538452,0.5704346,1.4084167,1.0628052,2.0163269,1.5147705l0.164978,0.1220703l0.1018677,0.0750732
		c0.562439,0.4168701,1.1006165,0.8134766,1.5904846,1.1694946l0.2105408,0.1517944l0.1062317,0.0762939
		c0.4462585,0.3226318,0.8756104,0.6318359,1.2556458,0.9003906l0.2515259,0.1758423l0.1140747,0.0794067
		c0.3334351,0.2336426,0.6601868,0.4616089,0.93573,0.6490479l0.2935181,0.196106l0.0921326,0.0609741
		c0.2885132,0.1922607,1.7259827,1.2647095,2.5004578,1.755249c0.9562988,0.6056519,1.3388367,0.9244385,2.3269958,1.49823
		c1.3388367-0.8287964,5.0037842-3.3685303,5.3081055-3.5762329l0.1368408-0.0947266
		c11.1463013-7.6521606,53.0050049-40.4959717,98.1208496-89.7219238l0.0090942-0.0098267l0.0600281-0.0661621
		c1.8240662-1.9904175,3.671814-4.0275269,5.5257568-6.0944214l0.1454468-0.1635132l0.0888977-0.1000977
		c1.7965698-2.0047607,3.5947266-4.0300598,5.3972778-6.0848694l0.2268677-0.2609863l0.0924988-0.1064453h272.5991516h18.1099854
		H797l-8.9977417-10.1748047l-11.9968262-13.5663147l-74.2271118-83.9371643l5.4280396-7.4255371l26.4407959,27.826416
		l10.3666382,10.9098511l0.1900635-15.0483398l0.2719116-21.5147095l0.3399658-23.8234863l0.0789185-7.4302063
		c0.2809448-26.3444214,0.4838867-45.3782654-12.9785767-59.7172852
		c-12.9711304-13.8187256-29.9918213-14.9631042-47.7573853-14.9631042l-68.2589111,0.012085
		c0.1934814-0.7810364,0.3815308-1.5637817,0.5695801-2.3465576l0.3832397-1.5872498l0.3880005-1.5686035
		c0.2639771-1.059845,0.52771-2.119751,0.7730103-3.1863098c0.2963867-1.2877808,0.5700684-2.5837708,0.8435059-3.880188
		l0.3386841-1.596405l0.3474121-1.5934143c0.2266235-1.0291443,0.4527588-2.0583496,0.6604614-3.0937195
		c0.2634277-1.3130493,0.5030518-2.6340027,0.7421265-3.9549561l0.2946167-1.6153259l0.3023071-1.603241
		c0.1957397-1.02771,0.3912354-2.0556183,0.5678101-3.0892334c0.243042-1.4240723,0.4594727-2.8562775,0.6751099-4.288559
		l0.2383423-1.5703583c0.0806885-0.5246582,0.164856-1.0491943,0.2490234-1.5737305
		c0.1559448-0.9700623,0.3113403-1.9401245,0.4480591-2.9156647c0.2263794-1.6104126,0.4205933-3.2303925,0.614624-4.8504486
		l0.1765747-1.4658356c0.0620117-0.509903,0.128479-1.0186768,0.194458-1.5274658
		c0.1126099-0.8643494,0.2246704-1.7285614,0.3200073-2.5972748c0.2039795-1.8644714,0.3690796-3.737854,0.5341797-5.6112518
		l0.1085815-1.230545c0.0421143-0.4739838,0.0894165-0.9465942,0.1362305-1.4190826
		c0.0749512-0.7547607,0.1494141-1.5094757,0.2087402-2.2679138c0.1929932-2.4721985,0.3294678-4.9637604,0.4614258-7.3733826
		l0.0194092-0.3523254c0.0211792-0.3874359,0.0478516-0.7731934,0.0739746-1.1591339
		c0.0391235-0.5742798,0.0776978-1.1485748,0.1046143-1.725708c0.1638794-3.5648499,0.2714233-7.1619415,0.3192749-10.6926117
		l0.1501465-11.081665l-9.4591675,5.7749329c-39.425354,24.069458-61.9916382,35.9773712-90.5617065,51.0533447
		c-5.9691772,3.1498871-12.1032104,6.3866882-18.6777954,9.8865814l-21.4866943-29.791214
		c-3.068634-30.628418-5.947998-54.5059967-5.9771423-54.7477417l-0.26297-2.174469l-1.5826416-1.5138397
		C477.4856873,167.4704132,438.0323181,130.4061127,376.8108521,130.4061127L376.8108521,130.4061127z"/>
	<path class="st1" d="M771.4206543,482.5447388l-77.4902344-87.6271362l10.3646851-14.1783142l2.2973633-3.1429749
		l31.4915161,33.1418762l0.2719727-21.5147095l0.3399048-23.833374l0.0787354-7.4079895
		c0.2756348-25.8439636,0.4579468-42.9178467-11.3204956-55.4631042
		c-11.3123169-12.0514221-26.3005981-13.0320129-43.2954102-13.0320129l-76.2462769,0.0135803
		c0.1394653-0.5024414,0.2749634-1.0064697,0.4124146-1.5096741c0.4338379-1.5895996,0.8875732-3.1712341,1.3014526-4.7684326
		c0.4492798-1.7344055,0.8552246-3.4844055,1.2803345-5.2276611c0.380249-1.5591125,0.7822266-3.1103516,1.142334-4.6764221
		c0.411377-1.7879639,0.7772217-3.5912476,1.1624756-5.3881836c0.3292236-1.5363159,0.6818848-3.0649109,0.991394-4.6076965
		c0.3648682-1.8179626,0.6816406-3.651001,1.0188599-5.4775696c0.2836304-1.5375366,0.5921631-3.0676422,0.8556519-4.6112976
		c0.3264771-1.9114838,0.6021729-3.8375397,0.8972778-5.7582397c0.2261353-1.4710541,0.4783936-2.9344025,0.6856079-4.4107056
		c0.2893677-2.0602722,0.5244751-4.1350098,0.7764893-6.2053833c0.1646118-1.3516541,0.3574219-2.6959534,0.5060425-4.0518341
		c0.2440796-2.2307587,0.4308472-4.4760742,0.6306152-6.7180328c0.1075439-1.207962,0.244751-2.4085693,0.3391724-3.6196289
		c0.1967163-2.5191345,0.3327026-5.052597,0.4716797-7.5853119c0.0517578-0.9454651,0.131958-1.8845825,0.1757812-2.8319244
		c0.1604004-3.4853973,0.2657471-6.9832611,0.3132935-10.4931946c-0.0002441,0.0001221-0.0004883,0.0001221-0.0004883,0.0002594
		c-49.8712158,30.4466858-73.6004639,41.8955536-114.264801,63.6321564l-25.5765076-35.4618073
		c-3.158905-31.7106628-6.1268311-56.2589111-6.1268311-56.2589111s-38.624176-36.9446869-98.093811-36.9446869
		c-59.4695129,0-96.5221558,36.9446869-96.5221558,36.9446869l-1.7148743,17.0791168
		c-1.2809143,10.8201752-3.1848145,27.8396301-5.3843079,50.4946899l-22.5738678,25.1785583
		c-24.0711975-13.1417084-67.977478-37.2810364-116.2954559-64.6640625
		c0.0475616,3.5090637,0.1526642,7.0060425,0.3132935,10.4905853c0.0493011,1.0692291,0.1385803,2.1292572,0.1982269,3.1961365
		c0.1348572,2.4094391,0.2616119,4.8207397,0.448761,7.2178497c0.104599,1.3390808,0.2545166,2.6669464,0.375061,4.0021515
		c0.1908875,2.1134644,0.3645782,4.2312775,0.5949402,6.3346405c0.1571503,1.4349518,0.3601074,2.8577118,0.5353088,4.2879333
		c0.243927,1.9906769,0.468689,3.9864655,0.7468567,5.967926c0.2108154,1.5004578,0.4668274,2.9877014,0.6969452,4.482666
		c0.2918701,1.897049,0.5639343,3.799942,0.8864441,5.6881409c0.2618561,1.5326996,0.5679321,3.0518188,0.8495941,4.5785522
		c0.3389282,1.8369141,0.6575775,3.6800232,1.0245361,5.5080872c0.3060608,1.5249939,0.6548462,3.0358887,0.9800873,4.554657
		c0.3887482,1.815094,0.7584381,3.6365662,1.1740875,5.442688c0.3503876,1.5221252,0.7413788,3.0296631,1.1104584,4.5451965
		c0.4351807,1.7870789,0.8518219,3.58078,1.3124237,5.3586426c0.3928528,1.5161438,0.8248138,3.0172119,1.2357178,4.5265198
		c0.1683502,0.6184692,0.3348389,1.2374573,0.5063019,1.8548279l-93.2174225,0.0002441h-4.1136017
		c-14.2402039,0-35.7950096,9.5945435-36.8117027,36.0268555c-0.2547655,6.618927-0.0630064,14.2330017,0.6408978,25.4598389
		c1.2225237,19.4953918,10.5987806,26.102356,27.6203613,38.0962524l1.4820213,1.0438538
		c9.0025749,6.3483276,18.5560226,13.3813782,28.5552444,21.0203552c-5.0271912,0.0088501-10.0086861,0.0246582-14.779995,0.0495605
		c-12.9732246,0.067627-30.7405472,0.1602478-39.0994873,18.9473877
		c-4.7299671,10.6307678-4.6988373,24.195343-4.6306009,53.9157104l0.0138216,6.1495972l0.0572786,25.4577332l0.0458231,20.3661499
		l14.029892-14.7628174l17.5375862-18.4537964l4.2368698-4.4584961c1.8080139-1.9022827,2.5136604-2.2133179,2.5427971-2.225647
		c0.1912613-0.0372314,1.0520592-0.0403442,1.6806297-0.0424805h0.1179199
		c12.8962746-0.0438232,124.4885406-0.0622559,212.0679016-0.0700989c0.8201904,0.9431152,1.6410217,1.894928,2.4599915,2.8272095
		c0.4954529,0.5640564,0.9882812,1.1124268,1.4832458,1.6725159c1.3803101,1.5621033,2.7599487,3.1217041,4.1350098,4.6525269
		c0.4632263,0.515625,0.9231873,1.0163269,1.3856506,1.5284729c1.40271,1.5531006,2.8042908,3.1025085,4.1994019,4.6223755
		c0.4254761,0.4634705,0.8468323,0.9125671,1.2714539,1.3730774c1.4302368,1.5505981,2.8585815,3.0956421,4.278595,4.6106567
		c0.3742981,0.399231,0.7441101,0.7855835,1.1176758,1.182312c1.458374,1.5493774,2.9139709,3.0909424,4.3591614,4.6019897
		c0.3713074,0.3882446,0.7375183,0.7633667,1.1079407,1.1490479c1.441925,1.5014038,2.8806152,2.9946289,4.307251,4.4571533
		c0.3468933,0.3555908,0.6882019,0.6985474,1.0342407,1.0518799c1.4464111,1.4771729,2.8884583,2.9450073,4.3166809,4.3812256
		c0.2979736,0.2995605,0.59021,0.5878296,0.8873291,0.8856812c1.4654541,1.4690552,2.9249268,2.9259644,4.3686218,4.3510742
		c0.2658386,0.2623291,0.5259705,0.5142822,0.7909241,0.7750244c1.4663391,1.4432983,2.9250793,2.8728638,4.3662415,4.2698364
		c0.237854,0.2304688,0.4699402,0.4511108,0.7070312,0.680481c1.4584961,1.4102173,2.9076233,2.8049316,4.3374939,4.166687
		c0.2178955,0.2075806,0.4299622,0.4057617,0.6471252,0.6121216c1.440918,1.3690796,2.8712769,2.7213745,4.2801819,4.0402222
		c0.1880188,0.1759644,0.3704529,0.343689,0.5578613,0.5187988c1.4307251,1.3364258,2.8483582,2.6539917,4.243103,3.9376221
		c0.1479187,0.1361084,0.290741,0.2655029,0.4382935,0.4009399c1.4263611,1.3106689,2.8366699,2.5991211,4.222168,3.8532715
		c0.1074829,0.097229,0.2106934,0.18927,0.3177795,0.2860107c1.4142761,1.2786865,2.8095093,2.5321655,4.1779785,3.7509766
		c0.0970154,0.0864258,0.1897583,0.1677246,0.2866516,0.2539062c1.3730469,1.2214966,2.7252197,2.4169312,4.0487061,3.5770264
		c0.076355,0.0670166,0.1493225,0.1298828,0.2255249,0.1966553c1.3430481,1.1762085,2.6619568,2.3236084,3.950592,3.4353027
		c0.0213013,0.0183105,0.0414734,0.0355225,0.0627441,0.053833c1.3338623,1.1503906,2.6375732,2.2667236,3.9095154,3.3470459
		c0.0128479,0.0108032,0.0249023,0.0209351,0.0376282,0.0317383c1.2750549,1.0828247,2.5181274,2.1307983,3.7274475,3.1420898
		c0.0308838,0.0258179,0.0597839,0.0495605,0.0905457,0.0753784c1.192749,0.9971313,2.3535156,1.9606323,3.4787903,2.8873291
		c0.0205383,0.0169067,0.0397339,0.0323486,0.0601501,0.0493164c2.2849121,1.8809814,4.4259949,3.6154785,6.4103394,5.1990356
		c0.0105896,0.0083008,0.0201721,0.0159302,0.0306396,0.024231c0.9892883,0.7893677,1.9393616,1.541687,2.8484802,2.2555542
		c0.0102234,0.0081177,0.0195618,0.0151978,0.0297546,0.0233154c0.9041443,0.7097168,1.7676697,1.3825073,2.5888672,2.0164185
		c0.0329895,0.0255127,0.0623779,0.0476685,0.0952759,0.0731201c0.7926636,0.6115112,1.5483704,1.1902466,2.2598877,1.7297974
		c0.0603943,0.0458374,0.112793,0.0847778,0.1725769,0.130127c0.6715088,0.5084229,1.3120422,0.9901733,1.9067383,1.432312
		c0.0917664,0.0682373,0.170105,0.1253052,0.2600098,0.1918945c0.5455017,0.4044189,1.0678711,0.7894287,1.5432739,1.1350098
		c0.1089478,0.0792847,0.1994934,0.1433105,0.3046875,0.2193604c0.4274902,0.309082,0.8391418,0.6054077,1.2034912,0.8630371
		c0.1251526,0.088562,0.2250061,0.1566772,0.3425598,0.2390747c0.3080444,0.2156982,0.61026,0.4268799,0.865387,0.6003418
		c0.1291199,0.0878906,0.225769,0.1502686,0.3411865,0.2272339c0.2001038,0.1332397,0.4034424,0.2694702,0.5613403,0.3699341
		c0.1120605,0.0714722,0.1853943,0.1130981,0.276062,0.1679688c0.1111755,0.0672607,0.2327271,0.1425781,0.3111572,0.1848145
		c0.0708618,0.0380859,0.0997314,0.0446777,0.1434326,0.0623779c0.0372314,0.0149536,0.1059875,0.0536499,0.1231689,0.0536499
		c0.0072021,0,0.0125732-0.0012207,0.0161743-0.0038452c0.0036316,0.0026245,0.0092163,0.0038452,0.0162048,0.0038452
		c0.0168152,0,0.0844116-0.038208,0.120636-0.0527954c0.0444641-0.0176392,0.07547-0.0253906,0.1488037-0.0650024
		c0.0618896-0.0334473,0.1590271-0.0942383,0.2410889-0.1430664c0.1138-0.067627,0.2202759-0.1298828,0.3724365-0.2269897
		c0.0765686-0.0490723,0.1784363-0.1179199,0.2644653-0.1743164c0.2102966-0.1375732,0.4281006-0.281189,0.6947021-0.4630737
		c0.04953-0.0338745,0.1110535-0.0774536,0.1624756-0.112854c9.4337769-6.4760742,50.9804382-38.5356445,97.0330505-88.7836609
		c0.0169373-0.0184326,0.0342407-0.0377197,0.051178-0.0562744c1.8270569-1.993927,3.6603699-4.0151062,5.4997559-6.0656738
		c0.078064-0.0870361,0.1563721-0.1768188,0.2344666-0.263855c1.7799988-1.9862061,3.5638428-3.9953308,5.3519287-6.0336914
		c0.1307373-0.1490479,0.2617493-0.3025818,0.3924866-0.4517517c0.5786438-0.6607056,1.1587524-1.3341064,1.7380371-2.0001526
		h275.3890991h18.1099854L771.4206543,482.5447388z"/>
	<g>
		
			<linearGradient id="SVGID_1_" gradientUnits="userSpaceOnUse" x1="211.0059814" y1="427.2610474" x2="616.1381226" y2="193.3578949">
			<stop  offset="0" style="stop-color:#093B99"/>
			<stop  offset="0.0145115" style="stop-color:#1F56AC"/>
			<stop  offset="0.0353252" style="stop-color:#3975C2"/>
			<stop  offset="0.058886" style="stop-color:#4F91D5"/>
			<stop  offset="0.0855161" style="stop-color:#61A7E5"/>
			<stop  offset="0.1166165" style="stop-color:#6FB8F1"/>
			<stop  offset="0.155053" style="stop-color:#79C3F9"/>
			<stop  offset="0.2089988" style="stop-color:#7ECAFE"/>
			<stop  offset="0.3587368" style="stop-color:#80CCFF"/>
		</linearGradient>
		<path class="st2" d="M620.87323,201.5594025c-45.402832,38.0397034-85.5841064,53.5254822-135.6013184,75.1611786
			c-4.0100403-50.6735382-10.3672485-100.0016327-10.3672485-100.0016327s-38.6242371-40.1925507-98.0937805-40.1925507
			s-96.5221558,40.1925507-96.5221558,40.1925507s-4.8101501,35.6576233-10.3673706,100.0016327
			c-43.5792389-15.2544556-79.1070099-29.5439911-135.6012268-75.1611786
			c3.0451508,224.8557281,241.9404297,400.4019775,243.2765503,399.440918
			C378.9328308,601.9613647,617.8276367,426.4443665,620.87323,201.5594025z"/>
		<g>
			
				<linearGradient id="SVGID_2_" gradientUnits="userSpaceOnUse" x1="269.9213562" y1="231.5458069" x2="485.2719116" y2="231.5458069">
				<stop  offset="0" style="stop-color:#093B99"/>
				<stop  offset="0.0600705" style="stop-color:#1D53AA"/>
				<stop  offset="0.2319649" style="stop-color:#5294D8"/>
				<stop  offset="0.3572037" style="stop-color:#73BDF4"/>
				<stop  offset="0.421817" style="stop-color:#80CCFF"/>
			</linearGradient>
			<path class="st3" d="M485.2719116,276.7205811c-4.0100403-50.6735382-10.3672485-100.0016327-10.3672485-100.0016327
				s-38.6242371-38.4901276-98.0937805-38.4901276s-96.5221558,38.4901276-96.5221558,38.4901276
				s-4.8101501,39.737854-10.3673706,104.0818634C311.2929688,340.7137451,434.7198792,339.6936951,485.2719116,276.7205811z"/>
			<g>
				
					<linearGradient id="SVGID_3_" gradientUnits="userSpaceOnUse" x1="377.2346191" y1="401.2818298" x2="620.87323" y2="401.2818298">
					<stop  offset="0" style="stop-color:#093B99"/>
					<stop  offset="0.0600705" style="stop-color:#1D53AA"/>
					<stop  offset="0.2319649" style="stop-color:#5294D8"/>
					<stop  offset="0.3572037" style="stop-color:#73BDF4"/>
					<stop  offset="0.421817" style="stop-color:#80CCFF"/>
				</linearGradient>
				<path class="st4" d="M620.87323,201.5594025c-45.402832,38.0397034-139.6815491,85.3617401-139.6815491,85.3617401
					l-103.9570618,92.6430054c0,0,0,0,0.0779724,87.9544373c0.0093994,10.585907,0.019928,21.0452271,0.0317383,31.1941223
					c0.0534668,45.9294434,0.1332703,93.1040649,0.2523499,102.2875977
					C378.9328308,601.9613647,617.8276367,426.4443665,620.87323,201.5594025z"/>
				
					<linearGradient id="SVGID_4_" gradientUnits="userSpaceOnUse" x1="563.5667114" y1="265.8554077" x2="624.6671143" y2="326.9558411">
					<stop  offset="0" style="stop-color:#093B99"/>
					<stop  offset="0.0698824" style="stop-color:#174DA5"/>
					<stop  offset="0.2094303" style="stop-color:#3D7AC6"/>
					<stop  offset="0.404082" style="stop-color:#79C4F9"/>
					<stop  offset="0.4252205" style="stop-color:#80CCFF"/>
				</linearGradient>
				<path class="st5" d="M617.6248169,211.7973328c-36.40271,44.4580994-50.3838501,61.0247803-96.9859009,103.0321045
					c34.0725708,49.9234009,22.0065308,35.4436646,49.9701538,66.1844788
					C599.4356689,327.3570251,610.4891968,275.8017883,617.6248169,211.7973328z"/>
				
					<linearGradient id="SVGID_5_" gradientUnits="userSpaceOnUse" x1="806.6905518" y1="265.343811" x2="868.814209" y2="327.4674377" gradientTransform="matrix(-1 0 0 1 998.9539185 0)">
					<stop  offset="0" style="stop-color:#093B99"/>
					<stop  offset="0.0698824" style="stop-color:#174DA5"/>
					<stop  offset="0.2094303" style="stop-color:#3D7AC6"/>
					<stop  offset="0.404082" style="stop-color:#79C4F9"/>
					<stop  offset="0.4252205" style="stop-color:#80CCFF"/>
				</linearGradient>
				<path class="st6" d="M138.7168732,211.7973328c29.0367889,41.0699463,48.3374634,61.0247803,94.9394684,103.0321045
					c-34.0725403,49.9234009-22.0065002,35.4436646-49.970108,66.1844788
					C154.8595886,327.3570251,146.3090363,273.6762085,138.7168732,211.7973328z"/>
				<path class="st1" d="M376.8108521,146.7269745c46.0821228,0,79.1768188,24.2480774,88.4277954,31.8600922
					c1.5315857,13.0709686,6.5381165,56.9046021,9.8643799,98.9382324l1.2423401,15.6985168l13.818573-7.5522461
					c17.3862915-9.5022583,31.2251587-16.8047791,44.6087036-23.8667908
					c24.6307983-12.9970245,44.8341675-23.6576843,75.0837402-41.6828918
					c-3.1535645,42.8644409-15.1203003,86.8420105-35.6740723,131.0104065
					c-19.1524658,41.1572266-45.7439575,82.5472107-79.0356445,123.0202637
					c-49.5756226,60.2696838-100.9884949,102.2062073-117.4020386,114.4179993l-0.1754456-0.1254272l-0.1496887,0.1078491
					c-16.4295044-12.2217407-67.796051-54.1223145-117.3926086-114.4277954
					c-33.2865753-40.4738159-59.8739166-81.8631897-79.0232697-123.0181885
					c-20.6515503-44.3830566-32.6327362-88.5758362-35.7134552-131.6325378
					c65.1329803,36.6982117,119.2033386,65.9079285,119.7853394,66.2221985l13.4664612,7.2698975l1.5290833-15.2268677
					l9.9732056-99.3256378C299.0283813,170.771347,330.9468994,146.7269745,376.8108521,146.7269745 M376.8108521,136.5263977
					c-59.4695129,0-96.5221558,36.9447632-96.5221558,36.9447632l-10.3673096,103.2493896
					c0,0-62.8241425-33.9163971-135.6011963-75.1611633c3.0367584,224.2380981,240.6300964,399.4448242,243.2603149,399.4448242
					c0.0072021,0,0.0125732-0.0012207,0.0161743-0.0038452c0.0036316,0.0026245,0.0092163,0.0038452,0.0162048,0.0038452
					c2.6016846,0,240.2229309-175.1637573,243.2604065-399.4448242
					c-57.9758911,35.3950043-80.600647,45.1012878-135.6014404,75.1611633
					c-4.0100098-50.6735077-10.3671875-103.2493896-10.3671875-103.2493896S436.2804871,136.5263977,376.8108521,136.5263977
					L376.8108521,136.5263977z"/>
			</g>
		</g>
	</g>
	<polygon class="st7" points="440.84021,442.7194519 330.6740723,442.3707886 330.6740723,490.6621399 440.84021,491.0107727 	"/>
	<path class="st1" d="M771.4206543,482.5447388l-77.4902344-87.6271362l10.3646851-14.1783142l2.2973633-3.1429749
		l31.4915161,33.1418762l0.2719727-21.5147095l0.3399048-23.833374l0.0787354-7.4079895
		c0.2756348-25.8439636,0.4579468-42.9178467-11.3204956-55.4631042
		c-11.3123169-12.0514221-26.3005981-13.0320129-43.2954102-13.0320129c0,0-73.2252197,0.0124512-160.0067749,0.0295105
		l-3.1791992-4.407959l-54.6663208-75.7948761l-4.6000671-6.3778534l-3.4439392-4.7749176l-5.6174316,1.7623138
		l-7.5028687,2.3538971l-2.5117798,0.7879639l-11.4855957-19.9482727l-4.9879761-8.6638794l-3.7347107-6.4866791
		l-6.7845154,3.1616516l-9.0615845,4.2229309l-34.5437317,16.0980225l-4.1525879,1.9352722l-3.1088562,1.448761
		l-1.1403198,3.2348785l-1.5231323,4.3208008l-0.9388733,2.6634521l-0.8252869-1.3329773l-3.7520142-6.0609436l-6.5101929,2.9032745
		l-8.6954041,3.8778839l-24.817688,11.0673523l-3.5053101,1.5632019l-2.6242371,1.1702271l-1.3120728,2.556366l-1.752594,3.4146881
		l-3.8344116,7.470871l-6.4591675-5.4391022l-6.0513611-5.0958099l-5.2810974,5.8906097l-7.0534668,7.8675842
		l-43.5988464,48.6292725l-5.4347534,6.0618286l-175.5687103,0.0004883h-4.1136017
		c-14.2402039,0-35.7950096,9.5945435-36.8117027,36.0268555c-0.2547655,6.618927-0.0630064,14.2330017,0.6408978,25.4598389
		c1.2225237,19.4953918,10.5987806,26.102356,27.6203613,38.0962524l1.4820213,1.0438538
		c9.0025749,6.3483276,18.5560226,13.3813782,28.5552444,21.0203552c-5.0271912,0.0088501-10.0086861,0.0246582-14.779995,0.0495605
		c-12.9732246,0.067627-30.7405472,0.1602478-39.0994873,18.9473877
		c-4.7299671,10.6307678-4.6988373,24.195343-4.6306009,53.9157104l0.0138216,6.1495972l0.0572786,25.4577332l0.0458231,20.3661499
		l14.029892-14.7628174l17.5375862-18.4537964l4.2368698-4.4584961c1.8080139-1.9022827,2.5136604-2.2133179,2.5427971-2.225647
		c0.1912613-0.0372314,1.0520592-0.0403442,1.6806297-0.0424805h0.1179199
		c21.4455986-0.0729675,712.0899048-0.0758362,712.0899048-0.0758362h18.1099854L771.4206543,482.5447388z M240.6205444,289.596344
		l0.5507355-0.6142578l43.5988617-48.6293945l7.0535889-7.8677216l8.0827637,6.8063202l6.2142334,5.233017l8.5128479-16.5870056
		l1.752594-3.4145508l3.5053101-1.5632019l24.8178406-11.0674744l8.6953735-3.8777618l5.0115051,8.095459l4.7833862,7.727005
		l6.6039734-18.735199l1.5231018-4.3208008l4.1525879-1.9352722l34.5437317-16.0980225l9.0615845-4.2227936l4.9882202,8.6638794
		l14.7527161,25.6228333l8.7592773-2.7480011l7.5029907-2.3539124l4.5999756,6.3778534l54.4038086,75.4310608l5.8842773,8.1583252
		l-286.6713867,0.0799561L240.6205444,289.596344z M405.8448792,463.0242004l-24.6812439,18.3815918l-2.2942505,1.7087708
		l-1.3715515-1.2328796l-19.7871399-17.7867432l-9.2523804-8.3168335c2.6780396-0.009613,5.5642395-0.0132141,8.5580444-0.0132141
		c4.4058533,0,9.0437927,0.0077209,13.6031799,0.0158081l7.2520752,0.0108337
		c12.772644,0.0132141,14.9678955,0.3887634,18.8106689,1.9896851l8.6861877,3.6201477l1.7026672,0.7096252L405.8448792,463.0242004
		z M504.0837708,409.7375488c-8.8404541,2.380188-13.0057373,1.8701477-13.0057373,1.8701477l0.1482849-26.9587708
		l-0.0450745-11.4892273l1.4608765-0.0033569l0.3750305-0.0007629c10.940094,0,19.3670044,2.4062195,23.7137451,6.7753296
		c2.6238403,2.6374207,3.9434814,6.0910645,3.9220581,10.2649536
		C520.6135864,397.8401794,517.7573853,406.0561829,504.0837708,409.7375488z M599.0108032,365.2202759l0.1295166-0.0006409
		l0.4846191,1.8179932C599.4307251,366.4391785,599.2230225,365.8312683,599.0108032,365.2202759z"/>
	<path class="st0" d="M416.6065063,465.1843567l-5.8873596,4.3846741l-24.6812134,18.3815918h379.2695618l-81.8408813-92.5469055
		l14.2404785-19.4803162l7.5308838-10.3021851c1.6438599,0.256134,1.9875488,0.2154236,3.6124878,0.9147034
		c1.625,0.6993103,21.34552,22.600769,21.34552,22.600769l0.3399048-23.833252l0.0787354-7.4078674
		c0.2637329-24.718689,0.4228516-39.6376343-9.1098022-49.7908936
		c-9.0930786-9.6871948-21.7476807-10.4572144-37.3461304-10.4572144H684.15448h-0.0040283l-164.1746216,0.0292664
		l-64.8880615-89.9672394l-16.2622681,5.1019135l-19.7409363-34.2867126l-47.7579041,22.2560883l-8.1270752,23.0559998
		l-9.7948914-15.822464l-37.0185242,16.5084381l-10.2654419,20.0015564l-14.2969971-12.0393372l-58.5192871,65.2717133
		l10.5108643-0.0029907c-0.2601166,0.0010986-0.494339,0.0022278-0.6701508,0.0031128l-189.0533447,0.0004883h-4.1136017
		c-11.0836563,0-27.8620491,7.5047302-28.6573486,28.1800842c-0.2435589,6.3287659-0.0549126,13.6965332,0.6310596,24.635376
		c0.9774723,15.5896301,7.7687206,20.375,24.1761723,31.9363098l1.4801559,1.0423584
		c18.1393814,12.7912903,35.0437851,25.8792114,47.5977631,35.855011c-4.1645279-0.006958-8.5017624-0.0112-12.8901749-0.0112
		c-8.5931625,0-17.4007416,0.0159302-25.5882149,0.0586548c-12.5240898,0.0652466-25.470047,0.132843-31.6862679,14.1043396
		c-4.0212059,9.0379333-3.9914474,22.0562439-3.9259491,50.5797424l0.0138206,6.1498413l0.0572796,25.4578552l17.5374584-18.4537964
		l4.2369957-4.458374c4.5499153-4.787384,6.6427002-4.7948608,10.1099205-4.8070679h0.1466866
		c21.6794472-0.0737,318.8248596-0.0758057,318.8248596-0.0758057l-19.7871399-17.7867737L324.51474,445.2278748
		c4.7436829,1.9081116,10.2597351,2.4089355,19.0585938,2.4089355c0.6237183,0,1.2668457-0.0021057,1.9356384-0.0058594
		c3.4577637-0.0197754,7.3804626-0.0265198,11.5073853-0.0265198c4.4104614,0,9.0533752,0.0077209,13.6174927,0.0158081
		l7.2499695,0.0108337c13.34729,0.0137024,16.6268616,0.4050598,21.9368286,2.6174011l8.6870422,3.6203613l12.1595154,5.0675659
		C419.9474792,462.0610657,417.9516907,464.1123657,416.6065063,465.1843567z M505.7374878,428.0274963
		c22.8806763-5.5282593,33.2000122-22.9372253,33.276001-37.7372742
		c0.0861816-16.7009277-11.3787842-35.4956665-46.0113831-35.4956665c-0.1272583,0-0.2601318,0.0002747-0.3880005,0.0007629
		c-1.7103882,0.0033569-3.353302,0.0048523-5.0392761,0.0048523c-2.7962036,0-5.7113037-0.0041199-9.2512512-0.0107117
		c-5.3153381-0.0089722,2.2383423-0.0210266-7.6158142-0.0229187l0.1176758,29.9545898l-54.6415405-76.7752075l4.6224976,0.0119324
		c0.3685913,0.0012512,22.057251,0.0341187,41.5006104,0.0341187c9.9008484,0,19.2211914-0.0084534,24.8444519-0.0341187
		c0.3136597-0.0014954,0.62146-0.0021057,0.9330139-0.0021057c30.4329834,0,50.5828247,6.8475342,68.9824829,19.192688
		c35.4215698,23.7658691,36.6752319,59.6306152,36.6119995,63.888031
		c-0.8502197,57.1231995-40.6324463,78.5444031-58.7509155,87.1937256
		c-6.2179565-9.3716736-32.4727478-49.4097595-32.4727478-49.4097595L505.7374878,428.0274963z M484.1926575,418.7481079
		l-0.7727661-34.0366821l-0.0773315-19.6864014c2.4107971,0.0038452,2.1572876-0.024292,4.2322693-0.024292l5.0594482-0.0048523
		l0.3678284-0.0007324c13.3331909,0,23.5389709,3.174469,29.5138855,9.1803894
		c5.2457275,5.2728577,6.3198242,11.6451111,6.2971802,16.0621643c-0.055542,10.8248901-9.1967163,24.6409912-24.2193909,27.3202515
		C495.4674377,419.1856689,489.536377,418.8123474,484.1926575,418.7481079z M687.0978394,414.707489
		c7.1025391,7.9048157,50.9266357,58.388031,51.3883667,58.8970642l3.767395,4.1454773H564.1964111l6.1711426-4.7147827
		c0.3057861-0.1395569,20.9310913-14.7599182,32.3563843-41.4121704l0.5120239-1.7580566h1.7866211
		c20.7338257,0,54.6325684,0.1672058,55.0507202,0.168457c13.805603,0,22.2390137-0.9277954,22.8658447-13.7772522
		l0.284668-5.860321L687.0978394,414.707489z M599.0108032,365.2202759l0.1295166-0.0006409l0.4846191,1.8179932
		C599.4307251,366.4391785,599.2230225,365.8312683,599.0108032,365.2202759z M655.4292603,416.4727783l-45.7695923,0.2352295
		l0.4489746-2.872406c0.0172119-0.1070862,4.1507568-13.9813232,3.6312256-22.6290283
		c-0.5518799-9.1867371-1.9902954-18.2857056-2.0164185-18.3836975l-0.8363037-3.1377563l78.585022,0.2184143
		L655.4292603,416.4727783z M684.1586914,307.8480225c16.1794434,0,24.1974487,1.1534424,29.9096069,7.2387695
		c6.725769,7.1635742,6.5908203,19.7861633,6.3462524,42.70047l-0.0787354,7.4078674l-4.1504517-5.9812622
		c-3.1948853-2.7341919-7.4827881-3.7959595-16.4070435-4.3941345c-3.0791016-0.2064514-11.6315308-0.2784424-22.1296997-0.2784424
		c-24.3060913,0-59.0158691,0.3865051-60.1848755,0.3865051l-13.4144287,0.0667419l-0.6168213-1.4675598
		c-12.6379395-30.0826111-44.1894531-40.6876221-44.4554443-40.7905884l-10.3439941-4.7785339L684.1586914,307.8480225z
		 M202.6242828,466.4625549c-2.4734344,7.0685425-9.1141357,11.2874756-17.7633362,11.2874756
		c-11.2038116,0-110.0845947,0.0025024-131.6433868,0.0758362h-0.1804276
		c-4.4181747,0.015686-9.9175415,0.0337524-17.4703445,7.9806519l-4.2369976,4.4584045l-0.0138226-6.1503601
		c-0.0601425-26.2078247-0.0902767-39.362854,3.045105-46.409729c3.5384483-7.9530029,10.6454735-7.9891357,22.4197121-8.0505066
		c8.1705437-0.0426025,16.9598198-0.0585327,25.5350456-0.0585327c17.0768661,0.0001221,33.294426,0.0631409,42.0127258,0.1039734
		c-0.6050339-0.4858704-1.2226486-0.9754639-1.8573227-1.4701843c-1.3633499-1.0625305-3.5720673-2.8507385-6.495018-5.2177124
		c-11.5745087-9.3728943-35.6590347-28.8768616-62.4944305-47.8002319l-1.4771614-1.0403442
		c-15.8933182-11.1989746-19.2007828-13.5293274-19.8721848-24.2368164
		c-0.663063-10.5750122-0.8483467-17.6344604-0.6184864-23.605011
		c0.6985493-18.1615295,18.2866879-18.3716125,18.4642506-18.3716125h4.1136017h172.5188751l-2.4983368,3.0187073
		l-56.6166534,64.5942078l0.4223633-6.8332214c0.0029907-0.0584106,0.3206482-6.6400757-3.6125336-10.7808228
		c-2.2087097-2.325531-5.4409637-3.5042114-9.607605-3.5042114c-0.0293884,0-0.0588989,0-0.089035,0l-54.4053192,0.2109375
		c29.8194733,24.4393921,64.603775,52.8813477,71.1696472,58.1198425
		C207.6694031,441.7384949,204.4696503,461.1906738,202.6242828,466.4625549z M157.7252197,368.2967529l-0.4106598,6.6446838
		l-0.7808685,12.6334229c-8.1674194-6.6676025-17.8829956-14.61203-27.9120941-22.8210449l26.026886-0.1008606
		c1.463974,0.0001221,2.1548004,0.2592468,2.2852936,0.3500366
		C157.3186646,365.412262,157.7284546,367.0926514,157.7252197,368.2967529z M212.2524414,469.8316345
		c2.629715-7.5124512,5.0382843-26.0565186-19.3602905-51.3437805c13.9055023,12.168335,25.5001831,24.34552,27.9498444,28.0326538
		c5.4120789,8.1456299,5.0285645,13.827179-1.243454,18.4222717
		C219.2471619,465.2002869,212.0923157,470.2891235,212.2524414,469.8316345z M345.4360046,477.7500305H219.8467102
		c0,0,5.1789856-4.099762,5.5348511-4.3946228c0.8857117-0.7340393,17.8653259-11.5461121,3.9568329-32.4797058
		c-4.3699799-6.5775757-28.2688446-30.7626038-50.122879-46.3731384l1.8575745-1.5878601l1.8073883-2.0480652
		c11.5377808-13.0768433,23.433548-26.0412292,36.1283569-38.57901c8.5209351-8.414978,16.5690765-16.3631287,23.9907532-24.1759338
		c7.5323944-7.9289551-1.7446289-15.9757385-1.969635-16.3144226l-2.3535309-1.9614258l-2.4462891-1.8641663l6.8335876-0.0138245
		c0.8555603-0.0040894,83.6813965-0.4072876,97.9898376-0.4072876h6.4983826c0,0-11.0975952,7.8317261-17.5578613,12.7620239
		c-11.3598633,8.6692505-18.1910706,13.9407654-80.0758514,71.5763245L345.4360046,477.7500305z M288.0991211,412.4558105
		c0.1160583,0.1161804,0.2567749,0.2566223,0.3760681,0.3760376l-23.4430237-21.0729065
		c18.7192688-16.7033081,21.7794495-19.0834961,32.6600037-27.9239502
		c-12.5805969,12.9206848-15.3748169,14.9015198-15.7354126,32.9055481
		C281.8341064,402.8804321,283.9581299,408.3145752,288.0991211,412.4558105z M425.0549927,439.879303
		c-21.5235596-29.7767639-47.1957092-65.2633667-52.2867737-72.3000183
		c-3.7435303,3.5193787-15.2576294,13.9703674-23.4168396,22.0551147c1.4229736-0.0177002,2.765686-0.0278931,4.0386353-0.0278931
		c19.6459351,0.0002441,22.21698,2.4144287,32.0210876,16.5428162c5.5137024,7.9468994,8.7820435,12.9455566,11.4084167,16.9624023
		c3.3230286,5.0806274,5.5179138,8.4378967,9.8126831,13.9276733l5.7995911,7.4138489l-8.6881714-3.6208801
		c-7.1112671-2.962677-11.8987732-3.3875427-25.8444824-3.4018555l-7.2472229-0.0108337
		c-4.5700989-0.0080872-9.2191162-0.0158081-13.6355591-0.0158081c-4.1477051,0-8.090332,0.0068359-11.5656738,0.0266418
		c-0.6485901,0.0037537-1.2724304,0.0057373-1.8773499,0.0057373c-15.1034851,0-17.0096436-1.2640076-25.0242615-9.1223755
		l-0.2473145-0.2419434c-8.2898254-8.1261902-17.491394-17.3294983-22.989502-22.8287354
		c-2.1611328-2.1612854-3.2237854-4.953125-3.1569214-8.2984314c0.3055725-15.2591553,23.9617615-37.4315491,26.798645-40.0500488
		c3.8742981-3.5756836,8.0637207-7.2719116,12.4998169-11.1851501
		c13.0654907-11.5256958,22.7695007-19.5418396,32.6271362-32.2823486c2.9324036-3.7901001,5.1977844-7.0968018,6.9958191-9.9941101
		l3.2122192-5.7157898l10.7970276-0.0029907c7.07901,9.0194092,16.859314,21.5043945,18.5263672,23.758667
		c2.6622314,3.5998535,110.0115356,151.1879578,110.8662109,152.3612976l2.8509521,3.915741H416.8119812l5.9638062-4.4415588
		C423.4689941,472.7862244,439.7203064,460.1678772,425.0549927,439.879303z"/>
	<g>
		
			<linearGradient id="SVGID_6_" gradientUnits="userSpaceOnUse" x1="275.6417847" y1="296.2581482" x2="275.6417847" y2="247.6287079">
			<stop  offset="0" style="stop-color:#FFFFFF;stop-opacity:0"/>
			<stop  offset="0.0182341" style="stop-color:#F6FCFF;stop-opacity:0.0277093"/>
			<stop  offset="0.1049337" style="stop-color:#D2EDFF;stop-opacity:0.159462"/>
			<stop  offset="0.1962413" style="stop-color:#B4E1FF;stop-opacity:0.2982171"/>
			<stop  offset="0.2922608" style="stop-color:#9DD8FF;stop-opacity:0.4441327"/>
			<stop  offset="0.3950607" style="stop-color:#8DD1FF;stop-opacity:0.600352"/>
			<stop  offset="0.5093125" style="stop-color:#83CDFF;stop-opacity:0.7739741"/>
			<stop  offset="0.6580484" style="stop-color:#80CCFF"/>
		</linearGradient>
		<polygon class="st8" points="249.28685,296.2581482 292.8856812,247.6287079 301.9967346,256.5441284 285.6379089,296.1230469 		
			"/>
		
			<linearGradient id="SVGID_7_" gradientUnits="userSpaceOnUse" x1="325.1970825" y1="296.3001709" x2="325.1970825" y2="221.846817">
			<stop  offset="0" style="stop-color:#FFFFFF;stop-opacity:0"/>
			<stop  offset="0.0182341" style="stop-color:#F6FCFF;stop-opacity:0.0277093"/>
			<stop  offset="0.1049337" style="stop-color:#D2EDFF;stop-opacity:0.159462"/>
			<stop  offset="0.1962413" style="stop-color:#B4E1FF;stop-opacity:0.2982171"/>
			<stop  offset="0.2922608" style="stop-color:#9DD8FF;stop-opacity:0.4441327"/>
			<stop  offset="0.3950607" style="stop-color:#8DD1FF;stop-opacity:0.600352"/>
			<stop  offset="0.5093125" style="stop-color:#83CDFF;stop-opacity:0.7739741"/>
			<stop  offset="0.6580484" style="stop-color:#80CCFF"/>
		</linearGradient>
		<polygon class="st9" points="291.7992554,296.3001709 324.330658,232.9142151 349.148468,221.846817 358.5948792,241.1588745 
			344.1178284,296.3001709 		"/>
		
			<linearGradient id="SVGID_8_" gradientUnits="userSpaceOnUse" x1="427.3712463" y1="296.2581482" x2="427.3712463" y2="192.627121">
			<stop  offset="0" style="stop-color:#FFFFFF;stop-opacity:0"/>
			<stop  offset="0.0182341" style="stop-color:#F6FCFF;stop-opacity:0.0277093"/>
			<stop  offset="0.1049337" style="stop-color:#D2EDFF;stop-opacity:0.159462"/>
			<stop  offset="0.1962413" style="stop-color:#B4E1FF;stop-opacity:0.2982171"/>
			<stop  offset="0.2922608" style="stop-color:#9DD8FF;stop-opacity:0.4441327"/>
			<stop  offset="0.3950607" style="stop-color:#8DD1FF;stop-opacity:0.600352"/>
			<stop  offset="0.5093125" style="stop-color:#83CDFF;stop-opacity:0.7739741"/>
			<stop  offset="0.6580484" style="stop-color:#80CCFF"/>
		</linearGradient>
		<polygon class="st10" points="349.2287598,296.2581482 380.083313,208.7251434 414.6269836,192.627121 433.7433777,225.8292999 
			450.8475342,220.4632874 505.5137329,296.2581482 		"/>
	</g>
	<g>
		
			<linearGradient id="SVGID_9_" gradientUnits="userSpaceOnUse" x1="569.7675781" y1="332.5887146" x2="715.8054199" y2="332.5887146">
			<stop  offset="0.4890161" style="stop-color:#80CCFF"/>
			<stop  offset="0.7008559" style="stop-color:#7ECAFE"/>
			<stop  offset="0.7771456" style="stop-color:#79C3F9"/>
			<stop  offset="0.8315324" style="stop-color:#6FB8F1"/>
			<stop  offset="0.8755414" style="stop-color:#60A7E6"/>
			<stop  offset="0.9132332" style="stop-color:#4D91D7"/>
			<stop  offset="0.9465718" style="stop-color:#3675C4"/>
			<stop  offset="0.9760094" style="stop-color:#1B56AF"/>
			<stop  offset="1" style="stop-color:#003699"/>
		</linearGradient>
		<path class="st11" d="M607.0791626,350.0656128l10.3834229-0.0666809
			c15.5236816-0.0024109,25.7601929-0.0066223,45.9542847-0.0066223c14.8656616,0,30.9120483-0.1074524,36.3661499-0.1014404
			c7.9492188,0.0090027,12.7075806,0.6624451,16.0024414,2.5095825c0.1393433-19.0623474-0.3404541-28.8371887-5.0440063-33.8479614
			c-4.0031738-4.2640991-9.6057739-5.7755127-26.5827026-5.7755127l-114.3911743,0.1098938
			C579.0740356,318.6503601,598.2844849,330.1861877,607.0791626,350.0656128z"/>
		
			<linearGradient id="SVGID_10_" gradientUnits="userSpaceOnUse" x1="582.4972534" y1="341.5860291" x2="425.4168701" y2="341.5860291">
			<stop  offset="0" style="stop-color:#003699"/>
			<stop  offset="0.044671" style="stop-color:#1751AB"/>
			<stop  offset="0.1101679" style="stop-color:#3372C2"/>
			<stop  offset="0.1835932" style="stop-color:#4B8ED5"/>
			<stop  offset="0.2654987" style="stop-color:#5FA5E4"/>
			<stop  offset="0.3596725" style="stop-color:#6EB7F0"/>
			<stop  offset="0.4736624" style="stop-color:#78C3F9"/>
			<stop  offset="0.6280243" style="stop-color:#7ECAFE"/>
			<stop  offset="1" style="stop-color:#80CCFF"/>
		</linearGradient>
		<path class="st12" d="M582.4972534,362.3416748c-13.9689941-28.4403076-45.7716675-48.4044189-88.3062439-49.4584045
			c-0.2956848-0.0073242-23.0295105,0.0011902-23.3252869,0.0036011
			c-13.8357544,0.1155396-31.7351379,0.0403137-45.4488525,0.0108337l40.8475342,57.3940125l-0.0802612-20.45401h2.2617798
			c11.1066589,0,18.4506226,0.0126343,24.1650391,0.0228577c5.7836609,0.0108337,9.8960266,0.0162354,14.5493774,0.0054016
			l0.004303,1.9371948l0.0002136-0.0011292l-0.003418-1.9360657c2.0539551-0.0048218,4.2113037-0.0138245,6.666626-0.0282593
			C540.5390625,349.6826172,567.875061,349.5419617,582.4972534,362.3416748z"/>
		
			<linearGradient id="SVGID_11_" gradientUnits="userSpaceOnUse" x1="78.1414642" y1="358.4441833" x2="200.8021393" y2="287.6260071">
			<stop  offset="0.0109259" style="stop-color:#003699"/>
			<stop  offset="0.055352" style="stop-color:#1852AC"/>
			<stop  offset="0.1192736" style="stop-color:#3372C2"/>
			<stop  offset="0.1909686" style="stop-color:#4B8ED5"/>
			<stop  offset="0.2711346" style="stop-color:#5FA5E5"/>
			<stop  offset="0.3634642" style="stop-color:#6EB7F0"/>
			<stop  offset="0.4754022" style="stop-color:#78C3F9"/>
			<stop  offset="0.6275968" style="stop-color:#7ECAFE"/>
			<stop  offset="1" style="stop-color:#80CCFF"/>
		</linearGradient>
		<path class="st13" d="M55.6760597,318.0649109c3.0639687,2.5733948,19.200428,15.8339844,38.5451851,31.6945496
			l60.3684158-0.2358398c5.6371155-0.0168457,10.1238251,1.6846924,13.3223419,5.0733337
			c2.518631,2.6678467,3.763504,5.9126892,4.3735962,8.6515198l43.1009064-50.3616028H54.6023674
			c-0.6187515,0.308075-1.4680939,0.9035645-1.5682716,1.4891663
			C52.9281998,314.9969788,53.5665779,316.2923889,55.6760597,318.0649109z"/>
		<path class="st1" d="M603.4324341,353.5270386l0.6168823,1.4674988l13.4144287-0.0666504
			c1.6738892,0,72.1064453-0.7923584,82.3146973-0.1080933c8.9241333,0.5982056,13.2120361,1.6599426,16.4068604,4.394043
			l4.1505127,5.9812927l0.0788574-7.4078674c0.2445068-22.9142761,0.3792725-35.5368652-6.3463745-42.7004395
			c-5.7122803-6.0853577-13.7300415-7.2387695-29.9095459-7.2387695l-135.5258789,0.1098938l10.3441772,4.7785034
			C559.2432251,312.8393555,590.7945557,323.444397,603.4324341,353.5270386z M710.7414551,318.5524902
			c4.7035522,5.0107727,5.1833496,14.785614,5.0440063,33.8479614c-3.2948608-1.8471375-8.0532227-2.5005798-16.0024414-2.5095825
			c-5.4541016-0.006012-21.5004883,0.1014404-36.3661499,0.1014404c-20.1940918,0-30.430603,0.0042114-45.9542847,0.0066223
			l-10.3834229,0.0666809c-8.7946777-19.879425-28.005127-31.4152527-37.3115845-37.1787415l114.3911743-0.1098938
			C701.1356812,312.7769775,706.7382812,314.2883911,710.7414551,318.5524902z"/>
		
			<linearGradient id="SVGID_12_" gradientUnits="userSpaceOnUse" x1="224.7086792" y1="415.3252563" x2="307.1871338" y2="497.8037109">
			<stop  offset="0.0104811" style="stop-color:#003699"/>
			<stop  offset="0.0485078" style="stop-color:#124BA7"/>
			<stop  offset="0.1229029" style="stop-color:#2F6DBE"/>
			<stop  offset="0.2051198" style="stop-color:#488BD3"/>
			<stop  offset="0.2956027" style="stop-color:#5DA3E3"/>
			<stop  offset="0.3977626" style="stop-color:#6DB5F0"/>
			<stop  offset="0.5183161" style="stop-color:#78C2F8"/>
			<stop  offset="0.6749321" style="stop-color:#7ECAFE"/>
			<stop  offset="1" style="stop-color:#80CCFF"/>
		</linearGradient>
		<path class="st14" d="M234.6109467,405.7822571c-9.3853149,7.9930725-14.995636,16.0260315-9.7677917,21.1263123
			c4.1483154,4.0471497-0.7182312-0.6708679-0.7182312-0.6708679c4.4933167,5.2691345,7.7549438,9.5566711,9.3193817,11.9111938
			c11.1629181,16.801239,2.7867126,28.6987915-1.2048187,34.6722412h99.930191l-85.9076996-77.5762939l-0.0795593,0.0730286
			C241.6740875,399.3670349,238.2288055,402.7010803,234.6109467,405.7822571z"/>
		
			<linearGradient id="SVGID_13_" gradientUnits="userSpaceOnUse" x1="198.314621" y1="404.2052307" x2="311.3686218" y2="291.1512451">
			<stop  offset="0" style="stop-color:#093B99"/>
			<stop  offset="0.0145115" style="stop-color:#1F56AC"/>
			<stop  offset="0.0353252" style="stop-color:#3975C2"/>
			<stop  offset="0.058886" style="stop-color:#4F91D5"/>
			<stop  offset="0.0855161" style="stop-color:#61A7E5"/>
			<stop  offset="0.1166165" style="stop-color:#6FB8F1"/>
			<stop  offset="0.155053" style="stop-color:#79C3F9"/>
			<stop  offset="0.2089988" style="stop-color:#7ECAFE"/>
			<stop  offset="0.3587368" style="stop-color:#80CCFF"/>
		</linearGradient>
		<path class="st15" d="M231.4322968,402.0157471c2.0690918-1.7462769,6.0434723-5.3928223,11.071228-10.0109863
			l-0.0003662-0.0003052l0.6886902-0.6320801l0.1253815-0.1152039l0.0000763,0.000061l0.4777985-0.4384766l17.9364624-16.4735413
			l-0.3016052,0.4171143c20.6407776-18.5430908,44.2006531-44.1377869,71.2843933-62.2653198
			c-22.1694031,0.0661621-71.2826843,0.303833-85.754837,0.3718262c1.618515,4.8440857,5.8587952,12.0636292-0.3860168,18.6375427
			c-7.4764404,7.8699646-15.5515594,15.844574-24.1007843,24.2879333
			c-11.9781952,11.8295593-24.12883,25.182373-35.1166687,37.4523621
			c9.8180084,8.7980042,19.977417,18.0897217,30.9841919,28.0515747
			C219.4294739,416.7817688,222.3351593,409.6887207,231.4322968,402.0157471z"/>
		
			<linearGradient id="SVGID_14_" gradientUnits="userSpaceOnUse" x1="615.1308594" y1="393.1965637" x2="678.9202881" y2="393.1965637">
			<stop  offset="0" style="stop-color:#093B99"/>
			<stop  offset="0.0473434" style="stop-color:#1F56AC"/>
			<stop  offset="0.1231588" style="stop-color:#3D7AC5"/>
			<stop  offset="0.2031539" style="stop-color:#5598DA"/>
			<stop  offset="0.2872511" style="stop-color:#68AFEA"/>
			<stop  offset="0.3772503" style="stop-color:#76BFF6"/>
			<stop  offset="0.4773318" style="stop-color:#7DC9FD"/>
			<stop  offset="0.6076926" style="stop-color:#80CCFF"/>
		</linearGradient>
		<path class="st16" d="M615.1308594,411.7646179l38.2236938-0.2159729l25.5657349-36.7414246l-61.9620972-0.1787109
			c1.3719482,5.3574219,1.6269531,6.7767334,1.6269531,14.0279236
			C618.585144,397.0718994,617.0550537,405.997406,615.1308594,411.7646179z"/>
		
			<linearGradient id="SVGID_15_" gradientUnits="userSpaceOnUse" x1="605.0808105" y1="430.7018738" x2="717.9177246" y2="495.8482666">
			<stop  offset="0" style="stop-color:#003699"/>
			<stop  offset="0.0233616" style="stop-color:#0B43A2"/>
			<stop  offset="0.1056987" style="stop-color:#2F6DBE"/>
			<stop  offset="0.1898972" style="stop-color:#4C8FD6"/>
			<stop  offset="0.2750945" style="stop-color:#63AAE8"/>
			<stop  offset="0.3617122" style="stop-color:#73BDF5"/>
			<stop  offset="0.4505572" style="stop-color:#7DC8FC"/>
			<stop  offset="0.5451152" style="stop-color:#80CCFF"/>
		</linearGradient>
		<path class="st17" d="M660.0639648,434.9624023c-0.4158936-0.0011902-32.0584106-0.158844-53.2877197-0.168457
			c-7.8272095,16.3409729-16.0718994,31.7288513-26.0130005,38.0271912h150.4491577
			c-9.7758789-10.7627869-33.8606567-39.527771-44.2316284-50.9933472
			C683.6818848,434.963623,670.7114258,434.9624023,660.0639648,434.9624023z"/>
		
			<linearGradient id="SVGID_16_" gradientUnits="userSpaceOnUse" x1="549.4279785" y1="354.5345764" x2="549.4279785" y2="472.4710999">
			<stop  offset="0.0109259" style="stop-color:#003699"/>
			<stop  offset="0.0402037" style="stop-color:#0C45A3"/>
			<stop  offset="0.1233292" style="stop-color:#2B69BB"/>
			<stop  offset="0.2141455" style="stop-color:#4688D0"/>
			<stop  offset="0.3128151" style="stop-color:#5BA1E2"/>
			<stop  offset="0.4224611" style="stop-color:#6CB4EF"/>
			<stop  offset="0.5490098" style="stop-color:#77C2F8"/>
			<stop  offset="0.7076257" style="stop-color:#7ECAFD"/>
			<stop  offset="1" style="stop-color:#80CCFF"/>
		</linearGradient>
		<path class="st18" d="M588.7597656,387.5730896c-2.2213745-36.8287964-45.7438354-32.9185791-73.4553833-32.9185791
			c17.8510132,3.2301941,28.3025513,18.2749634,28.2128906,35.664032
			c-0.0824585,16.0280762-10.5250244,34.6981506-33.572876,41.6451111c1.2843018,2.0083923,2.6202393,4.09021,3.9837036,6.215332
			c7.4451294,11.6003418,17.1723022,24.9601135,22.2874756,34.2921143
			C567.6672974,457.5102844,591.0255737,425.1391907,588.7597656,387.5730896z"/>
		
			<linearGradient id="SVGID_17_" gradientUnits="userSpaceOnUse" x1="335.3528137" y1="404.9509583" x2="394.9151917" y2="439.339325">
			<stop  offset="0.0109259" style="stop-color:#003699"/>
			<stop  offset="0.0410714" style="stop-color:#0D45A3"/>
			<stop  offset="0.1234427" style="stop-color:#2C69BC"/>
			<stop  offset="0.2135095" style="stop-color:#4688D1"/>
			<stop  offset="0.3114431" style="stop-color:#5BA1E2"/>
			<stop  offset="0.4204248" style="stop-color:#6CB4EF"/>
			<stop  offset="0.5464557" style="stop-color:#77C2F8"/>
			<stop  offset="0.7049233" style="stop-color:#7ECAFD"/>
			<stop  offset="1" style="stop-color:#80CCFF"/>
		</linearGradient>
		<path class="st19" d="M337.6246643,402.164978c-14.7714844,18.7253113-5.6495361,28.9276733-4.8360596,29.769043
			c2.7972717,0.5314331,6.5718079,0.6028748,12.6343994,0.5675354c7.1918335-0.0397339,16.3656311-0.0264893,25.2367554-0.0108337
			l7.2447815,0.0108337c9.2189026,0.009613,14.9017639,0.164856,20.1844788,1.3405151
			c-1.8453369-2.6052551-3.4259644-5.0227966-5.3946533-8.0335999c-2.6100464-3.9915161-5.8579102-8.9577637-11.3325806-16.8481445
			c-10.0910339-14.544281-10.3267517-14.862793-36.9663696-14.3159485
			C341.6352844,397.5019836,339.2201538,400.1427307,337.6246643,402.164978z"/>
		
			<linearGradient id="SVGID_18_" gradientUnits="userSpaceOnUse" x1="306.3092346" y1="409.2697449" x2="398.1622009" y2="317.4168091">
			<stop  offset="0" style="stop-color:#003699"/>
			<stop  offset="0.0992529" style="stop-color:#1F5AB2"/>
			<stop  offset="0.2148971" style="stop-color:#3D7DC9"/>
			<stop  offset="0.3380599" style="stop-color:#559ADD"/>
			<stop  offset="0.4690089" style="stop-color:#68B0EC"/>
			<stop  offset="0.6114605" style="stop-color:#76C0F7"/>
			<stop  offset="0.7738715" style="stop-color:#7EC9FD"/>
			<stop  offset="1" style="stop-color:#80CCFF"/>
		</linearGradient>
		<path class="st20" d="M333.7546692,399.1132507c7.0787354-8.9733887,28.4605408-28.5585938,29.3672791-29.3877258
			c0.144989-0.1281433,10.7230835-9.4186401,20.4383545-19.9552307
			c16.7512512-18.1679382,17.4976807-23.3373413,15.8519592-25.692749c-2.7058105-3.7279968-4.1772461-5.8106995-5.367218-7.335144
			c-5.8807678-7.5340881-9.4355164-11.6031494-14.663269-18.1060181c-3.5701904,6.8854065-6.7164001,9.6699829-11.9856567,17.085968
			c-10.328125,14.5357971-19.3149109,21.8922729-32.6817627,33.6839294
			c-4.4145203,3.8940735-8.584137,7.572113-12.4174194,11.1105957
			c-9.0528564,8.3554688-24.9985046,25.7686157-25.2132874,36.5266113
			c-0.0397339,1.9795227,0.5210266,3.5210266,1.7141724,4.7147522c5.4915161,5.4920959,14.6815186,14.6845398,22.9539795,22.7927551
			l0.2478943,0.2442627c1.2383423,1.2138062,2.2832031,2.2359924,3.2420654,3.1027832
			C323.4426575,421.6882629,323.6762085,411.8886108,333.7546692,399.1132507z"/>
		
			<linearGradient id="SVGID_19_" gradientUnits="userSpaceOnUse" x1="374.5308533" y1="359.0433655" x2="497.9755249" y2="482.4880676">
			<stop  offset="0.0109259" style="stop-color:#003699"/>
			<stop  offset="0.0548289" style="stop-color:#1751AB"/>
			<stop  offset="0.1201132" style="stop-color:#3372C2"/>
			<stop  offset="0.193182" style="stop-color:#4B8ED5"/>
			<stop  offset="0.2746409" style="stop-color:#5FA5E4"/>
			<stop  offset="0.3682209" style="stop-color:#6EB6F0"/>
			<stop  offset="0.4813554" style="stop-color:#78C3F9"/>
			<stop  offset="0.6342584" style="stop-color:#7ECAFE"/>
			<stop  offset="1" style="stop-color:#80CCFF"/>
		</linearGradient>
		<path class="st21" d="M376.3681641,364.1457214c3.9645996,5.47995,30.520752,42.1881104,52.6819763,72.8455505
			c12.1177673,16.7651367,6.019165,29.4990234,1.0108032,35.8298645h77.5814819
			c-14.2571106-19.5801392-78.0523682-107.2007751-103.9877319-142.9016113
			c-2.5466003,7.3958435-10.1407471,16.3287964-16.4945374,23.2177734
			C383.4839783,357.1228638,379.6912231,360.9286499,376.3681641,364.1457214z"/>
		
			<linearGradient id="SVGID_20_" gradientUnits="userSpaceOnUse" x1="117.5573349" y1="313.0192566" x2="117.5573349" y2="472.8245239">
			<stop  offset="0.6836131" style="stop-color:#80CCFF"/>
			<stop  offset="0.8147783" style="stop-color:#7ECAFE"/>
			<stop  offset="0.8620148" style="stop-color:#79C3F9"/>
			<stop  offset="0.8956895" style="stop-color:#6FB8F1"/>
			<stop  offset="0.9229387" style="stop-color:#60A7E6"/>
			<stop  offset="0.9462764" style="stop-color:#4D91D7"/>
			<stop  offset="0.9669187" style="stop-color:#3675C4"/>
			<stop  offset="0.9851456" style="stop-color:#1B56AF"/>
			<stop  offset="1" style="stop-color:#003699"/>
		</linearGradient>
		<path class="st22" d="M168.2998352,416.6365051C156.898056,407.5403442,60.4798508,328.536499,52.506424,321.838623
			c-3.354351-2.817627-4.8092079-5.6226501-4.3230515-8.3374329c0.0298576-0.166748,0.073555-0.3239136,0.1160469-0.4819336
			c-3.614502,0.4915771-11.4482651,2.7935181-11.8601875,13.4992371c-0.2226219,5.7959595-0.039711,12.7068176,0.6125069,23.1080017
			c0.511425,8.1539307,1.740654,9.205658,17.792202,20.5154114l1.4777184,1.0415039
			c26.9701881,19.0178223,51.1407738,38.5915833,62.7567558,47.9981995c2.8910599,2.3405151,5.0745468,4.1094666,6.422905,5.1611938
			c18.488945,14.4101562,27.7716293,27.5820923,27.5917282,39.1487427c-0.0625,4.0010071-1.2746582,7.1009827-2.6251221,9.3329773
			c17.1403503-0.0030823,30.6532745-0.0033875,34.3930817-0.0033875c6.5558777,0,11.3343964-2.9108887,13.111145-7.9866638
			C201.2164001,455.565033,195.1250153,438.0369873,168.2998352,416.6365051z"/>
		
			<linearGradient id="SVGID_21_" gradientUnits="userSpaceOnUse" x1="168.2998352" y1="368.6810303" x2="36.3488503" y2="368.6810303">
			<stop  offset="0.6584739" style="stop-color:#80CCFF"/>
			<stop  offset="0.8000612" style="stop-color:#7ECAFE"/>
			<stop  offset="0.8510509" style="stop-color:#79C3F9"/>
			<stop  offset="0.8874013" style="stop-color:#6FB8F1"/>
			<stop  offset="0.9168156" style="stop-color:#60A7E6"/>
			<stop  offset="0.9420077" style="stop-color:#4D91D7"/>
			<stop  offset="0.9642901" style="stop-color:#3675C4"/>
			<stop  offset="0.9839654" style="stop-color:#1B56AF"/>
			<stop  offset="1" style="stop-color:#003699"/>
		</linearGradient>
		<path class="st23" d="M168.2998352,416.6365051c0,0-107.8199844-88.1000061-115.7934113-94.7978821
			c-3.354351-2.817627-4.8092079-5.6226501-4.3230515-8.3374329c0.0298576-0.166748,0.073555-0.3239136,0.1160469-0.4819336
			c-3.614502,0.4915771-11.4482651,2.7935181-11.8601875,13.4992371c-0.2226219,5.7959595-0.039711,12.7068176,0.6125069,23.1080017
			c0.511425,8.1539307,1.740654,9.205658,17.792202,20.5154114l1.4777184,1.0415039
			c26.9701881,19.0178223,51.1407738,38.5915833,62.7567558,47.9981995c2.8910599,2.3405151,6.422905,5.1611938,6.422905,5.1611938
			L168.2998352,416.6365051z"/>
		
			<linearGradient id="SVGID_22_" gradientUnits="userSpaceOnUse" x1="148.1663361" y1="456.5149841" x2="36.2300339" y2="456.5149841">
			<stop  offset="0.0109" style="stop-color:#003699"/>
			<stop  offset="0.1021841" style="stop-color:#1C57AF"/>
			<stop  offset="0.2223972" style="stop-color:#3A7AC8"/>
			<stop  offset="0.3494554" style="stop-color:#5498DC"/>
			<stop  offset="0.4833507" style="stop-color:#67AFEB"/>
			<stop  offset="0.627103" style="stop-color:#75BFF6"/>
			<stop  offset="0.7877901" style="stop-color:#7DC9FD"/>
			<stop  offset="1" style="stop-color:#80CCFF"/>
		</linearGradient>
		<path class="st24" d="M130.1749268,434.6581726c-5.7789612-0.0329285-43.6911774-0.2308044-73.3677139-0.0748291
			c-11.9264488,0.0613708-15.8006477,0.3104858-17.943222,5.1250916
			c-2.4951553,5.6088257-2.6642265,17.6087036-2.6305351,38.7973633c7.0474472-5.576355,12.776619-5.5956116,16.788002-5.6076355
			l0.1786995-0.0011902c13.5142746-0.046051,57.3865585-0.0640869,91.023262-0.071228
			c1.0875244-1.0057068,3.9023285-4.1266785,3.9424896-9.5387878
			C148.209671,457.3861084,144.8970642,447.8863525,130.1749268,434.6581726z"/>
		<path class="st1" d="M329.9940186,320.3125916c6.4603577-4.9302673,17.5578918-12.7619934,17.5578918-12.7619934h-6.498291
			c-14.3085022,0-97.1343689,0.4031372-97.9899597,0.4073486l-6.6008301,0.0330811l4.5671692,3.8062134
			c0.2250214,0.3387451,9.5019379,8.3855896,1.9695435,16.3144836
			c-7.4216919,7.8127747-15.4697266,15.7609253-23.9906921,24.1759949
			c-12.6947784,12.5377502-24.5905457,25.5021057-36.1283112,38.578949l-1.8074341,2.0481262l-1.8576355,1.5878296
			c21.854126,15.6105042,45.753006,39.7955322,50.1229858,46.3730774
			c13.908371,20.9335632-3.0712128,31.745697-3.9568787,32.4797363c-0.3558197,0.2948303-5.5348358,4.3946533-5.5348358,4.3946533
			h125.589325l-95.5178375-85.8611755C311.803009,334.2533875,318.6342468,328.9819031,329.9940186,320.3125916z
			 M232.2394867,472.8211365c9.4346008-6.0028381,11.4747162-19.3910828,1.2048187-34.6722412
			c-1.576828-2.3462524-5.0658417-6.8398132-8.0911255-10.4752808c-3.0336304-3.6455078-1.5300903-12.7507324,9.2577667-21.8913574
			c2.1933136-1.8583984,6.1292877-5.4656372,11.5714722-10.464386l0.0795593-0.0730286l85.9076996,77.5762939H232.2394867z
			 M222.4727173,355.7943115c8.5492249-8.4433594,16.6243439-16.4179688,24.1007843-24.2879333
			c6.244812-6.5739136,7.7662964-15.1040039,2.4261322-18.6375427c14.4721375-0.0679932,61.5453186-0.3056641,83.7147217-0.3718262
			c-27.0837402,18.127533-50.6436157,43.722229-71.2843933,62.2653198l0.3016052-0.4171143l-17.9364624,16.4735413
			l-0.4777985,0.4384766l-0.0000763-0.000061l-0.1253815,0.1152039l-0.6886902,0.6320801l0.0003662,0.0003052
			c-5.0277557,4.6181641-9.0021362,8.2647095-11.071228,10.0109863
			c-9.0971375,7.6729736-12.0028229,14.7660217-13.0920563,19.2825012
			c-9.4766998-8.6867676-20.3994293-18.7493591-30.9841919-28.0515747
			C198.3438873,380.9766846,210.4945221,367.6238708,222.4727173,355.7943115z"/>
		<path class="st1" d="M609.659668,416.7080078l45.7695923-0.2352295l34.0427856-46.5692444l-78.5848389-0.2184143
			l0.8362427,3.1377563c0.0263062,0.0980835,1.4644165,9.1969299,2.0164185,18.3836975
			c0.5196533,8.6476746-3.6140747,22.5219116-3.6312256,22.6289978L609.659668,416.7080078z M615.1308594,411.7646179
			c1.6691895-5.2572021,3.1992798-11.1225281,3.4542847-21.0680847c0.1858521-7.2487793,0-10.2005615-1.6269531-16.0680237
			l61.9620972,0.1787109l-25.5657349,36.7414246L615.1308594,411.7646179z"/>
		<path class="st1" d="M738.486084,473.6045227c-0.4615479-0.5090027-44.2855835-50.992157-51.3881836-58.8969727
			l-3.8740234-4.3116455l-0.284668,5.8603516c-0.626709,12.8494263-9.0601196,13.7772217-22.8658447,13.7772217
			c-0.4182739-0.0012207-34.3170166-0.1684875-55.0507812-0.1684875h-1.786499l-0.5119629,1.7581177
			c-11.4254761,26.6522217-32.0507202,41.272644-32.3564453,41.4122314l-6.1713257,4.7147522H742.253479L738.486084,473.6045227z
			 M580.7632446,472.8211365c9.9411011-6.2983398,16.4006958-18.3710327,26.0130005-38.0271912
			c21.2293091,0.009613,52.8718262,0.1672668,53.2877197,0.168457c10.6474609,0,23.6179199,0.0012207,26.9168091-13.134613
			c10.3709717,11.4655762,34.4557495,40.2305603,44.2316284,50.9933472H580.7632446z"/>
		<path class="st1" d="M593.678772,391.0365601c0.0633545-4.2574463-1.1900635-40.1222534-36.6116333-63.8881226
			c-18.5880127-12.4715271-38.9575806-19.331543-69.9156799-19.1904907c-16.6664734,0.0759277-65.7886658,0.0018005-66.3450317,0
			l-4.6225586-0.0120544l54.64151,76.775238l-0.1176453-29.9544983c9.854248,0.0018005,2.3005676,0.013855,7.6158142,0.0228577
			c5.6744385,0.0106201,9.7433472,0.0148315,14.2905884,0.0058899c34.9309082-0.1408691,46.4858398,18.7325439,46.399353,35.4949036
			c-0.0758667,14.8000488-10.3952637,32.2089844-33.276001,37.7371826l-3.2821655,0.7930298
			c0,0,26.2546997,40.0379944,32.4725952,49.409729C553.0465088,469.5809631,592.8287354,448.1597595,593.678772,391.0365601z
			 M536.2155762,472.4710999c-5.1151733-9.3320007-14.8423462-22.6917725-22.2874756-34.2921143
			c-1.3634644-2.1251221-2.6994019-4.2069397-3.9837036-6.215332c23.0478516-6.9469604,33.4904175-25.6170349,33.572876-41.6451111
			c0.0896606-17.3890686-10.3618774-32.4338379-28.2128906-35.664032
			c21.5911865,0.1700134,72.4859619-3.9229431,73.4764404,33.7085876
			C589.7685547,425.8885193,570.3874512,454.4501038,536.2155762,472.4710999z M507.164856,351.8020325l-0.0002136,0.0011292
			l-0.004303-1.9371948c-4.6533508,0.0108337-8.7657166,0.0054321-14.5493774-0.0054016
			c-5.7144165-0.0102234-13.0583801-0.0228577-24.1650391-0.0228577h-2.2617798l0.0802612,20.45401l-40.8475342-57.3940125
			c13.7137146,0.02948,31.6130981,0.1047058,45.4488525-0.0108337c0.2957764-0.0024109,16.9091797-0.0038147,17.2049561-0.0036011
			c47.3798218,0.0339355,80.4575806,21.0180969,94.4265747,49.4584045
			c-14.6221924-12.7997131-41.9581909-12.6590576-68.6691895-12.5039673
			c-2.4553223,0.0144348-4.6126709,0.0234375-6.666626,0.0282593L507.164856,351.8020325z"/>
		<path class="st1" d="M403.6124268,321.473053c-2.6622314-3.599884-26.0157471-33.2922363-26.0157471-33.2922363
			s0,7.7779236-13.5157471,25.2463989c-9.857605,12.740509-19.5616455,20.7566528-32.6270752,32.2823792
			c-4.4361572,3.9132996-8.6256409,7.6094055-12.4998474,11.1851807
			c-2.8369141,2.6184998-26.4930725,24.7908936-26.7987061,40.0500488c-0.066803,3.3453369,0.9957581,6.1371155,3.1569824,8.2983398
			c5.4981384,5.4993286,14.699585,14.7025757,22.989502,22.8288269l0.2472839,0.2418823
			c8.3356323,8.1731873,10.0612488,9.2128906,26.9016113,9.1166077c7.1755981-0.0408936,16.3391418-0.0264587,25.2012329-0.0108337
			l7.2472229,0.0108337c13.9456787,0.0144348,18.7332153,0.4392395,25.8444519,3.401886l8.6882019,3.6209106l-5.7995605-7.4138794
			c-4.2947693-5.4897156-6.4896851-8.8470764-9.8127441-13.9276428c-2.6263428-4.0167847-5.8946533-9.0155334-11.4084167-16.9624634
			c-10.4393311-15.0438232-12.6757507-16.8062134-36.0597229-16.5149231
			c8.1592712-8.0847473,19.6733398-18.5357361,23.4168396-22.0550842
			c5.091156,7.0366821,30.7633057,42.5233154,52.2868042,72.3000183
			c14.6652832,20.2885742-1.5860291,32.9069519-2.2791443,33.4291992l-5.9638367,4.4415894h100.5174561l-2.850769-3.9157104
			C513.6239624,472.6610413,406.2746277,325.0729065,403.6124268,321.473053z M430.0609436,472.8211365
			c5.0083618-6.3308411,11.1069641-19.0647278-1.0108032-35.8298645
			c-22.1612244-30.6574402-48.7173767-67.3656006-52.6819763-72.8455505
			c3.3230591-3.2170715,7.1158142-7.0228577,10.7919922-11.0084229c6.3537903-6.8889771,13.947937-15.8219299,16.4945374-23.2177734
			c25.9353638,35.7008362,89.7306213,123.3214722,103.9877319,142.9016113H430.0609436z M381.3617859,408.9603271
			c5.4746704,7.8903809,8.7225342,12.8566284,11.3325806,16.8481445c1.968689,3.0108032,3.5493164,5.4283447,5.3946533,8.0335999
			c-5.2827148-1.1756592-10.9655762-1.3309021-20.1844788-1.3405151l-7.2447815-0.0108337
			c-8.8711243-0.0156555-18.0449219-0.0289001-25.2367554,0.0108337c-6.0625916,0.0353394-9.8371277-0.0361023-12.6343994-0.5675354
			c-0.8134766-0.8413696-9.9354248-11.0437317,4.8360596-29.769043c1.5954895-2.0222473,4.0106201-4.6629944,6.770752-7.5205994
			C371.0350342,394.0975342,371.270752,394.4160461,381.3617859,408.9603271z M298.797821,401.7582397
			c-1.1931458-1.1937256-1.7539062-2.7352295-1.7141724-4.7147522
			c0.2147827-10.7579956,16.1604309-28.1711426,25.2132874-36.5266113
			c3.8332825-3.5384827,8.0028992-7.2165222,12.4174194-11.1105957
			c13.3668518-11.7916565,20.2307434-17.9127502,29.749054-28.4561462
			c8.2879944-9.1805115,15.1538391-21.2644958,14.9183655-22.3137512c0,0,17.2470703,21.4556885,19.2066345,24.3711243
			c1.9595642,2.9154053,3.2699585,6.1469421-15.0281067,26.7627869
			c-8.6924133,9.7935181-20.4383545,19.9552307-20.4383545,19.9552307s-22.2885437,20.4143372-29.3672791,29.3877258
			c-10.0784607,12.7753601-10.3120117,22.5750122-8.5129089,28.78479c-0.9588623-0.8667908-2.0037231-1.8889771-3.2420654-3.1027832
			l-0.2478943-0.2442627C313.4793396,416.4427795,304.2893372,407.2503357,298.797821,401.7582397z"/>
		<path class="st1" d="M171.3731995,412.7833862c-6.5657959-5.2385864-41.3502045-33.680481-71.169632-58.1199341
			l54.4053497-0.210907c0.0300903,0,0.0595703,0,0.0890503,0c4.1666107,0,7.3988342,1.1787109,9.6075897,3.5041809
			c3.9331665,4.1407471,3.6154785,10.7225037,3.6124725,10.7808533l-0.4223785,6.833252l59.262558-67.6128845H54.0918427h-4.1136665
			c-0.177494,0-17.765728,0.2099915-18.4642754,18.3716125c-0.2298412,5.9704285-0.0445251,13.0299377,0.6185226,23.605011
			c0.6714745,10.7074585,3.9788933,13.0377502,19.8722,24.2367554l1.4771194,1.0403137
			c26.8354111,18.9233398,50.9199524,38.4273071,62.4944229,47.8002625
			c2.9229507,2.3669739,5.1317062,4.1551819,6.4951096,5.2177429c0.6346893,0.4947205,1.2522354,0.9842529,1.8572998,1.4701233
			c-13.0961075-0.0613098-43.1063461-0.1728516-67.5478363-0.0453491
			c-11.7742233,0.0613708-18.881237,0.0974731-22.4197006,8.0504456c-3.1353416,7.0468445-3.105257,20.2019043-3.0450897,46.4097595
			l0.0138378,6.1503601l4.2370129-4.4584351c7.5528564-7.9469604,13.0521889-7.9649963,17.4703026-7.9806519h0.1805038
			c21.5587006-0.0733948,120.4395599-0.0758057,131.6434021-0.0758057c8.6491089,0,15.2898254-4.2189636,17.7633209-11.2874756
			C204.4696655,461.1907349,207.6693878,441.7384949,171.3731995,412.7833862z M197.9721527,464.8344727
			c-1.7767487,5.0757751-6.5552673,7.9866638-13.111145,7.9866638c-3.7398071,0-17.2527313,0.0003052-34.3930817,0.0033875
			c1.3504639-2.2319946,2.5626221-5.3319702,2.6251221-9.3329773c0.1799011-11.5666504-9.1027832-24.7385864-27.5917282-39.1487427
			c-1.3483582-1.0517273-3.5318451-2.8206787-6.422905-5.1611938
			c-11.6159821-9.4066162-35.7865677-28.9803772-62.7567558-47.9981995l-1.4777184-1.0415039
			c-16.051548-11.3097534-17.280777-12.3614807-17.792202-20.5154114
			c-0.6522179-10.4011841-0.8351288-17.3120422-0.6125069-23.1080017
			c0.4119225-10.705719,8.2456856-13.0076599,11.8601875-13.4992371c-0.0424919,0.15802-0.0861893,0.3151855-0.1160469,0.4819336
			c-0.4861565,2.7147827,0.9687004,5.5198059,4.3230515,8.3374329
			c7.9734268,6.697876,104.3916321,85.7017212,115.7934113,94.7978821
			C195.1250153,438.0369873,201.2164001,455.565033,197.9721527,464.8344727z M53.0214577,472.8981628
			c-4.0113831,0.0120239-9.7405548,0.0312805-16.788002,5.6076355c-0.0336914-21.1886597,0.1353798-33.1885376,2.6305351-38.7973633
			c2.1425743-4.8146057,6.0167732-5.0637207,17.943222-5.1250916c29.6765366-0.1559753,67.5887527,0.0419006,73.3677139,0.0748291
			c14.7221375,13.2281799,18.0347443,22.7279358,17.9909821,28.6287842
			c-0.0401611,5.4121094-2.8549652,8.5330811-3.9424896,9.5387878c-33.6367035,0.0071411-77.5089874,0.025177-91.023262,0.071228
			L53.0214577,472.8981628z M215.3865051,312.8868713l-43.1009064,50.3616028
			c-0.6100922-2.7388306-1.8549652-5.9836731-4.3735962-8.6515198c-3.1985168-3.3886414-7.6852264-5.0901794-13.3223419-5.0733337
			l-60.3684158,0.2358398c-19.3447571-15.8605652-35.4812164-29.1211548-38.5451851-31.6945496
			c-2.1094818-1.772522-2.74786-3.0679321-2.641964-3.6888733c0.1001778-0.5856018,0.9495201-1.1810913,1.5682716-1.4891663
			H215.3865051z"/>
	</g>
</g>
</svg>
