<?xml version="1.0" encoding="utf-8"?>
<!-- Generator: Adobe Illustrator 24.3.0, SVG Export Plug-In . SVG Version: 6.00 Build 0)  -->
<svg version="1.1" id="Layer_1" xmlns="http://www.w3.org/2000/svg" xmlns:xlink="http://www.w3.org/1999/xlink" x="0px" y="0px"
	 viewBox="0 0 800 800" style="enable-background:new 0 0 800 800;" xml:space="preserve">
<style type="text/css">
	.st0{clip-path:url(#SVGID_2_);fill-rule:evenodd;clip-rule:evenodd;fill:#FFFFFF;}
</style>
<g>
	<g>
		<defs>
			<rect id="SVGID_1_" x="-100" y="-100" width="1000" height="1000"/>
		</defs>
		<clipPath id="SVGID_2_">
			<use xlink:href="#SVGID_1_"  style="overflow:visible;"/>
		</clipPath>
		<path class="st0" d="M668.6,316.5c0-1.8-0.3-8.7-0.3-11.4c0.4-20.9-5.1-49.5-8-63.7c-6.8-27-14.8-50.5-27.7-70.9
			c-4.3-6.9-18-23.3-21.1-23.9c-0.1,0-0.2,0.1-0.2,0.2c-2,16.5-4,33-6.1,49.5c-0.4,4-0.9,8.1-1.3,12.1c-1.9,14.1-3.8,28.2-5.7,42.3
			c-1.3,8-2.3,16.3-3.6,23c-0.5,2.8-1.1,5.7-1.7,8.5l0,0c0.2,7.2,9.9,13.5,4.8,19.4c-5.2,4.2-9.4,9.3-12.6,13.9
			c-1.8,2.9-3.6,5.8-5.4,8.7c0.2-20.8,0.4-40-2-56.5c-2.9-17.5-9.8-36.3-3.1-49c2.9-13.8-1-33.7-4.2-44.3
			c-10.1-32.8-22.1-62.5-39.8-87.6c-9-12.1-13.6-18.5-23.8-24.4c-0.2,1.8-2.6,24-4,35.9c-1.7,15.5-3.3,31.1-5.1,46.5
			c-3,21.6-3.3,43-2.5,51.4c1.1,6.8,6.4,5.2-2.2,17c-9,10.6-18.1,28.2-22.7,42.3c-4.6-31.9-16.5-49.8-20.9-56.4
			c-3.5-5.4,1.1-15.5,1.9-19.6c2.8-16.3-2.3-35.8-3.6-42.1c-9-42.9-16.9-85.5-38.4-116.1c-3-3.9-5.7-6.9-9.6-10.9
			c-3.9,4-6.6,7-9.6,10.9C369,51.7,361.1,94.5,352,137.3c-1.3,6.3-6.4,26-3.6,42.1c0.9,4.1,5.5,14.3,1.9,19.6
			c-4.4,6.5-16.3,24.5-20.9,56.4c-4.6-14.1-13.7-31.8-22.7-42.3c-8.6-11.7-3.3-10.2-2.2-17c0.9-8.3,0.6-29.8-2.5-51.4
			c-1.7-15.5-3.3-31.1-5.1-46.5c-1.3-11.9-3.8-34.1-4-35.9c-10.1,5.9-14.8,12.3-23.8,24.4c-17.8,25-29.7,54.6-39.8,87.6
			c-3.3,10.6-7.2,30.6-4.2,44.3c6.7,12.8-0.1,31.5-3.1,49c-2.3,16.5-2.1,35.7-2,56.5c-1.8-2.9-3.6-5.8-5.4-8.7
			c-3.3-4.6-7.5-9.8-12.6-13.9c-5.2-5.9,4.6-12.1,4.8-19.4l0,0c-0.5-2.8-1.1-5.7-1.7-8.5c-1.3-6.6-2.3-15-3.6-23
			c-1.9-14.1-3.8-28.2-5.7-42.3c-0.4-4-0.9-8.1-1.3-12.1c-2-16.5-4-33-6.1-49.5c0-0.1,0-0.2-0.2-0.2c-3.1,0.6-16.8,17.1-21.1,23.9
			c-12.8,20.4-20.9,43.9-27.7,70.9c-2.9,14.3-8.4,42.8-8,63.8c0,2.7-0.2,9.7-0.3,11.4c-0.3,13.6-4.4,35-2,60.6
			c0.9,8,0.8,9.2,3.4,20.2c3.6,14.7,7.4,25.7,15.2,35.9c0.5,0.7,0.7,1.1,1.2,2c4.8,8.4,2.7,25.4-0.2,30.4c-0.3,0.5-0.7,1.3-1.1,1.8
			c-2.4,3.2-3,8.7-3,14.8c0,3.2,6.6,64.8,10.9,81.8c2.4,11.9,14.7,69.3,58.2,131.2c9.6,13.6,23.8,29.7,37.7,39.1
			c12.4,8.4,29.7,13.3,50.4,13.3c11.6,0,22.4,0.1,30-3.4c2.3,2.3,0.4,14.9,1.1,19.4c1.3,9.1,2.6,12.8,8.4,17.2
			c7.9,6.1,16.5,5.6,28.9,7.6c6.9,1.1,29.3,1.1,29.3,1.1c0.1,0,0.5,0,0.6,0c11,0.1,22.4-0.2,29.3-1.1c12.3-1.8,20.9-1.5,28.9-7.6
			c5.8-4.5,7-8.2,8.4-17.2c0.7-4.5-1.1-17.1,1.1-19.4c7.7,3.5,18.3,3.4,30,3.4c20.6,0,37.9-4.9,50.4-13.3
			c13.8-9.2,28.1-25.4,37.7-39.1c43.5-61.9,55.8-119.3,58.2-131.2c4.3-17.1,10.9-78.7,10.9-81.8c0-6.1-0.6-11.5-3-14.8
			c-0.4-0.5-0.9-1.3-1.1-1.8c-2.9-4.9-5-22-0.2-30.4c0.4-0.9,0.7-1.3,1.2-2c7.8-10.2,11.6-21.3,15.2-35.9c2.7-11,2.6-12.2,3.4-20.2
			C672.9,351.4,668.9,330,668.6,316.5 M250.3,182.2c7.7-27.6,16.7-52.1,28.3-75.2c1.2,1.4,5.3,72.1,4.2,79c-1.3,0.7-3.8,0.4-5.3,1
			c-3.7,1.3-7.3,3.4-10.3,5.5c-8,5.6-14,13.6-21.6,19h-0.1C244.4,209.4,248.5,188.7,250.3,182.2 M274.7,226.6
			c20.8-1.4,39.9,32.2,42.9,75c2.9,42.9-11.6,78.7-32.3,80.1c-20.8,1.4-39.9-32.2-42.9-75C239.5,263.9,253.9,228,274.7,226.6
			 M148,298.1c1.9-23.7,7.8-79.5,28.8-113.3c0.7,20.5,9.8,94.9,9.8,95.6C173.9,281.6,156.2,286.4,148,298.1 M149.9,382
			c-6.7-45,10.7-61.3,15.9-64.3c6.7-4.8,20.8-6.6,36.8,25.7c17.4,40.9,12.1,73.6-8,83.3C170.8,434.9,155.4,408.8,149.9,382
			 M324.5,719.7c-3.5,2.9-12.1,6.7-19.6,6.8c-6.5-0.3-28.4-1.4-36.8-6.8c-9.4-5.4-28.4-23.5-45.3-51.5
			c-18.7-28.7-33.9-67.1-42.9-101.1c-2.7-10.3-12.8-62.4-12.2-79c0-4,1.3-6.5,3.7-8c32.5-17.3,86.1-42.1,129.9-47.2
			c20.9,0.4,25.5,11.9,30.6,22.1c11.7,23.3,8.3,60.5,3.7,82.1c-2.7,13-12.6,22-18.4,26.9c-5,4.1-3.8,8.6,0.6,11
			c3.6,2.4,21.8,11.9,27.5,58.3C349.7,691.5,337.8,707.9,324.5,719.7 M399.2,44.4l0.9-2.1l0.9,2.1c0,0,24.6,66.8,29.3,124.4
			c0,0.6-0.4,1.1-1,0.8c-29-7.5-30-7.4-57.7-0.2c-1,0.4-1.6-0.4-1.5-1.1C374.8,110.8,399.2,44.4,399.2,44.4 M399.7,195.3
			c26.9,0,46.7,37.4,46.7,81.9s-15,87.6-46.7,87.6S353,321.9,353,277.2S372.8,195.3,399.7,195.3 M444.6,447.6
			c-0.9,1.1-6,2.4-6.2,15.9c-0.1,2-0.3,5.9-0.3,5.9l-1.5,104.4v20.2l1.5,104.4c0,0,0.2,3.9,0.3,5.9c0.1,13.6,5.2,14.9,6.2,15.9
			c2.4,1.4,2.6,3.9,2.5,6.2c0.2,4.3,0,28.5-0.6,36.8c0,1.8-0.8,2.6-4.9,3.2c-10.5,1.2-33.3,2.7-41.6,2.6c-8.4,0.3-31.1-1.3-41.6-2.6
			c-4.1-0.6-4.9-1.2-4.9-3.2c-0.6-8.3-0.8-32.4-0.6-36.8c-0.1-2.3,0.1-4.7,2.5-6.2c0.9-1.1,6-2.4,6.2-15.9c0.1-2,0.3-5.9,0.3-5.9
			l1.5-104.4v-20.2l-1.5-104.4c0,0-0.2-3.9-0.3-5.9c-0.1-13.6-5.2-14.9-6.2-15.9c-2.4-1.4-2.6-3.9-2.5-6.2c-0.2-4.3,0-28.5,0.6-36.8
			c0-1.8,0.8-2.6,4.9-3.2c10.5-1.2,33.3-2.7,41.6-2.6c8.4-0.3,31.1,1.3,41.6,2.6c4.1,0.6,4.9,1.2,4.9,3.2c0.6,8.3,0.8,32.4,0.6,36.8
			C447.2,443.7,447,446.2,444.6,447.6 M520.5,107.1c11.7,23.1,20.8,47.5,28.3,75.2c1.8,6.5,5.9,27.1,4.8,29.3h-0.2
			c-7.7-5.5-13.6-13.4-21.6-19c-3-2.1-6.6-4.3-10.3-5.5c-1.5-0.5-4-0.4-5.3-1C515.2,179,519.2,108.5,520.5,107.1 M482.8,301.5
			c2.9-42.9,22.1-76.4,42.9-75c20.8,1.4,35.2,37.2,32.3,80.1s-22.1,76.4-42.9,75C494.5,380.2,479.9,344.4,482.8,301.5 M624.7,550.5
			c-0.4,3.7-2.7,4.5-5.5,3.6c-23.3-5.3-57-12.9-58.8-13.4c-2.7-0.8-6.5-1.8-6.2-7.4c0.4-5.5,0.4-7.4,1.2-25.7
			c0.8-18.4-25-24.5-25.7-6.2c-0.8,18.4-4.8,144.7-5.5,165.4c-0.8,15.2,23.8,17.6,25.7,1.2c1.1-12.8,1.8-31.9,1.8-38.6
			c-0.3-4.4-2.4-4.6-5.5-4.9c-3.3-0.3-4.3,0.1-4.2-2.3c0.2-8.4,0.9-37.6,1.5-50.3c-0.2-3.2,0.9-4.9,4.8-4.3
			c15.5,0.6,42,4.8,63.2,8.5c4.1,0.7,7.2,1.7,4.7,7.1c-9.2,29.6-22.4,60.6-38.2,84.7c-16.9,28-36,46.1-45.3,51.5
			c-8.4,5.4-29.7,7.2-36.8,6.8c-7.4-0.1-16.1-3.9-19.6-6.8c-13.4-11.8-20.9-37-21.5-83.9c-1.4-74.2-0.9-145.5,14.7-180.7
			c4.6-10.5,9.2-21.6,30-22.1c43.9,5.1,97.5,29.8,129.9,47.2c2.4,1.5,3.7,4,3.7,8C633.7,500.1,628.6,530.7,624.7,550.5 M649.2,382
			c-5.5,26.7-20.9,52.9-44.7,44.7c-20.1-9.7-25.4-42.5-8-83.3c16-32.3,30.1-30.5,36.8-25.7C638.5,320.6,655.9,337.1,649.2,382
			 M612.5,280.3c0.1-0.6,9.2-75.1,9.8-95.6c20.9,34,26.9,89.7,28.8,113.3C642.9,286.4,625.2,281.6,612.5,280.3 M263.8,602.6
			c-1.8-0.4-12.5-0.3-14.1,0c-3.3,0.1-3.2,3-3.1,6.2c-0.3,6,0.4,42.8,0.6,45.3c0,3.6-0.2,10,4.3,9.8c2.5,0.4,9.8,1.1,14.7,0
			C277.7,662,278.7,607.4,263.8,602.6 M249.1,551.2c2.1-0.1,8.7-0.3,12.2-1.8c8.9-2,10.8-51.9-1.2-50.9c-4.4,0.1-13.1,0.4-14.7,0.6
			c-3.3,0.1-3.2,3-3.1,6.2c0.1,5.5,1,37.8,1.2,40.5C243.6,549.2,244.7,551.4,249.1,551.2"/>
	</g>
</g>
</svg>
