<?xml version="1.0" encoding="utf-8"?>
<!-- Generator: Adobe Illustrator 21.0.2, SVG Export Plug-In . SVG Version: 6.00 Build 0)  -->
<svg version="1.1" id="Layer_1" xmlns="http://www.w3.org/2000/svg" xmlns:xlink="http://www.w3.org/1999/xlink" x="0px" y="0px"
	 viewBox="0 0 372.302 372.302" style="enable-background:new 0 0 372.302 372.302;" xml:space="preserve">
<style type="text/css">
	.st0{fill:#FFFFFF;}
	.st1{fill:#111820;}
	.st2{fill:#FF5000;}
</style>
<g>
	<path class="st0" d="M372.298,46.662C339.628,27.299,305.408,12.935,269.35,4.513v0.032l-22.242,41.661
		c-2.073-0.345-4.118-0.66-6.129-0.947c-0.607-1.301-1.32-2.444-2.148-3.451c-9.901-12.015-39.337-11.389-50.177-5.998
		c-3.458,1.723-7.127,4.69-10.934,8.84c-16.3,2.189-31.993,6.304-46.788,12.272L102.954,4.513
		C66.895,12.935,32.677,27.299,0.004,46.662l45.663,78.768c-3.822,4.358-10.161,14.411-13.721,21.35
		c1.94,3.625,5.62,7.32,9.378,9.743c-12.866,16.932-30.381,48.619-39.108,70.237c40.314,43.628,71.09,65.665,126.219,41.448
		l57.725,99.581L372.279,46.725L372.298,46.662z"/>
	<path class="st1" d="M41.713,146.044c1.94,2.343,5.775,5.676,11.303,8.101c-14.615,18.973-31.17,47.796-41.29,70.854
		c44.563,44.917,66.781,57.532,120.045,33.016l54.389,93.821L361.346,49.634c-27.194-15.683-56.7-27.826-87.883-35.802
		L251.447,55.07c-5.528-1.031-11.048-1.904-16.542-2.568c-0.474-2.388-1.207-4.351-2.264-5.633
		c-6.714-8.15-31.427-8.392-40.407-3.923c-3.243,1.614-6.922,4.992-10.486,9.235c-18.9,2.244-37.166,7.17-54.428,14.96L98.842,13.8
		c-31.189,7.968-60.702,20.103-87.9,35.777l44.269,76.365C50.496,132.216,45.99,138.91,41.713,146.044"/>
	<path class="st2" d="M111.057,136.443c2.272,2.499,24.45,7.19,23.515-10.27C125.693,126.857,117.042,131.042,111.057,136.443"/>
	<path class="st0" d="M150.896,211.387l2.306-13.352l15.382,0.671l-4.619-17.858c-27.952,16.531-34.212,48.134-40.107,60.496
		c13.839-12.375,35.969-25.978,65.725-30.936c-2.212-9.895-7.451-20.208-12.836-27.029l1.528,23.142l-18.885,0.463l-3.936,8.287
		l-11.556,1.048l-6.467,9.211l3.721-12.019L150.896,211.387z"/>
	<path class="st2" d="M90.749,71.211c1.627-4.086,8.094-10.731,19.387-13.541L93.392,26.307
		c-23.494,6.63-46.207,15.785-67.744,27.307l36.188,62.426c7.256-8.047,16.383-16.902,27.447-25.423
		C88.271,83.863,88.423,77.05,90.749,71.211 M262.101,57.829l16.81-31.487c23.487,6.637,46.199,15.803,67.731,27.331l-20.623,35.575
		c-10.276-6.521-24.969-12.677-37.837-16.988l3.35-5.781C283.516,63.389,273.514,60.423,262.101,57.829"/>
	<path class="st0" d="M196.841,85.835c-5.653-1.286-11.333-2.216-16.87-2.789c6.557-12.484,23.442-23.504,31.974-20.981
		C207.366,64.601,199.056,74.444,196.841,85.835 M272.36,78.648l3.408-5.88c-14.165-4.384-27.612-7.348-40.357-9.115
		c-0.487,7.805-2.377,16.692-5.286,23.753c8.892,6.178,18.45,18.336,20.527,29.189c-7.378-10.986-20.458-19.425-35.365-25.17
		c5.738-10.821,10.589-31.071,6.851-36.443c-3.224-4.63-18.152-5.25-26.077-1.981c-8.499,3.509-19.802,16.24-30.201,29.174
		c0.877-4.999,3.653-11.425,7.29-17.678c-68.378,12.324-106.474,60.248-118.553,77.851c2.345,1.404,5.082,2.412,8.105,3.022
		c2.159-7.689,15.59-19.166,21.676-23.217c-5.16,6.103-10.729,18.561-9.728,23.691c23.264-0.223,36.863-29.922,73.885-26.932
		l-6.637,4.412c1.464,6.894-0.236,19.811-16.932,22.338c4.675,1.284,8.667,3.288,11.601,6.266
		c-35.196-7.635-51.032,7.871-72.85,4.538c-16.501,22.872-27.689,41.193-39.691,65.504c9.717-5.179,32.355-6.289,44.767-1.659
		l0.626,11.35c-11.931,3.303-13.749,18.443,4.722,25.142c12.086,4.382,34.876,4.755,43.513-21.73
		c7.771-23.824,23.138-60.874,63.508-74.462l-4.78,8.93c11.713,10.375,22.748,30.844,25.299,49.864
		c-29.995,0.602-57.257,12.898-77.821,33.38c21.007-12.075,41.401-18.126,67.752-18.814c33.314-0.87,42.089-21.179,32.418-48.67
		c12.499,9.599,16.161,29.149,7.925,43.234c-6.437,11.012-20.212,16.233-38.094,15.82c-20.381-0.472-38.308,2.819-50.672,7.816
		l21.552,37.174l6.999-12.073l22.626,39.082L320.661,98.489C308.685,90.78,287.955,82.703,272.36,78.648"/>
</g>
</svg>
